<svg version="1.1" id="Layer_1" xmlns="http://www.w3.org/2000/svg" xmlns:xlink="http://www.w3.org/1999/xlink" x="0px" y="0px" viewBox="0 0 500 500" style="width: 144px;" xml:space="preserve" data-imageid="augmented-reality-1-41" imageName="Augmented Reality 1" class="illustrations_image">
<style type="text/css">
	.st0_augmented-reality-1-41{fill:#FFFFFF;}
	.st1_augmented-reality-1-41{fill:#231F20;}
	.st2_augmented-reality-1-41{fill:#D1D3D4;}
	.st3_augmented-reality-1-41{fill:#68E1FD;}
</style>
<g id="Sky_augmented-reality-1-41">
	<rect x="17.2" y="87.7" class="st0_augmented-reality-1-41" width="465.5" height="324.7"/>
	<path class="st1_augmented-reality-1-41" d="M482.8,413H17.2c-0.4,0-0.7-0.3-0.7-0.7l0,0V87.7c0-0.4,0.3-0.7,0.7-0.7h465.5c0.4,0,0.7,0.3,0.7,0.7v0v324.7&#10;&#9;&#9;C483.4,412.7,483.1,413,482.8,413z M17.9,411.6h464.1V88.4H17.9L17.9,411.6z"/>
</g>
<g id="Buildings_augmented-reality-1-41">
	<rect x="86.6" y="188.3" class="st0_augmented-reality-1-41" width="76.5" height="20.6"/>
	<path class="st2_augmented-reality-1-41" d="M163.1,209.6H86.6c-0.4,0-0.7-0.3-0.7-0.7v-20.7c0-0.4,0.3-0.7,0.7-0.7h76.5c0.4,0,0.7,0.3,0.7,0.7v20.6&#10;&#9;&#9;C163.8,209.3,163.5,209.6,163.1,209.6C163.1,209.6,163.1,209.6,163.1,209.6z M87.3,208.2h75.1V189H87.3L87.3,208.2z"/>
	<rect x="74.8" y="208.9" class="st0_augmented-reality-1-41" width="95.1" height="203.4"/>
	<path class="st2_augmented-reality-1-41" d="M169.8,413H74.8c-0.4,0-0.7-0.3-0.7-0.7l0,0V208.9c0-0.4,0.3-0.7,0.7-0.7h95.1c0.4,0,0.7,0.3,0.7,0.7v203.4&#10;&#9;&#9;C170.5,412.7,170.2,413,169.8,413z M75.5,411.6h93.7v-202H75.5L75.5,411.6z"/>
	<path class="st2_augmented-reality-1-41" d="M159.7,220.2H85c-0.4,0-0.7-0.3-0.7-0.7c0-0.4,0.3-0.7,0.7-0.7h74.7c0.4,0,0.7,0.3,0.7,0.7&#10;&#9;&#9;C160.4,219.9,160.1,220.2,159.7,220.2L159.7,220.2z"/>
	<path class="st2_augmented-reality-1-41" d="M159.7,233.2H85c-0.4,0-0.7-0.3-0.7-0.7c0-0.4,0.3-0.7,0.7-0.7c0,0,0,0,0,0h74.7c0.4,0,0.7,0.3,0.7,0.7&#10;&#9;&#9;C160.4,232.9,160.1,233.2,159.7,233.2L159.7,233.2z"/>
	<path class="st2_augmented-reality-1-41" d="M159.7,246.3H85c-0.4,0-0.7-0.3-0.7-0.7c0-0.4,0.3-0.7,0.7-0.7h74.7c0.4,0,0.7,0.3,0.7,0.7&#10;&#9;&#9;C160.4,246,160.1,246.3,159.7,246.3L159.7,246.3z"/>
	<path class="st2_augmented-reality-1-41" d="M159.7,259.3H85c-0.4,0-0.7-0.3-0.7-0.7c0-0.4,0.3-0.7,0.7-0.7c0,0,0,0,0,0h74.7c0.4,0,0.7,0.3,0.7,0.7&#10;&#9;&#9;C160.4,259,160.1,259.3,159.7,259.3L159.7,259.3z"/>
	<path class="st2_augmented-reality-1-41" d="M159.7,272.3H85c-0.4,0-0.7-0.3-0.7-0.7c0-0.4,0.3-0.7,0.7-0.7h74.7c0.4,0,0.7,0.3,0.7,0.7&#10;&#9;&#9;C160.4,272,160.1,272.3,159.7,272.3C159.7,272.3,159.7,272.3,159.7,272.3L159.7,272.3z"/>
	<path class="st2_augmented-reality-1-41" d="M159.7,285.3H85c-0.4,0-0.7-0.3-0.7-0.7c0-0.4,0.3-0.7,0.7-0.7h74.7c0.4,0,0.7,0.3,0.7,0.7&#10;&#9;&#9;C160.4,285,160.1,285.3,159.7,285.3L159.7,285.3z"/>
	<path class="st2_augmented-reality-1-41" d="M159.7,298.3H85c-0.4,0-0.7-0.3-0.7-0.7c0-0.4,0.3-0.7,0.7-0.7h74.7c0.4,0,0.7,0.3,0.7,0.7&#10;&#9;&#9;C160.4,298,160.1,298.3,159.7,298.3L159.7,298.3z"/>
	<path class="st2_augmented-reality-1-41" d="M159.7,311.3H85c-0.4,0-0.7-0.3-0.7-0.7c0-0.4,0.3-0.7,0.7-0.7h74.7c0.4,0,0.7,0.3,0.7,0.7&#10;&#9;&#9;C160.4,311,160.1,311.3,159.7,311.3L159.7,311.3z"/>
	<path class="st2_augmented-reality-1-41" d="M159.7,324.4H85c-0.4,0-0.7-0.3-0.7-0.7c0-0.4,0.3-0.7,0.7-0.7h74.7c0.4,0,0.7,0.3,0.7,0.7&#10;&#9;&#9;C160.4,324,160.1,324.4,159.7,324.4C159.7,324.4,159.7,324.4,159.7,324.4L159.7,324.4z"/>
	<path class="st2_augmented-reality-1-41" d="M159.7,337.4H85c-0.4,0-0.7-0.3-0.7-0.7c0-0.4,0.3-0.7,0.7-0.7c0,0,0,0,0,0h74.7c0.4,0,0.7,0.3,0.7,0.7&#10;&#9;&#9;C160.4,337.1,160.1,337.4,159.7,337.4L159.7,337.4z"/>
	<path class="st2_augmented-reality-1-41" d="M159.7,350.4H85c-0.4,0-0.7-0.3-0.7-0.7c0-0.4,0.3-0.7,0.7-0.7c0,0,0,0,0,0h74.7c0.4,0,0.7,0.3,0.7,0.7&#10;&#9;&#9;C160.4,350.1,160.1,350.4,159.7,350.4L159.7,350.4z"/>
	<path class="st2_augmented-reality-1-41" d="M159.7,363.4H85c-0.4,0-0.7-0.3-0.7-0.7c0-0.4,0.3-0.7,0.7-0.7c0,0,0,0,0,0h74.7c0.4,0,0.7,0.3,0.7,0.7&#10;&#9;&#9;C160.4,363.1,160.1,363.4,159.7,363.4C159.7,363.4,159.7,363.4,159.7,363.4L159.7,363.4z"/>
	<path class="st2_augmented-reality-1-41" d="M159.7,376.4H85c-0.4,0-0.7-0.3-0.7-0.7c0-0.4,0.3-0.7,0.7-0.7c0,0,0,0,0,0h74.7c0.4,0,0.7,0.3,0.7,0.7&#10;&#9;&#9;C160.4,376.1,160.1,376.4,159.7,376.4L159.7,376.4z"/>
	<path class="st2_augmented-reality-1-41" d="M159.7,389.4H85c-0.4,0-0.7-0.3-0.7-0.7c0-0.4,0.3-0.7,0.7-0.7c0,0,0,0,0,0h74.7c0.4,0,0.7,0.3,0.7,0.7&#10;&#9;&#9;C160.4,389.1,160.1,389.4,159.7,389.4L159.7,389.4z"/>
	<path class="st2_augmented-reality-1-41" d="M159.7,402.5H85c-0.4,0-0.7-0.3-0.7-0.7c0-0.4,0.3-0.7,0.7-0.7h74.7c0.4,0,0.7,0.3,0.7,0.7&#10;&#9;&#9;C160.4,402.1,160.1,402.4,159.7,402.5C159.7,402.5,159.7,402.5,159.7,402.5L159.7,402.5z"/>
	<rect x="365.1" y="233.8" class="st0_augmented-reality-1-41" width="61.1" height="178.5"/>
	<path class="st2_augmented-reality-1-41" d="M426.2,413h-61.1c-0.4,0-0.7-0.3-0.7-0.7v0V233.8c0-0.4,0.3-0.7,0.7-0.7l0,0h61.1c0.4,0,0.7,0.3,0.7,0.7&#10;&#9;&#9;c0,0,0,0,0,0v178.5C426.8,412.7,426.5,413,426.2,413z M365.8,411.6h59.7V234.5h-59.7V411.6z"/>
	<polygon class="st0_augmented-reality-1-41" points="452.2,208.9 482.8,188.3 482.8,412.3 452.2,412.3 &#9;"/>
	<path class="st2_augmented-reality-1-41" d="M482.8,413h-30.5c-0.4,0-0.7-0.3-0.7-0.7v0V208.9c0-0.2,0.1-0.4,0.3-0.6l30.5-20.6c0.2-0.1,0.5-0.1,0.7,0&#10;&#9;&#9;c0.2,0.1,0.4,0.4,0.4,0.6v224C483.4,412.7,483.1,413,482.8,413z M452.9,411.6h29.1v-222l-29.1,19.7L452.9,411.6z"/>
	<path class="st2_augmented-reality-1-41" d="M380.6,400.9c-0.4,0-0.7-0.3-0.7-0.7v0V251.9c0-0.4,0.3-0.7,0.7-0.7c0.4,0,0.7,0.3,0.7,0.7v148.3&#10;&#9;&#9;C381.3,400.6,380.9,400.9,380.6,400.9z"/>
	<path class="st2_augmented-reality-1-41" d="M392.2,400.9c-0.4,0-0.7-0.3-0.7-0.7v0V251.9c0-0.4,0.3-0.7,0.7-0.7c0.4,0,0.7,0.3,0.7,0.7v148.3&#10;&#9;&#9;C392.9,400.6,392.6,400.9,392.2,400.9z"/>
	<path class="st2_augmented-reality-1-41" d="M403.9,400.9c-0.4,0-0.7-0.3-0.7-0.7V251.9c0-0.4,0.3-0.7,0.7-0.7c0.4,0,0.7,0.3,0.7,0.7c0,0,0,0,0,0v148.3&#10;&#9;&#9;C404.6,400.6,404.3,400.9,403.9,400.9z"/>
	<polygon class="st0_augmented-reality-1-41" points="329.9,135.3 296.1,135.3 272.3,201.8 272.3,412.3 353.7,412.3 353.7,201.8 &#9;"/>
	<path class="st2_augmented-reality-1-41" d="M353.7,413h-81.4c-0.4,0-0.7-0.3-0.7-0.7v0V201.8c0-0.1,0-0.2,0-0.2l23.8-66.4c0.1-0.3,0.4-0.5,0.7-0.5h33.7&#10;&#9;&#9;c0.3,0,0.6,0.2,0.7,0.5l23.8,66.4c0,0.1,0,0.2,0,0.2v210.6C354.3,412.7,354,413,353.7,413z M273,411.6h80V201.9L329.4,136h-32.7&#10;&#9;&#9;L273,201.9V411.6z"/>
	<path class="st2_augmented-reality-1-41" d="M341.8,205.4h-57.9c-0.4,0-0.7-0.3-0.7-0.7s0.3-0.7,0.7-0.7c0,0,0,0,0,0h57.9c0.4,0,0.7,0.3,0.7,0.7&#10;&#9;&#9;C342.5,205.1,342.2,205.4,341.8,205.4z"/>
	<path class="st2_augmented-reality-1-41" d="M341.8,219.4h-57.9c-0.4,0-0.7-0.3-0.7-0.7c0-0.4,0.3-0.7,0.7-0.7h57.9c0.4,0,0.7,0.3,0.7,0.7&#10;&#9;&#9;C342.5,219.1,342.2,219.4,341.8,219.4z"/>
	<path class="st2_augmented-reality-1-41" d="M341.8,233.5h-57.9c-0.4,0-0.7-0.3-0.7-0.7s0.3-0.7,0.7-0.7c0,0,0,0,0,0h57.9c0.4,0,0.7,0.3,0.7,0.7&#10;&#9;&#9;C342.5,233.2,342.2,233.5,341.8,233.5z"/>
	<path class="st2_augmented-reality-1-41" d="M341.8,247.6h-57.9c-0.4,0-0.7-0.3-0.7-0.7c0-0.4,0.3-0.7,0.7-0.7h57.9c0.4,0,0.7,0.3,0.7,0.7&#10;&#9;&#9;S342.2,247.6,341.8,247.6C341.8,247.6,341.8,247.6,341.8,247.6z"/>
	<path class="st2_augmented-reality-1-41" d="M341.8,261.7h-57.9c-0.4,0-0.7-0.3-0.7-0.7s0.3-0.7,0.7-0.7c0,0,0,0,0,0h57.9c0.4,0,0.7,0.3,0.7,0.7&#10;&#9;&#9;S342.2,261.7,341.8,261.7C341.8,261.7,341.8,261.7,341.8,261.7z"/>
	<path class="st2_augmented-reality-1-41" d="M341.8,275.7h-57.9c-0.4,0-0.7-0.3-0.7-0.7s0.3-0.7,0.7-0.7c0,0,0,0,0,0h57.9c0.4,0,0.7,0.3,0.7,0.7&#10;&#9;&#9;S342.2,275.7,341.8,275.7C341.8,275.7,341.8,275.7,341.8,275.7z"/>
	<path class="st2_augmented-reality-1-41" d="M341.8,289.8h-57.9c-0.4,0-0.7-0.3-0.7-0.7s0.3-0.7,0.7-0.7c0,0,0,0,0,0h57.9c0.4,0,0.7,0.3,0.7,0.7&#10;&#9;&#9;S342.2,289.8,341.8,289.8C341.8,289.8,341.8,289.8,341.8,289.8z"/>
	<path class="st2_augmented-reality-1-41" d="M341.8,303.9h-57.9c-0.4,0-0.7-0.3-0.7-0.7s0.3-0.7,0.7-0.7c0,0,0,0,0,0h57.9c0.4,0,0.7,0.3,0.7,0.7&#10;&#9;&#9;C342.5,303.6,342.2,303.9,341.8,303.9z"/>
	<path class="st2_augmented-reality-1-41" d="M341.8,318h-57.9c-0.4,0-0.7-0.3-0.7-0.7s0.3-0.7,0.7-0.7c0,0,0,0,0,0h57.9c0.4,0,0.7,0.3,0.7,0.7&#10;&#9;&#9;C342.5,317.7,342.2,318,341.8,318z"/>
	<path class="st2_augmented-reality-1-41" d="M341.8,332h-57.9c-0.4,0-0.7-0.3-0.7-0.7s0.3-0.7,0.7-0.7c0,0,0,0,0,0h57.9c0.4,0,0.7,0.3,0.7,0.7&#10;&#9;&#9;C342.5,331.7,342.2,332,341.8,332z"/>
	<path class="st2_augmented-reality-1-41" d="M341.8,346.1h-57.9c-0.4,0-0.7-0.3-0.7-0.7s0.3-0.7,0.7-0.7c0,0,0,0,0,0h57.9c0.4,0,0.7,0.3,0.7,0.7&#10;&#9;&#9;C342.5,345.8,342.2,346.1,341.8,346.1z"/>
	<path class="st2_augmented-reality-1-41" d="M341.8,360.2h-57.9c-0.4,0-0.7-0.3-0.7-0.7s0.3-0.7,0.7-0.7c0,0,0,0,0,0h57.9c0.4,0,0.7,0.3,0.7,0.7&#10;&#9;&#9;S342.2,360.2,341.8,360.2C341.8,360.2,341.8,360.2,341.8,360.2z"/>
	<path class="st2_augmented-reality-1-41" d="M341.8,374.2h-57.9c-0.4,0-0.7-0.3-0.7-0.7s0.3-0.7,0.7-0.7c0,0,0,0,0,0h57.9c0.4,0,0.7,0.3,0.7,0.7&#10;&#9;&#9;C342.5,373.9,342.2,374.2,341.8,374.2z"/>
	<path class="st2_augmented-reality-1-41" d="M341.8,388.3h-57.9c-0.4,0-0.7-0.3-0.7-0.7s0.3-0.7,0.7-0.7c0,0,0,0,0,0h57.9c0.4,0,0.7,0.3,0.7,0.7&#10;&#9;&#9;C342.5,388,342.2,388.3,341.8,388.3z"/>
	<path class="st2_augmented-reality-1-41" d="M341.8,402.4h-57.9c-0.4,0-0.7-0.3-0.7-0.7s0.3-0.7,0.7-0.7c0,0,0,0,0,0h57.9c0.4,0,0.7,0.3,0.7,0.7&#10;&#9;&#9;C342.5,402.1,342.2,402.4,341.8,402.4z"/>
	<path class="st2_augmented-reality-1-41" d="M478.6,209.5h-20.3c-0.4,0-0.7-0.3-0.7-0.7s0.3-0.7,0.7-0.7c0,0,0,0,0,0h20.3c0.4,0,0.7,0.3,0.7,0.7&#10;&#9;&#9;C479.3,209.2,479,209.5,478.6,209.5z"/>
	<path class="st2_augmented-reality-1-41" d="M478.6,223.5h-20.3c-0.4,0-0.7-0.3-0.7-0.7s0.3-0.7,0.7-0.7c0,0,0,0,0,0h20.3c0.4,0,0.7,0.3,0.7,0.7&#10;&#9;&#9;C479.3,223.2,479,223.5,478.6,223.5z"/>
	<path class="st2_augmented-reality-1-41" d="M478.6,237.6h-20.3c-0.4,0-0.7-0.3-0.7-0.7c0-0.4,0.3-0.7,0.7-0.7h20.3c0.4,0,0.7,0.3,0.7,0.7&#10;&#9;&#9;C479.3,237.3,479,237.6,478.6,237.6z"/>
	<path class="st2_augmented-reality-1-41" d="M478.6,251.7h-20.3c-0.4,0-0.7-0.3-0.7-0.7s0.3-0.7,0.7-0.7c0,0,0,0,0,0h20.3c0.4,0,0.7,0.3,0.7,0.7&#10;&#9;&#9;C479.3,251.4,479,251.7,478.6,251.7z"/>
	<path class="st2_augmented-reality-1-41" d="M478.6,265.8h-20.3c-0.4,0-0.7-0.3-0.7-0.7s0.3-0.7,0.7-0.7c0,0,0,0,0,0h20.3c0.4,0,0.7,0.3,0.7,0.7&#10;&#9;&#9;C479.3,265.4,479,265.8,478.6,265.8z"/>
	<path class="st2_augmented-reality-1-41" d="M478.6,279.8h-20.3c-0.4,0-0.7-0.3-0.7-0.7s0.3-0.7,0.7-0.7c0,0,0,0,0,0h20.3c0.4,0,0.7,0.3,0.7,0.7&#10;&#9;&#9;C479.3,279.5,479,279.8,478.6,279.8z"/>
	<path class="st2_augmented-reality-1-41" d="M478.6,293.9h-20.3c-0.4,0-0.7-0.3-0.7-0.7s0.3-0.7,0.7-0.7c0,0,0,0,0,0h20.3c0.4,0,0.7,0.3,0.7,0.7&#10;&#9;&#9;C479.3,293.6,479,293.9,478.6,293.9z"/>
	<path class="st2_augmented-reality-1-41" d="M478.6,308h-20.3c-0.4,0-0.7-0.3-0.7-0.7s0.3-0.7,0.7-0.7c0,0,0,0,0,0h20.3c0.4,0,0.7,0.3,0.7,0.7&#10;&#9;&#9;S479,308,478.6,308C478.6,308,478.6,308,478.6,308z"/>
	<path class="st2_augmented-reality-1-41" d="M478.6,322h-20.3c-0.4,0-0.7-0.3-0.7-0.7s0.3-0.7,0.7-0.7c0,0,0,0,0,0h20.3c0.4,0,0.7,0.3,0.7,0.7&#10;&#9;&#9;S479,322,478.6,322C478.6,322,478.6,322,478.6,322z"/>
	<path class="st2_augmented-reality-1-41" d="M478.6,336.1h-20.3c-0.4,0-0.7-0.3-0.7-0.7s0.3-0.7,0.7-0.7c0,0,0,0,0,0h20.3c0.4,0,0.7,0.3,0.7,0.7&#10;&#9;&#9;C479.3,335.8,479,336.1,478.6,336.1z"/>
	<path class="st2_augmented-reality-1-41" d="M478.6,350.2h-20.3c-0.4,0-0.7-0.3-0.7-0.7s0.3-0.7,0.7-0.7c0,0,0,0,0,0h20.3c0.4,0,0.7,0.3,0.7,0.7&#10;&#9;&#9;C479.3,349.9,479,350.2,478.6,350.2z"/>
	<path class="st2_augmented-reality-1-41" d="M478.6,364.3h-20.3c-0.4,0-0.7-0.3-0.7-0.7s0.3-0.7,0.7-0.7c0,0,0,0,0,0h20.3c0.4,0,0.7,0.3,0.7,0.7&#10;&#9;&#9;C479.3,363.9,479,364.3,478.6,364.3z"/>
	<path class="st2_augmented-reality-1-41" d="M478.6,378.3h-20.3c-0.4,0-0.7-0.3-0.7-0.7s0.3-0.7,0.7-0.7c0,0,0,0,0,0h20.3c0.4,0,0.7,0.3,0.7,0.7&#10;&#9;&#9;C479.3,378,479,378.3,478.6,378.3z"/>
	<path class="st2_augmented-reality-1-41" d="M478.6,392.4h-20.3c-0.4,0-0.7-0.3-0.7-0.7s0.3-0.7,0.7-0.7c0,0,0,0,0,0h20.3c0.4,0,0.7,0.3,0.7,0.7&#10;&#9;&#9;S479,392.4,478.6,392.4C478.6,392.4,478.6,392.4,478.6,392.4z"/>
	<path class="st2_augmented-reality-1-41" d="M478.6,406.5h-20.3c-0.4,0-0.7-0.3-0.7-0.7c0-0.4,0.3-0.7,0.7-0.7h20.3c0.4,0,0.7,0.3,0.7,0.7&#10;&#9;&#9;S479,406.5,478.6,406.5C478.6,406.5,478.6,406.5,478.6,406.5z"/>
	<rect x="179.2" y="124.1" class="st0_augmented-reality-1-41" width="81.6" height="288.3"/>
	<path class="st2_augmented-reality-1-41" d="M260.7,413h-81.6c-0.4,0-0.7-0.3-0.7-0.7l0,0V124.1c0-0.4,0.3-0.7,0.7-0.7h81.6c0.4,0,0.7,0.3,0.7,0.7v0v288.3&#10;&#9;&#9;C261.4,412.7,261.1,413,260.7,413z M179.9,411.6H260V124.8h-80.1V411.6z"/>
	<path class="st2_augmented-reality-1-41" d="M193.5,402.4c-0.4,0-0.7-0.3-0.7-0.7l0,0V134.8c0-0.4,0.3-0.7,0.7-0.7c0.4,0,0.7,0.3,0.7,0.7c0,0,0,0,0,0&#10;&#9;&#9;v266.9C194.2,402,193.9,402.4,193.5,402.4C193.5,402.4,193.5,402.4,193.5,402.4z"/>
	<path class="st2_augmented-reality-1-41" d="M211.1,402.4c-0.4,0-0.7-0.3-0.7-0.7l0,0V134.8c0-0.4,0.3-0.7,0.7-0.7c0.4,0,0.7,0.3,0.7,0.7c0,0,0,0,0,0&#10;&#9;&#9;v266.9C211.8,402,211.5,402.4,211.1,402.4C211.1,402.4,211.1,402.4,211.1,402.4z"/>
	<path class="st2_augmented-reality-1-41" d="M228.8,402.4c-0.4,0-0.7-0.3-0.7-0.7l0,0V134.8c0-0.4,0.3-0.7,0.7-0.7c0.4,0,0.7,0.3,0.7,0.7v266.9&#10;&#9;&#9;C229.5,402,229.2,402.4,228.8,402.4C228.8,402.4,228.8,402.4,228.8,402.4z"/>
	<path class="st2_augmented-reality-1-41" d="M246.4,402.4c-0.4,0-0.7-0.3-0.7-0.7l0,0V134.8c0-0.4,0.3-0.7,0.7-0.7c0.4,0,0.7,0.3,0.7,0.7c0,0,0,0,0,0&#10;&#9;&#9;v266.9C247.1,402,246.8,402.4,246.4,402.4C246.4,402.4,246.4,402.4,246.4,402.4z"/>
	<rect x="185.7" y="109.4" class="st0_augmented-reality-1-41" width="52.8" height="14.6"/>
	<path class="st2_augmented-reality-1-41" d="M238.4,124.8h-52.8c-0.4,0-0.7-0.3-0.7-0.7v-14.6c0-0.4,0.3-0.7,0.7-0.7h52.8c0.4,0,0.7,0.3,0.7,0.7v14.6&#10;&#9;&#9;C239.1,124.5,238.8,124.8,238.4,124.8z M186.4,123.4h51.4v-13.2h-51.4V123.4z"/>
	<rect x="299.7" y="113.6" class="st0_augmented-reality-1-41" width="26.6" height="21.7"/>
	<path class="st2_augmented-reality-1-41" d="M326.3,136h-26.6c-0.4,0-0.7-0.3-0.7-0.7c0,0,0,0,0,0v-21.7c0-0.4,0.3-0.7,0.7-0.7l0,0h26.6&#10;&#9;&#9;c0.4,0,0.7,0.3,0.7,0.7v0v21.7C327,135.7,326.7,136,326.3,136z M300.4,134.6h25.2v-20.3h-25.2V134.6z"/>
	<path class="st2_augmented-reality-1-41" d="M333.9,177.2h-42.2c-0.4,0-0.7-0.3-0.7-0.7c0-0.4,0.3-0.7,0.7-0.7h42.2c0.4,0,0.7,0.3,0.7,0.7&#10;&#9;&#9;C334.6,176.9,334.3,177.2,333.9,177.2z"/>
	<path class="st2_augmented-reality-1-41" d="M333.9,191.3h-42.2c-0.4,0-0.7-0.3-0.7-0.7s0.3-0.7,0.7-0.7c0,0,0,0,0,0h42.2c0.4,0,0.7,0.3,0.7,0.7&#10;&#9;&#9;C334.6,191,334.3,191.3,333.9,191.3z"/>
	<rect x="17.2" y="161.4" class="st0_augmented-reality-1-41" width="42.3" height="250.9"/>
	<path class="st2_augmented-reality-1-41" d="M59.6,413H17.2c-0.4,0-0.7-0.3-0.7-0.7l0,0V161.4c0-0.4,0.3-0.7,0.7-0.7h42.3c0.4,0,0.7,0.3,0.7,0.7v250.9&#10;&#9;&#9;C60.3,412.7,60,413,59.6,413z M17.9,411.6h40.9V162.1H17.9L17.9,411.6z"/>
	<path class="st2_augmented-reality-1-41" d="M41.5,400.9c-0.4,0-0.7-0.3-0.7-0.7V171.1c0-0.4,0.3-0.7,0.7-0.7s0.7,0.3,0.7,0.7v229.1&#10;&#9;&#9;C42.2,400.6,41.9,400.9,41.5,400.9z"/>
	<path class="st2_augmented-reality-1-41" d="M32.1,400.9c-0.4,0-0.7-0.3-0.7-0.7V171.1c0-0.4,0.3-0.7,0.7-0.7s0.7,0.3,0.7,0.7v229.1&#10;&#9;&#9;C32.8,400.6,32.4,400.9,32.1,400.9z"/>
</g>
<g id="Monster_augmented-reality-1-41">
	<path class="st3_augmented-reality-1-41 targetColor" d="M295.8,274.6c0,0,49.9-2.3,43.3,9.8s-43.3,26.2-43.3,26.2V274.6z" style="fill: rgb(202, 60, 255);"/>
	<path class="st1_augmented-reality-1-41" d="M295.8,311.3c-0.1,0-0.3,0-0.4-0.1c-0.2-0.1-0.3-0.3-0.3-0.6v-36c0-0.4,0.3-0.7,0.7-0.7&#10;&#9;&#9;c0.1,0,9.8-0.4,19.9,0.1c13.8,0.7,21.9,2.8,24.1,6.2c0.8,1.4,0.8,3.2-0.1,4.5c-6.7,12.2-42.1,25.9-43.6,26.5&#10;&#9;&#9;C296,311.2,295.9,311.3,295.8,311.3z M296.5,275.3v34.3c5.8-2.3,36.1-14.8,42-25.5c0.6-0.9,0.7-2.1,0.1-3.1&#10;&#9;&#9;C334.9,275,307.6,274.8,296.5,275.3z"/>
	<path class="st3_augmented-reality-1-41 targetColor" d="M226.6,356.1c0-1.6-61.1-77.4-75.4-72.5s19.2,72.5,19.2,72.5H226.6z" style="fill: rgb(202, 60, 255);"/>
	<path class="st1_augmented-reality-1-41" d="M226.6,356.8h-56.1c-0.3,0-0.5-0.2-0.6-0.4c-1.1-2.3-27.7-56.4-22-70.3c0.5-1.5,1.7-2.6,3.2-3.2&#10;&#9;&#9;c2.8-1,7,0.6,13,4.9c21.6,15.4,63.3,66.1,63.3,68.3c0,0.2-0.1,0.4-0.2,0.5C227,356.7,226.8,356.8,226.6,356.8z M170.9,355.4h54.5&#10;&#9;&#9;c-2.9-4.2-16.6-21.3-32.2-38.2c-21.4-23.2-36.2-34.9-41.7-33c-1.1,0.4-2,1.3-2.3,2.4C143.9,299.4,168.5,350.4,170.9,355.4&#10;&#9;&#9;L170.9,355.4z"/>
	<path class="st3_augmented-reality-1-41 targetColor" d="M291.2,229.2c0,0,54.9-2.3,47.1,14.4s-40.9,21.2-40.9,21.2L291.2,229.2z" style="fill: rgb(202, 60, 255);"/>
	<path class="st1_augmented-reality-1-41" d="M297.5,265.6c-0.3,0-0.6-0.2-0.7-0.6l-6.2-35.6c0-0.2,0-0.4,0.1-0.6c0.1-0.2,0.3-0.3,0.5-0.3&#10;&#9;&#9;c1.7-0.1,40.8-1.6,47.5,8.6c1.3,2,1.4,4.6,0.2,6.8c-3.3,7.1-11.3,12.9-23.8,17.2c-5.7,2-11.6,3.5-17.6,4.4H297.5z M292.1,229.9&#10;&#9;&#9;l5.9,34.2c4.7-0.8,32.7-5.9,39.7-20.8c1-2.1,0.9-3.8-0.1-5.4C331.8,229.1,297.8,229.8,292.1,229.9L292.1,229.9z"/>
	<path class="st3_augmented-reality-1-41 targetColor" d="M273.9,195.2c0,0,37.6-19.6,43.2-8.2s-25.8,42.2-25.8,42.2S279.8,200.5,273.9,195.2z" style="fill: rgb(202, 60, 255);"/>
	<path class="st1_augmented-reality-1-41" d="M291.2,229.9h-0.1c-0.2,0-0.4-0.2-0.5-0.4c-0.1-0.3-11.5-28.7-17.1-33.7c-0.2-0.2-0.3-0.4-0.2-0.6&#10;&#9;&#9;c0-0.2,0.2-0.4,0.4-0.5c1.2-0.6,28.8-14.9,40-11.2c1.8,0.5,3.2,1.7,4.1,3.4c5.7,11.8-24.7,41.7-26,43&#10;&#9;&#9;C291.6,229.9,291.4,229.9,291.2,229.9z M275.1,195.4c5.5,6,14.4,27.6,16.4,32.6c4.7-4.7,29.8-30.7,25-40.6&#10;&#9;&#9;c-0.7-1.3-1.8-2.3-3.2-2.6C303.6,181.5,279.9,193,275.1,195.4L275.1,195.4z"/>
	<path class="st3_augmented-reality-1-41 targetColor" d="M238.2,194.6c0,0,6.6-42.2,18.1-39.6s19.6,45.4,19.6,45.4L238.2,194.6z" style="fill: rgb(202, 60, 255);"/>
	<path class="st1_augmented-reality-1-41" d="M275.9,201.2h-0.1l-37.7-5.9c-0.2,0-0.3-0.1-0.5-0.3c-0.1-0.2-0.2-0.3-0.1-0.5c0.2-1.4,5.3-33,14.4-39.2&#10;&#9;&#9;c1.3-1,2.9-1.3,4.5-1c11.8,2.7,19.8,44.2,20.1,46c0,0.2,0,0.5-0.2,0.6C276.3,201.1,276.1,201.2,275.9,201.2z M239,194l36,5.6&#10;&#9;&#9;c-0.6-2.9-2.5-11.7-5.3-20.7c-4.5-14.2-9.2-22.2-13.6-23.2c-1.2-0.3-2.4,0-3.4,0.8C244.8,161.8,239.8,189.3,239,194z"/>
	<path class="st3_augmented-reality-1-41 targetColor" d="M312.5,356.1c0,0-11.4-130.5-15-147.8s-23.2-20.6-42.5-22.9c-16.2-1.9-31.2,7.6-40.3,20.5&#10;&#9;&#9;c-3.5,5-5.9,16.9-12.9,16.9c-3.8,0-7.6-1.4-11.5-1.4c-5.4,0-10.8,0.6-16.1,1.8c-4.6,1-9.4,2.6-12.6,6.1s-4.4,9.2-1.5,13&#10;&#9;&#9;c2.5,3.1,6.9,3.9,10.9,4c7,0.1,14-1.1,20.9-0.9c4.1,0.1,9.1,1.5,10.2,5.5c0.5,2.5-0.5,5.2-2.5,6.8c-2,1.6-4.4,2.6-6.9,3&#10;&#9;&#9;c-3.7,0.7-7.6,0.8-11.3,1.6s-7.4,2.4-9.7,5.5s-2.5,7.8,0.2,10.4c3.6,3.5,12.6,4.1,17.3,4.2c0.9,0,14.6,0.5,14.7-0.2l-11.4,73.9&#10;&#9;&#9;L312.5,356.1z" style="fill: rgb(202, 60, 255);"/>
	<path class="st1_augmented-reality-1-41" d="M312.5,356.8h-120c-0.2,0-0.4-0.1-0.5-0.2c-0.1-0.2-0.2-0.4-0.2-0.6l11.3-72.9c-1.7,0.2-5.4,0.2-13.6,0h-0.3&#10;&#9;&#9;c-9.1-0.2-15.1-1.7-17.8-4.4c-3.1-3-2.5-8.3-0.2-11.4c2-2.8,5.6-4.8,10.1-5.7c2-0.4,4-0.6,6-0.9c1.8-0.2,3.6-0.4,5.3-0.7&#10;&#9;&#9;c2.4-0.3,4.7-1.3,6.6-2.8c1.6-1.4,2.9-3.8,2.3-6.1c-1.2-4.4-7.6-4.9-9.5-5c-3.6,0-7.1,0.1-10.7,0.4c-3.4,0.3-6.8,0.5-10.2,0.5&#10;&#9;&#9;c-5.5-0.1-9.2-1.5-11.4-4.2c-3.3-4.2-1.8-10.3,1.5-13.9c3.6-3.8,8.8-5.4,12.9-6.3c5.3-1.2,10.8-1.8,16.2-1.9c2,0.1,4,0.3,6,0.7&#10;&#9;&#9;c1.8,0.4,3.7,0.6,5.5,0.7l0,0c4.4,0,7-5.7,9.3-10.7c0.8-2.1,1.9-4.1,3.1-6c8.1-11.4,23.1-22.9,40.9-20.8&#10;&#9;&#9;c20.7,2.5,39.5,6.1,43.1,23.4c3.6,17.2,14.9,146.6,15,147.9c0,0.4-0.3,0.7-0.6,0.8C312.6,356.8,312.6,356.8,312.5,356.8&#10;&#9;&#9;L312.5,356.8z M193.3,355.4h118.4c-1-10.8-11.6-130.6-15-147s-21.8-20-41.9-22.3c-17.2-2-31.8,9.1-39.6,20.2&#10;&#9;&#9;c-1.2,1.8-2.2,3.7-3,5.7c-2.4,5.4-5.2,11.5-10.5,11.5l0,0c-1.9-0.1-3.9-0.3-5.8-0.7c-1.9-0.4-3.8-0.6-5.7-0.7&#10;&#9;&#9;c-5.4,0-10.7,0.6-16,1.8c-4,0.9-8.9,2.4-12.2,5.9c-2.9,3-4.2,8.5-1.4,12c1.9,2.4,5.3,3.6,10.3,3.7c3.4,0.1,6.8-0.2,10.1-0.5&#10;&#9;&#9;c3.6-0.3,7.2-0.5,10.9-0.4c5.9,0.2,9.9,2.4,10.9,6c0.6,2.8-0.5,5.7-2.7,7.5c-2.1,1.7-4.6,2.7-7.2,3.1c-1.8,0.4-3.6,0.6-5.4,0.8&#10;&#9;&#9;c-1.9,0.2-3.9,0.4-5.9,0.8c-2.9,0.6-7,2-9.3,5.2c-1.9,2.6-2.5,7,0.1,9.5c1.7,1.7,6,3.7,16.9,4h0.3c11.3,0.3,13.5,0.1,13.9,0&#10;&#9;&#9;c0.2-0.1,0.4-0.2,0.6-0.1c0.4,0.1,0.6,0.4,0.6,0.8l0,0L193.3,355.4z M203.3,282.1L203.3,282.1L203.3,282.1z"/>
	<path class="st3_augmented-reality-1-41 targetColor" d="M295.8,356.1c0,0,29.1-94.3,48.7-98.5s10.3,73.6,1.8,98.5H295.8z" style="fill: rgb(202, 60, 255);"/>
	<path class="st1_augmented-reality-1-41" d="M346.3,356.8h-50.5c-0.2,0-0.4-0.1-0.6-0.3c-0.1-0.2-0.2-0.4-0.1-0.6c1.2-3.9,29.5-94.7,49.2-99&#10;&#9;&#9;c2.5-0.6,5.2,0.3,6.8,2.3c11.7,13.1,2.9,76.4-4.2,97.1C346.9,356.6,346.6,356.8,346.3,356.8z M296.8,355.4h49.1&#10;&#9;&#9;c7.7-23.1,14.8-83.4,4.3-95.2c-1.3-1.6-3.4-2.4-5.5-1.9C326.7,262.1,299.8,345.7,296.8,355.4z"/>
	<path class="st1_augmented-reality-1-41" d="M270.3,210.3c0,0-21.9,17.3-20.9,17.3s5.2,10.8,16.3,0S270.3,210.3,270.3,210.3z"/>
	<path class="st1_augmented-reality-1-41" d="M256.8,233.1h-0.5c-3.4-0.2-5.5-2.8-6.6-4.2c-0.2-0.2-0.4-0.4-0.6-0.7c-0.2-0.1-0.4-0.2-0.5-0.4&#10;&#9;&#9;c-0.2-0.6-0.4-1,21.2-18.1c0.3-0.2,0.7-0.2,0.9,0.1c1.4,1.6,2.2,3.8,2.1,5.9c0,3.9-2.3,8.1-6.7,12.4&#10;&#9;&#9;C262.8,231.4,259.6,233.1,256.8,233.1z M250.4,227.5c0.1,0.2,0.3,0.3,0.5,0.6c1.1,1.3,2.8,3.5,5.6,3.6c2.6,0.2,5.5-1.4,8.8-4.6&#10;&#9;&#9;c4.1-4,6.2-7.8,6.3-11.4c0.1-1.6-0.4-3.2-1.3-4.5C263.2,216.9,252.6,225.4,250.4,227.5z M249.4,228.3L249.4,228.3z"/>
	<path class="st1_augmented-reality-1-41" d="M236.6,225.3l-12.4-19c0,0-8.5,7.7-3.6,15S236.6,225.3,236.6,225.3z"/>
	<path class="st1_augmented-reality-1-41" d="M231,226.8c-3.7,0-8.2-1-10.9-5c-5.2-7.7,3.6-15.8,3.7-15.9c0.2-0.1,0.4-0.2,0.6-0.2c0.2,0,0.4,0.1,0.5,0.3&#10;&#9;&#9;l12.4,19c0.1,0.2,0.1,0.4,0.1,0.6c-0.1,0.2-0.2,0.4-0.5,0.4C235,226.6,233,226.8,231,226.8z M224.1,207.5&#10;&#9;&#9;c-1.8,1.9-6.7,7.9-2.9,13.5s11.6,4.5,14.3,3.9L224.1,207.5z"/>
	<polygon class="st0_augmented-reality-1-41" points="260.8,283.6 260.8,356.1 192.5,356.1 203.9,282.2 &#9;"/>
	<path class="st1_augmented-reality-1-41" d="M260.8,356.8h-68.3c-0.2,0-0.4-0.1-0.5-0.2c-0.1-0.2-0.2-0.4-0.2-0.6l11.4-73.9c0.1-0.3,0.4-0.6,0.7-0.6&#10;&#9;&#9;l56.8,1.4c0.4,0,0.7,0.3,0.7,0.7v72.5C261.5,356.5,261.2,356.8,260.8,356.8L260.8,356.8z M193.3,355.4h66.8v-71.1l-55.6-1.3&#10;&#9;&#9;L193.3,355.4z"/>
	<path class="st1_augmented-reality-1-41" d="M260.8,284.3c-0.4,0-0.7-0.3-0.7-0.7c0-0.4,0.3-0.7,0.7-0.7c0.1,0,12-0.4,17.7-3.2c0.3-0.2,0.8,0,0.9,0.3&#10;&#9;&#9;c0.2,0.3,0,0.8-0.3,0.9C273.2,283.9,261.3,284.3,260.8,284.3L260.8,284.3z"/>
	<path class="st1_augmented-reality-1-41" d="M260.8,308L260.8,308l-60.7-0.5c-0.4,0-0.7-0.3-0.7-0.7c0-0.4,0.3-0.7,0.7-0.7l0,0l60.7,0.5&#10;&#9;&#9;c0.4,0,0.7,0.3,0.7,0.7S261.2,308,260.8,308C260.8,308,260.8,308,260.8,308z"/>
	<path class="st1_augmented-reality-1-41" d="M260.8,340L260.8,340l-65.3-2.5c-0.4,0-0.7-0.3-0.7-0.7c0-0.4,0.3-0.7,0.7-0.7l65.3,2.5c0.4,0,0.7,0.3,0.7,0.7&#10;&#9;&#9;C261.5,339.8,261.2,340.1,260.8,340C260.8,340.1,260.8,340.1,260.8,340z"/>
	<circle class="st3_augmented-reality-1-41 targetColor" cx="140.8" cy="175.8" r="4.7" style="fill: rgb(202, 60, 255);"/>
	<path class="st3_augmented-reality-1-41 targetColor" d="M167.7,176.5h-18.6c-0.4,0-0.7-0.3-0.7-0.7c0-0.4,0.3-0.7,0.7-0.7c0,0,0,0,0,0h18.6c0.4,0,0.7,0.3,0.7,0.7&#10;&#9;&#9;C168.4,176.2,168.1,176.5,167.7,176.5C167.7,176.5,167.7,176.5,167.7,176.5z" style="fill: rgb(202, 60, 255);"/>
</g>
<g id="Hands_and_Screen_augmented-reality-1-41">
	<path class="st0_augmented-reality-1-41" d="M392.5,400.2c0,0-8.5-51-11.5-61.6c-9.5-34.2,6.8-135.8,6.7-136.8s50.2,47.8,52.1,67.4&#10;&#9;&#9;c1,9.3,0.9,46.3,0.1,59.6c-0.5,8.4,13.9,64.8,13.9,64.8L392.5,400.2z"/>
	<path class="st1_augmented-reality-1-41" d="M392.5,400.9c-0.3,0-0.6-0.3-0.7-0.6c-0.1-0.5-8.6-51.1-11.5-61.5c-5.6-20-3.4-67.6,6.3-134&#10;&#9;&#9;c0.2-1.6,0.4-2.8,0.4-3c0-0.4,0.3-0.6,0.7-0.7l0,0c1.2,0,15.9,14.9,26.2,26.7c11.6,13.2,25.6,31.1,26.6,41.4&#10;&#9;&#9;c1,9.5,0.9,46.8,0.1,59.7c-0.5,8.1,13.8,64.1,13.9,64.6c0,0.2,0,0.4-0.1,0.6c-0.1,0.2-0.3,0.3-0.5,0.3L392.5,400.9L392.5,400.9z&#10;&#9;&#9; M388.2,203c-0.1,0.4-0.1,1-0.3,1.9c-9.6,66.3-11.9,113.7-6.3,133.5c2.8,9.9,10.4,55,11.4,61l59.9-6.4&#10;&#9;&#9;c-1.8-7.1-14.2-56.3-13.7-64.3c0.8-12.9,0.9-50.1-0.1-59.5C437.4,251.8,394.9,209,388.2,203L388.2,203z"/>
	<polygon class="st1_augmented-reality-1-41" points="386.1,412.3 377.5,344.3 443.4,337 462.4,412.3 &#9;"/>
	<path class="st1_augmented-reality-1-41" d="M462.4,413h-76.3c-0.4,0-0.7-0.3-0.7-0.6l-8.6-68c0-0.2,0-0.4,0.1-0.5c0.1-0.1,0.3-0.2,0.5-0.3l65.9-7.4&#10;&#9;&#9;c0.4-0.1,0.7,0.2,0.8,0.5l19,75.4c0.1,0.2,0,0.4-0.1,0.6C462.8,412.9,462.6,413,462.4,413z M386.8,411.6h74.8l-18.6-73.9l-64.6,7.2&#10;&#9;&#9;L386.8,411.6z"/>
	<path class="st0_augmented-reality-1-41" d="M111.5,400.2c0,0,8.5-51,11.5-61.6c9.6-34.2-6.8-135.8-6.7-136.8s-50.2,47.8-52.1,67.4&#10;&#9;&#9;c-1,9.3-0.9,46.3-0.1,59.6c0.5,8.4-13.9,64.8-13.9,64.8L111.5,400.2z"/>
	<path class="st1_augmented-reality-1-41" d="M111.5,400.9L111.5,400.9l-61.4-6.6c-0.2,0-0.4-0.1-0.5-0.3c-0.1-0.2-0.1-0.4-0.1-0.6&#10;&#9;&#9;c0.1-0.6,14.4-56.5,13.9-64.6c-0.8-13-0.9-50.2,0.1-59.7c1-10.3,15-28.2,26.6-41.4c10.3-11.8,25-26.7,26.2-26.7l0,0&#10;&#9;&#9;c0.4,0,0.7,0.4,0.7,0.7c0,0.1,0.2,1.3,0.4,2.9c9.6,66.5,11.8,114.1,6.3,134c-2.9,10.5-11.4,61-11.5,61.5&#10;&#9;&#9;C112.1,400.6,111.8,400.9,111.5,400.9z M51,393l59.9,6.4c1-6,8.6-51.2,11.4-61c5.5-19.8,3.3-67.2-6.3-133.4&#10;&#9;&#9;c-0.1-0.8-0.2-1.4-0.3-1.9c-6.7,5.9-49.1,48.7-50.9,66.2c-1,9.4-0.9,46.6-0.1,59.5C65.3,336.7,52.8,385.9,51,393z"/>
	<polygon class="st1_augmented-reality-1-41" points="117.8,412.3 126.4,344.3 60.5,337 41.5,412.3 &#9;"/>
	<path class="st1_augmented-reality-1-41" d="M117.8,413H41.5c-0.2,0-0.4-0.1-0.5-0.3c-0.1-0.2-0.2-0.4-0.1-0.6l19-75.4c0.1-0.3,0.4-0.6,0.8-0.5l65.9,7.4&#10;&#9;&#9;c0.2,0,0.4,0.1,0.5,0.3c0.1,0.1,0.2,0.3,0.2,0.5l-8.6,68C118.5,412.7,118.2,413,117.8,413z M42.4,411.6h74.8l8.5-66.7L61,337.7&#10;&#9;&#9;L42.4,411.6z"/>
	<path class="st0_augmented-reality-1-41" d="M377,141.9H126.5c-11.8,0-21.4,9.6-21.4,21.4c0,0,0,0,0,0v184.3c0,11.8,9.6,21.4,21.4,21.4c0,0,0,0,0,0H377&#10;&#9;&#9;c11.8,0,21.4-9.6,21.4-21.4V163.3C398.4,151.5,388.8,141.9,377,141.9C377,141.9,377,141.9,377,141.9z M377.5,349.6H126V161.4h251.5&#10;&#9;&#9;L377.5,349.6z"/>
	<path class="st1_augmented-reality-1-41" d="M377,369.8H126.5c-12.2,0-22.1-9.9-22.1-22.1V163.3c0-12.2,9.9-22.1,22.1-22.1H377c12.2,0,22.1,9.9,22.1,22.1&#10;&#9;&#9;v184.3C399.1,359.9,389.2,369.8,377,369.8z M126.5,142.6c-11.4,0-20.7,9.3-20.7,20.7v184.3c0,11.4,9.3,20.7,20.7,20.7H377&#10;&#9;&#9;c11.4,0,20.7-9.3,20.7-20.7V163.3c0-11.4-9.3-20.7-20.7-20.7H126.5z M377.5,350.3H126c-0.4,0-0.7-0.3-0.7-0.7l0,0V161.4&#10;&#9;&#9;c0-0.4,0.3-0.7,0.7-0.7h251.5c0.4,0,0.7,0.3,0.7,0.7c0,0,0,0,0,0v188.1C378.2,349.9,377.9,350.2,377.5,350.3&#10;&#9;&#9;C377.5,350.3,377.5,350.3,377.5,350.3z M126.7,348.9h250.1V162.1H126.7V348.9z"/>
	<path class="st0_augmented-reality-1-41" d="M74.3,259.8c10.2-13.3,22.7-24.6,36-34.7c3.3-2.5,6.8-5.1,10.9-5.5s8.8,2.1,9.3,6.3c0.4,3.3-1.8,6.2-3.9,8.7&#10;&#9;&#9;l-27.4,32.7c8.6,13.1,8.4,31.5-0.6,44.2"/>
	<path class="st1_augmented-reality-1-41" d="M98.7,312.1c-0.1,0-0.3,0-0.4-0.1c-0.3-0.2-0.4-0.6-0.2-1c0,0,0,0,0,0c8.7-12.4,9-30.7,0.6-43.4&#10;&#9;&#9;c-0.2-0.2-0.2-0.6,0-0.8l27.4-32.7c2.1-2.5,4.1-5.2,3.8-8.1c-0.4-3.8-4.9-6-8.6-5.7c-3.9,0.4-7.2,2.8-10.6,5.3&#10;&#9;&#9;c-15.4,11.8-26.8,22.8-35.9,34.6c-0.2,0.3-0.7,0.4-1,0.1c-0.3-0.2-0.4-0.7-0.1-1c9.1-11.9,20.6-22.9,36.1-34.8&#10;&#9;&#9;c3.5-2.7,7.1-5.2,11.3-5.6s9.6,2.3,10.1,6.9c0.4,3.5-1.8,6.4-4.1,9.2l-27,32.3c8.6,13.4,8.2,31.6-0.9,44.6&#10;&#9;&#9;C99.1,312,98.9,312.1,98.7,312.1z"/>
	<path class="st0_augmented-reality-1-41" d="M429.7,259.8c-10.2-13.3-22.7-24.6-36-34.7c-3.3-2.5-6.8-5.1-10.9-5.5s-8.8,2.1-9.3,6.3&#10;&#9;&#9;c-0.4,3.3,1.9,6.2,3.9,8.7l27.4,32.7c-8.6,13.1-8.4,31.5,0.6,44.2"/>
	<path class="st1_augmented-reality-1-41" d="M405.3,312.1c-0.2,0-0.4-0.1-0.6-0.3c-9.1-12.9-9.4-31.2-0.9-44.6l-27-32.3c-2.3-2.7-4.5-5.7-4.1-9.2&#10;&#9;&#9;c0.5-4.6,5.7-7.4,10.1-6.9s7.8,2.9,11.3,5.6c15.5,11.9,27,22.9,36.1,34.8c0.2,0.3,0.2,0.7-0.1,1s-0.7,0.2-1-0.1&#10;&#9;&#9;c-9.1-11.8-20.5-22.8-35.9-34.6c-3.4-2.6-6.7-4.9-10.6-5.3c-3.7-0.4-8.1,1.9-8.5,5.7c-0.3,2.9,1.7,5.6,3.8,8.1l27.4,32.7&#10;&#9;&#9;c0.2,0.2,0.2,0.6,0,0.8c-8.4,12.8-8.2,31,0.6,43.4c0.2,0.3,0.2,0.7-0.1,1c0,0,0,0,0,0C405.6,312.1,405.4,312.1,405.3,312.1z"/>
</g>
<path id="Frame_augmented-reality-1-41" class="st1_augmented-reality-1-41" d="M482.8,413H17.2c-0.4,0-0.7-0.3-0.7-0.7l0,0V87.7c0-0.4,0.3-0.7,0.7-0.7h465.5&#10;&#9;c0.4,0,0.7,0.3,0.7,0.7v0v324.7C483.4,412.7,483.1,413,482.8,413z M17.9,411.6h464.1V88.4H17.9L17.9,411.6z"/>
</svg>