<svg version="1.1" id="Layer_1" xmlns="http://www.w3.org/2000/svg" xmlns:xlink="http://www.w3.org/1999/xlink" x="0px" y="0px" viewBox="0 0 500 500" style="width: 144px;" xml:space="preserve" data-imageid="balloon-88" imageName="Balloon" class="illustrations_image">
<style type="text/css">
	.st0_balloon-88{fill:#D1D3D4;}
	.st1_balloon-88{fill:#FFFFFF;}
	.st2_balloon-88{fill:#231F20;}
	.st3_balloon-88{fill:#68E1FD;}
	.st4_balloon-88{fill:none;}
</style>
<g id="clouds_balloon-88">
	<path class="st0_balloon-88" d="M95.7,374H59.5c-7.3,0-13.3-4.9-13.3-10.9c0-5.8,5.5-10.5,12.5-10.9c1.1-9.4,10.9-16.7,22.6-16.7&#10;&#9;&#9;c1.3,0,2.7,0.1,4,0.3c2.3-3.9,7.2-6.4,12.5-6.4c7.4,0,13.5,4.8,13.9,10.8c1.6-0.5,3.3-0.8,5-0.8c7.7,0,13.9,5.1,13.9,11.4&#10;&#9;&#9;c0,0.8-0.1,1.5-0.3,2.2c-0.1,0.4-0.5,0.6-0.9,0.5c-0.3-0.1-0.5-0.4-0.5-0.8c0.2-0.6,0.2-1.3,0.2-1.9c0-5.5-5.6-10-12.6-10&#10;&#9;&#9;c-1.9,0-3.7,0.3-5.5,1c-0.3,0.1-0.7,0-0.9-0.4c0-0.1-0.1-0.2,0-0.3v-0.3c0-5.5-5.6-10-12.6-10c-5,0-9.5,2.4-11.5,6.1&#10;&#9;&#9;c-0.1,0.3-0.4,0.4-0.7,0.4c-1.4-0.2-2.8-0.3-4.3-0.3c-11.2,0-20.5,7-21.2,16c0,0.4-0.3,0.6-0.7,0.6c-6.5,0.1-11.8,4.3-11.8,9.5&#10;&#9;&#9;s5.3,9.5,11.9,9.5h36.2c0.4,0,0.7,0.3,0.7,0.7c0,0,0,0,0,0C96.4,373.8,96.1,374.1,95.7,374z"/>
	<path class="st0_balloon-88" d="M172,216.6c-0.4,0-0.7-0.2-0.8-0.6s0.2-0.7,0.6-0.8c0.1,0,0.1,0,0.2,0c8.7,0,15.8-5.7,15.8-12.7&#10;&#9;&#9;s-7-12.6-15.6-12.7c-0.4,0-0.6-0.3-0.7-0.6c-0.9-11.9-13.2-21.2-28-21.2c-1.9,0-3.8,0.1-5.6,0.4c-0.3,0.1-0.6-0.1-0.7-0.4&#10;&#9;&#9;c-2.6-4.9-8.6-8.1-15.3-8.1c-9.2,0-16.6,6-16.6,13.4c0,0.1,0,0.1,0,0.2v0.2c0,0.4-0.3,0.7-0.6,0.7c-0.1,0-0.2,0-0.3,0&#10;&#9;&#9;c-2.3-0.9-4.8-1.3-7.2-1.3c-9.2,0-16.6,6-16.6,13.4c0,0.9,0.1,1.7,0.3,2.6c0,0.2,0,0.4-0.1,0.6c-0.1,0.2-0.3,0.3-0.5,0.3&#10;&#9;&#9;c-7.9,0.8-13.9,6.2-13.9,12.6c0,7,7.1,12.7,15.8,12.7h36.5c0.4,0,0.7,0.2,0.8,0.6c0,0.4-0.2,0.7-0.6,0.8c-0.1,0-0.1,0-0.2,0H82.2&#10;&#9;&#9;c-9.5,0-17.2-6.3-17.2-14.1c0-6.9,6.1-12.8,14.3-13.9c-0.1-0.7-0.2-1.4-0.2-2.1c0-8.1,8.1-14.7,18-14.7c2.3,0,4.6,0.4,6.8,1.1&#10;&#9;&#9;c0.3-7.9,8.3-14.2,18-14.2c6.9,0,13.2,3.3,16.2,8.4c1.8-0.3,3.6-0.4,5.4-0.4c15.3,0,28,9.6,29.4,21.9c9.1,0.4,16.3,6.6,16.3,14.1&#10;&#9;&#9;C189.2,210.3,181.5,216.6,172,216.6z"/>
	<path class="st0_balloon-88" d="M436.2,360.3c-0.4,0-0.7-0.3-0.7-0.7c0,0,0,0,0,0c0-0.4,0.3-0.7,0.7-0.7l0,0c10.7,0,19.4-7,19.4-15.6&#10;&#9;&#9;c0-7.9-7.3-14.5-17-15.5c-0.2,0-0.4-0.1-0.5-0.3c-0.1-0.2-0.1-0.4-0.1-0.6c0.2-1,0.4-2.1,0.4-3.1c0-9.1-9.1-16.4-20.4-16.4&#10;&#9;&#9;c-3,0-6,0.5-8.8,1.6c-0.2,0.1-0.5,0.1-0.6-0.1c-0.2-0.1-0.3-0.3-0.3-0.6v-0.3c0-0.1,0-0.2,0-0.3c0-9.1-9.1-16.4-20.4-16.4&#10;&#9;&#9;c-8.1,0-15.5,3.9-18.7,9.9c-0.1,0.3-0.4,0.4-0.7,0.4c-2.3-0.4-4.6-0.6-6.9-0.5c-18.1,0-33.1,11.4-34.3,26c0,0.4-0.3,0.6-0.7,0.6&#10;&#9;&#9;c-10.5,0.1-19.1,7.1-19.1,15.6c0,0.4-0.3,0.7-0.7,0.7s-0.7-0.3-0.7-0.7c0-9.1,8.9-16.6,19.9-17c1.6-15,17-26.6,35.6-26.6&#10;&#9;&#9;c2.2,0,4.4,0.2,6.6,0.5c3.6-6.2,11.2-10.2,19.7-10.2c11.8,0,21.5,7.8,21.8,17.4c2.7-0.9,5.5-1.4,8.4-1.4c12,0,21.8,8,21.8,17.8&#10;&#9;&#9;c0,0.9-0.1,1.8-0.3,2.7c10,1.3,17.5,8.4,17.5,16.8C456.9,352.7,447.6,360.3,436.2,360.3z"/>
</g>
<g id="Character_balloon-88">
	<path class="st1_balloon-88" d="M285.9,225c0,0,1.8-4.6,1.7-5.6s-1.5-4.1-0.8-6.9s2.4-4.7,4-4.8s4.9-0.7,4.9-0.7c-0.1-1.2,0.7-2.4,1.9-2.8&#10;&#9;&#9;c2-0.3,4,0.3,5.5,1.6c0.6,0.7,2.2,7.8,1.6,10.7s-4.5,5.3-6.6,8.1c-1.3,1.7-2.2,3.7-2.8,5.8"/>
	<path class="st2_balloon-88" d="M295.3,231.1c0,0-0.1,0-0.1,0c-0.3-0.1-0.5-0.4-0.5-0.7c0,0,0,0,0,0c0.6-2.2,1.5-4.2,2.9-6&#10;&#9;&#9;c0.9-1.1,1.8-2.2,2.9-3.1c1.7-1.6,3.2-3.2,3.6-4.8c0.6-2.8-1-9.5-1.5-10.2s-3.1-1.9-4.9-1.4c-0.9,0.3-1.5,1.2-1.4,2.2&#10;&#9;&#9;c0,0.3-0.2,0.6-0.5,0.7c-0.1,0-3.3,0.6-4.9,0.7c-1.2,0.1-2.8,1.6-3.4,4.3c-0.3,1.8-0.1,3.7,0.5,5.4c0.1,0.4,0.2,0.9,0.3,1.3&#10;&#9;&#9;c0.1,1-1.3,4.7-1.7,5.8c-0.1,0.3-0.5,0.5-0.8,0.4c-0.3-0.1-0.5-0.5-0.4-0.8c0,0,0,0,0,0c0.7-1.7,1.2-3.5,1.6-5.3&#10;&#9;&#9;c-0.1-0.4-0.1-0.7-0.3-1.1c-0.7-1.9-0.8-4-0.5-6c0.7-3,2.6-5.2,4.6-5.3c1.2-0.1,3.3-0.4,4.3-0.6c0.1-1.4,1-2.5,2.3-2.9&#10;&#9;&#9;c2.2-0.3,4.5,0.3,6.2,1.8c0.8,0.9,2.3,8.2,1.7,11.2c-0.4,2-2.2,3.7-3.9,5.4c-1,0.9-1.9,1.9-2.7,3c-1.2,1.7-2.1,3.5-2.7,5.5&#10;&#9;&#9;C295.8,230.9,295.6,231.1,295.3,231.1z"/>
	<path class="st2_balloon-88" d="M292.3,218.8c-0.2,0-0.3-0.1-0.4-0.2c-0.2-0.2-0.3-0.6,0-0.9c0,0,0,0,0,0c1.4-1.4,1.4-3.7-0.1-5.1&#10;&#9;&#9;c-0.2-0.2-0.5-0.4-0.7-0.5c-0.3-0.2-0.4-0.6-0.2-0.9c0.1-0.2,0.3-0.3,0.5-0.3c2.1-0.3,4.7-0.9,5.4-1.5c-0.1-0.5-0.4-0.9-0.8-1.2&#10;&#9;&#9;c-0.3-0.3-0.7-0.4-1-0.4c-0.3,0.1-0.7-0.2-0.7-0.5c-0.1-0.3,0.2-0.7,0.5-0.7c1.2-0.1,2.4,0.6,2.9,1.6c0.2,0.4,0.7,1.3,0.2,1.9&#10;&#9;&#9;c-0.7,0.9-3.2,1.5-4.9,1.8c0.7,0.7,1.1,1.6,1.2,2.6c0.2,1.5-0.3,3-1.4,4.1C292.6,218.7,292.5,218.8,292.3,218.8z"/>
	<path class="st2_balloon-88" d="M298.8,219.9c-0.4,0-0.8-0.1-1.1-0.4c-1.8-1.1-3.4-7.1-3.4-8.8c0-0.3,0.3-0.6,0.6-0.6c0.3,0,0.6,0.3,0.6,0.6&#10;&#9;&#9;c0,0,0,0,0,0c-0.1,1.7,1.6,7,2.8,7.7c0.1,0.1,0.3,0.2,0.5,0.2c0.2,0,0.3-0.1,0.5-0.2c0.9-0.5,1.7-1.2,2.5-1.9&#10;&#9;&#9;c0.2-0.2,0.6-0.2,0.9,0c0.2,0.2,0.2,0.6,0,0.9c-0.8,0.8-1.7,1.4-2.7,2c-0.3,0.2-0.6,0.3-1,0.4L298.8,219.9z"/>
	<path class="st1_balloon-88" d="M191.7,337.1c0,0-1.5,3.7-1.4,5.6s1.5,5,0.8,7.1c-0.4,1-3.6-2.7-3.8-3.4c-0.7,1.8-0.5,3.9-0.4,5.8&#10;&#9;&#9;c0.2,1.1-0.2,2.3-1,3.1c-1.1,0.9-2.8,0.3-4.2-0.3c-4.4-2.2-3.1-6.2-2.5-10.5c0.6-4.5,1.7-9,3.3-13.2"/>
	<path class="st2_balloon-88" d="M184.4,356.4c-1.1-0.1-2.1-0.4-3-0.9c-4.2-2.1-3.7-5.8-3.1-9.4c0.1-0.5,0.2-1.1,0.2-1.6&#10;&#9;&#9;c0.6-4.6,1.7-9.1,3.4-13.4c0.1-0.3,0.5-0.5,0.8-0.4c0,0,0,0,0,0c0.3,0.1,0.5,0.5,0.4,0.8c0,0,0,0,0,0c-1.6,4.2-2.7,8.6-3.3,13&#10;&#9;&#9;c-0.1,0.6-0.2,1.1-0.2,1.7c-0.6,3.6-1,6.5,2.4,8.1c1.7,0.8,2.8,1,3.5,0.4c0.6-0.7,0.9-1.7,0.8-2.6v-0.9c-0.2-1.7,0-3.4,0.5-5.1&#10;&#9;&#9;c0.1-0.2,0.3-0.4,0.6-0.4l0,0c0.3,0,0.5,0.2,0.6,0.4c0.8,1.1,1.7,2.2,2.8,3c0.1-1.4,0-2.8-0.4-4.2c-0.2-0.8-0.4-1.5-0.4-2.3&#10;&#9;&#9;c-0.1-2,1.4-5.7,1.4-5.9c0.1-0.3,0.4-0.5,0.8-0.4c0.3,0.1,0.5,0.4,0.4,0.8c0,0,0,0.1-0.1,0.1c-0.4,1-1.4,3.9-1.3,5.3&#10;&#9;&#9;c0.1,0.7,0.2,1.4,0.4,2.1c0.4,1.7,0.9,3.7,0.3,5.2c-0.1,0.4-0.5,0.6-0.8,0.6c-0.9,0-2.4-1.5-3.3-2.7c-0.1,1.1-0.2,2.2-0.1,3.4v1&#10;&#9;&#9;c0.2,1.3-0.3,2.7-1.2,3.6C185.7,356.2,185.1,356.4,184.4,356.4z"/>
	<path class="st1_balloon-88" d="M250.3,411.3c0,0,2.8,8.8,2.1,13.5s-6.9,19.1-10.9,16.5s-1.9-25.7-1.9-25.7L250.3,411.3z"/>
	<path class="st2_balloon-88" d="M242.5,442.2c-0.5,0-1-0.1-1.4-0.4c-4.1-2.8-2.4-23.9-2.1-26.2c0-0.2,0.2-0.4,0.4-0.5l10.6-4.3&#10;&#9;&#9;c0.3-0.1,0.7,0,0.8,0.4c0,0,0,0,0,0c0.1,0.4,2.8,9,2.1,13.8c-0.6,4-5.3,15.3-9.3,17.1C243.2,442.1,242.9,442.2,242.5,442.2z&#10;&#9;&#9; M240.2,416c-0.8,8.8-1,23,1.6,24.7c0.4,0.3,0.9,0.3,1.3,0c3.3-1.5,7.9-12,8.6-16.1c0.6-3.8-1.2-10.5-1.8-12.5L240.2,416z"/>
	<path class="st1_balloon-88" d="M259.7,421.1c0,0-1.5,10.5,1.2,16.7s7.5,7.5,10.2,2.5s3.2-13,0.8-21.2"/>
	<path class="st2_balloon-88" d="M267,444h-0.2c-2.5-0.1-4.8-2.3-6.4-6c-2.8-6.3-1.4-16.6-1.3-17.1c0-0.3,0.3-0.6,0.7-0.6s0.6,0.3,0.6,0.7&#10;&#9;&#9;c0,0,0,0.1,0,0.1c0,0.1-1.4,10.4,1.2,16.4c1.4,3.2,3.4,5.1,5.3,5.2c1.4,0.1,2.8-0.9,3.8-2.8c2.8-5,3-13,0.7-20.8&#10;&#9;&#9;c-0.1-0.3,0.1-0.7,0.4-0.8c0,0,0,0,0,0c0.3-0.1,0.7,0.1,0.8,0.4c0,0,0,0,0,0c2.4,8.1,2.1,16.4-0.8,21.7&#10;&#9;&#9;C270.5,442.8,268.9,444,267,444z"/>
	<path class="st2_balloon-88" d="M174.4,308.1c-5,0.1-10-0.8-14.6-2.8c-6.4-2.9-11.1-8.2-12.5-14.1c-2.4-10.2,4.8-19.9,11.8-25.1&#10;&#9;&#9;c4.4-3.1,9.1-5.9,14-8.2c3.7-1.8,7.3-3.8,10.9-6c6.4-4.1,11.2-9.9,15.8-15.6c6.1-7.5,12.5-15.2,22.7-18.9c1.5-0.5,6.3-2,8.9,0.8&#10;&#9;&#9;c2.2-1.6,5.1-1.9,7.5-0.7c2.4,1.3,4.4,3.2,5.8,5.6c5.3,8,7.6,17.7,6.4,27.3c0,0.3-0.4,0.6-0.7,0.5s-0.6-0.4-0.5-0.7&#10;&#9;&#9;c1.1-9.3-1-18.6-6.2-26.4c-1.3-2.2-3.1-3.9-5.3-5.1c-2-0.9-4.9-0.9-6.5,0.9c-0.1,0.1-0.3,0.2-0.5,0.2c-0.2,0-0.4-0.1-0.5-0.3&#10;&#9;&#9;c-1.9-2.8-6.5-1.4-7.9-0.9C213,222,207,229.3,200.7,237c-4.7,5.7-9.5,11.6-16.1,15.8c-3.6,2.2-7.2,4.2-11,6.1&#10;&#9;&#9;c-4.8,2.3-9.5,5-13.8,8.1c-6.6,5-13.6,14.2-11.3,23.9c1.3,5.6,5.7,10.5,11.8,13.3c5,2.2,11,3.1,18.3,2.5c0.3,0,0.6,0.2,0.7,0.5&#10;&#9;&#9;c0,0,0,0,0,0c0,0.3-0.2,0.6-0.6,0.7C177.3,308,175.8,308.1,174.4,308.1z"/>
	<polygon class="st1_balloon-88" points="256.8,319.2 248.9,255.5 219.1,257.9 222.6,322.1 &#9;"/>
	<path class="st2_balloon-88" d="M222.6,322.7c-0.3,0-0.6-0.3-0.6-0.6l-3.4-64.2c0-0.3,0.2-0.6,0.6-0.7l29.7-2.4c0.3,0,0.6,0.2,0.7,0.6&#10;&#9;&#9;l7.9,63.7c0,0.2,0,0.3-0.1,0.5c-0.1,0.1-0.3,0.2-0.4,0.2L222.6,322.7L222.6,322.7z M219.8,258.5l3.4,62.9l32.9-2.8l-7.7-62.4&#10;&#9;&#9;L219.8,258.5z"/>
	<path class="st2_balloon-88" d="M219.4,321.9c0,0-0.8,36.7,0.4,51.3s18.5,49.5,18.5,49.5l13.9-8.6c0,0-7.7-45.3-6.9-61.8&#10;&#9;&#9;c0,0,13.2,50.8,12.5,69.3c0,0,2.7,4.9,9.2,3.7s7.9-3.4,7.9-3.4s1.5-75.3-10.1-106.4"/>
	<path class="st2_balloon-88" d="M265,426.1c-3.2,0-6.2-1.6-7.9-4.2c-0.1-0.1-0.1-0.2-0.1-0.3c0.6-14.9-8.1-51.5-11.3-64.5&#10;&#9;&#9;c0.5,18.9,6.9,56.5,6.9,56.9c0,0.2-0.1,0.5-0.3,0.6l-13.9,8.6c-0.1,0.1-0.3,0.1-0.5,0.1c-0.2,0-0.3-0.2-0.4-0.3&#10;&#9;&#9;c-0.7-1.4-17.5-35.1-18.6-49.7s-0.4-51-0.4-51.4c0-0.3,0.3-0.6,0.6-0.6c0.3,0,0.6,0.3,0.6,0.6c0,0,0,0,0,0c0,0.4-0.7,36.9,0.4,51.3&#10;&#9;&#9;c1,13.3,15.9,44,18.2,48.6l12.9-8c-0.8-4.5-7.6-46-6.9-61.5c0-0.3,0.3-0.6,0.7-0.5c0.2,0,0.5,0.2,0.5,0.4&#10;&#9;&#9;c0.1,0.5,13.2,50.8,12.5,69.3c0.5,0.8,3,4.2,8.5,3.3c5.3-0.9,7-2.5,7.4-3c0.1-4.3,1.1-76.1-10.1-106c-0.1-0.3,0-0.6,0.3-0.8&#10;&#9;&#9;c0,0,0,0,0,0c0.3-0.1,0.7,0,0.8,0.3c0,0,0,0,0,0c11.5,30.9,10.2,105.9,10.1,106.6c0,0.1,0,0.2-0.1,0.3c-0.1,0.2-1.6,2.5-8.3,3.7&#10;&#9;&#9;C266.4,426,265.7,426.1,265,426.1z"/>
	<path class="st3_balloon-88 targetColor" d="M212.3,288.5l-2.2,35.6l20.3,2.2l-0.7-64.3l13.5,1.5c0,0.6,7.3,44.8,9.1,58.9l18.9-3.7l-9.1-32.9&#10;&#9;&#9;c0,0-8.3-34.6-7.9-34.6c-0.4,0-41.9,3.5-49.5,13.8S212.3,288.5,212.3,288.5z" style="fill: rgb(202, 60, 255);"/>
	<path class="st1_balloon-88" d="M241.8,251.2l3.1,10.2c0,0,0.8,6-5.9,6.3c-4.1,0.1-8-1.6-10.6-4.6c0,0-7.2-25.1-7.8-26.9&#10;&#9;&#9;c1.2,0.2,4.5,0.4,5.5-0.4s0.1-4.3-0.2-5.4c1.4,1.2,2.6,2.6,3.4,4.2l4.3-1.2c0.1-1.7-0.2-3.4-0.8-4.9c1.3,1.1,2.4,2.4,3.1,4&#10;&#9;&#9;c1.2-0.4,5.4-2.5,6.5-1.7c1.5,1.1,5.4,10.7,3.7,15.1S241.8,251.2,241.8,251.2z"/>
	<path class="st2_balloon-88" d="M238.4,268.3c-4.1,0-7.9-1.8-10.5-4.9c-0.1-0.1-0.1-0.1-0.1-0.2c-0.3-1-7.3-25.1-7.8-26.9&#10;&#9;&#9;c-0.1-0.2,0-0.4,0.1-0.6c0.1-0.2,0.3-0.2,0.6-0.2c1.6,0.2,4.4,0.2,5-0.3c0.2-0.2,0.4-0.9-0.3-4.4l-0.1-0.5c0-0.3,0.1-0.5,0.3-0.6&#10;&#9;&#9;c0.2-0.2,0.5-0.2,0.7,0c1.3,1.1,2.5,2.5,3.3,4l3.4-0.9c0-1.4-0.2-2.9-0.8-4.2c-0.1-0.3,0-0.6,0.2-0.7c0.2-0.2,0.5-0.2,0.8,0&#10;&#9;&#9;c1.3,1,2.3,2.3,3.1,3.7l0.8-0.3c2.6-1.1,4.7-1.9,5.7-1.1c1.8,1.3,5.7,11.3,3.9,15.8c-0.7,2.3-2.2,4.2-4.2,5.5c0.3,0.9,1,3.3,3,9.7&#10;&#9;&#9;c0.2,1.8-0.2,3.5-1.3,4.9c-1.3,1.4-3.2,2.2-5.2,2.2L238.4,268.3z M229,262.8c2.5,2.8,6.2,4.4,10,4.3c1.6,0.1,3.2-0.6,4.3-1.7&#10;&#9;&#9;c0.8-1.1,1.2-2.5,1.1-3.9c0,0-3.1-9.9-3.1-10.1c-0.1-0.3,0.1-0.6,0.4-0.8c0,0,2.5-1.1,4-5.1s-2.3-13.5-3.5-14.3&#10;&#9;&#9;c-0.5-0.3-3.5,0.9-4.5,1.3c-0.6,0.2-1.1,0.4-1.4,0.5c-0.3,0.1-0.6,0-0.8-0.3c-0.4-0.8-0.8-1.5-1.4-2.2c0.2,0.9,0.2,1.9,0.2,2.9&#10;&#9;&#9;c0,0.3-0.2,0.5-0.5,0.6l-4.3,1.2c-0.3,0.1-0.6-0.1-0.7-0.3c-0.5-1-1.1-1.9-1.9-2.7c0.3,1.8,0.4,3.4-0.4,4.1c-1,0.8-3.6,0.8-5,0.6&#10;&#9;&#9;C222.8,241.5,228.4,261,229,262.8z"/>
	<path class="st1_balloon-88" d="M224.3,242.9c-0.4-0.7-1-1.3-1.8-1.6c-0.7-0.3-1.5-0.4-2.2-0.4c-0.4-0.1-0.8,0-1.2,0.1&#10;&#9;&#9;c-0.3,0.1-0.5,0.3-0.7,0.5c-0.5,0.5-0.8,1.1-0.9,1.8c0,0.6,0.1,1.1,0.4,1.6c0.2,0.6,0.5,1.1,0.9,1.6c1.6,1.9,4.5,2.2,6.4,0.6&#10;&#9;&#9;c0,0,0,0,0,0"/>
	<path class="st2_balloon-88" d="M222.2,248.7h-0.5c-1.4-0.1-2.6-0.8-3.5-1.9c-0.4-0.5-0.7-1.1-1-1.7c-0.3-0.6-0.4-1.2-0.4-1.9&#10;&#9;&#9;c0.1-0.8,0.5-1.6,1.1-2.1c0.2-0.3,0.5-0.5,0.9-0.6c0.5-0.2,1-0.2,1.5-0.2c0.8,0,1.6,0.2,2.4,0.5c0.8,0.4,1.5,1,2,1.8&#10;&#9;&#9;c0.1,0.3,0,0.6-0.3,0.7c-0.2,0.1-0.5,0-0.7-0.2c-0.3-0.6-0.9-1.1-1.5-1.3c-0.6-0.2-1.3-0.4-2-0.4c-0.3,0-0.7,0-1,0.1&#10;&#9;&#9;c-0.2,0.1-0.4,0.2-0.5,0.4c-0.4,0.4-0.7,0.9-0.8,1.4c0,0.5,0.1,0.9,0.3,1.3c0.2,0.5,0.5,1,0.8,1.4c1.4,1.7,3.9,2,5.6,0.6&#10;&#9;&#9;c0,0,0,0,0,0c0.3-0.2,0.6-0.1,0.8,0.2c0.1,0.2,0.1,0.5-0.1,0.7C224.6,248.3,223.4,248.7,222.2,248.7z"/>
	<path class="st2_balloon-88" d="M242.9,255.2c0,0-3.8,2.5-7.4,0.6c-2-0.9-3.5-2.7-4.1-4.8c0,0,6.5,2.4,10.4,0.3L242.9,255.2z"/>
	<path class="st2_balloon-88" d="M238.4,257.2c-1.1,0-2.2-0.3-3.2-0.8c-2.2-1-3.8-2.9-4.4-5.2c0-0.2,0-0.4,0.2-0.6c0.2-0.1,0.4-0.2,0.6-0.1&#10;&#9;&#9;c0.1,0,6.3,2.2,9.9,0.4c0.2-0.1,0.4-0.1,0.5,0c0.2,0.1,0.3,0.2,0.3,0.4l1,3.9c0.1,0.3,0,0.5-0.3,0.7&#10;&#9;&#9;C241.7,256.6,240.1,257.1,238.4,257.2z M232.4,252c0.8,1.4,1.9,2.6,3.4,3.3c2.6,1.4,5.4,0.1,6.4-0.4l-0.7-2.7&#10;&#9;&#9;C238.4,253.4,234.4,252.5,232.4,252L232.4,252z"/>
	<path class="st1_balloon-88" d="M234.8,236.4c0,0,4.9,3.8,4.4,4.9s-2.9,1.2-2.9,1.2"/>
	<path class="st2_balloon-88" d="M236.3,243.2c-0.3,0-0.6-0.2-0.6-0.6c0-0.3,0.2-0.6,0.6-0.6c0.8-0.1,2.1-0.4,2.4-0.9c0-0.5-2-2.5-4.2-4.2&#10;&#9;&#9;c-0.3-0.2-0.3-0.6-0.1-0.8c0,0,0,0,0,0c0.2-0.3,0.6-0.3,0.9-0.1c2.4,1.9,5.1,4.4,4.6,5.7S236.6,243.2,236.3,243.2L236.3,243.2z"/>
	<path class="st1_balloon-88" d="M241,243.8c0,0-1.5,5.3-8.1,2.8"/>
	<path class="st2_balloon-88" d="M236.2,247.9c-1.2,0-2.3-0.3-3.4-0.7c-0.3-0.1-0.4-0.5-0.3-0.8c0.1-0.3,0.4-0.4,0.7-0.3c2,0.8,3.7,0.8,5.1,0.2&#10;&#9;&#9;c1-0.6,1.8-1.5,2.2-2.6c0.1-0.3,0.4-0.5,0.8-0.4c0.3,0.1,0.5,0.4,0.4,0.7c0,0,0,0,0,0c-0.5,1.4-1.5,2.6-2.8,3.3&#10;&#9;&#9;C238,247.7,237.1,247.9,236.2,247.9z"/>
	<line class="st4_balloon-88" x1="217.3" y1="314.7" x2="224.7" y2="309.7"/>
	<path class="st2_balloon-88" d="M217.3,315.3c-0.3,0-0.6-0.3-0.6-0.6c0-0.2,0.1-0.4,0.3-0.5l7.4-5c0.2-0.3,0.6-0.3,0.9-0.1s0.3,0.6,0.1,0.9&#10;&#9;&#9;c-0.1,0.1-0.1,0.1-0.2,0.2l-7.4,5C217.5,315.3,217.4,315.3,217.3,315.3z"/>
	<line class="st4_balloon-88" x1="255.2" y1="307.3" x2="266.8" y2="312.1"/>
	<path class="st2_balloon-88" d="M266.8,312.7c-0.1,0-0.2,0-0.2,0l-11.6-4.7c-0.3-0.1-0.5-0.5-0.4-0.8c0,0,0,0,0,0c0.1-0.3,0.5-0.5,0.8-0.4&#10;&#9;&#9;l11.6,4.7c0.3,0.1,0.5,0.5,0.3,0.8C267.2,312.6,267,312.7,266.8,312.7L266.8,312.7z"/>
	<path class="st3_balloon-88 targetColor" d="M249.3,252.5c1.8,0.8,14.7-6.6,36-28.8l11.9,4.5c0,0-14.5,33.9-48.1,55.2L249.3,252.5z" style="fill: rgb(202, 60, 255);"/>
	<path class="st3_balloon-88 targetColor" d="M204,266.2c0.1,1.5-25,45-25,71.9l14.5,0.8c0,0,14.5-37.7,22.7-49.7L204,266.2z" style="fill: rgb(202, 60, 255);"/>
	<line class="st4_balloon-88" x1="213.6" y1="285.2" x2="212.8" y2="270.1"/>
	<path class="st2_balloon-88" d="M213.6,285.9c-0.3,0-0.6-0.3-0.6-0.6l-0.8-15.1c0-0.3,0.3-0.6,0.6-0.7c0,0,0,0,0,0c0.3,0,0.6,0.2,0.6,0.6&#10;&#9;&#9;c0,0,0,0,0,0l0.8,15.1C214.3,285.6,214,285.8,213.6,285.9C213.6,285.9,213.6,285.9,213.6,285.9L213.6,285.9z"/>
	<path class="st2_balloon-88" d="M226.9,239.3c-0.1,0-0.2,0-0.3-0.1c-0.3-0.2-0.4-0.5-0.2-0.8c0,0,0,0,0,0c0.7-1.2,2.6-3.3,5-2.3&#10;&#9;&#9;c0.3,0.1,0.5,0.5,0.3,0.8c0,0,0,0,0,0c-0.1,0.3-0.5,0.5-0.8,0.3c-2-0.8-3.4,1.7-3.5,1.8C227.3,239.1,227.1,239.3,226.9,239.3z"/>
	<path class="st2_balloon-88" d="M238.1,236.2c-0.1,0-0.3,0-0.4-0.1c-0.3-0.2-0.3-0.6-0.1-0.9c0.7-1,2.6-2.5,4.4-1.3c0.3,0.2,0.4,0.6,0.2,0.8&#10;&#9;&#9;c-0.2,0.3-0.6,0.4-0.8,0.2c-1.3-0.9-2.7,0.9-2.8,1C238.4,236.1,238.3,236.2,238.1,236.2z"/>
	<path class="st1_balloon-88" d="M222.7,338c-0.3,0-0.6-0.3-0.6-0.6c0-0.2,0.1-0.3,0.2-0.4c2-2,3.3-4.6,3.7-7.3c0-0.3,0.4-0.6,0.7-0.6&#10;&#9;&#9;c0.3,0,0.6,0.3,0.6,0.7c-0.4,3.1-1.9,5.9-4.1,8.1C223,337.9,222.9,338,222.7,338z"/>
	<path class="st1_balloon-88" d="M266,328.5L266,328.5c-2.7-0.5-5.2-1.6-7.3-3.2c-0.3-0.2-0.3-0.6,0-0.9c0.2-0.2,0.5-0.3,0.8-0.1&#10;&#9;&#9;c2,1.5,4.2,2.5,6.7,3c0.3,0,0.6,0.4,0.5,0.7c0,0,0,0,0,0C266.6,328.3,266.3,328.5,266,328.5z"/>
	<path class="st1_balloon-88" d="M245.2,352.9c-0.3,0-0.6-0.2-0.6-0.5l-3.7-26.5c-0.1-0.3,0.2-0.7,0.5-0.7c0,0,0,0,0,0c0.3,0,0.7,0.2,0.7,0.5&#10;&#9;&#9;l3.7,26.5c0.1,0.3-0.2,0.7-0.5,0.7C245.3,352.9,245.3,352.9,245.2,352.9L245.2,352.9z"/>
</g>
<g id="Balloon_balloon-88">
	<path class="st0_balloon-88" d="M295.3,207.5c-0.3,0-0.5-0.2-0.5-0.4l-9.3-65.7c0-0.3,0.2-0.5,0.5-0.5c0.2,0,0.4,0.2,0.5,0.4l9.3,65.6&#10;&#9;&#9;C295.8,207.2,295.6,207.4,295.3,207.5C295.3,207.5,295.3,207.5,295.3,207.5L295.3,207.5z"/>
	<path class="st0_balloon-88" d="M293.9,207.9c-0.2,0-0.3-0.1-0.4-0.2l-61.9-73.5c-0.2-0.2-0.2-0.5,0.1-0.7c0.2-0.2,0.5-0.2,0.7,0.1l61.9,73.5&#10;&#9;&#9;c0.2,0.2,0.2,0.5-0.1,0.7C294.1,207.8,294,207.9,293.9,207.9z"/>
	<path class="st0_balloon-88" d="M296,207.4c-0.1,0-0.1,0-0.2,0c-0.3-0.1-0.4-0.4-0.3-0.7l24.1-59.7c0.1-0.3,0.4-0.4,0.7-0.3&#10;&#9;&#9;c0.3,0.1,0.4,0.4,0.3,0.7L296.6,207C296.5,207.3,296.2,207.4,296,207.4z"/>
	<path class="st0_balloon-88" d="M295.3,207.5c-0.2,0-0.3-0.1-0.4-0.2l-59.6-98.4c-0.1-0.2-0.1-0.6,0.2-0.7c0.2-0.1,0.6-0.1,0.7,0.2l59.7,98.4&#10;&#9;&#9;c0.1,0.2,0.1,0.6-0.2,0.7C295.4,207.5,295.4,207.5,295.3,207.5z"/>
	
		<ellipse transform="matrix(0.847 -0.5315 0.5315 0.847 -19.2348 143.4418)" class="st1_balloon-88" cx="239.6" cy="105.1" rx="28.3" ry="31.7"/>
	<path class="st2_balloon-88" d="M242.6,136.5c-2.8,0-5.6-0.4-8.2-1.2c-16.5-5.1-26.8-21.5-24.2-38.6c1.2-7.8,5.7-14.7,12.3-18.9&#10;&#9;&#9;c13.5-8.5,32.2-3.1,41.6,12c4.5,7,6.3,15.5,5,23.8c-1.2,7.8-5.7,14.7-12.3,18.9C252.5,135.1,247.6,136.5,242.6,136.5z M236.6,75&#10;&#9;&#9;c-4.8,0-9.4,1.3-13.5,3.8c-6.3,4.1-10.6,10.6-11.7,18.1c-2.4,16.5,7.5,32.3,23.4,37.2c13.4,4.3,27.8-3.1,32.1-16.6&#10;&#9;&#9;c0.4-1.4,0.8-2.8,1-4.2c1.3-8-0.4-16.1-4.8-22.9l0,0C256.8,80.6,246.6,75,236.6,75z"/>
	
		<ellipse transform="matrix(0.2548 -0.967 0.967 0.2548 123.2217 408.523)" class="st1_balloon-88" cx="326.7" cy="124.3" rx="33.9" ry="26.1"/>
	<path class="st2_balloon-88" d="M323.3,158.4c-1.8,0-3.7-0.2-5.4-0.7c-6.9-1.8-12.5-7-15.7-14.7s-3.7-16.6-1.3-25.5S308,101,314.6,96&#10;&#9;&#9;s14-6.8,20.9-5s12.5,7,15.8,14.7c3.2,8.1,3.7,17.1,1.3,25.5l0,0c-2.3,8.9-7.2,16.5-13.7,21.6C334.4,156.3,329,158.3,323.3,158.4z&#10;&#9;&#9; M330.1,91.5c-5.4,0.1-10.6,2.1-14.8,5.5c-6.3,4.8-11,12.3-13.3,20.9c-2.3,8.2-1.9,16.8,1.3,24.7c3.1,7.3,8.4,12.2,14.9,13.9&#10;&#9;&#9;s13.6,0,19.8-4.8s11-12.3,13.3-20.9l0,0c2.3-8.6,1.8-17.4-1.3-24.7s-8.4-12.2-14.9-13.9C333.5,91.8,331.8,91.5,330.1,91.5z"/>
	
		<ellipse transform="matrix(0.8304 -0.5572 0.5572 0.8304 -33.9714 151.8133)" class="st1_balloon-88" cx="232.4" cy="131.7" rx="31.9" ry="40.6"/>
	<path class="st2_balloon-88" d="M240.1,170.4c-12.4,0-25.9-7.5-34.7-20.6c-6.1-9.1-9.1-19.6-8.3-29.4s5.1-18,12.4-22.9&#10;&#9;&#9;c14.9-10,37.3-2.7,49.9,16.1l0,0c12.7,18.9,10.9,42.3-4,52.3C250.9,168.9,245.5,170.5,240.1,170.4z M224.6,94.2&#10;&#9;&#9;c-5.2-0.1-10.2,1.4-14.5,4.3c-6.9,4.6-11.1,12.4-11.8,22s2.2,19.7,8.1,28.6c12.3,18.3,33.9,25.4,48.2,15.8&#10;&#9;&#9;c14.3-9.6,15.9-32.3,3.7-50.6C249.8,101.6,236.6,94.2,224.6,94.2z"/>
	
		<ellipse transform="matrix(0.996 -8.906814e-02 8.906814e-02 0.996 -8.8647 25.6009)" class="st3_balloon-88 targetColor" cx="282.4" cy="112.1" rx="40.9" ry="51.8" style="fill: rgb(202, 60, 255);"/>
	<path class="st0_balloon-88" d="M300.6,264.7c-0.2,0-0.4-0.1-0.5-0.4c-2.4-7.5-3.3-28.8-3.8-40.2c-0.1-2.8-0.2-5.1-0.3-6.2&#10;&#9;&#9;c0-0.3,0.2-0.5,0.5-0.5c0.3,0,0.5,0.1,0.6,0.4c0.6,3,1.2,6.2,1.7,9.5c1.8,10.5,3.6,21.4,9.3,29.8c0.2,0.2,0.1,0.6-0.1,0.7&#10;&#9;&#9;c-0.2,0.2-0.6,0.1-0.7-0.1c0,0,0,0,0,0c-5.8-8.5-7.7-19.5-9.5-30.2c-0.1-0.7-0.2-1.4-0.4-2.1c0.5,11.6,1.3,31.6,3.6,38.7&#10;&#9;&#9;c0.1,0.3-0.1,0.6-0.3,0.6L300.6,264.7z"/>
	<path class="st0_balloon-88" d="M306.8,241.8c-0.2,0-0.3-0.1-0.4-0.2c-3.4-4.8-5.5-10.9-7.5-16.7c-0.8-2.2-1.5-4.2-2.2-6.2&#10;&#9;&#9;c-0.1-0.3,0-0.6,0.3-0.7s0.6,0,0.7,0.3c0.8,2,1.5,4.1,2.2,6.3c2,5.8,4,11.8,7.3,16.5c0.2,0.2,0.1,0.5-0.1,0.7c0,0,0,0,0,0&#10;&#9;&#9;C307,241.7,306.9,241.8,306.8,241.8z"/>
</g>
</svg>