<svg version="1.1" id="Layer_1" xmlns="http://www.w3.org/2000/svg" xmlns:xlink="http://www.w3.org/1999/xlink" x="0px" y="0px" viewBox="0 0 500 500" style="width: 144px;" xml:space="preserve" data-imageid="bicycle-14" imageName="Bicycle" class="illustrations_image">
<style type="text/css">
	.st0_bicycle-14{fill:#FFFFFF;}
	.st1_bicycle-14{fill:#231F20;}
	.st2_bicycle-14{fill:#68E1FD;}
	.st3_bicycle-14{fill:#D1D3D4;}
</style>
<g id="Left_Foot_bicycle-14">
	<path class="st0_bicycle-14" d="M253.3,364.3c0,0,4.7,8.8,5.4,9.9s25.2-14.2,24.3-16.5s-18.3,0.6-18.3,0.6L253.3,364.3z"/>
	<path class="st1_bicycle-14" d="M258.8,374.9c-0.3,0-0.5-0.1-0.6-0.4c-0.7-1.1-5.2-9.6-5.4-10c-0.2-0.3-0.1-0.7,0.3-0.9c0,0,0,0,0,0l11.4-6&#10;&#9;&#9;c0.1,0,0.1-0.1,0.2-0.1c6.7-1.1,18.1-2.5,19-0.2c1.2,2.9-19.2,14.9-22,16.4C260.7,374.4,259.7,374.7,258.8,374.9z M254.1,364.6&#10;&#9;&#9;c1,1.8,4,7.5,4.9,9c3-0.8,22.4-13.2,23.3-15.7c-1.1-1-9.8-0.2-17.5,1L254.1,364.6z"/>
	<polygon class="st0_bicycle-14" points="228,274 264.6,358.3 253.3,364.3 204,275.4 &#9;"/>
	<path class="st1_bicycle-14" d="M253.3,365c-0.2,0-0.4-0.1-0.6-0.3l-49.3-89c-0.1-0.2-0.1-0.4,0-0.6c0.1-0.2,0.3-0.3,0.5-0.3l24.1-1.3&#10;&#9;&#9;c0.3,0,0.5,0.1,0.6,0.4l36.6,84.3c0.1,0.3,0,0.7-0.3,0.8l-11.4,6C253.5,364.9,253.4,365,253.3,365z M205,276l48.5,87.5l10.3-5.5&#10;&#9;&#9;l-36.2-83.3L205,276z"/>
	<path class="st1_bicycle-14" d="M174.4,238.1c-0.7,2.3,43.7,66,43.7,66l21.2-13c0,0-19-56.2-29.5-61.7S176.4,231.2,174.4,238.1z"/>
	<path class="st1_bicycle-14" d="M218.1,304.8c-0.2,0-0.4-0.1-0.6-0.3c-13.4-19.2-44.5-64.2-43.8-66.6l0,0c1-3.6,6.2-6.2,9.2-7.5&#10;&#9;&#9;c8.3-3.6,20.3-5.3,27.2-1.7c10.7,5.6,29.1,59.8,29.9,62.1c0.1,0.3,0,0.7-0.3,0.8l-21.2,13C218.4,304.8,218.2,304.8,218.1,304.8z&#10;&#9;&#9; M175.1,238.2c0.7,3.2,26,40.3,43.2,64.9l20.2-12.4c-2-5.7-19.4-55.8-29-60.8c-6.5-3.4-18-1.7-26,1.7&#10;&#9;&#9;C178.9,233.7,175.8,236.1,175.1,238.2L175.1,238.2z M174.4,238.1L174.4,238.1z"/>
</g>
<g id="Bottle_bicycle-14">
	
		<rect x="326.9" y="214.3" transform="matrix(0.9785 -0.2064 0.2064 0.9785 -41.0306 73.9627)" class="st2_bicycle-14 targetColor" width="14.2" height="38.7" style="fill: rgb(255, 229, 168);"/>
	<path class="st1_bicycle-14" d="M331.1,254.7c-0.3,0-0.6-0.2-0.6-0.5l-8-37.9c0-0.2,0-0.3,0.1-0.5c0.1-0.1,0.2-0.2,0.4-0.3l13.9-2.9&#10;&#9;&#9;c0.2,0,0.3,0,0.5,0.1c0.1,0.1,0.2,0.2,0.3,0.4l8,37.9c0.1,0.3-0.1,0.7-0.5,0.8l-13.9,2.9L331.1,254.7z M323.8,216.7l7.7,36.7&#10;&#9;&#9;l12.7-2.7l-7.7-36.7L323.8,216.7z"/>
	<path class="st0_bicycle-14" d="M332.5,207.6l-7.6,1.6c-1.7,1.7-2.4,4.1-1.9,6.5l-0.2,0.6l13.9-2.9l0.2-0.6&#10;&#9;&#9;C336.4,210.4,334.7,208.4,332.5,207.6z"/>
	<path class="st1_bicycle-14" d="M322.7,216.9c-0.3,0-0.6-0.3-0.6-0.6c0-0.1,0-0.2,0.1-0.3l0.2-0.4c-0.5-2.5,0.3-5.1,2.1-6.9&#10;&#9;&#9;c0.1-0.1,0.2-0.1,0.3-0.2l7.6-1.6c0.1,0,0.2,0,0.4,0c2.4,1,4.2,3.1,4.8,5.6c0,0.1,0,0.3,0,0.4l-0.2,0.6c-0.1,0.2-0.3,0.3-0.5,0.4&#10;&#9;&#9;l-13.9,2.9L322.7,216.9z M325.2,209.8c-1.4,1.5-2,3.6-1.6,5.6l12.6-2.7c-0.5-2-1.9-3.6-3.8-4.4L325.2,209.8z"/>
	<rect x="324" y="203.3" transform="matrix(0.9785 -0.2064 0.2064 0.9785 -35.431 72.13)" class="st0_bicycle-14" width="8" height="5.2"/>
	<path class="st1_bicycle-14" d="M324.6,209.9c-0.3,0-0.6-0.2-0.6-0.5l-1.1-5.1c0-0.2,0-0.3,0.1-0.5c0.1-0.1,0.2-0.2,0.4-0.3l7.9-1.7&#10;&#9;&#9;c0.3-0.1,0.7,0.1,0.8,0.5c0,0,0,0,0,0l1.1,5.1c0,0.2,0,0.3-0.1,0.5c-0.1,0.1-0.2,0.2-0.4,0.3l-7.9,1.7L324.6,209.9z M324.3,204.7&#10;&#9;&#9;l0.8,3.8l6.6-1.4l-0.8-3.8L324.3,204.7z"/>
</g>
<g id="Bicycle_bicycle-14">
	<path class="st1_bicycle-14" d="M148.3,401.1c-37.3,0-67.6-30.3-67.6-67.6s30.3-67.6,67.6-67.6s67.6,30.3,67.6,67.6c0,0,0,0,0,0&#10;&#9;&#9;C215.8,370.9,185.6,401.1,148.3,401.1z M148.3,275.8c-31.9,0-57.8,25.9-57.8,57.8s25.9,57.8,57.8,57.8s57.8-25.9,57.8-57.8&#10;&#9;&#9;c0,0,0,0,0,0C206,301.7,180.2,275.8,148.3,275.8z"/>
	<path class="st2_bicycle-14 targetColor" d="M215.6,319c-1.3,0-2.4-0.9-2.7-2.1c-9.2-35.7-45.6-57.1-81.3-47.9c-19.1,4.9-35,18-43.5,35.8&#10;&#9;&#9;c-0.8,1.3-2.6,1.7-3.9,0.8c-1.1-0.7-1.5-2-1.1-3.2c17.2-36,60.4-51.3,96.4-34c19.3,9.2,33.5,26.5,38.8,47.2c0.4,1.5-0.5,3-2,3.4&#10;&#9;&#9;C216.1,319,215.8,319,215.6,319z" style="fill: rgb(255, 229, 168);"/>
	<circle class="st1_bicycle-14" cx="148.3" cy="333.6" r="9.1"/>
	<path class="st1_bicycle-14" d="M351.7,401.1c-37.3,0-67.6-30.3-67.6-67.6s30.3-67.6,67.6-67.6s67.6,30.3,67.6,67.6c0,0,0,0,0,0&#10;&#9;&#9;C419.3,370.9,389.1,401.1,351.7,401.1z M351.7,275.8c-31.9,0-57.8,25.9-57.8,57.8c0,31.9,25.9,57.8,57.8,57.8&#10;&#9;&#9;c31.9,0,57.8-25.9,57.8-57.8c0,0,0,0,0,0C409.5,301.7,383.6,275.8,351.7,275.8z"/>
	<path class="st2_bicycle-14 targetColor" d="M283.9,336.4c-1.5,0-2.8-1.3-2.8-2.8c0.1-39,31.7-70.5,70.6-70.6c1.5,0,2.8,1.3,2.8,2.8c0,1.5-1.3,2.8-2.8,2.8&#10;&#9;&#9;c-35.9,0-65,29.1-65,65C286.7,335.1,285.5,336.4,283.9,336.4z" style="fill: rgb(255, 229, 168);"/>
	<circle class="st1_bicycle-14" cx="351.7" cy="333.6" r="9.1"/>
	<path class="st2_bicycle-14 targetColor" d="M353.6,336.4c-0.7,0-1.3-0.2-1.8-0.7c-8-7.3-14.7-15.8-20-25.2c-6-11.4-20.9-58.5-27.1-78.3&#10;&#9;&#9;c-6.8,19.9-26.9,67.4-70.2,86.5c-1.4,0.6-3.1,0-3.7-1.4c-0.6-1.4,0-3.1,1.4-3.7l0,0c51.7-22.8,69.6-90.9,69.8-91.6&#10;&#9;&#9;c0.3-1.2,1.4-2.1,2.6-2.1c1.3,0,2.4,0.8,2.8,2c0.2,0.7,22.1,72.2,29.4,86c7.1,13.5,18.6,23.5,18.7,23.6c1.2,1,1.3,2.8,0.3,3.9&#10;&#9;&#9;C355.2,336,354.5,336.4,353.6,336.4L353.6,336.4z" style="fill: rgb(255, 229, 168);"/>
	<path class="st2_bicycle-14 targetColor" d="M240.1,345.4c-0.2,0-0.4,0-0.5,0c-1-0.2-1.8-0.9-2.1-1.9l-27.4-81.1c-0.5-1.5,0.3-3.1,1.8-3.6&#10;&#9;&#9;c1.5-0.5,3.1,0.3,3.6,1.8l25.9,76.5l72-82.6c1-1.2,2.8-1.3,3.9-0.3c1.2,1,1.3,2.8,0.3,3.9c0,0,0,0-0.1,0.1l-75.2,86.3&#10;&#9;&#9;C241.7,345.1,240.9,345.4,240.1,345.4z" style="fill: rgb(255, 229, 168);"/>
	<path class="st2_bicycle-14 targetColor" d="M240.1,345.4h-0.3l-92.6-9.1c-1.5-0.2-2.6-1.6-2.5-3.1c0.1-0.8,0.5-1.4,1.1-1.9l71.7-52.8&#10;&#9;&#9;c1.2-0.9,3-0.7,3.9,0.6s0.7,3-0.6,3.9L155,331.5l85.4,8.4c1.5,0.1,2.7,1.5,2.6,3C242.8,344.3,241.6,345.4,240.1,345.4L240.1,345.4z&#10;&#9;&#9;" style="fill: rgb(255, 229, 168);"/>
	<path class="st1_bicycle-14" d="M304.8,225.4c-1.1,0-2.2-0.7-2.6-1.7l-5.3-12.9l-12.2-1.5c-1.5-0.2-2.6-1.6-2.4-3.1s1.6-2.6,3.1-2.4l0,0&#10;&#9;&#9;l13.8,1.7c1,0.1,1.9,0.8,2.2,1.7l5.9,14.4c0.6,1.4-0.1,3.1-1.5,3.6c0,0,0,0,0,0C305.5,225.3,305.1,225.4,304.8,225.4z"/>
	<path class="st3_bicycle-14" d="M223.1,250.7c0,0-36-2.6-36,0s4.7,11.6,11,12.1s21.6-3,25-6.6S223.1,250.7,223.1,250.7z"/>
	<path class="st1_bicycle-14" d="M199.4,263.5c-0.5,0-0.9,0-1.4,0c-6.8-0.6-11.6-9.9-11.6-12.7c0-0.3,0.1-0.5,0.3-0.7&#10;&#9;&#9;c2.4-2.3,30.7-0.3,36.4,0.1c0.1,0,0.2,0,0.3,0.1c0.9,0.5,1.6,1.4,1.8,2.5c0.2,1.2-0.4,2.6-1.6,4&#10;&#9;&#9;C220.1,260.2,206.2,263.5,199.4,263.5z M187.7,250.8c0.2,2.4,4.6,10.8,10.4,11.3c6.3,0.5,21.2-3,24.4-6.4c0.9-0.7,1.3-1.8,1.3-2.9&#10;&#9;&#9;c-0.1-0.6-0.5-1.2-1.1-1.5C206.9,250.1,189.6,249.7,187.7,250.8L187.7,250.8z"/>
	<path class="st1_bicycle-14" d="M240.1,344c-0.3,0-0.6-0.1-0.9-0.3l-39.2-30.9c-0.6-0.5-0.7-1.4-0.2-2c0.5-0.6,1.3-0.7,1.9-0.2l39.2,30.9&#10;&#9;&#9;c0.6,0.5,0.7,1.3,0.3,2c0,0,0,0,0,0C241,343.8,240.5,344,240.1,344z"/>
	<path class="st1_bicycle-14" d="M270.3,369c-0.3,0-0.6-0.1-0.9-0.3l-30.2-25c-0.6-0.5-0.6-1.4-0.1-2c0.5-0.6,1.3-0.6,1.9-0.2l30.2,25&#10;&#9;&#9;c0.6,0.5,0.7,1.4,0.2,2c0,0,0,0,0,0C271.2,368.8,270.8,369,270.3,369z"/>
	<path class="st3_bicycle-14" d="M199.3,303.9l18.5,12.9c0.7,0.5,0.9,1.4,0.4,2.1l-0.7,1c-0.5,0.7-1.4,0.9-2.1,0.4l-18.5-12.9&#10;&#9;&#9;c-0.7-0.5-0.9-1.4-0.4-2.1l0.7-1C197.7,303.6,198.6,303.4,199.3,303.9z"/>
	<path class="st1_bicycle-14" d="M216.2,320.9c-0.6,0-1.1-0.2-1.6-0.5l0,0l-17.6-12.2c-0.6-0.4-1-1.1-1.1-1.8c-0.3-1.5,0.7-2.9,2.2-3.2&#10;&#9;&#9;c0.7-0.1,1.5,0,2.1,0.4l17.6,12.2c1.2,0.9,1.5,2.6,0.6,3.9C217.8,320.5,217,320.9,216.2,320.9L216.2,320.9z M215.3,319.4&#10;&#9;&#9;c0.7,0.5,1.6,0.3,2.1-0.4c0.2-0.3,0.3-0.7,0.2-1.1c-0.1-0.4-0.3-0.8-0.6-1l-17.6-12.2c-0.3-0.2-0.7-0.3-1.1-0.2&#10;&#9;&#9;c-0.4,0.1-0.8,0.3-1,0.6c-0.2,0.3-0.3,0.7-0.2,1.1c0.1,0.4,0.3,0.8,0.6,1L215.3,319.4z"/>
	<path class="st3_bicycle-14" d="M258.2,374.5l20.6-12.8c0.7-0.4,1.7-0.2,2.1,0.5l0.6,1c0.4,0.7,0.2,1.7-0.5,2.1l-20.6,12.8&#10;&#9;&#9;c-0.7,0.4-1.7,0.2-2.1-0.5l-0.6-1C257.3,375.9,257.5,375,258.2,374.5z"/>
	<path class="st1_bicycle-14" d="M259.9,378.7c-0.2,0-0.4,0-0.6-0.1c-0.7-0.2-1.3-0.6-1.7-1.2c-0.8-1.3-0.4-3,0.9-3.8l19.6-12.1&#10;&#9;&#9;c1.3-0.8,3-0.4,3.8,0.9c0.8,1.3,0.4,3-0.9,3.8l0,0l0,0l-19.6,12.2C260.9,378.6,260.4,378.7,259.9,378.7z M279.4,362.3&#10;&#9;&#9;c-0.3,0-0.5,0.1-0.8,0.2l-19.6,12.2c-0.3,0.2-0.6,0.5-0.7,0.9c-0.1,0.4,0,0.8,0.2,1.1c0.4,0.7,1.3,0.9,2,0.5l19.6-12.2&#10;&#9;&#9;c0.7-0.4,0.9-1.3,0.5-2C280.4,362.6,279.9,362.3,279.4,362.3L279.4,362.3z M280.6,365.6L280.6,365.6z"/>
	<path class="st3_bicycle-14" d="M320.4,252.6h-4.6c-0.4,0-0.6-0.3-0.6-0.6c0-0.4,0.3-0.6,0.6-0.6c0,0,0,0,0,0h4.6c0.4,0,0.6,0.3,0.6,0.6v0&#10;&#9;&#9;C321,252.4,320.7,252.6,320.4,252.6L320.4,252.6z"/>
	<path class="st3_bicycle-14" d="M352.1,256.8L352.1,256.8l-31.2-1.8c-0.3,0-0.5-0.2-0.6-0.5l-7.3-32.6c0-0.2,0-0.4,0.1-0.5&#10;&#9;&#9;c0.1-0.2,0.3-0.2,0.5-0.2l48.2-0.9c0.2,0,0.4,0.1,0.5,0.2c0.1,0.2,0.2,0.4,0.1,0.6l-9.8,35.3C352.6,256.6,352.4,256.8,352.1,256.8z&#10;&#9;&#9; M321.4,253.7l30.2,1.8l9.4-34l-46.6,0.9L321.4,253.7z"/>
	<path class="st3_bicycle-14" d="M328.8,255.4c-0.3,0-0.6-0.3-0.6-0.6l-2.6-33.3c0-0.4,0.3-0.6,0.6-0.6c0.3,0,0.6,0.2,0.6,0.5l2.6,33.3&#10;&#9;&#9;C329.4,255.1,329.2,255.4,328.8,255.4C328.8,255.4,328.8,255.4,328.8,255.4L328.8,255.4z"/>
	<path class="st3_bicycle-14" d="M335.8,255.9L335.8,255.9c-0.3,0-0.6-0.3-0.6-0.7l1.9-33.7c0-0.4,0.3-0.6,0.7-0.6c0.3,0,0.6,0.3,0.6,0.7&#10;&#9;&#9;l-1.9,33.7C336.5,255.6,336.2,255.9,335.8,255.9z"/>
	<path class="st3_bicycle-14" d="M343.5,256.3h-0.1c-0.3-0.1-0.6-0.4-0.5-0.8l7.1-34.6c0.1-0.3,0.4-0.6,0.7-0.5c0,0,0,0,0,0&#10;&#9;&#9;c0.3,0.1,0.6,0.4,0.5,0.8c0,0,0,0,0,0l-7.1,34.6C344.1,256.1,343.8,256.3,343.5,256.3z"/>
	<path class="st3_bicycle-14" d="M358.7,232.8L358.7,232.8c-43.4-0.6-43.5-0.9-43.6-1.6c-0.1-0.3,0.1-0.7,0.5-0.8c0,0,0,0,0,0&#10;&#9;&#9;c0.1-0.1,0.3-0.1,0.4,0c1.8,0.3,26.5,0.8,42.8,1c0.3,0,0.6,0.3,0.6,0.6c0,0,0,0,0,0C359.4,232.5,359.1,232.8,358.7,232.8&#10;&#9;&#9;C358.8,232.8,358.8,232.8,358.7,232.8z"/>
	<path class="st3_bicycle-14" d="M356.5,241L356.5,241l-38.9-1.1c-0.4,0-0.6-0.3-0.6-0.6c0-0.4,0.3-0.6,0.6-0.6l0,0l38.9,1.1&#10;&#9;&#9;c0.3,0,0.6,0.3,0.6,0.6c0,0,0,0,0,0C357.1,240.7,356.8,241,356.5,241z"/>
	<path class="st3_bicycle-14" d="M354.2,249L354.2,249l-35-1.5c-0.4,0-0.6-0.3-0.6-0.7c0,0,0,0,0,0c0-0.3,0.3-0.6,0.6-0.6c0,0,0,0,0.1,0l35,1.5&#10;&#9;&#9;c0.3,0,0.6,0.3,0.6,0.6c0,0,0,0,0,0C354.9,248.7,354.6,249,354.2,249C354.3,249,354.3,249,354.2,249z"/>
	<circle class="st1_bicycle-14" cx="239.3" cy="343.5" r="7.1"/>
	<path class="st1_bicycle-14" d="M239.3,351.3c-4.3,0-7.8-3.5-7.8-7.8c0-4.3,3.5-7.8,7.8-7.8c4.3,0,7.8,3.5,7.8,7.8l0,0&#10;&#9;&#9;C247.1,347.8,243.6,351.3,239.3,351.3z M239.3,337.1c-3.5,0-6.4,2.9-6.4,6.4c0,3.5,2.9,6.4,6.4,6.4s6.4-2.9,6.4-6.4c0,0,0,0,0,0&#10;&#9;&#9;C245.7,340,242.9,337.1,239.3,337.1z"/>
	<path class="st1_bicycle-14" d="M239.3,360c-9.1,0-16.5-7.4-16.5-16.5s7.4-16.5,16.5-16.5s16.5,7.4,16.5,16.5C255.8,352.6,248.4,360,239.3,360&#10;&#9;&#9;z M239.3,328.3c-8.4,0-15.2,6.8-15.2,15.2c0,8.4,6.8,15.2,15.2,15.2s15.2-6.8,15.2-15.2C254.5,335.1,247.7,328.3,239.3,328.3&#10;&#9;&#9;C239.3,328.3,239.3,328.3,239.3,328.3L239.3,328.3z"/>
	<path class="st2_bicycle-14 targetColor" d="M294.9,282.6c-0.8,0-1.6-0.3-2.1-0.9l-9.2-10.3c-1-1.1-0.9-2.9,0.2-4c1.1-1,2.9-0.9,4,0.2l9.3,10.3&#10;&#9;&#9;c1,1.1,1,2.9-0.2,3.9C296.3,282.3,295.6,282.6,294.9,282.6z" style="fill: rgb(255, 229, 168);"/>
	<path class="st3_bicycle-14" d="M137.2,324.4c-0.2,0-0.3,0-0.4-0.1l-29.9-23.2c-0.3-0.2-0.4-0.7-0.2-1c0,0,0,0,0,0c0.2-0.3,0.7-0.4,1-0.1&#10;&#9;&#9;c0,0,0,0,0,0l29.9,23.2c0.3,0.2,0.4,0.7,0.1,1c0,0,0,0,0,0C137.6,324.3,137.4,324.4,137.2,324.4z"/>
	<path class="st3_bicycle-14" d="M141.4,380.9h-0.1c-0.4-0.1-0.6-0.5-0.5-0.8c0,0,0,0,0,0l6.9-31.3c0.1-0.4,0.4-0.6,0.8-0.5c0,0,0,0,0,0&#10;&#9;&#9;c0.4,0.1,0.6,0.5,0.5,0.8c0,0,0,0,0,0l-6.9,31.3C142,380.7,141.7,380.9,141.4,380.9z"/>
	<path class="st3_bicycle-14" d="M168.4,329.6c-0.4,0-0.7-0.3-0.7-0.7c0-0.3,0.2-0.5,0.4-0.6l25.4-9.8c0.4-0.1,0.8,0,0.9,0.4&#10;&#9;&#9;c0.1,0.4,0,0.8-0.4,0.9l-25.4,9.8C168.6,329.6,168.5,329.6,168.4,329.6z"/>
	<path class="st3_bicycle-14" d="M331.5,380.6c-0.4,0-0.7-0.3-0.7-0.7c0-0.1,0-0.2,0.1-0.3l15.5-31.3c0.2-0.3,0.6-0.5,0.9-0.3c0,0,0,0,0,0&#10;&#9;&#9;c0.3,0.2,0.5,0.6,0.3,0.9l-15.5,31.3C332,380.5,331.8,380.6,331.5,380.6z"/>
	<path class="st3_bicycle-14" d="M335,327.3c-0.1,0-0.2,0-0.4-0.1l-29.4-16.9c-0.3-0.2-0.5-0.6-0.3-1c0.2-0.3,0.6-0.5,1-0.3l0,0l29.4,16.9&#10;&#9;&#9;c0.3,0.2,0.5,0.6,0.3,0.9c0,0,0,0,0,0.1C335.5,327.2,335.3,327.3,335,327.3z"/>
	<path class="st3_bicycle-14" d="M365.1,329.6c-0.2,0-0.4-0.1-0.6-0.3c-0.2-0.3-0.2-0.7,0.1-1c0,0,0,0,0,0l30-21.6c0.3-0.2,0.7-0.2,1,0.1&#10;&#9;&#9;c0,0,0,0,0,0c0.2,0.3,0.2,0.7-0.1,1c0,0,0,0-0.1,0l-30,21.6C365.4,329.6,365.3,329.6,365.1,329.6z"/>
</g>
<g id="Character_bicycle-14">
	<path class="st1_bicycle-14" d="M184.2,205.3c0,0-12.1,18.8-12.9,31.2c-1.7,26.3,75.1,23,75.1,23l7.9-23l-31.6-12.9L184.2,205.3z"/>
	<path class="st1_bicycle-14" d="M238.1,260.4c-16.3,0-51.5-1.5-63.4-13.6c-2.8-2.7-4.2-6.4-4-10.3c0.8-12.5,12.5-30.8,13-31.6&#10;&#9;&#9;c0.2-0.3,0.6-0.4,0.9-0.2L223,223l31.6,12.9c0.3,0.1,0.5,0.5,0.4,0.9l-7.9,23c-0.1,0.3-0.3,0.5-0.6,0.5&#10;&#9;&#9;C245.9,260.3,242.8,260.4,238.1,260.4z M184.5,206.2c-1.9,3.1-11.8,19.4-12.5,30.4c-0.2,3.5,1.1,6.8,3.6,9.2&#10;&#9;&#9;c14.2,14.5,64.8,13.3,70.3,13.1l7.5-21.9l-31-12.7L184.5,206.2z"/>
	<path class="st0_bicycle-14" d="M254.3,236.5c0,0,34.2,6.7,28.7,16.7c-5.5,10-67.4,49.2-67.4,49.2l-9.1-6.9l42.1-42.2L254.3,236.5z"/>
	<path class="st1_bicycle-14" d="M215.6,303.1c-0.1,0-0.3,0-0.4-0.1l-9.2-6.9c-0.3-0.2-0.4-0.6-0.2-0.9c0,0,0.1-0.1,0.1-0.1L248,253l5.7-16.7&#10;&#9;&#9;c0.1-0.3,0.4-0.5,0.7-0.4c1,0.2,25.6,5.1,29.3,13.1c0.7,1.5,0.6,3.2-0.2,4.6c-5.5,10-65.1,47.8-67.6,49.4&#10;&#9;&#9;C215.8,303,215.7,303.1,215.6,303.1z M207.4,295.5l8.2,6.2c5.2-3.3,61.7-39.4,66.8-48.7c0.6-1,0.7-2.3,0.2-3.4&#10;&#9;&#9;c-3.1-6.8-24.2-11.5-27.8-12.2l-5.6,16.3c0,0.1-0.1,0.2-0.1,0.2L207.4,295.5z M248.6,253.4L248.6,253.4z"/>
	<path class="st0_bicycle-14" d="M206.4,295.5c0,0-7.6,4.1-6.8,6.9s23.6,19.3,23.9,16.4s-8-16.4-8-16.4L206.4,295.5z"/>
	<path class="st1_bicycle-14" d="M223.1,319.8c-4,0-23.3-14.6-24.1-17.2c-0.9-3.1,5.7-6.9,7.1-7.6c0.2-0.1,0.5-0.1,0.7,0l9.1,6.9&#10;&#9;&#9;c0.1,0.1,0.1,0.1,0.2,0.2c0.9,1.4,8.4,13.8,8.1,16.8c0,0.5-0.5,0.9-0.9,0.9L223.1,319.8z M206.4,296.3c-2.9,1.6-6.5,4.4-6.1,5.9&#10;&#9;&#9;c0.7,2.5,19.6,16,22.7,16.3c-0.2-2.3-4.8-10.7-7.9-15.7L206.4,296.3z"/>
	<path class="st0_bicycle-14" d="M207.7,102.6c-2.9-1.6-6.1-2.5-9.4-2.8c-4.8-0.5-12.4-0.1-16.7,2.6c-5.1,3.2-5.7,10.3-10,14.3&#10;&#9;&#9;c-4.6,4.3-11.8,4.5-17.8,2.8c8.4,10.7,23.9,12.5,34.6,4c1-0.8,1.9-1.6,2.7-2.5c4.4-4.7,6.3-9,13.1-7.9c3,0.5,10.1,4.9,11.6,0&#10;&#9;&#9;C217.1,109.1,210.5,104.2,207.7,102.6z"/>
	<path class="st1_bicycle-14" d="M173.1,129.5h-1c-7.4-0.3-14.2-3.8-18.9-9.6c-0.2-0.3-0.2-0.7,0.1-1c0.2-0.1,0.4-0.2,0.6-0.1&#10;&#9;&#9;c6.8,2,13.2,1,17.1-2.6c1.8-1.9,3.2-4.1,4.2-6.5c1.5-3,3-6.1,5.9-7.9c4.2-2.7,11.9-3.3,17.1-2.7c3.4,0.3,6.7,1.3,9.6,2.9l0,0&#10;&#9;&#9;c2.8,1.6,9.9,6.8,8.6,11.3c-0.3,1-0.9,1.9-1.9,2.4c-2.1,1.1-5.3-0.1-7.8-1c-0.9-0.4-1.8-0.6-2.7-0.8c-5.2-0.9-7.2,1.5-10.3,5.2&#10;&#9;&#9;c-0.7,0.8-1.4,1.7-2.2,2.5C186.8,126.6,180.1,129.5,173.1,129.5z M155.8,120.7c9.1,9.6,24.3,10,33.8,0.8c0.4-0.3,0.7-0.7,1-1&#10;&#9;&#9;c0.8-0.8,1.5-1.7,2.2-2.5c3.1-3.7,5.6-6.6,11.6-5.6c1,0.2,2,0.5,3,0.9c2.3,0.8,5.1,1.9,6.7,1.1c0.6-0.3,1-0.9,1.1-1.5&#10;&#9;&#9;c1-3.3-5-8-7.9-9.7l0,0c-2.8-1.5-5.9-2.4-9.1-2.7c-5-0.6-12.3,0-16.2,2.5c-2.6,1.7-4,4.4-5.4,7.4c-1.1,2.5-2.6,4.9-4.5,6.9&#10;&#9;&#9;C168.3,120.7,162.3,122,155.8,120.7L155.8,120.7z"/>
	<path class="st1_bicycle-14" d="M210.5,105.7c-1.9,1-3.4,2.6-4.3,4.6c-0.7,1.3-1,2.7-0.8,4.2c0.3,1.8,1.4,3.3,3,4.1c0.7,0.4,1.5,0.5,2.2,0.4&#10;&#9;&#9;c0.6-0.2,1.2-0.6,1.6-1.1C215.4,114.5,219.9,101.2,210.5,105.7z"/>
	<path class="st1_bicycle-14" d="M210,119.7c-0.7,0-1.4-0.2-2-0.6c-1.8-0.9-3-2.6-3.4-4.6c-0.2-1.6,0.2-3.2,0.9-4.6c0.9-2.1,2.6-3.9,4.6-5&#10;&#9;&#9;c2.9-1.4,4.9-1.3,5.9,0.2c2.1,3-1,10.6-3.4,13.1c-0.5,0.6-1.2,1-1.9,1.3C210.5,119.6,210.3,119.7,210,119.7z M213.7,105.4&#10;&#9;&#9;c-1,0.1-2,0.4-2.9,0.8l0,0c-1.8,0.9-3.2,2.4-4,4.3c-0.6,1.2-0.9,2.5-0.8,3.8c0.3,1.5,1.2,2.8,2.6,3.6c0.5,0.3,1.1,0.4,1.7,0.3&#10;&#9;&#9;c0.5-0.2,0.9-0.5,1.3-0.9c2.2-2.3,4.8-9.2,3.3-11.3C214.6,105.6,214.2,105.4,213.7,105.4z M210.5,105.7L210.5,105.7z"/>
	<path class="st0_bicycle-14" d="M219.6,146.2c-2,0.6-4.1,0.3-6.8-1.8c-2.1-1.8-3.8-4.1-4.8-6.7c-4.2-10.1-2.4-21.7,4.8-30&#10;&#9;&#9;c7.2-8.1,22-11.5,29.6-1.9c2.6,3.3,3.5,7.6,2.7,11.7c1.6,0.4,2.9,1.7,3.2,3.4c0.9,4.1-0.9,6.7-4.1,8.9c-5.3,3.6-11,6.6-16.2,10.4&#10;&#9;&#9;C225,142.4,222.5,145.3,219.6,146.2z"/>
	<path class="st1_bicycle-14" d="M217.9,147.2c-2-0.1-3.9-0.9-5.4-2.2c-2.2-1.9-3.9-4.2-5-6.9c-4.4-10.4-2.5-22.3,4.9-30.8&#10;&#9;&#9;c4.6-5.1,11.2-8,18.1-8c4.9,0,9.5,2.3,12.5,6.2c2.5,3.3,3.6,7.5,2.9,11.6c1.5,0.7,2.7,2.1,3,3.7c1.2,5.2-1.9,8-4.4,9.6&#10;&#9;&#9;c-2.2,1.5-4.5,2.9-6.7,4.2c-3.2,1.9-6.4,3.9-9.5,6.1c-1,0.7-1.9,1.5-2.8,2.3c-1.9,1.6-3.7,3.2-5.7,3.8&#10;&#9;&#9;C219.2,147.1,218.6,147.2,217.9,147.2z M229.9,100.7c-6.3,0.1-12.3,2.8-16.5,7.5c-6.9,8.1-8.8,19.4-4.7,29.3c1,2.5,2.6,4.7,4.6,6.4&#10;&#9;&#9;c2.2,1.7,4.2,2.3,6.1,1.7l0,0c1.8-0.6,3.4-2,5.2-3.5c0.9-0.8,1.9-1.6,2.9-2.4c3.1-2.3,6.4-4.3,9.6-6.2c2.2-1.3,4.5-2.7,6.7-4.2&#10;&#9;&#9;c3.4-2.3,4.6-4.8,3.8-8.2c-0.2-1.4-1.3-2.5-2.6-2.8c-0.2,0-0.4-0.1-0.5-0.3c-0.1-0.2-0.1-0.4-0.1-0.5c0.8-3.9-0.1-8-2.5-11.1&#10;&#9;&#9;c-2.8-3.5-7-5.5-11.4-5.6L229.9,100.7z"/>
	<path class="st0_bicycle-14" d="M240.1,129.8c0,0,2.8,8.8,1.3,10s-4.5-0.7-4.5-0.7"/>
	<path class="st1_bicycle-14" d="M240.2,140.9c-1.3-0.1-2.5-0.5-3.6-1.2c-0.3-0.2-0.4-0.6-0.2-1c0.2-0.3,0.6-0.4,1-0.2l0,0&#10;&#9;&#9;c0.9,0.6,2.9,1.5,3.7,0.8c0.6-0.6-0.1-4.9-1.5-9.2c-0.1-0.4,0.1-0.8,0.5-0.9c0.4-0.1,0.8,0.1,0.9,0.5c0.9,2.8,2.7,9.3,1.1,10.7&#10;&#9;&#9;C241.4,140.7,240.8,140.9,240.2,140.9z"/>
	<path class="st0_bicycle-14" d="M241.9,119.8c2.4,3.4-0.1,8.5-1.1,11.9c-1.4,4.9-3,9.7-4.7,14.5c-1.1,3-9.1,0.8-10.2-0.5&#10;&#9;&#9;c-1.1,5.7-1.1,20-7.9,22.2c-1.4,0.3-2.8,0.2-4.1-0.5c-8.7-3.9-6-11.8-4.3-18.7c1.3-5.2,2.4-10.5,3.6-15.7c0,0,5.3,1.6,10.2-3.8&#10;&#9;&#9;S234.6,126.4,241.9,119.8z"/>
	<path class="st1_bicycle-14" d="M216.7,168.9c-1.1,0-2.1-0.3-3.1-0.8c-8.6-3.9-6.7-11.5-5-18.2l0.3-1.3c0.9-3.5,1.7-7,2.4-10.5&#10;&#9;&#9;c0.4-1.7,0.8-3.5,1.2-5.2c0-0.2,0.2-0.3,0.3-0.4c0.2-0.1,0.4-0.1,0.6-0.1c0.2,0.1,5,1.4,9.5-3.6c2.5-2.8,5.4-3.5,8.4-4.4&#10;&#9;&#9;c3.2-0.9,6.5-1.8,10.1-5.1c0.2-0.1,0.3-0.2,0.6-0.2c0.2,0,0.4,0.1,0.5,0.3c2.2,3.1,0.8,7.3-0.4,10.7c-0.2,0.6-0.4,1.3-0.6,1.9&#10;&#9;&#9;c-1.4,4.9-3,9.8-4.7,14.6c-0.4,1-1.4,1.8-2.5,1.9c-2.7,0.3-5.4-0.2-7.9-1.4c-0.1,1-0.3,2.1-0.4,3.3c-0.8,7-1.9,16.5-7.7,18.4&#10;&#9;&#9;C217.7,168.8,217.2,168.9,216.7,168.9z M213.7,133.9c-0.3,1.5-0.7,3-1,4.6c-0.8,3.4-1.6,7-2.4,10.5l-0.3,1.3&#10;&#9;&#9;c-1.6,6.5-3.4,13.1,4.2,16.6c1.1,0.6,2.4,0.7,3.6,0.5c4.9-1.6,6.1-11,6.8-17.2c0.2-1.8,0.4-3.3,0.6-4.5c0.1-0.4,0.4-0.6,0.8-0.6&#10;&#9;&#9;c0.2,0,0.3,0.1,0.4,0.2c0.6,0.7,4.9,2.2,7.6,1.7c0.8-0.1,1.3-0.5,1.5-0.9c1.6-4.8,3.2-9.6,4.6-14.5c0.2-0.6,0.4-1.2,0.6-1.9&#10;&#9;&#9;c0.9-2.8,2.1-6.2,1-8.8c-2.9,2.4-6.3,4-10,4.8c-2.9,0.8-5.4,1.5-7.7,4C219.8,134.2,215.4,134.1,213.7,133.9L213.7,133.9z"/>
	<path class="st0_bicycle-14" d="M237,142.6c0,0-4.4,1.2-5.4-3.2"/>
	<path class="st1_bicycle-14" d="M235.7,143.4c-0.9,0-1.8-0.2-2.6-0.7c-1.1-0.7-1.9-1.9-2.1-3.3c-0.1-0.4,0.2-0.7,0.5-0.8c0,0,0,0,0,0&#10;&#9;&#9;c0.4-0.1,0.7,0.2,0.8,0.6c0.1,1,0.6,1.8,1.4,2.4c0.9,0.5,2,0.6,3,0.4c0.4-0.1,0.8,0.1,0.9,0.5s-0.1,0.8-0.5,0.9l0,0&#10;&#9;&#9;C236.7,143.4,236.2,143.4,235.7,143.4z"/>
	<path class="st1_bicycle-14" d="M225.9,145.7c0,0-4.1-1.4-5.2-4.8c0,0-1.2,5,4.5,9L225.9,145.7z"/>
	<path class="st1_bicycle-14" d="M225.2,150.6c-0.1,0-0.3,0-0.4-0.1c-6.1-4.2-4.9-9.5-4.8-9.7c0.1-0.3,0.3-0.5,0.7-0.5c0.3,0,0.6,0.2,0.7,0.5&#10;&#9;&#9;c1,3,4.7,4.3,4.7,4.3c0.3,0.1,0.5,0.4,0.5,0.8l-0.7,4.2c0,0.2-0.2,0.4-0.4,0.5C225.4,150.6,225.3,150.6,225.2,150.6z M221.4,143.6&#10;&#9;&#9;c0.5,2,1.6,3.8,3.3,5.1l0.4-2.5C223.7,145.6,222.4,144.7,221.4,143.6L221.4,143.6z"/>
	<ellipse transform="matrix(0.3427 -0.9395 0.9395 0.3427 37.9143 308.0956)" class="st1_bicycle-14" cx="239.1" cy="127" rx="1.8" ry="0.7"/>
	<path class="st0_bicycle-14" d="M229.4,129.4c0.2-1.3,0.1-2.6-0.4-3.7c-0.2-1-0.6-1.9-1.1-2.7c-0.5-0.8-1.4-1.4-2.4-1.6c-0.9,0-1.7,0.3-2.4,1&#10;&#9;&#9;c-0.6,0.6-1,1.4-1.3,2.2c-1.2,3.7-0.4,7.7,2.2,10.7l-0.2-0.4"/>
	<path class="st1_bicycle-14" d="M224,136c-0.2,0-0.4-0.1-0.5-0.2c-2.7-3.1-3.6-7.5-2.3-11.4c0.3-0.9,0.8-1.8,1.5-2.5c0.8-0.8,1.8-1.2,2.9-1.2&#10;&#9;&#9;c1.2,0.1,2.3,0.8,2.9,1.9c0.6,0.9,1,1.9,1.2,2.9c0.5,1.3,0.7,2.7,0.4,4.1c-0.1,0.4-0.4,0.6-0.8,0.5c-0.4-0.1-0.6-0.4-0.5-0.8&#10;&#9;&#9;c0,0,0-0.1,0-0.1c0.2-1.1,0-2.3-0.4-3.4c-0.2-0.9-0.5-1.7-1-2.5c-0.4-0.7-1.1-1.1-1.9-1.3c-0.7,0-1.3,0.3-1.8,0.8&#10;&#9;&#9;c-0.5,0.6-0.9,1.3-1.1,2c-1.1,3.2-0.5,6.7,1.6,9.4c0.2,0.1,0.3,0.2,0.4,0.3l0.2,0.4c0.2,0.3,0.1,0.7-0.2,0.9&#10;&#9;&#9;C224.3,136,224.2,136,224,136z"/>
	<path class="st2_bicycle-14 targetColor" d="M236.9,176.3c0-6.8-26-49.3-43.1-28.1c-7.1,8.7-8.6,36.4-19.1,72.7l48,2.8&#10;&#9;&#9;C222.7,223.6,236.9,199.6,236.9,176.3z" style="fill: rgb(255, 229, 168);"/>
	<path class="st1_bicycle-14" d="M206.2,153c-8.6-7.4-12.6,7.7-13.1,13.4c-0.6,9.4,1.1,18.9,5.1,27.5c0.5,1.3,1.3,2.5,2.4,3.4&#10;&#9;&#9;c1.9,1.3,4.7,0.8,6.5-0.7c1.7-1.6,2.9-3.7,3.5-6c2-6.3,2.1-13.1,1.8-19.7C212.1,164.3,211.1,157.2,206.2,153z"/>
	<path class="st1_bicycle-14" d="M203.2,198.6c-1,0-2.1-0.3-2.9-0.9c-1.2-1-2.1-2.2-2.7-3.6c-4.1-8.7-5.8-18.3-5.2-27.8&#10;&#9;&#9;c0.3-4.2,2.6-13.6,7.4-15.6c2.1-0.9,4.4-0.3,6.8,1.8l0,0c5.1,4.4,6.2,11.7,6.5,18.3c0.3,6.2,0.3,13.4-1.8,20&#10;&#9;&#9;c-0.6,2.4-1.9,4.6-3.8,6.3C206.4,198,204.9,198.6,203.2,198.6z M201.8,151.7c-0.5,0-0.9,0.1-1.4,0.3c-4,1.7-6.3,10.2-6.6,14.4&#10;&#9;&#9;c-0.6,9.3,1.1,18.7,5.1,27.1c0.4,1.2,1.2,2.3,2.2,3.1c1.7,1.2,4.2,0.5,5.7-0.7c1.6-1.5,2.7-3.5,3.3-5.6c2-6.4,2-13.5,1.7-19.5&#10;&#9;&#9;c-0.3-6.3-1.3-13.3-6-17.3l0,0C204.7,152.4,203.3,151.8,201.8,151.7z"/>
	<path class="st0_bicycle-14" d="M232,185.6c-4.9-4.3-21.9-36-29.7-34.6s-12.2,14.1-5.9,21.9s22.3,26,31.4,29.8s52.5,6.9,52.5,6.9h7.2&#10;&#9;&#9;c0,0-0.6,3.4,1.6,3s9.8-7.1,7.6-11.5s-8.7-5.5-10.1-5.9s-9.8,5-9.8,5S237,190,232,185.6z"/>
	<path class="st1_bicycle-14" d="M288.9,213.3c-0.5,0-1-0.2-1.4-0.6c-0.5-0.7-0.8-1.6-0.7-2.5h-6.5c-1.8-0.1-43.6-3.2-52.8-7&#10;&#9;&#9;c-10.6-4.4-29.5-27.3-31.6-29.9c-3.3-4.2-4.1-9.9-2.2-14.9c1.6-4.4,4.7-7.4,8.4-8c5.7-1.1,15,12.9,22.5,24.1&#10;&#9;&#9;c3.3,5,6.2,9.3,7.8,10.6l0,0c4.6,4,40.8,13.6,44.3,14.5c2.7-1.7,8.6-5.3,10-4.9l0.4,0.1c2,0.4,8,1.7,10.1,6.1&#10;&#9;&#9;c0.8,1.5,0.6,3.4-0.5,5.5c-1.8,3.3-5.7,6.6-7.5,6.9L288.9,213.3z M287.5,209c0.2,0,0.4,0.1,0.5,0.2c0.1,0.1,0.2,0.3,0.1,0.5&#10;&#9;&#9;c-0.2,0.7-0.1,1.5,0.2,2.1c0.2,0.2,0.4,0.2,0.7,0.1c1.2-0.2,4.9-3,6.6-6.2c0.9-1.7,1.1-3.2,0.5-4.4c-1.9-3.9-7.4-5-9.3-5.4&#10;&#9;&#9;l-0.4-0.1c-0.9-0.1-5.5,2.5-9.3,4.9c-0.1,0.1-0.3,0.1-0.5,0.1c-1.6-0.4-40.1-10.4-45.1-14.8l0,0c-1.7-1.5-4.4-5.6-8-10.9&#10;&#9;&#9;c-6.5-9.7-16.4-24.4-21.2-23.5c-3.2,0.6-6,3.3-7.4,7.2c-1.4,3.8-1.6,9.3,2,13.7c2.1,2.6,20.8,25.3,31.1,29.6&#10;&#9;&#9;c8.9,3.7,51.9,6.9,52.3,6.9H287.5z"/>
	<path class="st1_bicycle-14" d="M248.6,254.1c-0.3,0-0.6-0.2-0.7-0.5c-0.1-0.4,0.1-0.8,0.5-0.9c0.4-0.1,8.8-2.7,13.7-1.4&#10;&#9;&#9;c0.4,0.1,0.6,0.4,0.5,0.8c-0.1,0.4-0.4,0.6-0.8,0.5c0,0-0.1,0-0.1,0c-4.5-1.2-12.8,1.4-12.9,1.4&#10;&#9;&#9;C248.7,254.1,248.6,254.1,248.6,254.1z"/>
	<path class="st0_bicycle-14" d="M244.7,253.2c-0.1,0-0.1,0-0.2,0L177,234.6c-0.4-0.1-0.6-0.5-0.5-0.8c0,0,0,0,0,0c0.1-0.4,0.5-0.6,0.9-0.5&#10;&#9;&#9;l67.5,18.6c0.4,0.1,0.6,0.5,0.5,0.9C245.2,253,245,253.2,244.7,253.2L244.7,253.2z"/>
</g>
<g id="Steer_bicycle-14">
	<circle class="st1_bicycle-14" cx="283.9" cy="209" r="3.7"/>
</g>
</svg>