<svg version="1.1" id="Layer_1" xmlns="http://www.w3.org/2000/svg" xmlns:xlink="http://www.w3.org/1999/xlink" x="0px" y="0px" viewBox="0 0 500 500" style="width: 144px;" xml:space="preserve" data-imageid="calendar-71" imageName="Calendar" class="illustrations_image">
<style type="text/css">
	.st0_calendar-71{fill:#D1D3D4;}
	.st1_calendar-71{fill:#FFFFFF;}
	.st2_calendar-71{fill:#68E1FD;}
	.st3_calendar-71{fill:#231F20;}
	.st4_calendar-71{fill:none;}
</style>
<g id="floor_calendar-71">
	<path class="st0_calendar-71" d="M487.1,333.1H10.7c-0.4,0-0.8-0.3-0.8-0.8s0.3-0.8,0.8-0.8h476.4c0.4,0,0.8,0.3,0.8,0.8&#10;&#9;&#9;S487.5,333.1,487.1,333.1z"/>
</g>
<g id="Stationery_calendar-71">
	
		<rect x="34.2" y="183.1" transform="matrix(0.9987 -5.111586e-02 5.111586e-02 0.9987 -13.1901 2.8728)" class="st1_calendar-71" width="30.7" height="152.3"/>
	<path class="st0_calendar-71" d="M38.2,336.9c-0.2,0-0.4-0.1-0.5-0.2c-0.2-0.1-0.2-0.3-0.2-0.5l-7.8-152.1c0-0.4,0.3-0.8,0.7-0.8l30.7-1.6&#10;&#9;&#9;c0.4,0,0.7,0.3,0.8,0.7l7.8,152.1c0,0.4-0.3,0.8-0.7,0.8c0,0,0,0,0,0L38.2,336.9L38.2,336.9z M31.2,184.7l7.7,150.6l29.2-1.5&#10;&#9;&#9;l-7.7-150.6L31.2,184.7z"/>
	
		<rect x="30.2" y="184" transform="matrix(0.9987 -5.111573e-02 5.111573e-02 0.9987 -13.2578 1.9872)" class="st1_calendar-71" width="4.1" height="152.3"/>
	<path class="st0_calendar-71" d="M34.1,337.1c-0.4,0-0.7-0.3-0.8-0.7l-7.8-152.1c0-0.4,0.3-0.8,0.7-0.8l4.1-0.2c0.2,0,0.4,0.1,0.5,0.2&#10;&#9;&#9;c0.1,0.1,0.2,0.3,0.2,0.5l7.8,152.1c0,0.2-0.1,0.4-0.2,0.5c-0.1,0.1-0.3,0.2-0.5,0.2L34.1,337.1L34.1,337.1z M27,185l7.7,150.6&#10;&#9;&#9;l2.6-0.1l-7.7-150.7L27,185z"/>
	<path class="st0_calendar-71" d="M31.7,192.9c-0.4,0-0.8-0.3-0.8-0.8s0.3-0.8,0.8-0.8l5.8-0.3c0.4,0,0.8,0.3,0.8,0.7c0,0.4-0.3,0.8-0.7,0.8&#10;&#9;&#9;c0,0,0,0,0,0L31.7,192.9L31.7,192.9z"/>
	<path class="st0_calendar-71" d="M32.2,203.1c-0.4,0-0.7-0.3-0.8-0.7c0-0.4,0.3-0.8,0.7-0.8c0,0,0,0,0,0l6-0.3c0.4,0,0.7,0.3,0.8,0.7&#10;&#9;&#9;c0,0.4-0.3,0.8-0.7,0.8c0,0,0,0,0,0L32.2,203.1L32.2,203.1z"/>
	<path class="st0_calendar-71" d="M32.7,213.4c-0.4,0-0.7-0.3-0.8-0.7c0-0.4,0.3-0.8,0.7-0.8c0,0,0,0,0,0l10.1-0.5c0.4,0,0.7,0.3,0.8,0.7&#10;&#9;&#9;c0,0.4-0.3,0.8-0.7,0.8L32.7,213.4L32.7,213.4z"/>
	<path class="st0_calendar-71" d="M33.2,223.6c-0.4,0-0.7-0.3-0.8-0.7c0-0.4,0.3-0.8,0.7-0.8l5.8-0.3c0.4,0,0.8,0.3,0.8,0.7&#10;&#9;&#9;c0,0.4-0.3,0.8-0.7,0.8L33.2,223.6L33.2,223.6z"/>
	<path class="st0_calendar-71" d="M33.8,233.8c-0.4,0-0.8-0.3-0.8-0.8s0.3-0.8,0.8-0.8l6.1-0.3c0.4,0,0.8,0.3,0.8,0.7c0,0.4-0.3,0.8-0.7,0.8&#10;&#9;&#9;c0,0,0,0,0,0L33.8,233.8L33.8,233.8z"/>
	<path class="st0_calendar-71" d="M34.3,244c-0.4,0-0.8-0.3-0.8-0.8s0.3-0.8,0.8-0.8l10-0.5c0.4,0,0.8,0.3,0.8,0.7c0,0.4-0.3,0.8-0.7,0.8&#10;&#9;&#9;c0,0,0,0,0,0L34.3,244L34.3,244z"/>
	
		<rect x="26.8" y="278.1" transform="matrix(8.698187e-02 -0.9962 0.9962 8.698187e-02 -201.7036 348.9191)" class="st1_calendar-71" width="125.4" height="12.8"/>
	<path class="st0_calendar-71" d="M90.4,348.3L90.4,348.3l-12.8-1.1c-0.4,0-0.7-0.4-0.7-0.8l10.9-125c0-0.4,0.4-0.7,0.8-0.7l12.8,1.1&#10;&#9;&#9;c0.2,0,0.4,0.1,0.5,0.3c0.1,0.2,0.2,0.3,0.2,0.5l-10.9,125C91.1,348,90.8,348.3,90.4,348.3z M78.4,345.8l11.3,1l10.8-123.5l-11.3-1&#10;&#9;&#9;L78.4,345.8z"/>
	<path class="st1_calendar-71" d="M101.3,222.6c0,0-2.1,1.7-6.5,1.7c-2.4,0.1-4.8-0.9-6.3-2.9l4.8-12.2l3.5-8.9l1.9,9.4L101.3,222.6z"/>
	<path class="st0_calendar-71" d="M94.8,225.1c-2.7,0.1-5.3-1.1-6.9-3.2c-0.1-0.2-0.2-0.5-0.1-0.7l8.3-21.1c0.2-0.4,0.6-0.6,1-0.4&#10;&#9;&#9;c0.2,0.1,0.4,0.3,0.4,0.5l4.5,22.2c0.1,0.3,0,0.5-0.2,0.7C101.7,223.2,99.5,225.1,94.8,225.1z M89.4,221.3c1.4,1.5,3.4,2.3,5.4,2.2&#10;&#9;&#9;c2,0.1,3.9-0.4,5.7-1.3L96.6,203L89.4,221.3z"/>
	<polygon class="st2_calendar-71 targetColor" points="98.7,209.7 93.3,209.2 96.8,200.3 &#9;" style="fill: rgb(100, 154, 255);"/>
	<path class="st2_calendar-71 targetColor" d="M98.7,210.2L98.7,210.2l-5.4-0.5c-0.2,0-0.3-0.1-0.4-0.2c-0.1-0.1-0.1-0.3-0.1-0.4l3.5-8.9&#10;&#9;&#9;c0.1-0.2,0.3-0.3,0.5-0.3c0.2,0,0.4,0.2,0.4,0.4l1.9,9.4c0,0.2,0,0.3-0.1,0.4C99,210.2,98.9,210.2,98.7,210.2z M94.1,208.8l4,0.4&#10;&#9;&#9;l-1.4-7L94.1,208.8z" style="fill: rgb(100, 154, 255);"/>
	
		<rect x="25.8" y="263.2" transform="matrix(8.698187e-02 -0.9962 0.9962 8.698187e-02 -198.5742 319.7084)" class="st1_calendar-71" width="98.7" height="10.1"/>
	<path class="st0_calendar-71" d="M75.8,318.6L75.8,318.6l-10.1-0.9c-0.2,0-0.4-0.1-0.5-0.3c-0.1-0.2-0.2-0.4-0.2-0.5l8.6-98.4&#10;&#9;&#9;c0-0.4,0.4-0.7,0.8-0.7l10,0.9c0.2,0,0.4,0.1,0.5,0.3c0.1,0.2,0.2,0.4,0.2,0.6l-8.6,98.3C76.6,318.3,76.2,318.6,75.8,318.6z&#10;&#9;&#9; M66.6,316.2l8.5,0.7l8.5-96.9l-8.5-0.8L66.6,316.2z"/>
	<path class="st1_calendar-71" d="M84.4,219.4c-1.2,1.4-3,2.1-4.9,2c-2-0.2-3.9-1.3-5.2-2.9l3.8-9.6l2.7-7l1.5,7.4L84.4,219.4z"/>
	<path class="st0_calendar-71" d="M79.9,222.2h-0.4c-2.3-0.2-4.3-1.4-5.7-3.2c-0.1-0.2-0.2-0.5-0.1-0.7l6.5-16.6c0.1-0.3,0.4-0.5,0.8-0.5&#10;&#9;&#9;c0.3,0,0.6,0.3,0.7,0.6l3.5,17.5c0,0.2,0,0.4-0.1,0.6C83.8,221.4,81.9,222.3,79.9,222.2z M75.3,218.4c1.1,1.3,2.6,2.1,4.3,2.3&#10;&#9;&#9;c1.5,0.1,2.9-0.5,4-1.5l-3-14.6L75.3,218.4z"/>
	<polygon class="st1_calendar-71" points="82.4,209.3 78.2,209 80.9,202 &#9;"/>
	<path class="st0_calendar-71" d="M82.4,210.1L82.4,210.1l-4.3-0.4c-0.2,0-0.4-0.2-0.6-0.4c-0.1-0.2-0.1-0.4-0.1-0.7l2.7-7&#10;&#9;&#9;c0.1-0.3,0.4-0.5,0.8-0.5c0.3,0,0.6,0.3,0.7,0.6l1.5,7.4c0,0.2,0,0.5-0.2,0.6C82.8,210,82.6,210.1,82.4,210.1z M79.2,208.3l2.2,0.2&#10;&#9;&#9;l-0.8-3.9L79.2,208.3z"/>
	<path class="st0_calendar-71" d="M70.9,318.2L70.9,318.2c-0.5,0-0.8-0.4-0.8-0.8c0,0,0,0,0,0l8.7-96c0-0.4,0.4-0.7,0.8-0.7&#10;&#9;&#9;c0.4,0,0.7,0.4,0.7,0.8c0,0,0,0.1,0,0.1l-8.7,96C71.6,318,71.3,318.2,70.9,318.2z"/>
	
		<rect x="42" y="259.1" transform="matrix(3.908542e-02 -0.9992 0.9992 3.908542e-02 -205.7765 314.774)" class="st1_calendar-71" width="37.5" height="10.6"/>
	<path class="st0_calendar-71" d="M65.4,284.1L65.4,284.1l-10.6-0.4c-0.4,0-0.7-0.4-0.7-0.8c0,0,0,0,0,0l1.5-37.5c0-0.2,0.1-0.4,0.2-0.5&#10;&#9;&#9;c0.1-0.1,0.3-0.2,0.5-0.2l10.6,0.4c0.4,0,0.7,0.4,0.7,0.8c0,0,0,0,0,0l-1.5,37.5c0,0.2-0.1,0.4-0.2,0.5&#10;&#9;&#9;C65.8,284,65.6,284.1,65.4,284.1z M55.5,282.2l9.1,0.4l1.4-36l-9.2-0.4L55.5,282.2z"/>
	
		<rect x="43.5" y="219.4" transform="matrix(3.908542e-02 -0.9992 0.9992 3.908542e-02 -166.8824 280.1706)" class="st1_calendar-71" width="37.6" height="14.9"/>
	<path class="st0_calendar-71" d="M69,246.6L69,246.6l-15-0.6c-0.4,0-0.7-0.4-0.7-0.8c0,0,0,0,0,0l1.5-37.5c0-0.4,0.4-0.7,0.8-0.7c0,0,0,0,0,0&#10;&#9;&#9;l14.9,0.6c0.2,0,0.4,0.1,0.5,0.2c0.1,0.1,0.2,0.3,0.2,0.5l-1.5,37.5C69.7,246.3,69.4,246.6,69,246.6z M54.8,244.6l13.4,0.5l1.4-36&#10;&#9;&#9;l-13.4-0.5L54.8,244.6z"/>
	<path class="st0_calendar-71" d="M49.2,242.2L49.2,242.2c-0.4,0-0.7-0.4-0.7-0.8c0,0,0,0,0,0l1-26.1c0-1.4,0.7-2.7,1.7-3.7c1-1,2.4-1.5,3.8-1.4&#10;&#9;&#9;h0.7c0.4,0,0.7,0.4,0.7,0.8c0,0.4-0.4,0.7-0.8,0.7h-0.7c-1,0-2,0.3-2.8,1c-0.7,0.7-1.2,1.7-1.2,2.7l-1,26.1&#10;&#9;&#9;C50,241.9,49.7,242.3,49.2,242.2C49.2,242.2,49.2,242.2,49.2,242.2z"/>
	<path class="st1_calendar-71" d="M22.3,249.1h84.1l-4.9,100.1c0,5.5-4.5,10-10,10H37.2c-5.5,0-9.9-4.5-10-10L22.3,249.1z"/>
	<path class="st0_calendar-71" d="M91.5,360H37.2c-5.9,0-10.7-4.8-10.7-10.7l-4.9-100.1c0-0.2,0.1-0.4,0.2-0.6c0.1-0.1,0.3-0.2,0.5-0.2h84.1&#10;&#9;&#9;c0.4,0,0.7,0.3,0.8,0.7c0,0,0,0,0,0.1l-4.9,100.1C102.2,355.2,97.4,360,91.5,360C91.5,360,91.5,360,91.5,360z M23.1,249.9l4.9,99.3&#10;&#9;&#9;c0,5.1,4.1,9.2,9.2,9.2c0,0,0,0,0,0h54.3c5.1,0,9.2-4.1,9.2-9.2l4.9-99.4L23.1,249.9z"/>
	<path class="st0_calendar-71" d="M104.8,268.2H24.1c-0.4,0-0.8-0.3-0.8-0.8s0.3-0.8,0.8-0.8h80.7c0.4,0,0.8,0.3,0.8,0.8&#10;&#9;&#9;S105.2,268.2,104.8,268.2z"/>
</g>
<g id="wall_note_calendar-71">
	<rect x="432.5" y="201.2" class="st1_calendar-71" width="56.8" height="56.3"/>
	<path class="st0_calendar-71" d="M489.3,258.3h-56.8c-0.4,0-0.7-0.3-0.8-0.8v-56.3c0-0.4,0.3-0.7,0.8-0.8h56.8c0.4,0,0.8,0.3,0.8,0.8v56.3&#10;&#9;&#9;C490.1,258,489.7,258.3,489.3,258.3z M433.2,256.8h55.3V202h-55.3V256.8z"/>
	<rect x="456.3" y="192" class="st0_calendar-71" width="10.3" height="16"/>
	<path class="st0_calendar-71" d="M480.1,215h-30.4c-0.4,0-0.8-0.3-0.8-0.8s0.3-0.8,0.8-0.8l0,0h30.4c0.4,0,0.8,0.3,0.8,0.8S480.6,215,480.1,215&#10;&#9;&#9;L480.1,215z"/>
	<path class="st0_calendar-71" d="M480.1,225.7h-39c-0.4,0-0.8-0.3-0.8-0.8s0.3-0.8,0.8-0.8h39c0.4,0,0.8,0.3,0.8,0.8S480.6,225.7,480.1,225.7z"/>
	<path class="st0_calendar-71" d="M480.4,236.3h-39.3c-0.4,0-0.8-0.3-0.8-0.8s0.3-0.8,0.8-0.8h39.3c0.4,0,0.8,0.3,0.8,0.8&#10;&#9;&#9;S480.8,236.3,480.4,236.3z"/>
	<path class="st0_calendar-71" d="M465.2,247h-24.1c-0.4,0-0.8-0.3-0.8-0.8s0.3-0.8,0.8-0.8h24.1c0.4,0,0.8,0.3,0.8,0.8S465.6,247,465.2,247&#10;&#9;&#9;L465.2,247L465.2,247z"/>
</g>
<g id="Calendar_calendar-71">
	<path class="st3_calendar-71" d="M398.3,167.3H169.9c-4.8-0.1-8.9,3.7-9,8.5c0,0.6,0,1.1,0.1,1.7L182.9,344c0.9,5.8,5.7,10.1,11.6,10.2h228.4&#10;&#9;&#9;c4.9,0.1,8.9-3.7,9-8.6c0-0.6,0-1.1-0.1-1.7l-21.9-166.5C409,171.7,404.1,167.4,398.3,167.3z"/>
	<path class="st3_calendar-71" d="M422.8,355H194.4c-6.2-0.2-11.4-4.8-12.3-10.9l-21.9-166.5c-0.4-2.8,0.4-5.7,2.3-7.9c1.9-2.1,4.6-3.3,7.4-3.2&#10;&#9;&#9;h228.4c6.2,0.2,11.4,4.8,12.3,10.9L432.4,344c0.4,2.8-0.4,5.7-2.3,7.9C428.3,353.9,425.6,355.1,422.8,355z M169.9,168&#10;&#9;&#9;c-2.4-0.1-4.7,0.9-6.2,2.7c-1.6,1.8-2.3,4.3-1.9,6.7L183.6,344c0.8,5.4,5.4,9.4,10.8,9.6h228.4c2.4,0,4.7-0.9,6.2-2.7&#10;&#9;&#9;c1.6-1.8,2.3-4.3,1.9-6.7l-21.8-166.6c-0.8-5.4-5.4-9.5-10.8-9.6H169.9z"/>
	<path class="st1_calendar-71" d="M149.8,193.8h251.8L376.5,344c-1.1,5.8-6.1,10-12,10.2H133.2c-5.7,0-9.5-4.6-8.5-10.2L149.8,193.8z"/>
	<path class="st3_calendar-71" d="M364.5,355H133.2c-2.8,0.1-5.5-1.1-7.3-3.2c-1.8-2.2-2.5-5.1-2-7.9l25.1-150.2c0.1-0.4,0.4-0.6,0.7-0.6h251.8&#10;&#9;&#9;c0.4,0,0.7,0.3,0.7,0.8c0,0,0,0.1,0,0.1l-25.1,150.2C376.1,350.3,370.8,354.8,364.5,355z M150.5,194.6l-25,149.6&#10;&#9;&#9;c-0.5,2.4,0.1,4.8,1.7,6.7c1.5,1.8,3.8,2.8,6.1,2.7h231.3c5.5-0.2,10.2-4.2,11.2-9.6l25-149.4H150.5z"/>
	<path class="st2_calendar-71 targetColor" d="M164.5,167.3h231.3c5.6,0,9.5,4.6,8.5,10.2l-2.7,16.3H149.8l2.7-16.3C153.6,171.7,158.6,167.5,164.5,167.3z" style="fill: rgb(100, 154, 255);"/>
	<path class="st3_calendar-71" d="M401.6,194.5H149.8c-0.2,0-0.4-0.1-0.6-0.3c-0.1-0.2-0.2-0.4-0.2-0.6l2.7-16.3c1.2-6.1,6.4-10.6,12.7-10.9&#10;&#9;&#9;h231.3c2.8-0.1,5.4,1.1,7.3,3.2c1.8,2.2,2.5,5.1,2,7.9l-2.7,16.3C402.3,194.3,402,194.5,401.6,194.5z M150.7,193H401l2.6-15.6&#10;&#9;&#9;c0.5-2.4-0.1-4.8-1.7-6.7c-1.5-1.8-3.8-2.7-6.1-2.7H164.5c-5.5,0.2-10.2,4.2-11.2,9.6L150.7,193z"/>
	<path class="st0_calendar-71" d="M381.3,239.3H161.4c-0.4,0-0.8-0.3-0.8-0.8s0.3-0.8,0.8-0.8h219.9c0.4,0,0.8,0.3,0.8,0.8&#10;&#9;&#9;S381.7,239.3,381.3,239.3z"/>
	<path class="st0_calendar-71" d="M375.9,271.7H156c-0.4,0-0.8-0.3-0.8-0.8s0.3-0.8,0.8-0.8h219.9c0.4,0,0.8,0.3,0.8,0.8&#10;&#9;&#9;S376.3,271.7,375.9,271.7L375.9,271.7z"/>
	<path class="st0_calendar-71" d="M370.4,304.1H150.5c-0.4,0-0.8-0.3-0.8-0.8s0.3-0.8,0.8-0.8h219.9c0.4,0,0.8,0.3,0.8,0.8&#10;&#9;&#9;S370.9,304.1,370.4,304.1z"/>
	<path class="st1_calendar-71" d="M346,353.8l32.7-25.6h-18.9c-5.5,0.2-10.1,4.1-11.1,9.5L346,353.8z"/>
	<path class="st3_calendar-71" d="M346,354.6c-0.1,0-0.3,0-0.4-0.1c-0.3-0.2-0.4-0.5-0.4-0.8l2.7-16.1c1.1-5.7,6-9.9,11.8-10.1h18.9&#10;&#9;&#9;c0.4,0,0.8,0.3,0.8,0.7c0,0.2-0.1,0.5-0.3,0.6l-32.7,25.6C346.3,354.5,346.2,354.6,346,354.6z M359.8,329&#10;&#9;&#9;c-5.1,0.2-9.4,3.9-10.4,8.9L347,352l29.5-23H359.8z"/>
	<path class="st3_calendar-71" d="M329.8,185.3c-0.5,0-0.9-0.1-1.3-0.4c-7.9-4.6-10.6-14.8-6-22.8c4.6-7.9,14.8-10.6,22.8-6&#10;&#9;&#9;c2.8,1.7,5.1,4.1,6.6,7.1c0.6,1.4-0.1,2.9-1.4,3.5c-1.2,0.5-2.7,0-3.4-1.2c-2.7-5.6-9.5-8-15.2-5.2c-3.9,1.9-6.4,5.9-6.4,10.2&#10;&#9;&#9;c0,4,2.2,7.8,5.6,9.8c1.3,0.7,1.8,2.3,1.1,3.6C331.8,184.9,330.8,185.4,329.8,185.3L329.8,185.3z"/>
	<path class="st3_calendar-71" d="M329.8,186.1c-0.6,0-1.2-0.2-1.7-0.5c-8.3-4.8-11.1-15.5-6.3-23.8c3.1-5.4,8.9-8.7,15.1-8.7&#10;&#9;&#9;c6.7,0,12.7,3.8,15.6,9.8c0.8,1.7,0.1,3.7-1.6,4.6c-1.7,0.8-3.7,0.1-4.6-1.6c-2.5-5.3-8.9-7.4-14.1-4.9c-3.6,1.8-6,5.5-6,9.5&#10;&#9;&#9;c0,3.8,2,7.2,5.3,9.1c1.6,0.9,2.2,3,1.2,4.7C332.2,185.4,331,186.1,329.8,186.1z M336.8,154.6c-8.8,0-15.9,7.1-15.9,15.9&#10;&#9;&#9;c0,5.7,3,10.9,7.9,13.8c0.9,0.5,2.1,0.2,2.6-0.7c0.5-0.9,0.2-2.1-0.7-2.6c-5.8-3.3-7.7-10.7-4.4-16.5c2.2-3.7,6.1-6,10.4-6&#10;&#9;&#9;c4.6,0,8.8,2.6,10.9,6.8c0.5,0.9,1.6,1.3,2.6,0.9c0.5-0.2,0.8-0.6,1-1.1c0.2-0.5,0.1-1-0.1-1.5&#10;&#9;&#9;C348.5,158.1,342.9,154.6,336.8,154.6L336.8,154.6z"/>
	<path class="st3_calendar-71" d="M269.9,185.3c-0.5,0-0.9-0.1-1.3-0.4c-7.9-4.6-10.6-14.8-6-22.8c4.6-7.9,14.8-10.6,22.8-6&#10;&#9;&#9;c2.9,1.7,5.1,4.1,6.6,7.1c0.6,1.4-0.1,2.9-1.4,3.5c-1.2,0.5-2.7,0-3.4-1.2c-2.7-5.6-9.5-8-15.1-5.2c-3.9,1.9-6.4,5.9-6.4,10.2&#10;&#9;&#9;c0,4,2.2,7.8,5.6,9.8c1.3,0.7,1.8,2.3,1.1,3.6C271.8,184.9,270.9,185.4,269.9,185.3L269.9,185.3z"/>
	<path class="st3_calendar-71" d="M269.9,186.1c-0.6,0-1.2-0.2-1.7-0.5c-8.3-4.8-11.1-15.5-6.3-23.8c3.1-5.4,8.9-8.7,15.1-8.7&#10;&#9;&#9;c6.7,0,12.7,3.8,15.6,9.8c0.8,1.7,0.1,3.7-1.5,4.5c0,0,0,0,0,0c-1.7,0.8-3.7,0.1-4.6-1.6c0,0,0,0,0,0c-2.5-5.3-8.9-7.4-14.1-4.9&#10;&#9;&#9;c-3.6,1.8-6,5.5-6,9.5c0,3.8,2,7.2,5.3,9.1c1.6,0.9,2.2,3,1.2,4.7C272.2,185.4,271.1,186.1,269.9,186.1z M276.9,154.6&#10;&#9;&#9;c-8.8,0-15.9,7.1-15.9,15.9c0,5.7,3,10.9,7.9,13.8c0.9,0.5,2.1,0.2,2.6-0.7c0.5-0.9,0.2-2.1-0.7-2.6c-5.8-3.4-7.7-10.7-4.4-16.5&#10;&#9;&#9;c3.4-5.8,10.7-7.7,16.5-4.4c2.1,1.2,3.7,3,4.8,5.1c0.2,0.5,0.6,0.8,1.1,1c0.5,0.2,1,0.1,1.5-0.1c0.9-0.5,1.3-1.6,0.9-2.6&#10;&#9;&#9;C288.6,158.1,283,154.6,276.9,154.6L276.9,154.6z"/>
	<path class="st3_calendar-71" d="M210,185.3c-0.5,0-0.9-0.1-1.3-0.4c-7.9-4.7-10.6-14.9-5.9-22.8c3-5.1,8.4-8.2,14.3-8.2c6.4,0,12.2,3.6,15,9.4&#10;&#9;&#9;c0.6,1.3,0.1,2.9-1.2,3.6s-2.9,0.1-3.6-1.2c-2.7-5.6-9.5-8-15.2-5.2c-3.9,1.9-6.4,5.9-6.4,10.2c0,4,2.2,7.8,5.6,9.8&#10;&#9;&#9;c1.3,0.7,1.8,2.3,1.1,3.6c-0.5,0.9-1.4,1.4-2.4,1.4L210,185.3z"/>
	<path class="st3_calendar-71" d="M210,186.1c-0.6,0-1.2-0.2-1.7-0.5c-8.3-4.8-11.1-15.5-6.3-23.8c3.1-5.4,8.8-8.7,15-8.7&#10;&#9;&#9;c6.7,0,12.7,3.8,15.6,9.8c0.8,1.7,0.1,3.7-1.6,4.6c-1.7,0.8-3.7,0.1-4.6-1.6c-2.5-5.3-8.9-7.4-14.1-4.9c-3.6,1.8-6,5.5-6,9.5&#10;&#9;&#9;c0,3.8,2,7.2,5.3,9.1c1.6,0.9,2.2,3,1.2,4.7C212.3,185.4,211.2,186,210,186.1z M217,154.6c-8.8,0-15.9,7.1-15.9,15.9&#10;&#9;&#9;c0,5.7,3,10.9,7.9,13.8c0.9,0.5,2.1,0.2,2.6-0.7c0.5-0.9,0.2-2.1-0.7-2.6c-5.8-3.3-7.7-10.7-4.4-16.5c2.2-3.7,6.1-6,10.5-6&#10;&#9;&#9;c4.6,0,8.8,2.6,10.9,6.8c0.5,0.9,1.6,1.3,2.6,0.9c0.5-0.2,0.8-0.6,1-1.1c0.2-0.5,0.1-1-0.1-1.5C228.6,158.1,223.1,154.6,217,154.6z&#10;&#9;&#9;"/>
	<path class="st1_calendar-71" d="M204.9,162.5c-0.1,0-0.3,0-0.4-0.1c-0.3-0.2-0.5-0.6-0.3-1c1.3-2.1,3.2-3.8,5.4-4.8c0.4-0.2,0.8,0,1,0.4&#10;&#9;&#9;c0.2,0.4,0,0.8-0.3,1c0,0,0,0,0,0c-1.9,0.9-3.6,2.4-4.8,4.2C205.4,162.4,205.1,162.5,204.9,162.5z"/>
	<path class="st1_calendar-71" d="M264.9,162.5c-0.1,0-0.3,0-0.4-0.1c-0.3-0.2-0.5-0.6-0.3-1c1.3-2.1,3.2-3.8,5.5-4.8c0.4-0.2,0.8,0,1,0.4&#10;&#9;&#9;c0.2,0.4,0,0.8-0.3,1c0,0,0,0,0,0c-1.9,0.9-3.6,2.4-4.8,4.2C265.4,162.4,265.2,162.5,264.9,162.5z"/>
	<path class="st1_calendar-71" d="M325.4,162.5c-0.1,0-0.3,0-0.4-0.1c-0.3-0.2-0.5-0.6-0.3-1c1.3-2.1,3.2-3.8,5.5-4.8c0.4-0.2,0.8,0,1,0.4&#10;&#9;&#9;c0.2,0.4,0,0.8-0.3,1c0,0,0,0,0,0c-1.9,0.9-3.6,2.4-4.8,4.2C325.9,162.4,325.7,162.5,325.4,162.5z"/>
	<line class="st4_calendar-71" x1="226.9" y1="244.2" x2="244.7" y2="264.7"/>
	<path class="st2_calendar-71 targetColor" d="M244.7,265.4c-0.2,0-0.4-0.1-0.6-0.3l-17.8-20.5c-0.3-0.3-0.2-0.8,0.1-1.1c0.3-0.3,0.8-0.2,1.1,0.1&#10;&#9;&#9;c0,0,0,0,0,0l17.8,20.5c0.3,0.3,0.2,0.8-0.1,1.1C245,265.4,244.9,265.4,244.7,265.4z" style="fill: rgb(100, 154, 255);"/>
	<line class="st4_calendar-71" x1="248" y1="244.3" x2="223.6" y2="264.6"/>
	<path class="st2_calendar-71 targetColor" d="M223.6,265.4c-0.4,0-0.8-0.3-0.8-0.7c0-0.2,0.1-0.4,0.3-0.6l24.4-20.3c0.3-0.3,0.8-0.2,1.1,0.1&#10;&#9;&#9;c0.3,0.3,0.2,0.8-0.1,1.1L224,265.2C223.9,265.3,223.7,265.3,223.6,265.4z" style="fill: rgb(100, 154, 255);"/>
	<line class="st4_calendar-71" x1="323.3" y1="278.4" x2="341" y2="298.9"/>
	<path class="st2_calendar-71 targetColor" d="M341,299.6c-0.2,0-0.4-0.1-0.6-0.3l-17.8-20.5c-0.3-0.3-0.2-0.8,0.1-1.1s0.8-0.2,1.1,0.1l0,0l17.8,20.5&#10;&#9;&#9;c0.3,0.3,0.2,0.8-0.1,1c0,0,0,0,0,0C341.4,299.5,341.2,299.6,341,299.6z" style="fill: rgb(100, 154, 255);"/>
	<line class="st4_calendar-71" x1="344.4" y1="278.4" x2="319.9" y2="298.8"/>
	<path class="st2_calendar-71 targetColor" d="M319.9,299.5c-0.2,0-0.4-0.1-0.6-0.3c-0.3-0.3-0.2-0.8,0.1-1.1c0,0,0,0,0,0l24.4-20.3c0.3-0.3,0.8-0.2,1,0.1&#10;&#9;&#9;c0.3,0.3,0.2,0.8-0.1,1c0,0,0,0,0,0l-24.4,20.3C320.3,299.5,320.1,299.5,319.9,299.5z" style="fill: rgb(100, 154, 255);"/>
	<path class="st0_calendar-71" d="M171.4,332.7h-0.1c-0.4-0.1-0.7-0.5-0.6-0.9c0,0,0,0,0,0l20.3-122c0.1-0.4,0.5-0.7,0.9-0.6&#10;&#9;&#9;c0.4,0.1,0.7,0.5,0.6,0.9l-20.3,121.9C172.1,332.4,171.8,332.7,171.4,332.7z"/>
	<path class="st0_calendar-71" d="M205.1,332.7H205c-0.4-0.1-0.7-0.5-0.6-0.9l20.4-121.9c0.1-0.4,0.5-0.7,0.9-0.6c0.4,0.1,0.7,0.5,0.6,0.9&#10;&#9;&#9;l-20.4,121.9C205.8,332.4,205.5,332.7,205.1,332.7z"/>
	<path class="st0_calendar-71" d="M238.9,332.7h-0.1c-0.4-0.1-0.7-0.5-0.6-0.9l20.4-121.9c0.1-0.4,0.5-0.7,0.9-0.6c0.4,0.1,0.7,0.5,0.6,0.9&#10;&#9;&#9;l-20.4,121.9C239.5,332.4,239.2,332.7,238.9,332.7z"/>
	<path class="st0_calendar-71" d="M272.6,332.7h-0.1c-0.4-0.1-0.7-0.5-0.6-0.9c0,0,0,0,0,0l20.4-121.9c0.1-0.4,0.5-0.7,0.9-0.6&#10;&#9;&#9;c0.4,0.1,0.7,0.5,0.6,0.9l-20.4,121.9C273.3,332.4,272.9,332.7,272.6,332.7z"/>
	<path class="st0_calendar-71" d="M306.3,332.7h-0.1c-0.4-0.1-0.7-0.5-0.6-0.9l20.4-121.9c0.1-0.4,0.5-0.7,0.9-0.6c0.4,0.1,0.7,0.5,0.6,0.9&#10;&#9;&#9;L307,332.1C306.9,332.4,306.7,332.7,306.3,332.7z"/>
	<path class="st0_calendar-71" d="M340,332.7h-0.1c-0.4-0.1-0.7-0.5-0.6-0.9l20.4-121.9c0.1-0.4,0.4-0.7,0.8-0.6c0,0,0,0,0,0&#10;&#9;&#9;c0.4,0.1,0.7,0.5,0.6,0.9c0,0,0,0,0,0l-20.3,121.9C340.7,332.4,340.4,332.7,340,332.7z"/>
</g>
</svg>