<svg version="1.1" id="Layer_1" xmlns="http://www.w3.org/2000/svg" xmlns:xlink="http://www.w3.org/1999/xlink" x="0px" y="0px" viewBox="0 0 500 500" style="width: 144px;" xml:space="preserve" data-imageid="diversity-1-88" imageName="Diversity 1" class="illustrations_image">
<style type="text/css">
	.st0_diversity-1-88{fill:#D1D3D4;}
	.st1_diversity-1-88{fill:#231F20;}
	.st2_diversity-1-88{fill:#68E1FD;}
	.st3_diversity-1-88{fill:#FFFFFF;}
</style>
<g id="Hand_3_diversity-1-88">
	<path class="st0_diversity-1-88" d="M276.8,304.4l8.9,73.2H334l-15.8-82.9c3.8-12,7.9-68.9,3.8-74.1s-10.2,32.4-10.2,32.4s-1.9-42.9-7.9-43.7&#10;&#9;&#9;s-7.5,42.5-7.5,42.5s-3.4-49.7-10.5-48.2s-2.6,50.8-2.6,50.8s-8.6-38-16.2-36.9s4.9,63.5,4.9,63.5c-15.8-10.6-21.8-12.7-27.5-11.2&#10;&#9;&#9;S275.2,302.5,276.8,304.4z"/>
	<path class="st1_diversity-1-88" d="M334,378.3h-48.3c-0.4,0-0.7-0.3-0.7-0.6l-8.9-73c-0.6-0.6-2.5-2.4-4.8-4.4c-18-16.2-29-27-28.2-30.1&#10;&#9;&#9;c0.1-0.5,0.5-0.9,1.1-1.1c5.9-1.6,12.3,0.9,26.6,10.4c-1.9-9.6-10.3-54.9-5.5-61.6c0.4-0.6,0.9-0.9,1.6-1.1&#10;&#9;&#9;c3.6-0.5,7.4,5.5,11.7,18.5c1.2,3.7,2.3,7.5,3.2,10.6c-1-15-2-41.9,3.9-43.1c0.7-0.1,1.4,0,2,0.5c4.5,3.4,7.2,24.4,8.5,37.7&#10;&#9;&#9;c0.8-11.7,2.5-29,6.1-32c0.5-0.4,1.1-0.6,1.7-0.6c1.9,0.2,4.6,2.8,6.8,22.7c0.6,5.6,1.1,11.1,1.3,15.2c1.9-10.2,5.2-26.3,8.6-27.1&#10;&#9;&#9;c0.7-0.2,1.4,0.1,1.8,0.7c4.3,5.5,0.1,62.3-3.6,74.6l15.8,82.7c0,0.2,0,0.4-0.1,0.6C334.4,378.2,334.2,378.3,334,378.3z&#10;&#9;&#9; M286.4,376.8h46.8l-15.7-82c0-0.1,0-0.2,0-0.4c4-12.6,7.7-68.6,3.9-73.5c-0.1-0.1-0.2-0.3-0.3-0.2c-2.2,0.6-6.1,16.9-8.6,32.2&#10;&#9;&#9;c-0.1,0.4-0.4,0.6-0.8,0.6c-0.4,0-0.7-0.3-0.7-0.7c-0.8-17.6-3.5-42.5-7.3-43c-0.2,0-0.4,0.1-0.6,0.2c-4,3.4-5.8,31.2-6.1,41.6&#10;&#9;&#9;c0,0.4-0.3,0.7-0.7,0.7c-0.4,0-0.7-0.3-0.7-0.6c0,0,0,0,0,0c-0.8-11.9-4-43.6-8.8-47.3c-0.2-0.2-0.5-0.3-0.8-0.2&#10;&#9;&#9;c-4.8,1-3.8,31.2-2.1,50c0,0.4-0.2,0.8-0.6,0.8c-0.4,0-0.7-0.2-0.8-0.6c-3.2-14.2-10.1-36.3-15.1-36.3c-0.1,0-0.2,0-0.2,0&#10;&#9;&#9;c-0.1,0-0.3,0-0.6,0.4c-4,5.7,3,46.8,6.1,62.2c0.1,0.3-0.1,0.6-0.3,0.7c-0.2,0.2-0.6,0.2-0.8,0c-14.9-10-21.2-12.6-26.9-11.1&#10;&#9;&#9;c-0.7,1.8,8.6,11.5,27.7,28.7c3.1,2.9,4.7,4.2,5,4.6c0.1,0.1,0.1,0.2,0.2,0.4L286.4,376.8z"/>
	
		<rect x="273.9" y="308.3" transform="matrix(0.9922 -0.125 0.125 0.9922 -36.8663 39.9497)" class="st1_diversity-1-88" width="52.1" height="10.9"/>
	<circle class="st2_diversity-1-88 targetColor" cx="302.9" cy="313.4" r="11" style="fill: rgb(221, 28, 26);"/>
	<path class="st3_diversity-1-88" d="M302.9,316.2c-0.1,0-0.2,0-0.3-0.1c-0.2-0.1-0.4-0.3-0.4-0.5l-1.3-7.9c-0.1-0.4,0.2-0.8,0.5-0.8&#10;&#9;&#9;c0.4-0.1,0.8,0.2,0.8,0.5c0,0,0,0.1,0,0.1l1.1,6.8l5.1-3.3c0.3-0.2,0.8-0.1,1,0.2c0,0,0,0,0,0c0.2,0.3,0.1,0.8-0.2,1c0,0,0,0,0,0&#10;&#9;&#9;l-6,3.9C303.1,316.2,303,316.2,302.9,316.2z"/>
</g>
<g id="Hand_4_diversity-1-88">
	<path class="st3_diversity-1-88" d="M354.1,217.3l20.8,160.2h43.3l-28.8-169.3c0,0,2.2-3.1,4-17.2s2.3-57-3.4-58.4c-6.8-1.7-7.6,28.6-7.6,28.6&#10;&#9;&#9;s-0.3-15.6-1.7-24.9s-6.2-11.6-6.2-11.6c-5.5-0.6-1.7,29-1.2,33.1c-0.6-4.3-5.2-36.1-12.1-34.5c-7.3,1.7-3.4,34.7-3.4,34.7&#10;&#9;&#9;c-3.4-14.9-8.5-37.3-16.6-35.6c-5.2,1.1,6.8,66.9,6.8,66.9s-28.5-14.1-30.8-7.1S354.1,217.3,354.1,217.3z"/>
	<path class="st1_diversity-1-88" d="M418.2,378.3h-43.3c-0.4,0-0.7-0.3-0.7-0.6l-20.7-159.9c-5.1-3.6-39.3-28.4-37-35.6c0.3-0.9,1-1.7,1.9-2&#10;&#9;&#9;c5.8-2.5,23.7,5.7,28.6,8c-0.8-4.3-3.2-18-5.1-31.7c-4.8-33.8-2.1-34.4-0.9-34.6c7.2-1.5,11.8,12.6,15.2,26.5&#10;&#9;&#9;c-0.6-10.2-0.5-24.5,4.8-25.7c0.9-0.2,1.8,0,2.5,0.6c3.1,2.1,5.6,10.1,7.4,17.9c-0.4-7.3-0.2-14.3,1.8-16.4&#10;&#9;&#9;c0.5-0.5,1.1-0.7,1.8-0.7c0.1,0,0.2,0,0.2,0.1c0.2,0.1,5.1,2.5,6.6,12.1c0.6,3.7,1,8.5,1.2,12.8c0.8-6.9,2.3-14.4,5.1-16.5&#10;&#9;&#9;c0.7-0.6,1.6-0.8,2.5-0.6c6.7,1.7,5.3,47.5,3.9,59.2c-1.5,12.1-3.3,16.2-3.9,17.3l28.8,169C418.9,377.8,418.7,378.2,418.2,378.3&#10;&#9;&#9;C418.2,378.2,418.2,378.2,418.2,378.3L418.2,378.3z M375.5,376.9h41.9l-28.7-168.4c0-0.2,0-0.4,0.1-0.5c0,0,2.2-3.3,3.8-16.9&#10;&#9;&#9;c2-16.9,1.8-56.5-2.9-57.7c-0.5-0.1-1,0-1.3,0.3c-3.9,3-5.2,20.9-5.4,27.6c0,0.4-0.3,0.7-0.7,0.7l0,0c-0.4,0-0.7-0.3-0.7-0.7&#10;&#9;&#9;c0-0.2-0.3-15.6-1.7-24.8c-1.2-8-5-10.6-5.7-11c-0.2,0-0.4,0.1-0.5,0.3c-2.5,2.6-1.7,17.9,0.2,32c0.1,0.4-0.2,0.7-0.6,0.8&#10;&#9;&#9;s-0.7-0.2-0.8-0.6l0,0l0,0c-1.9-13.7-5.6-30.7-9.8-33.6c-0.4-0.3-0.9-0.4-1.4-0.3c-4.9,1.1-4.3,21.4-2.8,33.9&#10;&#9;&#9;c0.1,0.4-0.2,0.7-0.6,0.8c-0.4,0.1-0.7-0.2-0.8-0.6c-3.1-13.7-8.3-36.6-15.8-35c-2.7,1.4,1.6,34.7,7.3,66.1c0.1,0.3,0,0.5-0.3,0.7&#10;&#9;&#9;c-0.2,0.2-0.5,0.2-0.7,0.1c-6.3-3.1-23.7-10.7-28.7-8.6c-0.5,0.2-0.9,0.6-1.1,1.1c-1.5,4.8,21.7,23.5,36.7,34.2&#10;&#9;&#9;c0.2,0.1,0.3,0.3,0.3,0.5L375.5,376.9z"/>
	<path class="st1_diversity-1-88" d="M374.4,197.4c-0.2,0-0.4-0.1-0.5-0.3c-7.6-9.4-25.7-7.1-25.9-7.1c-0.4,0.1-0.7-0.2-0.8-0.6&#10;&#9;&#9;c-0.1-0.4,0.2-0.7,0.6-0.8l0,0c0.8-0.1,19.1-2.4,27.2,7.6c0.2,0.3,0.2,0.7-0.1,1c0,0,0,0,0,0C374.7,197.4,374.6,197.4,374.4,197.4z&#10;&#9;&#9;"/>
	<path class="st1_diversity-1-88" d="M390.5,167c-0.1,0-0.3,0-0.4-0.1c-15.4-9.1-31.1-7.6-37.1-7.1c-1.9,0.2-2.5,0.2-2.9,0.1&#10;&#9;&#9;c-0.4-0.2-0.5-0.6-0.4-0.9c0.1-0.3,0.5-0.5,0.9-0.4c0.8,0,1.5,0,2.3-0.1c6-0.6,22.1-2,37.9,7.2c0.3,0.2,0.5,0.6,0.3,1&#10;&#9;&#9;C391,166.9,390.8,167,390.5,167L390.5,167z"/>
	<path class="st2_diversity-1-88 targetColor" d="M361.2,306.2l-4.6-20.4c0,0,52.6-1.2,53.2,0s2.9,16.5,2.9,16.5L361.2,306.2z" style="fill: rgb(221, 28, 26);"/>
	<polygon class="st1_diversity-1-88" points="363.1,377.6 356.5,301.6 415,299.4 434.1,377.6 &#9;"/>
</g>
<g id="Hand_2_diversity-1-88">
	<path class="st1_diversity-1-88" d="M183.3,286.7l11.9,90.8h42.1l-15-101.1c0,0,2.2-3.1,3.9-17.2s2.3-57-3.4-58.4c-6.8-1.7-7.6,28.6-7.6,28.6&#10;&#9;&#9;s-0.3-15.6-1.7-24.9s-6.3-11.5-6.3-11.5c-5.5-0.6-1.7,29-1.2,33.1c-0.6-4.3-5.2-36.1-12.1-34.5c-7.3,1.7-3.4,34.7-3.4,34.7&#10;&#9;&#9;c-3.4-15-8.5-37.3-16.6-35.6c-5.2,1.1,6.8,66.9,6.8,66.9s-28.5-14.1-30.8-7C147.8,257.7,183.3,286.7,183.3,286.7z"/>
	<path class="st3_diversity-1-88" d="M207.3,265.6c-0.2,0-0.4-0.1-0.5-0.3c-7.6-9.4-25.7-7.1-25.9-7.1c-0.4,0-0.7-0.2-0.8-0.6s0.2-0.7,0.6-0.8l0,0&#10;&#9;&#9;c0.8-0.1,19.1-2.4,27.2,7.6c0.2,0.3,0.2,0.7-0.1,1c0,0,0,0,0,0C207.6,265.6,207.5,265.6,207.3,265.6z"/>
	<path class="st3_diversity-1-88" d="M223.4,235.1c-0.1,0-0.2,0-0.4-0.1c-15.4-9.1-31.1-7.6-37-7.1c-1.9,0.2-2.5,0.2-2.9,0.1&#10;&#9;&#9;c-0.4-0.1-0.5-0.6-0.4-0.9c0,0,0,0,0,0c0.1-0.4,0.5-0.5,0.9-0.4c0.8,0,1.5-0.1,2.3-0.1c6-0.6,22.1-2,37.9,7.3&#10;&#9;&#9;c0.3,0.2,0.5,0.6,0.3,0.9c0,0,0,0,0,0.1C223.9,235.1,223.7,235.2,223.4,235.1z"/>
	<polygon class="st2_diversity-1-88 targetColor" points="250.4,377.6 237.3,319.9 180.8,319.9 183.3,377.6 &#9;" style="fill: rgb(221, 28, 26);"/>
</g>
<g id="Hand_1_diversity-1-88">
	<path class="st2_diversity-1-88 targetColor" d="M90.7,377.6h45.6l-13.9-145.7c0,0,32.2-47.2,27-51.5s-27,20.6-27,20.6s0.8-62.8-3.8-64.7s-12.8,1.1-11.3,42.1&#10;&#9;&#9;c0,0-3.4-40.7-8.7-42.6s-10.2,17.8-6,40.7c0,0-7.5-39.2-12.8-35.8s2.6,43,2.6,43s-10.9-43-15.4-29.8s7.6,62.4,12.9,72.9L90.7,377.6&#10;&#9;&#9;z" style="fill: rgb(221, 28, 26);"/>
	<polygon class="st3_diversity-1-88" points="80.6,377.6 76.5,275.1 137.6,278.6 153.9,377.6 &#9;"/>
	<path class="st1_diversity-1-88" d="M153.9,378.3H80.6c-0.4,0-0.7-0.3-0.7-0.7l-4.1-102.5c0-0.2,0.1-0.4,0.2-0.5c0.1-0.1,0.3-0.2,0.5-0.2l61.1,3.5&#10;&#9;&#9;c0.3,0,0.6,0.3,0.6,0.6l16.3,99c0,0.2,0,0.4-0.2,0.6C154.3,378.2,154.1,378.3,153.9,378.3z M81.3,376.9h71.8L137,279.3l-59.7-3.4&#10;&#9;&#9;L81.3,376.9z"/>
	<path class="st0_diversity-1-88" d="M95.7,371.8c-0.4,0-0.7-0.3-0.7-0.6l-7.6-87c0-0.4,0.3-0.7,0.6-0.8c0.4,0,0.7,0.3,0.8,0.6l0,0l7.6,87&#10;&#9;&#9;C96.5,371.4,96.2,371.7,95.7,371.8L95.7,371.8z"/>
	<path class="st0_diversity-1-88" d="M112.3,371.8c-0.4,0-0.7-0.3-0.7-0.6c-3.4-29.4-9.8-85.4-10.2-86.9c-0.1-0.4,0.1-0.7,0.4-0.9c0,0,0,0,0,0&#10;&#9;&#9;c0.4-0.1,0.8,0.1,0.9,0.5c0.3,0.9,8.6,72.7,10.2,87.1C113,371.4,112.8,371.7,112.3,371.8C112.4,371.7,112.4,371.7,112.3,371.8&#10;&#9;&#9;L112.3,371.8z"/>
	<path class="st0_diversity-1-88" d="M128.3,371.8c-0.3,0-0.6-0.2-0.7-0.6l-13.1-85.8c-0.1-0.4,0.1-0.8,0.5-0.8c0.4-0.1,0.8,0.1,0.8,0.5&#10;&#9;&#9;c0,0,0,0.1,0,0.1L129,371c0.1,0.4-0.2,0.7-0.6,0.8L128.3,371.8z"/>
	<path class="st0_diversity-1-88" d="M142.2,371.8c-0.3,0-0.6-0.2-0.7-0.6c-3.6-23.1-13.1-83.4-13.9-85.6c-0.2-0.3-0.1-0.7,0.2-0.9c0,0,0,0,0,0&#10;&#9;&#9;c0.3-0.2,0.8-0.1,1,0.2c0,0,0,0,0,0c0.9,1.5,11,66.2,14.1,86c0.1,0.4-0.2,0.7-0.6,0.8L142.2,371.8z"/>
	<path class="st0_diversity-1-88" d="M135.3,298.5L135.3,298.5l-52-1.2c-0.4,0-0.7-0.3-0.7-0.7c0-0.4,0.3-0.7,0.7-0.7c0,0,0,0,0,0l52.1,1.2&#10;&#9;&#9;c0.4,0,0.7,0.3,0.7,0.7C136,298.2,135.7,298.5,135.3,298.5L135.3,298.5z"/>
	<path class="st0_diversity-1-88" d="M137.3,313.3H82.1c-0.4,0-0.7-0.3-0.7-0.7c0-0.4,0.3-0.7,0.7-0.7h55.2c0.4,0,0.7,0.3,0.7,0.7&#10;&#9;&#9;C138,313,137.7,313.3,137.3,313.3z"/>
	<path class="st0_diversity-1-88" d="M142.2,330.2L142.2,330.2l-59-1.3c-0.4,0-0.7-0.3-0.7-0.7c0,0,0,0,0,0c0-0.4,0.3-0.7,0.7-0.7c0,0,0,0,0,0&#10;&#9;&#9;l59,1.3c0.4,0,0.7,0.3,0.7,0.7C143,329.9,142.7,330.2,142.2,330.2L142.2,330.2z"/>
	<path class="st0_diversity-1-88" d="M144.9,347.9H83.2c-0.4,0-0.7-0.3-0.7-0.7c0-0.4,0.3-0.7,0.7-0.7h61.6c0.4,0,0.7,0.3,0.7,0.7&#10;&#9;&#9;C145.6,347.6,145.3,347.9,144.9,347.9C144.9,347.9,144.9,347.9,144.9,347.9z"/>
	<path class="st0_diversity-1-88" d="M146.3,365.4H83.2c-0.4,0-0.7-0.3-0.7-0.7c0-0.4,0.3-0.7,0.7-0.7h63.1c0.4,0,0.7,0.3,0.7,0.7&#10;&#9;&#9;C147,365,146.7,365.4,146.3,365.4C146.3,365.4,146.3,365.4,146.3,365.4z"/>
</g>
<path id="Line_diversity-1-88" class="st1_diversity-1-88" d="M452.8,378.3H47.2c-0.4,0-0.7-0.3-0.7-0.7c0-0.4,0.3-0.7,0.7-0.7h405.6c0.4,0,0.7,0.3,0.7,0.7&#10;&#9;C453.5,377.9,453.2,378.3,452.8,378.3z"/>
</svg>