<svg version="1.1" id="Layer_1" xmlns="http://www.w3.org/2000/svg" xmlns:xlink="http://www.w3.org/1999/xlink" x="0px" y="0px" viewBox="0 0 500 500" style="width: 144px;" xml:space="preserve" data-imageid="map-1-17" imageName="Map 1" class="illustrations_image">
<style type="text/css">
	.st0_map-1-17{fill:#D1D3D4;}
	.st1_map-1-17{fill:#FFFFFF;}
	.st2_map-1-17{fill:#231F20;}
	.st3_map-1-17{fill:#68E1FD;}
</style>
<path id="Ground_map-1-17" class="st0_map-1-17" d="M430.2,384.9H69.8c-0.4,0-0.7-0.3-0.7-0.7c0-0.4,0.3-0.7,0.7-0.7h360.5c0.4,0,0.7,0.3,0.7,0.7&#10;&#9;S430.6,384.9,430.2,384.9C430.2,384.9,430.2,384.9,430.2,384.9z"/>
<g id="Suitcase_map-1-17">
	<path class="st0_map-1-17" d="M236.4,330.8c-0.8,0-1.4-0.6-1.4-1.4V322c0-1.5-1.2-2.7-2.7-2.7h-29.6c-1.5,0-2.7,1.2-2.7,2.7v7.5&#10;&#9;&#9;c0,0.8-0.6,1.4-1.4,1.4c-0.8,0-1.4-0.6-1.4-1.4V322c0-3,2.5-5.5,5.5-5.5h29.6c3,0,5.5,2.5,5.5,5.5v7.5&#10;&#9;&#9;C237.8,330.2,237.2,330.8,236.4,330.8z"/>
	<path class="st1_map-1-17" d="M164.2,329.4h106.7c3.8,0,6.8,3,6.8,6.8v71.2c0,3.8-3,6.8-6.8,6.8H164.2c-3.8,0-6.8-3-6.8-6.8v-71.2&#10;&#9;&#9;C157.4,332.5,160.4,329.4,164.2,329.4z"/>
	<path class="st0_map-1-17" d="M270.9,415H164.2c-4.1,0-7.5-3.4-7.5-7.5v-71.3c0-4.1,3.4-7.5,7.5-7.5h106.7c4.1,0,7.5,3.4,7.5,7.5v71.2&#10;&#9;&#9;C278.4,411.6,275.1,415,270.9,415C270.9,415,270.9,415,270.9,415z M164.2,330.1c-3.4,0-6.1,2.7-6.1,6.1v71.2c0,3.4,2.7,6.1,6.1,6.1&#10;&#9;&#9;h106.7c3.4,0,6.1-2.7,6.1-6.1v-71.2c0-3.4-2.7-6.1-6.1-6.1H164.2z"/>
	<path class="st1_map-1-17" d="M186.5,327.4h2.4c1.5,0,2.7,1.2,2.7,2.7v83.4c0,1.5-1.2,2.7-2.7,2.7h-2.4c-1.5,0-2.7-1.2-2.7-2.7v-83.4&#10;&#9;&#9;C183.8,328.6,185,327.4,186.5,327.4z"/>
	<path class="st0_map-1-17" d="M188.9,417h-2.4c-1.9,0-3.4-1.5-3.4-3.4v-83.4c0-1.9,1.5-3.4,3.4-3.4h2.4c1.9,0,3.4,1.5,3.4,3.4v83.4&#10;&#9;&#9;C192.3,415.5,190.8,417,188.9,417z M186.5,328.1c-1.1,0-2,0.9-2,2v83.4c0,1.1,0.9,2,2,2h2.4c1.1,0,2-0.9,2-2v-83.4c0-1.1-0.9-2-2-2&#10;&#9;&#9;L186.5,328.1z"/>
	<path class="st1_map-1-17" d="M247.7,327.4h2.4c1.5,0,2.7,1.2,2.7,2.7v83.4c0,1.5-1.2,2.7-2.7,2.7h-2.4c-1.5,0-2.7-1.2-2.7-2.7v-83.4&#10;&#9;&#9;C245,328.6,246.2,327.4,247.7,327.4z"/>
	<path class="st0_map-1-17" d="M250.1,417h-2.4c-1.9,0-3.4-1.5-3.4-3.4v-83.4c0-1.9,1.5-3.4,3.4-3.4h2.4c1.9,0,3.4,1.5,3.4,3.4v83.4&#10;&#9;&#9;C253.5,415.5,252,417,250.1,417z M247.7,328.1c-1.1,0-2,0.9-2,2v83.4c0,1.1,0.9,2,2,2h2.4c1.1,0,2-0.9,2-2v-83.4c0-1.1-0.9-2-2-2&#10;&#9;&#9;L247.7,328.1z"/>
	<circle class="st1_map-1-17" cx="212.2" cy="372.5" r="8.1"/>
	<path class="st0_map-1-17" d="M212.2,381.4c-4.9,0-8.8-4-8.8-8.8c0-4.9,4-8.8,8.8-8.8c4.9,0,8.8,4,8.8,8.8l0,0&#10;&#9;&#9;C221,377.4,217.1,381.4,212.2,381.4z M212.2,365.1c-4.1,0-7.4,3.3-7.4,7.4c0,4.1,3.3,7.4,7.4,7.4s7.4-3.3,7.4-7.4c0,0,0,0,0,0&#10;&#9;&#9;C219.6,368.4,216.3,365.1,212.2,365.1z"/>
	
		<rect x="211.9" y="387.3" transform="matrix(0.9346 -0.3556 0.3556 0.9346 -125.5161 105.7571)" class="st1_map-1-17" width="26" height="14"/>
	<path class="st0_map-1-17" d="M215.2,406.2c-0.3,0-0.5-0.2-0.6-0.5l-5-13.1c-0.1-0.2-0.1-0.4,0-0.5c0.1-0.2,0.2-0.3,0.4-0.4l24.3-9.2&#10;&#9;&#9;c0.4-0.1,0.8,0,0.9,0.4l5,13.1c0.1,0.2,0.1,0.4,0,0.5c-0.1,0.2-0.2,0.3-0.4,0.4l-24.3,9.2C215.4,406.2,215.3,406.2,215.2,406.2z&#10;&#9;&#9; M211.2,392.8l4.5,11.8l23-8.8l-4.5-11.8L211.2,392.8z"/>
	<polygon class="st1_map-1-17" points="239.3,356.3 219.8,360.4 215.7,340.9 &#9;"/>
	<path class="st0_map-1-17" d="M219.8,361.1c-0.3,0-0.6-0.2-0.7-0.6l-4.1-19.5c-0.1-0.3,0.1-0.6,0.3-0.7c0.2-0.2,0.5-0.2,0.8,0l23.5,15.4&#10;&#9;&#9;c0.2,0.2,0.4,0.4,0.3,0.7c0,0.3-0.3,0.5-0.5,0.5L220,361L219.8,361.1z M216.8,342.4l3.6,17.1l17.1-3.5L216.8,342.4z"/>
</g>
<g id="Character_map-1-17">
	<polygon class="st1_map-1-17" points="390.3,411 384.2,416.3 379.4,412.7 377.2,395 390.1,392.2 &#9;"/>
	<path class="st2_map-1-17" d="M390.1,392.2l0.2,18.8l-6.1,5.2l-4.9-3.6l-2.2-17.7L390.1,392.2 M390.1,390.8c-0.1,0-0.2,0-0.3,0l-12.9,2.8&#10;&#9;&#9;c-0.7,0.2-1.2,0.8-1.1,1.5l2.2,17.7c0,0.4,0.2,0.8,0.6,1l4.9,3.6c0.2,0.2,0.5,0.3,0.8,0.3c0.3,0,0.7-0.1,0.9-0.3l6.1-5.2&#10;&#9;&#9;c0.3-0.3,0.5-0.7,0.5-1.1l-0.2-18.8C391.5,391.5,390.9,390.9,390.1,390.8L390.1,390.8z"/>
	<path class="st2_map-1-17" d="M391.3,409.9c0,0-7.6,5.3-13,1c0,0-18-1.6-20.1,10.7h33.3L391.3,409.9z"/>
	<path class="st2_map-1-17" d="M391.5,422.3h-33.3c-0.2,0-0.4-0.1-0.5-0.2c-0.1-0.2-0.2-0.4-0.1-0.6c2.1-12.8,20.6-11.3,20.8-11.3&#10;&#9;&#9;c0.1,0,0.3,0.1,0.4,0.1c5,4,12.1-0.9,12.2-1c0.3-0.2,0.8-0.1,1,0.2c0.1,0.1,0.1,0.2,0.1,0.4l0.2,11.7c0,0.2-0.1,0.4-0.2,0.5&#10;&#9;&#9;C391.9,422.2,391.7,422.3,391.5,422.3z M359.1,420.9h31.8l-0.2-9.7c-2.4,1.3-8.1,3.9-12.6,0.4C376.1,411.4,361.5,410.9,359.1,420.9&#10;&#9;&#9;L359.1,420.9z"/>
	<polygon class="st1_map-1-17" points="328.1,411 322.8,416.3 317.9,412.7 315.7,395 330,392.2 &#9;"/>
	<path class="st2_map-1-17" d="M330,392.2l-2,18.8l-5.3,5.2l-4.9-3.6l-2.1-17.7L330,392.2 M330,390.8c-0.1,0-0.2,0-0.3,0l-14.4,2.8&#10;&#9;&#9;c-0.7,0.1-1.2,0.8-1.1,1.5l2.2,17.6c0,0.4,0.2,0.8,0.6,1l4.9,3.6c0.2,0.2,0.5,0.3,0.8,0.3c0.4,0,0.7-0.1,1-0.4l5.3-5.2&#10;&#9;&#9;c0.2-0.2,0.4-0.5,0.4-0.9l2-18.8c0.1-0.8-0.5-1.5-1.3-1.5C330.2,390.8,330.1,390.8,330,390.8L330,390.8z"/>
	<polygon class="st2_map-1-17" points="386,243.8 393.2,401.6 374.2,401.4 348.1,295.6 333.5,401 312.4,400.8 305.8,245.6 &#9;"/>
	<path class="st2_map-1-17" d="M393.2,402.2L393.2,402.2l-19.1-0.2c-0.3,0-0.6-0.2-0.7-0.5l-25.2-102.2l-14.1,101.8c0,0.3-0.3,0.6-0.7,0.6&#10;&#9;&#9;l0,0l-21.1-0.2c-0.4,0-0.7-0.3-0.7-0.7l-6.6-155.1c0-0.2,0.1-0.4,0.2-0.5c0.1-0.1,0.3-0.2,0.5-0.2l80.2-1.8l0,0&#10;&#9;&#9;c0.4,0,0.7,0.3,0.7,0.7l7.2,157.7c0,0.2-0.1,0.4-0.2,0.5C393.6,402.2,393.4,402.3,393.2,402.2z M374.7,400.7l17.8,0.2l-7.2-156.3&#10;&#9;&#9;l-78.9,1.8l6.6,153.8l19.9,0.2l14.5-104.8c0-0.3,0.3-0.6,0.6-0.6c0.3,0,0.6,0.2,0.7,0.5L374.7,400.7z"/>
	<circle class="st1_map-1-17" cx="340.4" cy="98.8" r="20.3"/>
	<path class="st2_map-1-17" d="M340.4,119.8h-0.2c-11.7-0.1-21.1-9.6-21.1-21.3s9.6-21.1,21.3-21.1c11.7,0.1,21.1,9.6,21.1,21.3&#10;&#9;&#9;C361.4,110.4,352,119.8,340.4,119.8z M340.4,79.2c-10.8-0.1-19.6,8.7-19.7,19.5s8.7,19.6,19.5,19.7l0,0h0.2&#10;&#9;&#9;c10.8,0.1,19.6-8.7,19.7-19.5s-8.7-19.6-19.5-19.7l0,0L340.4,79.2z"/>
	
		<ellipse transform="matrix(0.2151 -0.9766 0.9766 0.2151 168.9253 410.8135)" class="st2_map-1-17" cx="340" cy="100.3" rx="12.9" ry="27.6"/>
	<path class="st2_map-1-17" d="M349.1,115c-4,0-8.1-0.5-12-1.4c-15.5-3.4-26.4-11.9-24.7-19.4s15.1-10.6,30.6-7.2s26.3,11.9,24.7,19.4&#10;&#9;&#9;C366.5,111.8,359.1,115,349.1,115z M331,87.1c-9.2,0-16.2,2.8-17.2,7.5c-1.5,6.6,9.2,14.5,23.6,17.7s27.5,0.4,28.9-6.1l0,0&#10;&#9;&#9;c1.5-6.6-9.2-14.5-23.7-17.7C338.9,87.5,334.9,87.1,331,87.1z"/>
	<path class="st1_map-1-17" d="M319.6,99.3c0.2-0.5,0.4-1,0.6-1.5c2.5-5.7,12.2-6.1,17.5-5.7c4.9,0.3,9.8,1.4,13.9,4.2&#10;&#9;&#9;c3.3,2.2,6.8,6.1,7.1,10.2s-1.2,9.4-2.5,13.2c-0.7,2.3-1.9,4.5-3.6,6.2c-1.9,1.5-4,2.5-6.4,3c-4.9,1.3-10.2,1.9-15.1,0.4&#10;&#9;&#9;c-5-1.6-10-5.9-11.5-11.1C317.9,112.1,317.5,105.4,319.6,99.3z"/>
	<path class="st2_map-1-17" d="M337.3,130.9c-2.2,0-4.3-0.3-6.4-0.9c-5.6-1.8-10.6-6.6-12-11.6c-1.4-4.9-2.5-12.2,0-19.3l0,0&#10;&#9;&#9;c0.2-0.5,0.4-1.1,0.6-1.6c2.9-6.7,14.6-6.4,18.2-6.1c5.9,0.4,10.6,1.8,14.3,4.3c3.2,2.1,7,6.2,7.4,10.8c0.3,3.3-0.6,7.8-2.5,13.5&#10;&#9;&#9;c-0.7,2.4-2,4.7-3.8,6.5c-1.9,1.6-4.2,2.7-6.7,3.2C343.4,130.4,340.4,130.9,337.3,130.9z M320.3,99.6c-2.4,6.7-1.3,13.7,0,18.4&#10;&#9;&#9;s5.8,9,11,10.6c4.1,1.3,8.9,1.1,14.7-0.4c2.2-0.5,4.3-1.4,6.1-2.9c1.6-1.7,2.8-3.7,3.4-5.9c1.9-5.5,2.7-9.8,2.5-12.9&#10;&#9;&#9;c-0.3-3.8-3.6-7.6-6.8-9.7c-3.5-2.3-7.9-3.6-13.6-4c-3.3-0.2-14.2-0.5-16.7,5.3C320.6,98.6,320.4,99.1,320.3,99.6L320.3,99.6z"/>
	<path class="st3_map-1-17 targetColor" d="M382.1,183.4l12.4-14.4c-8.5-14.6-17.4-23-23.3-26.1c-7.6-5.3-25.3-4.1-41.5-3.3c-5.2,0.2-10.3,1.1-15.2,2.9&#10;&#9;&#9;c-18.4,6.9-33.5,35.7-33.5,35.7l17.8,8.6c0,0-0.4,56.6,3.2,68.9c0,0,50.8,8.1,86.6-5.5C388.6,250.2,382.1,188.3,382.1,183.4z" style="fill: rgb(202, 60, 255);"/>
	<path class="st1_map-1-17" d="M329.2,132.2l1.1,12.4c0,0,4.9,6.9,12.5,3.8c4.5-2,7.9-5.8,9.3-10.6l-3.7-22.2c0,0-6.4-2.2-6.7-15.2&#10;&#9;&#9;c-6,3.8-12.9,6-20,6.2c0,0-1.3,14.3,0.6,20.3C324.2,132.8,329.2,132.2,329.2,132.2z"/>
	<path class="st2_map-1-17" d="M338.9,149.9c-5.6,0-9.1-4.8-9.2-4.9c-0.1-0.1-0.1-0.2-0.1-0.4l-1-11.7c-1.6-0.1-5.4-0.8-7-5.8&#10;&#9;&#9;c-2-6-0.7-20-0.6-20.6c0-0.4,0.3-0.6,0.7-0.7c7-0.2,13.7-2.3,19.6-6.1c0.2-0.2,0.5-0.2,0.7-0.1c0.2,0.1,0.4,0.4,0.4,0.6&#10;&#9;&#9;c0.3,12.2,6.2,14.5,6.2,14.5c0.3,0.1,0.4,0.3,0.5,0.6l3.7,22.2c0,0.1,0,0.2,0,0.3c-1.4,5-4.9,9.1-9.7,11.1&#10;&#9;&#9;C341.8,149.6,340.4,149.9,338.9,149.9z M331,144.3c0.8,1,5.1,6.1,11.5,3.4c4.3-1.8,7.5-5.5,8.8-9.9l-3.6-21.7&#10;&#9;&#9;c-1.4-0.7-6.1-3.8-6.7-14.4c-5.7,3.3-12.1,5.3-18.7,5.6c-0.2,2.8-1,14.3,0.6,19.4c1.7,5.3,6,4.9,6.2,4.8c0.2,0,0.4,0,0.5,0.2&#10;&#9;&#9;c0.1,0.1,0.2,0.3,0.3,0.5L331,144.3z"/>
	<path class="st1_map-1-17" d="M343.7,115.9c0.1-1.1,0.6-2.2,1.3-3c0.7-0.7,1.6-1.4,2.5-1.8c0.5-0.3,1-0.5,1.6-0.6c0.4,0,0.8,0.1,1.2,0.2&#10;&#9;&#9;c0.9,0.3,1.7,0.9,2.2,1.7c0.3,0.7,0.5,1.5,0.5,2.2c0,0.8,0,1.7-0.2,2.5c-0.8,3.4-4.3,5.5-7.6,4.6c0,0-0.1,0-0.1,0"/>
	<path class="st2_map-1-17" d="M346.7,122.6c-0.6,0-1.2-0.1-1.8-0.2c-0.4-0.1-0.6-0.5-0.5-0.9c0.1-0.4,0.5-0.6,0.9-0.5c3,0.8,6.1-1,6.8-4&#10;&#9;&#9;c0,0,0-0.1,0-0.1c0.2-0.8,0.2-1.5,0.2-2.3c0-0.7-0.1-1.3-0.4-1.9c-0.4-0.7-1.1-1.1-1.8-1.4c-0.3-0.1-0.6-0.2-0.9-0.2&#10;&#9;&#9;c-0.5,0.1-0.9,0.2-1.3,0.5c-0.9,0.4-1.7,1-2.3,1.7c-0.6,0.7-1,1.6-1.1,2.6c0,0.4-0.4,0.7-0.8,0.7c-0.4,0-0.7-0.4-0.7-0.8&#10;&#9;&#9;c0.1-1.3,0.6-2.5,1.5-3.5c0.8-0.8,1.7-1.5,2.7-2c0.6-0.4,1.2-0.6,1.9-0.7c0.5,0,1,0.1,1.5,0.3c1.1,0.3,2,1,2.6,2&#10;&#9;&#9;c0.4,0.8,0.6,1.7,0.6,2.6c0,0.9,0,1.8-0.2,2.7C352.8,120.4,349.9,122.6,346.7,122.6L346.7,122.6z"/>
	<path class="st2_map-1-17" d="M330.1,138.3c3-0.1,5.8-1.6,7.6-3.9c2.9-3.9,2.3-5.8,2.3-5.8s-5.1,4-10.4,3.8L330.1,138.3z"/>
	<path class="st2_map-1-17" d="M330.1,139c-0.4,0-0.7-0.3-0.7-0.6l-0.5-6c0-0.2,0-0.4,0.2-0.5c0.1-0.2,0.3-0.2,0.5-0.2c5,0.2,9.9-3.6,10-3.6&#10;&#9;&#9;c0.3-0.2,0.7-0.2,1,0.1c0.1,0.1,0.1,0.1,0.1,0.2c0.1,0.2,0.6,2.4-2.4,6.4C336.3,137.3,333.3,138.8,330.1,139L330.1,139z M330.3,133&#10;&#9;&#9;l0.4,4.5c2.5-0.3,4.9-1.6,6.5-3.6c1-1.2,1.7-2.5,2.1-4C336.6,131.7,333.5,132.7,330.3,133L330.3,133z"/>
	<path class="st1_map-1-17" d="M330.9,112.6c0,0-3.4,6.7-2.2,7.7s3.8-0.1,3.8-0.1"/>
	<path class="st2_map-1-17" d="M330.1,121.4c-0.7,0-1.3-0.2-1.8-0.6c-1.3-1.1,0.4-5.2,2.1-8.5c0.2-0.3,0.6-0.5,0.9-0.3&#10;&#9;&#9;c0.3,0.2,0.5,0.6,0.3,0.9c-1.5,3.1-2.6,6.3-2.4,6.9c0.5,0.4,2.1,0.1,3-0.3c0.4-0.1,0.8,0,0.9,0.4c0,0,0,0,0,0&#10;&#9;&#9;c0.1,0.4,0,0.8-0.4,0.9c0,0,0,0,0,0C331.9,121.2,331,121.4,330.1,121.4z"/>
	<path class="st1_map-1-17" d="M332.2,124.8c0,0,4.8,0.9,5.5-3.7"/>
	<path class="st2_map-1-17" d="M333.1,125.6c-0.4,0-0.7,0-1.1-0.1c-0.4-0.1-0.6-0.4-0.6-0.8c0,0,0,0,0,0c0.1-0.4,0.4-0.6,0.8-0.6&#10;&#9;&#9;c1.1,0.2,2.3,0,3.3-0.6c0.8-0.6,1.3-1.5,1.4-2.5c0.1-0.4,0.4-0.6,0.8-0.6c0.4,0.1,0.6,0.4,0.6,0.8c-0.1,1.4-0.9,2.6-2,3.4&#10;&#9;&#9;C335.4,125.3,334.3,125.6,333.1,125.6z"/>
	
		<ellipse transform="matrix(8.785121e-02 -0.9961 0.9961 8.785121e-02 197.1127 438.3998)" class="st2_map-1-17" cx="337.9" cy="111.6" rx="1.5" ry="1"/>
	
		<ellipse transform="matrix(8.785121e-02 -0.9961 0.9961 8.785121e-02 185.8175 428.9741)" class="st2_map-1-17" cx="327.1" cy="113" rx="1.5" ry="1"/>
	<polygon class="st1_map-1-17" points="337.9,166.4 306.3,175.6 276.4,167.9 248.3,175 217.5,166.2 250.6,243.1 276.9,250 298.9,241.5 &#10;&#9;&#9;322.3,250.5 341.8,244 &#9;"/>
	<path class="st2_map-1-17" d="M217.5,166.2l30.8,8.8l28.1-7.1l29.9,7.7l31.5-9.2l3.9,77.6l-19.5,6.5l-23.4-9l-22,8.5l-26.3-7L217.5,166.2&#10;&#9;&#9; M217.4,164.8c-0.4,0-0.8,0.2-1.1,0.5c-0.4,0.4-0.5,1-0.2,1.5l33.2,76.8c0.2,0.4,0.5,0.7,0.9,0.8l26.3,7c0.3,0.1,0.6,0,0.9-0.1&#10;&#9;&#9;l21.5-8.3l22.9,8.8c0.2,0.1,0.3,0.1,0.5,0.1c0.2,0,0.3,0,0.5-0.1l19.5-6.5c0.6-0.2,1-0.8,1-1.4l-3.9-77.6c0-0.4-0.2-0.8-0.6-1.1&#10;&#9;&#9;c-0.2-0.2-0.5-0.3-0.8-0.2c-0.1,0-0.3,0-0.4,0.1l-31.2,9.1l-29.6-7.6c-0.2-0.1-0.5-0.1-0.7,0l-27.7,7l-30.5-8.7c-0.1,0-0.3,0-0.4,0&#10;&#9;&#9;L217.4,164.8z"/>
	<path class="st0_map-1-17" d="M322.1,250.3c-0.3,0-0.6-0.2-0.7-0.6l-15.6-73.3c-0.1-0.4,0.2-0.7,0.5-0.8c0.4-0.1,0.7,0.2,0.8,0.5l15.6,73.3&#10;&#9;&#9;c0.1,0.4-0.2,0.7-0.5,0.8c0,0,0,0,0,0L322.1,250.3z"/>
	<path class="st0_map-1-17" d="M298.6,241.3c-0.3,0-0.6-0.2-0.7-0.5l-22-71.7c-0.1-0.4,0.1-0.8,0.5-0.9s0.8,0.1,0.9,0.5l22,71.7&#10;&#9;&#9;c0.1,0.4-0.1,0.8-0.5,0.9L298.6,241.3z"/>
	<path class="st0_map-1-17" d="M276.6,249.9c-0.3,0-0.5-0.2-0.6-0.4l-28-73.3c-0.1-0.4,0-0.8,0.4-0.9c0,0,0,0,0,0c0.4-0.1,0.8,0,0.9,0.4&#10;&#9;&#9;l28,73.3c0.1,0.4,0,0.8-0.4,0.9C276.8,249.9,276.7,249.9,276.6,249.9z"/>
	<path class="st1_map-1-17" d="M226.9,196.3c0.2,1.5,0.6,3,1.2,4.4l2.7,7c0.7,1.7,1.7,3.8,3.6,3.8c1.3,0,2.3-1,3.2-1.9&#10;&#9;&#9;c2.7-2.9,5.6-5.9,6.3-9.8c0.1-0.6,0-1.3-0.5-1.4c-0.3,0-0.5,0-0.7,0.2c-2,0.9-3.7,2.3-5.2,4c1.9-2.1,3.6-4.4,5-6.9&#10;&#9;&#9;c0.3-0.6,0.6-1.4,0-1.7c-0.4-0.2-0.8-0.2-1.2,0c-1.5,0.5-2.8,1.4-3.9,2.4c1.6-1.1,2.8-2.6,3.6-4.3c0.3-0.6,0.4-1.6-0.2-1.9&#10;&#9;&#9;s-1.1,0.1-1.5,0.4c-1.1,0.8-2.1,1.8-3,2.8c0.7-0.9,1.2-2,1.4-3.1c0.1-0.2,0.1-0.5-0.1-0.8c-0.3-0.5-1.1-0.2-1.5,0.2l-6.4,5&#10;&#9;&#9;c0.3-0.2-1.3-2.1-1.9-1.9C226.8,193,226.9,195.7,226.9,196.3z"/>
	<path class="st2_map-1-17" d="M234.5,212.2L234.5,212.2c-2.6,0-3.9-3.2-4.2-4.2l-2.7-7c-0.6-1.4-1.1-3-1.3-4.5l0,0c0-0.4-0.3-3.9,1.3-4.3&#10;&#9;&#9;c0.9-0.2,1.9,0.8,2.4,1.4l5.7-4.5c0.5-0.4,1.1-0.6,1.7-0.6c0.3,0.1,0.6,0.3,0.8,0.5c0.2,0.4,0.3,0.8,0.2,1.3c0,0,0,0.1,0,0.1&#10;&#9;&#9;l0.5-0.4c0.6-0.6,1.5-0.8,2.3-0.5c1,0.5,1,1.8,0.5,2.8c-0.1,0.3-0.3,0.7-0.5,1c0.6-0.3,1.3-0.2,1.8,0.1c0.7,0.5,0.8,1.5,0.2,2.6&#10;&#9;&#9;c-0.4,0.7-0.8,1.4-1.3,2.1l0.5-0.3c0.4-0.2,0.8-0.3,1.2-0.2c0.9,0.2,1.3,1.1,1.1,2.3c-0.8,4.2-3.9,7.5-6.5,10.2&#10;&#9;&#9;C237.2,211.1,236,212.2,234.5,212.2z M227.6,196.2c0.2,1.4,0.6,2.8,1.2,4.2l2.7,7c0.9,2.2,1.8,3.3,3,3.4c1.1-0.2,2-0.8,2.7-1.7&#10;&#9;&#9;c2.4-2.5,5.4-5.7,6.1-9.5c0.1-0.2,0.1-0.4,0-0.6c0,0-0.1,0-0.2,0.1c-1.5,0.7-3,1.7-4.2,2.9c-0.3,0.3-0.6,0.6-0.9,0.9&#10;&#9;&#9;c-0.3,0.3-0.7,0.3-1,0c-0.3-0.2-0.3-0.7-0.1-1c0,0,0,0,0,0c0.3-0.3,0.6-0.7,0.9-1c1.5-1.8,2.9-3.7,4-5.8c0.2-0.2,0.3-0.5,0.2-0.8&#10;&#9;&#9;l0,0c0,0-0.1-0.1-0.6,0.1c-0.9,0.3-1.7,0.8-2.5,1.3c-0.4,0.4-0.8,0.7-1.3,1c-0.3,0.2-0.7,0.2-0.9-0.1c-0.3-0.3-0.2-0.7,0-1&#10;&#9;&#9;c0,0,0,0,0,0c0.4-0.4,0.8-0.7,1.2-1c0.9-0.9,1.6-1.9,2.1-3.1c0.2-0.5,0.2-1,0.1-1s-0.3,0-0.8,0.4c-1.1,0.8-2,1.7-2.9,2.7&#10;&#9;&#9;c-0.2,0.3-0.7,0.3-1,0.1c0,0,0,0,0,0c-0.3-0.2-0.4-0.7-0.1-1c0,0,0,0,0,0c0.6-0.8,1.1-1.8,1.3-2.9v-0.1c-0.2,0.1-0.3,0.2-0.5,0.3&#10;&#9;&#9;l-6.4,5l0,0c-0.3,0.2-0.8,0.2-1-0.1c0,0,0,0,0,0c-0.1-0.1-0.2-0.3-0.1-0.5c-0.3-0.4-0.6-0.8-1.1-1.1c-0.2,0.9-0.3,1.9-0.2,2.8&#10;&#9;&#9;L227.6,196.2z M229.2,194L229.2,194z"/>
	<path class="st1_map-1-17" d="M392.5,165c0,0,39.3,57.1,17.9,62.7c-14.9,3.9-45.6-0.4-57.3-5.2s-16.8-8.6-16.8-8.6s-12.6,0.2-11.4-2.9&#10;&#9;&#9;c0.7-1.8,2.6-2.9,4.5-2.7c0,0-6,0-5.5-2.9s5.5-2.4,5.5-2.4s-8.7-2.2-6.6-4.1s6.5-0.9,6.5-0.9s-5.9-0.5-5.9-3.1&#10;&#9;&#9;c0-4.3,18.6-1.3,22.4,1.8s31.2,6,35.2,6l-11-25.8"/>
	<path class="st2_map-1-17" d="M395.4,229.9c-15.3,0-33.8-3.2-42.5-6.8c-10.6-4.3-15.7-7.8-16.8-8.6c-2.2,0-10.1-0.1-11.6-2.3&#10;&#9;&#9;c-0.3-0.5-0.4-1.1-0.2-1.6c0.3-0.9,0.9-1.6,1.7-2.2c-0.9-0.2-1.6-0.7-2.2-1.3c-0.5-0.5-0.6-1.2-0.5-1.9c0.3-1.3,1.3-2.3,2.6-2.6&#10;&#9;&#9;c-1.9-0.7-3.8-1.7-4-2.8c-0.1-0.5,0.1-1.1,0.5-1.5c0.6-0.5,1.3-0.9,2.1-1.1c-1-0.4-1.6-1.4-1.7-2.4c0-0.9,0.6-1.8,1.5-2.1&#10;&#9;&#9;c4.2-2.1,18.5,0.4,22.1,3.3c3.3,2.6,26.9,5.4,33.7,5.8L369.3,177c-0.1-0.4,0-0.8,0.4-0.9c0.4-0.2,0.8,0,0.9,0.4c0,0,0,0,0,0&#10;&#9;&#9;l11,25.8c0.1,0.2,0.1,0.5-0.1,0.7c-0.1,0.2-0.4,0.3-0.6,0.3l0,0c-3.1,0-31.4-2.8-35.6-6.1c-3.2-2.5-16.9-5-20.6-3.1&#10;&#9;&#9;c-0.7,0.3-0.7,0.7-0.7,0.8c0,1.1,2.3,1.9,4.1,2.2c0.4,0,0.9,0.1,1.3,0.2c0.4,0.1,0.6,0.5,0.5,0.8c-0.1,0.3-0.4,0.6-0.7,0.5&#10;&#9;&#9;c-0.4,0-0.9-0.1-1.3-0.2c-1.5-0.1-3.5,0-4.7,1c0,0-0.1,0.1-0.1,0.1c0.1,0.6,3.2,2,6.4,2.8c0.4,0.1,0.6,0.5,0.5,0.9&#10;&#9;&#9;c-0.1,0.3-0.4,0.5-0.7,0.5c0,0-4.3-0.4-4.7,1.8c-0.1,0.3,0,0.6,0.2,0.8c0.6,0.8,2.5,1.2,4,1.3c0.3,0,0.5,0,0.8,0&#10;&#9;&#9;c0.4,0.1,0.6,0.4,0.6,0.8c-0.1,0.3-0.3,0.6-0.7,0.6c-0.2,0-0.4,0-0.6,0c-1.4,0-2.7,0.9-3.2,2.2c-0.1,0.1-0.1,0.2,0,0.3&#10;&#9;&#9;c0.9,1.2,6.8,1.7,10.7,1.7c0.2,0,0.3,0,0.4,0.1c0,0,5.1,3.8,16.6,8.6s42.3,9,56.9,5.2c2.4-0.5,4.3-2.2,5.1-4.5&#10;&#9;&#9;c5.5-14.8-23.2-56.7-23.5-57.1c-0.2-0.3-0.2-0.7,0.1-1c0,0,0,0,0,0c0.3-0.2,0.8-0.2,1,0.2c0,0,0,0,0,0c1.2,1.7,29.4,43,23.6,58.4&#10;&#9;&#9;c-1,2.7-3.3,4.8-6.1,5.4C405.7,229.5,400.5,230,395.4,229.9z"/>
	<path class="st2_map-1-17" d="M329.1,409.9c0,0-6.8,5.3-12.3,1c0,0-18-1.6-20.1,10.7h31.9L329.1,409.9z"/>
	<path class="st2_map-1-17" d="M328.6,422.3h-31.9c-0.2,0-0.4-0.1-0.5-0.2c-0.1-0.2-0.2-0.4-0.1-0.6c2.1-12.8,20.6-11.3,20.8-11.3&#10;&#9;&#9;c0.1,0,0.3,0.1,0.4,0.1c5,4,11.2-0.8,11.5-1c0.2-0.2,0.5-0.2,0.8-0.1c0.2,0.1,0.4,0.4,0.4,0.6l-0.5,11.7&#10;&#9;&#9;C329.3,422,329,422.3,328.6,422.3L328.6,422.3z M297.6,420.9h30.3l0.4-9.6c-2.3,1.3-7.4,3.7-11.8,0.3&#10;&#9;&#9;C314.6,411.4,300,410.9,297.6,420.9L297.6,420.9z"/>
</g>
<g id="Wayfinder_map-1-17">
	<rect x="114.9" y="166.1" class="st1_map-1-17" width="6" height="218"/>
	<path class="st0_map-1-17" d="M121,384.9h-6c-0.4,0-0.7-0.3-0.7-0.7l0,0v-218c0-0.4,0.3-0.7,0.7-0.7h6c0.4,0,0.7,0.3,0.7,0.7v218&#10;&#9;&#9;C121.7,384.6,121.4,384.9,121,384.9L121,384.9z M115.7,383.5h4.6V166.8h-4.6V383.5z"/>
	<polygon class="st1_map-1-17" points="144.9,242 84.4,242 84.4,215 144.9,215 154.6,228.5 &#9;"/>
	<path class="st0_map-1-17" d="M144.9,242.7H84.4c-0.4,0-0.7-0.3-0.7-0.7v-27c0-0.4,0.3-0.7,0.7-0.7h60.5c0.2,0,0.4,0.1,0.6,0.3l9.7,13.5&#10;&#9;&#9;c0.2,0.2,0.2,0.6,0,0.8l-9.7,13.5C145.3,242.6,145.1,242.7,144.9,242.7z M85.1,241.3h59.4l9.2-12.8l-9.2-12.8H85.1V241.3z"/>
	<polygon class="st1_map-1-17" points="85,204.7 145.5,204.7 145.5,177.7 85,177.7 75.3,191.2 &#9;"/>
	<path class="st0_map-1-17" d="M145.5,205.4H85c-0.2,0-0.4-0.1-0.6-0.3l-9.7-13.5c-0.2-0.2-0.2-0.6,0-0.8l9.7-13.5c0.1-0.2,0.3-0.3,0.6-0.3&#10;&#9;&#9;h60.5c0.4,0,0.7,0.3,0.7,0.7v27C146.2,205.1,145.9,205.4,145.5,205.4z M85.4,204h59.4v-25.6H85.4l-9.2,12.8L85.4,204z"/>
</g>
</svg>