<svg version="1.1" id="Layer_1" xmlns="http://www.w3.org/2000/svg" xmlns:xlink="http://www.w3.org/1999/xlink" x="0px" y="0px" viewBox="0 0 500 500" style="width: 144px;" xml:space="preserve" data-imageid="marketing-campaign-2-11" imageName="Marketing Campaign 2" class="illustrations_image">
<style type="text/css">
	.st0_marketing-campaign-2-11{fill:#D1D3D4;}
	.st1_marketing-campaign-2-11{fill:#FFFFFF;}
	.st2_marketing-campaign-2-11{fill:#231F20;}
	.st3_marketing-campaign-2-11{fill:#68E1FD;}
</style>
<path id="Floor_marketing-campaign-2-11" class="st0_marketing-campaign-2-11" d="M456.3,375.7H43.7c-0.4,0-0.7-0.3-0.7-0.7c0-0.4,0.3-0.7,0.7-0.7h412.7c0.4,0,0.7,0.3,0.7,0.7&#10;&#9;S456.7,375.7,456.3,375.7C456.3,375.7,456.3,375.7,456.3,375.7z"/>
<g id="Screen_marketing-campaign-2-11">
	<path class="st1_marketing-campaign-2-11" d="M435,116.5v208c0,8.7-7.1,15.8-15.8,15.8c0,0,0,0,0,0H80.8c-8.7,0-15.8-7-15.8-15.7c0,0,0,0,0,0v-208&#10;&#9;&#9;c0-8.7,7-15.8,15.7-15.8c0,0,0.1,0,0.1,0h338.4C427.9,100.7,435,107.7,435,116.5C435,116.4,435,116.5,435,116.5z"/>
	<path class="st2_marketing-campaign-2-11" d="M419.2,341H80.8c-9.1,0-16.5-7.4-16.5-16.5v-208c0-9.1,7.4-16.5,16.5-16.5c0,0,0,0,0,0h338.4&#10;&#9;&#9;c9.1,0,16.5,7.4,16.5,16.5v208C435.7,333.6,428.3,341,419.2,341C419.2,341,419.2,341,419.2,341z M80.8,101.4&#10;&#9;&#9;c-8.3,0-15.1,6.8-15.1,15.1v208c0,8.3,6.7,15.1,15.1,15.1c0,0,0,0,0,0h338.4c8.3,0,15.1-6.8,15.1-15.1v-208&#10;&#9;&#9;c0-8.3-6.7-15.1-15.1-15.1L80.8,101.4z"/>
	<path class="st2_marketing-campaign-2-11" d="M435,116.5v11.3H65v-11.3c0-8.7,7.1-15.8,15.8-15.8c0,0,0,0,0.1,0h338.4C427.9,100.7,435,107.7,435,116.5&#10;&#9;&#9;C435,116.4,435,116.5,435,116.5z"/>
	<path class="st2_marketing-campaign-2-11" d="M435,128.4H65c-0.3,0-0.6-0.3-0.6-0.6c0,0,0,0,0,0v-11.3c0-9.1,7.3-16.4,16.4-16.4h338.4&#10;&#9;&#9;c9.1,0,16.4,7.3,16.4,16.4v11.3C435.6,128.1,435.3,128.4,435,128.4L435,128.4z M65.7,127.1h368.6v-10.6c0-8.4-6.8-15.1-15.1-15.2&#10;&#9;&#9;H80.8c-8.4,0-15.1,6.8-15.2,15.2L65.7,127.1z"/>
	<polygon class="st3_marketing-campaign-2-11 targetColor" points="215.6,127.8 202.3,106 131,106 116.1,127.8 65,127.8 65,160.9 435,160.9 435,127.8 &#9;" style="fill: rgb(255, 229, 168);"/>
	<path class="st2_marketing-campaign-2-11" d="M435,161.6H65c-0.4,0-0.7-0.3-0.7-0.7v-33.2c0-0.4,0.3-0.7,0.7-0.7h50.7l14.7-21.4c0.1-0.2,0.3-0.3,0.6-0.3&#10;&#9;&#9;h71.2c0.2,0,0.5,0.1,0.6,0.3l13.2,21.4h219c0.4,0,0.7,0.3,0.7,0.7v0v33.2C435.7,161.3,435.4,161.6,435,161.6L435,161.6z&#10;&#9;&#9; M65.8,160.2h368.5v-31.8H215.6c-0.2,0-0.5-0.1-0.6-0.3l-13.1-21.4h-70.5l-14.7,21.4c-0.1,0.2-0.3,0.3-0.6,0.3H65.7L65.8,160.2&#10;&#9;&#9;L65.8,160.2z"/>
	<circle class="st3_marketing-campaign-2-11 targetColor" cx="82.2" cy="114.2" r="3.8" style="fill: rgb(255, 229, 168);"/>
	<circle class="st1_marketing-campaign-2-11" cx="94.9" cy="114.2" r="3.8"/>
	<circle class="st1_marketing-campaign-2-11" cx="107.6" cy="114.2" r="3.8"/>
	<rect x="114.3" y="228.6" class="st1_marketing-campaign-2-11" width="280.3" height="31"/>
	<path class="st2_marketing-campaign-2-11" d="M394.6,260.3H114.3c-0.4,0-0.7-0.3-0.7-0.7l0,0v-31c0-0.4,0.3-0.7,0.7-0.7h280.3c0.4,0,0.7,0.3,0.7,0.7&#10;&#9;&#9;c0,0,0,0,0,0v31C395.3,260,395,260.3,394.6,260.3L394.6,260.3z M115,258.9h278.9v-29.5H115V258.9z"/>
	<g>
		<g>
			<path class="st2_marketing-campaign-2-11" d="M200.1,205.9c1.9,1.1,4,1.7,6.2,1.7c3.5,0,5.6-1.9,5.6-4.5c0-2.5-1.4-3.9-5-5.3c-4.3-1.5-7-3.8-7-7.5&#10;&#9;&#9;&#9;&#9;c0-4.1,3.4-7.2,8.6-7.2c2-0.1,4.1,0.4,5.9,1.3l-1,2.8c-1.5-0.8-3.3-1.3-5-1.3c-3.6,0-5,2.2-5,4c0,2.5,1.6,3.7,5.3,5.1&#10;&#9;&#9;&#9;&#9;c4.5,1.7,6.8,3.9,6.8,7.8c0,4.1-3,7.7-9.3,7.7c-2.4,0-4.7-0.6-6.8-1.7L200.1,205.9z"/>
		</g>
		<g>
			<path class="st2_marketing-campaign-2-11" d="M222.1,201.2c0.1,4.7,3.1,6.6,6.6,6.6c1.8,0.1,3.6-0.3,5.3-1l0.6,2.5c-2,0.8-4.2,1.2-6.4,1.2&#10;&#9;&#9;&#9;&#9;c-5.9,0-9.4-3.9-9.4-9.6s3.4-10.3,9-10.3c6.2,0,7.9,5.5,7.9,9c0,0.5,0,1.1-0.1,1.6L222.1,201.2z M232.3,198.7&#10;&#9;&#9;&#9;&#9;c0-2.2-0.9-5.6-4.8-5.6c-3.5,0-5.1,3.2-5.3,5.6H232.3z"/>
			<path class="st2_marketing-campaign-2-11" d="M250.6,210.1l-0.3-2.4h-0.1c-1.4,1.8-3.6,2.9-5.9,2.8c-3,0.2-5.6-2-5.8-5c0-0.2,0-0.3,0-0.5&#10;&#9;&#9;&#9;&#9;c0-4.6,4.1-7.1,11.5-7.1v-0.4c0-1.6-0.4-4.4-4.3-4.4c-1.8,0-3.5,0.5-5,1.4l-0.8-2.3c1.9-1.1,4.1-1.7,6.3-1.7c5.9,0,7.3,4,7.3,7.8&#10;&#9;&#9;&#9;&#9;v7.1c0,1.5,0.1,3.1,0.3,4.6H250.6z M250.1,200.4c-3.8-0.1-8.1,0.6-8.1,4.3c-0.1,1.7,1.1,3.2,2.8,3.3c0.2,0,0.3,0,0.5,0&#10;&#9;&#9;&#9;&#9;c2.1,0.1,3.9-1.2,4.6-3.2c0.1-0.4,0.2-0.7,0.2-1.1L250.1,200.4z"/>
		</g>
		<g>
			<path class="st2_marketing-campaign-2-11" d="M259,197c0-2.2,0-4.2-0.1-6h3l0.1,3.8h0.1c0.7-2.4,2.8-4.1,5.3-4.2c0.3,0,0.7,0,1,0.1v3.3&#10;&#9;&#9;&#9;&#9;c-0.4-0.1-0.8-0.1-1.2-0.1c-2.5,0-4.2,1.9-4.7,4.5c-0.1,0.5-0.2,1.1-0.2,1.6v10.2H259V197z"/>
		</g>
		<g>
			<path class="st2_marketing-campaign-2-11" d="M285.2,209.4c-1.7,0.8-3.6,1.1-5.5,1.1c-5.8,0-9.5-3.9-9.5-9.8s4-10.2,10.3-10.2c1.7,0,3.3,0.3,4.8,1&#10;&#9;&#9;&#9;&#9;l-0.8,2.7c-1.2-0.6-2.6-1-4-0.9c-4.4,0-6.8,3.2-6.8,7.2c0,4.4,2.8,7.1,6.6,7.1c1.5,0,2.9-0.3,4.3-0.9L285.2,209.4z"/>
			<path class="st2_marketing-campaign-2-11" d="M289.2,182.1h3.5V194h0.1c0.6-1,1.5-1.9,2.5-2.4c1.1-0.6,2.3-1,3.5-1c2.6,0,6.7,1.6,6.7,8.2v11.4H302v-11&#10;&#9;&#9;&#9;&#9;c0-3.1-1.1-5.7-4.4-5.7c-2.1,0-4,1.4-4.7,3.5c-0.2,0.5-0.3,1.1-0.2,1.6v11.5h-3.5L289.2,182.1z"/>
		</g>
	</g>
	<path class="st2_marketing-campaign-2-11" d="M358,260.3L358,260.3c-0.4,0-0.7-0.3-0.7-0.7c0,0,0,0,0,0c0.1-11.6,0.3-29.1,0-30.7c0-0.1,0-0.2,0-0.3&#10;&#9;&#9;c0-0.4,0.4-0.7,0.8-0.7c0.2,0,0.3,0.1,0.4,0.2c0.3,0.3,0.6,0.6,0.2,31.5C358.7,260,358.4,260.3,358,260.3L358,260.3z"/>
	<path class="st1_marketing-campaign-2-11" d="M120.3,135.5h278.2c3.3,0,6,2.7,6,6v6.1c0,3.3-2.7,6-6,6H120.3c-3.3,0-6-2.7-6-6v-6.1&#10;&#9;&#9;C114.3,138.2,117,135.5,120.3,135.5z"/>
	<path class="st0_marketing-campaign-2-11" d="M391.5,148.6c-0.1,0-0.3,0-0.4-0.1c-0.2-0.2-0.3-0.4-0.3-0.7l0.5-3l-2.2-2.1c-0.3-0.3-0.3-0.7,0-1&#10;&#9;&#9;c0.1-0.1,0.3-0.2,0.4-0.2l3-0.4l1.4-2.7c0.1-0.2,0.4-0.4,0.6-0.4l0,0c0.3,0,0.5,0.2,0.6,0.4l1.4,2.7l3,0.4c0.4,0.1,0.7,0.4,0.6,0.8&#10;&#9;&#9;c0,0.2-0.1,0.3-0.2,0.4l-2.2,2.1l0.5,3c0.1,0.3-0.1,0.5-0.3,0.7c-0.2,0.2-0.5,0.2-0.7,0.1l-2.7-1.4l-2.7,1.4&#10;&#9;&#9;C391.6,148.6,391.5,148.6,391.5,148.6L391.5,148.6z M391.1,142.6l1.4,1.4c0.2,0.2,0.2,0.4,0.2,0.6l-0.3,2l1.8-0.9&#10;&#9;&#9;c0.2-0.1,0.4-0.1,0.6,0l1.8,0.9l-0.3-2c0-0.2,0-0.5,0.2-0.6l1.4-1.4l-2-0.3c-0.2,0-0.4-0.2-0.5-0.4l-0.9-1.8l-0.9,1.8&#10;&#9;&#9;c-0.1,0.2-0.3,0.4-0.5,0.4L391.1,142.6L391.1,142.6z"/>
	<path class="st2_marketing-campaign-2-11" d="M426.3,139.3h-10.5c-0.4,0-0.7-0.3-0.7-0.7s0.3-0.7,0.7-0.7c0,0,0,0,0,0h10.5c0.4,0,0.7,0.3,0.7,0.7&#10;&#9;&#9;C427,138.9,426.7,139.3,426.3,139.3z"/>
	<path class="st2_marketing-campaign-2-11" d="M426.3,143.9h-10.5c-0.4,0-0.7-0.3-0.7-0.7s0.3-0.7,0.7-0.7c0,0,0,0,0,0h10.5c0.4,0,0.7,0.3,0.7,0.7&#10;&#9;&#9;C427,143.6,426.7,143.9,426.3,143.9z"/>
	<path class="st2_marketing-campaign-2-11" d="M426.3,148.6h-10.5c-0.4,0-0.7-0.3-0.7-0.7c0-0.4,0.3-0.7,0.7-0.7h10.5c0.4,0,0.7,0.3,0.7,0.7&#10;&#9;&#9;S426.7,148.6,426.3,148.6C426.3,148.6,426.3,148.6,426.3,148.6z"/>
	<path class="st0_marketing-campaign-2-11" d="M227.3,122.8c-0.4,0-0.7-0.3-0.7-0.7v-11c0-0.4,0.3-0.7,0.7-0.7c0.4,0,0.7,0.3,0.7,0.7c0,0,0,0,0,0v11&#10;&#9;&#9;C228,122.5,227.7,122.8,227.3,122.8z"/>
	<path class="st0_marketing-campaign-2-11" d="M232.9,117.3h-11.1c-0.4,0-0.7-0.3-0.7-0.7c0-0.4,0.3-0.7,0.7-0.7h11.1c0.4,0,0.7,0.3,0.7,0.7&#10;&#9;&#9;C233.6,117,233.2,117.3,232.9,117.3z"/>
	<path class="st2_marketing-campaign-2-11" d="M84.2,146.3h-9.9c-0.4,0-0.7-0.3-0.7-0.7c0-0.4,0.3-0.7,0.7-0.7c0,0,0,0,0,0h9.9c0.4,0,0.7,0.3,0.7,0.7&#10;&#9;&#9;C84.9,146,84.6,146.3,84.2,146.3C84.2,146.3,84.2,146.3,84.2,146.3z"/>
	<path class="st2_marketing-campaign-2-11" d="M76.9,151c-0.2,0-0.4-0.1-0.5-0.3l-3.8-4.7c-0.2-0.3-0.2-0.6,0-0.9l4.1-4.8c0.3-0.3,0.7-0.3,1-0.1&#10;&#9;&#9;c0.3,0.3,0.3,0.7,0.1,1l-3.7,4.3l3.4,4.2c0.2,0.3,0.2,0.7-0.1,1c0,0,0,0,0,0C77.2,150.9,77.1,151,76.9,151L76.9,151z"/>
	<path class="st2_marketing-campaign-2-11" d="M99.6,146.3h-10c-0.4,0-0.7-0.3-0.7-0.7c0-0.4,0.3-0.7,0.7-0.7c0,0,0,0,0,0h10c0.4,0,0.7,0.3,0.7,0.7&#10;&#9;&#9;C100.3,146,100,146.3,99.6,146.3C99.6,146.3,99.6,146.3,99.6,146.3z"/>
	<path class="st2_marketing-campaign-2-11" d="M96.9,151c-0.4,0-0.7-0.3-0.7-0.7c0-0.2,0.1-0.3,0.2-0.4l3.4-4.2l-3.7-4.3c-0.3-0.3-0.2-0.7,0.1-1&#10;&#9;&#9;c0.3-0.3,0.7-0.2,1,0.1l4.1,4.8c0.2,0.3,0.2,0.6,0,0.9l-3.8,4.7C97.3,150.9,97.1,151,96.9,151L96.9,151z"/>
	<path class="st2_marketing-campaign-2-11" d="M374.2,248.3c-3.7,0-6.8-3-6.8-6.8s3-6.8,6.8-6.8c3.7,0,6.8,3,6.8,6.8c0,1.8-0.7,3.5-2,4.8&#10;&#9;&#9;C377.8,247.6,376,248.3,374.2,248.3z M374.2,236.2c-1.4,0-2.8,0.6-3.8,1.6c-1,1-1.6,2.4-1.6,3.8c0,1.4,0.6,2.8,1.6,3.8&#10;&#9;&#9;c2.1,2,5.5,2,7.6,0c2.1-2.1,2.1-5.5,0-7.6C377,236.7,375.7,236.2,374.2,236.2L374.2,236.2z"/>
	<path class="st2_marketing-campaign-2-11" d="M385.4,253.5c-0.2,0-0.4-0.1-0.5-0.2l-6.9-6.9c-0.3-0.3-0.3-0.7,0-1s0.7-0.3,1,0l6.9,6.9c0.3,0.3,0.3,0.7,0,1&#10;&#9;&#9;C385.8,253.4,385.6,253.5,385.4,253.5L385.4,253.5z"/>
	<path class="st3_marketing-campaign-2-11 targetColor" d="M212.5,287.7h74.6c2.9,0,5.3,2.4,5.3,5.3v9.7c0,2.9-2.4,5.3-5.3,5.3h-74.6c-2.9,0-5.3-2.4-5.3-5.3V293&#10;&#9;&#9;C207.2,290.1,209.6,287.7,212.5,287.7z" style="fill: rgb(255, 229, 168);"/>
	<path class="st0_marketing-campaign-2-11" d="M238.4,244.8H128c-0.4,0-0.7-0.3-0.7-0.7c0-0.4,0.3-0.7,0.7-0.7h110.4c0.4,0,0.7,0.3,0.7,0.7&#10;&#9;&#9;C239.1,244.5,238.8,244.8,238.4,244.8z"/>
</g>
<g id="Magnifying_Glass_marketing-campaign-2-11">
	
		<rect x="137.4" y="241.5" transform="matrix(0.8002 -0.5997 0.5997 0.8002 -119.2324 136.5794)" class="st1_marketing-campaign-2-11" width="15.9" height="11.5"/>
	<path class="st2_marketing-campaign-2-11" d="M142.5,257.3c-0.2,0-0.4-0.1-0.6-0.3l-6.9-9.2c-0.2-0.3-0.2-0.7,0.1-1c0,0,0,0,0,0l12.7-9.5&#10;&#9;&#9;c0.3-0.2,0.7-0.2,1,0.1c0,0,0,0,0,0l6.9,9.2c0.1,0.1,0.2,0.3,0.1,0.5c0,0.2-0.1,0.3-0.3,0.5l-12.7,9.5&#10;&#9;&#9;C142.8,257.2,142.6,257.3,142.5,257.3L142.5,257.3z M136.6,247.5l6.1,8.1l11.6-8.6l-6.1-8.1L136.6,247.5z"/>
	
		<rect x="121.6" y="254" transform="matrix(0.8002 -0.5997 0.5997 0.8002 -128.3929 130.2307)" class="st2_marketing-campaign-2-11" width="19.4" height="7.6"/>
	<path class="st2_marketing-campaign-2-11" d="M125.8,267.3c-0.2,0-0.4-0.1-0.5-0.2l-4.5-6c-0.1-0.1-0.1-0.3-0.1-0.5c0-0.2,0.1-0.3,0.2-0.4l15.5-11.6&#10;&#9;&#9;c0.3-0.2,0.7-0.2,0.9,0.1c0,0,0,0,0,0l4.6,6.1c0.1,0.1,0.1,0.3,0.1,0.5c0,0.2-0.1,0.3-0.2,0.4l-15.5,11.6&#10;&#9;&#9;C126,267.3,125.9,267.3,125.8,267.3L125.8,267.3z M122.1,260.7l3.8,5.1l14.5-10.9l-3.8-5.1L122.1,260.7z"/>
	<path class="st3_marketing-campaign-2-11 targetColor" d="M152.1,241.7c-8.4-11.2-6.1-27.2,5.1-35.6c11.2-8.4,27.2-6.1,35.6,5.1s6.1,27.2-5.1,35.6&#10;&#9;&#9;C176.5,255.2,160.5,252.9,152.1,241.7C152.1,241.7,152.1,241.7,152.1,241.7z M197.7,207.5c-10.4-13.9-30.2-16.8-44.1-6.3&#10;&#9;&#9;c-13.9,10.4-16.8,30.2-6.3,44.1c10.4,13.9,30.2,16.8,44.1,6.3C205.3,241.2,208.1,221.5,197.7,207.5L197.7,207.5z" style="fill: rgb(255, 229, 168);"/>
	<path class="st2_marketing-campaign-2-11" d="M172.5,258.7c-1.6,0-3.1-0.1-4.6-0.3c-17.6-2.5-29.7-18.8-27.2-36.4s18.8-29.7,36.4-27.2&#10;&#9;&#9;c17.6,2.5,29.7,18.8,27.2,36.4C202,246.9,188.5,258.6,172.5,258.7L172.5,258.7z M172.4,195.7c-17,0-30.8,13.9-30.7,30.9&#10;&#9;&#9;s13.9,30.8,30.9,30.7c17,0,30.8-13.9,30.7-30.9c0-6.6-2.2-13.1-6.2-18.4l0,0C191.3,200.2,182.1,195.6,172.4,195.7L172.4,195.7z&#10;&#9;&#9; M172.5,252.6c-8.2,0-16-3.9-20.9-10.4l0,0c-8.7-11.6-6.4-28,5.2-36.6s28-6.4,36.6,5.2c8.7,11.6,6.4,28-5.2,36.6&#10;&#9;&#9;C183.7,250.7,178.2,252.6,172.5,252.6L172.5,252.6z M152.7,241.3c8.2,10.9,23.7,13.2,34.6,5c10.9-8.2,13.2-23.7,5-34.6&#10;&#9;&#9;c-8.2-10.9-23.7-13.2-34.6-5C146.7,214.9,144.5,230.4,152.7,241.3z"/>
	<path class="st1_marketing-campaign-2-11" d="M80.5,298.8l-2.8-3.8c-1.1-1.5-0.8-3.6,0.7-4.8l41.5-31.1c1.5-1.1,3.6-0.8,4.8,0.7l2.8,3.8&#10;&#9;&#9;c1.1,1.5,0.8,3.6-0.7,4.8l-41.5,31.1C83.7,300.6,81.6,300.3,80.5,298.8z"/>
	<path class="st2_marketing-campaign-2-11" d="M83.2,300.9c-0.2,0-0.4,0-0.6,0c-1.1-0.2-2.1-0.7-2.7-1.6l-2.8-3.8c-0.7-0.9-0.9-2-0.8-3&#10;&#9;&#9;c0.2-1.1,0.7-2.1,1.6-2.7l41.5-31.1c0.9-0.6,1.9-0.9,3-0.8c1.1,0.2,2.1,0.7,2.7,1.6l2.8,3.8c0.7,0.9,0.9,2,0.8,3&#10;&#9;&#9;c-0.2,1.1-0.7,2.1-1.6,2.7l-41.5,31C85,300.5,84.1,300.8,83.2,300.9L83.2,300.9z M121.9,259.2c-0.6,0-1.2,0.2-1.6,0.5l-41.5,31.1&#10;&#9;&#9;c-0.6,0.4-1,1.1-1.1,1.8c-0.1,0.7,0.1,1.4,0.5,2l2.8,3.8l0,0c0.9,1.2,2.6,1.4,3.8,0.5l41.5-31.1c0.6-0.4,1-1.1,1.1-1.8&#10;&#9;&#9;c0.1-0.7-0.1-1.4-0.5-2l-2.8-3.8c-0.4-0.6-1.1-1-1.8-1.1L121.9,259.2z"/>
</g>
<g id="Plant_marketing-campaign-2-11">
	<path class="st2_marketing-campaign-2-11" d="M422.5,324.2c0.1-2-0.3-3.9-1.2-5.7c-0.8-1.3-1.9-2.3-2.6-3.6c-1.1-2.3-0.3-5-0.6-7.6&#10;&#9;&#9;c-0.2-2.1-1.2-4.1-2.7-5.6c-1.3-1.3-3-2.3-4.3-3.7c-2.1-2.3-2.7-5.5-3.9-8.4c-1.7-4.1-4.6-7.5-8.3-9.8c2.3,4.6-2.9,10.4-0.6,14.9&#10;&#9;&#9;c0.7,1.4,2.2,2.5,2.7,4c1.3,3.7-3.1,7.6-1.7,11.3c0.7,1.8,2.6,2.9,3.5,4.6c1.2,2.3,0.3,5.1,0.4,7.8c0.1,3.6,2.3,6.9,5,9.4&#10;&#9;&#9;c1.6,1.6,3.5,2.9,5.2,4.3c2.1,1.7,3,3.5,4.9,0.8C421,333.1,422.4,328.7,422.5,324.2L422.5,324.2z"/>
	<path class="st2_marketing-campaign-2-11" d="M424.8,326.3c-0.7-2.8-1.2-5.8,0-8.5c1.3-3,4.5-5.1,4.9-8.3c0.2-2.1-0.8-4.3-0.4-6.4s2.1-3.5,3.5-5.1&#10;&#9;&#9;c3.2-3.6,5.2-8.1,5.5-13c2,2.7,4.1,5.4,5.2,8.6s1.1,6.9-0.8,9.7c-0.5,0.7-1,1.4-1.3,2.2c-0.6,2.1,1.1,4,2,6c1.1,2.3,0.8,5-0.6,7&#10;&#9;&#9;c-1.9,2.3-5.4,3.2-6.3,6c-0.2,1-0.3,2.1-0.3,3.2c-0.4,3.8-3.1,7-6.7,8c-2.2,0.5-2.1-0.3-2.5-2.2&#10;&#9;&#9;C426.4,331.1,425.4,328.7,424.8,326.3z"/>
	<path class="st2_marketing-campaign-2-11" d="M417.9,306.1c-1.5-5.4-2.2-11-3.8-16.4c-1.4-4.2-3.1-8.3-5.1-12.2l6.7,2.8c2.1,0.9,4.5,2,5.5,4.1&#10;&#9;&#9;c1.8,3.6-1.4,8.3,0.5,11.9c0.6,1.3,1.8,2.2,2.6,3.3c2,2.8,1.7,6.6,0.6,9.8c-0.5,1.4-2.5,8.5-4.3,6.5c-0.7-0.8-0.8-3.8-1.1-4.8&#10;&#9;&#9;C418.9,309.5,418.4,307.8,417.9,306.1L417.9,306.1z"/>
	<path class="st2_marketing-campaign-2-11" d="M421.4,377.6c-1.3-8.8-5.5-39.8-5.5-40.1l1.4-0.2c0,0.3,4.2,31.3,5.5,40.1L421.4,377.6L421.4,377.6z"/>
	<path class="st2_marketing-campaign-2-11" d="M423.2,385.9h-1.4c0.1-10.5,4.5-50.5,7-53.2l1,0.9C427.9,335.8,423.3,374.4,423.2,385.9L423.2,385.9z"/>
	<path class="st2_marketing-campaign-2-11" d="M425.5,384l-1.4-0.1c1-22.5-3.8-69.8-3.8-70.3l1.4-0.1C421.7,314,426.5,361.4,425.5,384L425.5,384z"/>
	<path class="st1_marketing-campaign-2-11" d="M410.1,352.4h24.9l-1.7,28.2c-0.3,4.9-3.9,8.7-8.3,8.7h-4.8c-4.4,0-8-3.8-8.3-8.7L410.1,352.4L410.1,352.4z"/>
	<path class="st2_marketing-campaign-2-11" d="M424.9,390h-4.8c-4.7,0-8.7-4.1-9-9.4l-1.7-28.2c0-0.4,0.3-0.7,0.7-0.8c0,0,0,0,0.1,0h24.9&#10;&#9;&#9;c0.2,0,0.4,0.1,0.5,0.2c0.1,0.1,0.2,0.3,0.2,0.5l-1.7,28.2C433.6,385.9,429.6,390,424.9,390L424.9,390z M410.8,353.1l1.7,27.5&#10;&#9;&#9;c0.3,4.5,3.6,8,7.6,8h4.8c4,0,7.3-3.5,7.6-8l1.7-27.5H410.8z"/>
</g>
<g id="Character_marketing-campaign-2-11">
	<path class="st1_marketing-campaign-2-11" d="M112.9,277.2l7.7,7.9c0,0,10.9-16.2,10.7-18.1c-0.3-3.4,0-6.9,0.8-10.2c0-0.2,0.1-0.4,0.3-0.5&#10;&#9;&#9;c0.4-0.2,0.8,0.3,1,0.7c0.4,1.1,0.4,2.2,0.7,3.3c1.7-1,3.4-2.2,5.1-3.3c2.8-1.8,2,5.1,1.7,6c-0.6,2.5-1.8,5.5-4,7&#10;&#9;&#9;c0,0-13.1,29.2-16,28.9s-14.1-13-14.1-13L112.9,277.2L112.9,277.2z"/>
	<path class="st2_marketing-campaign-2-11" d="M120.9,299.6L120.9,299.6c-3.1-0.3-12.7-11-14.6-13.2c-0.2-0.3-0.2-0.6,0-0.9l6-8.7c0.1-0.2,0.3-0.3,0.5-0.3&#10;&#9;&#9;c0.2,0,0.4,0.1,0.6,0.2l7.1,7.3c5-7.5,10.1-15.8,10.1-17c-0.3-3.5,0-7,0.8-10.4c0.1-0.4,0.3-0.8,0.6-1c0.3-0.2,0.7-0.2,1-0.1&#10;&#9;&#9;c0.5,0.2,0.9,0.7,1.1,1.2c0.2,0.6,0.3,1.2,0.4,1.8c0,0.2,0.1,0.4,0.1,0.6c0.8-0.5,1.6-1,2.4-1.6l1.9-1.2c0.6-0.5,1.4-0.5,2.1-0.1&#10;&#9;&#9;c1.8,1.3,0.7,6.8,0.7,6.9c-0.6,2.4-1.8,5.5-4.1,7.3C132.5,281.4,123.9,299.5,120.9,299.6L120.9,299.6z M107.7,285.9&#10;&#9;&#9;c4.3,4.8,11.4,12.1,13.2,12.3c1.7-0.5,9.1-14.9,15.3-28.5c0.1-0.1,0.1-0.2,0.2-0.3c2.1-1.5,3.2-4.4,3.7-6.6&#10;&#9;&#9;c0.3-1.3,0.5-4.9-0.2-5.4c0,0-0.2,0-0.5,0.2l-1.8,1.2c-1.1,0.7-2.2,1.5-3.3,2.1c-0.2,0.1-0.4,0.1-0.6,0c-0.2-0.1-0.3-0.2-0.4-0.4&#10;&#9;&#9;c-0.2-0.5-0.3-1.1-0.4-1.6c-0.1-0.5-0.2-1-0.3-1.5c-0.7,3.2-1,6.4-0.7,9.6c0.2,2-8.2,14.7-10.8,18.6c-0.1,0.2-0.3,0.3-0.5,0.3&#10;&#9;&#9;c-0.2,0-0.4-0.1-0.6-0.2l-7.1-7.3L107.7,285.9L107.7,285.9z"/>
	<path class="st1_marketing-campaign-2-11" d="M62.2,391c0,0-2.7,7.3-1.5,8s24.9,0,23.4-1.4s-7.7-6.2-7.7-6.2"/>
	<path class="st2_marketing-campaign-2-11" d="M66.5,400c-3.2,0-5.7-0.1-6.1-0.4c-1.1-0.7-0.7-3.7,1.2-8.9c0.1-0.4,0.5-0.6,0.9-0.4c0.4,0.1,0.6,0.5,0.4,0.9&#10;&#9;&#9;l0,0c-1.2,3.2-2,6.4-1.7,7.2c2,0.5,18.2,0,21.9-0.9c-2-1.8-7-5.5-7.1-5.5c-0.3-0.2-0.4-0.7-0.1-1c0.2-0.3,0.7-0.4,1-0.1&#10;&#9;&#9;c0,0,0,0,0,0c0.3,0.2,6.4,4.8,7.8,6.2c0.3,0.3,0.4,0.8,0.1,1.1C83.8,399.4,73.4,400,66.5,400z"/>
	<path class="st1_marketing-campaign-2-11" d="M79.2,252.6c-1.1,0.1-2.2,0.2-3.6,0.3s-2.8,0-3.1-1.2c-0.2-1,0.9-2.1,0.4-3c-0.1-0.2-0.3-0.5-0.6-0.6&#10;&#9;&#9;c-4.4-4.1-4.8-10.9-0.8-15.5c-0.3,0.1-0.7,0-0.8-0.4c0,0,0,0,0-0.1c-0.1-0.3,0-0.7,0.2-1c0.7-1.2,1.8-2.1,3-2.7&#10;&#9;&#9;c3.8-2,8.1-2.7,12.4-2.2c3.2,0.4,7.4,2.1,7.7,5.9c0.1,1.4-0.7,2.7-2.1,3.2c0,4.1-1.6,7.2-3.7,10.6c-1.4,2.3-3.4,4.2-5.7,5.6&#10;&#9;&#9;C81.6,252,80.4,252.4,79.2,252.6L79.2,252.6z"/>
	<path class="st2_marketing-campaign-2-11" d="M75,253.6c-1.7,0-2.9-0.7-3.1-1.8c-0.1-0.6,0-1.2,0.3-1.8c0.2-0.5,0.3-0.8,0.2-1c-0.1-0.1-0.2-0.3-0.3-0.4&#10;&#9;&#9;c-4.4-4.1-5.1-10.8-1.6-15.7c-0.2-0.2-0.3-0.4-0.3-0.6c-0.1-0.5,0-1.1,0.3-1.6c0.8-1.3,1.9-2.3,3.2-2.9c3.9-2,8.4-2.8,12.8-2.3&#10;&#9;&#9;c3.9,0.4,8,2.6,8.3,6.6c0.1,1.5-0.7,3-2.1,3.7c-0.1,4.2-1.9,7.5-3.8,10.5c-1.5,2.4-3.5,4.4-5.9,5.8c-1.1,0.6-2.3,1-3.6,1.2&#10;&#9;&#9;c-0.7,0.1-1.3,0.1-2,0.2c-0.5,0-1,0.1-1.5,0.1L75,253.6L75,253.6z M71.6,231.8c0.2,0,0.4,0.1,0.5,0.3c0.2,0.3,0.2,0.6,0,0.9&#10;&#9;&#9;c-3.7,4.3-3.3,10.7,0.8,14.5c0.3,0.2,0.5,0.5,0.7,0.9c0.3,0.7,0.2,1.5-0.1,2.1c-0.2,0.3-0.2,0.7-0.2,1c0.1,0.7,1.5,0.8,2.3,0.7&#10;&#9;&#9;c0.6-0.1,1.1-0.1,1.6-0.1c0.7,0,1.3-0.1,1.9-0.2l0,0c1.1-0.1,2.2-0.5,3.1-1c2.2-1.3,4.1-3.1,5.4-5.3c2.3-3.6,3.6-6.5,3.6-10.2&#10;&#9;&#9;c0-0.3,0.2-0.6,0.6-0.7c1-0.4,1.6-1.4,1.5-2.4c-0.2-3.6-4.5-5-7-5.3c-4.1-0.5-8.3,0.2-12,2.1c-1.1,0.5-2,1.3-2.7,2.3&#10;&#9;&#9;c-0.1,0.1-0.1,0.3-0.2,0.5L71.6,231.8L71.6,231.8z"/>
	<path class="st1_marketing-campaign-2-11" d="M65.7,275.2c0,0-8.7,17.8-8.1,23.2s18.7,3.3,18.7,3.3l-1-27L65.7,275.2z"/>
	<path class="st2_marketing-campaign-2-11" d="M69,302.8c-5.3,0-11.6-0.8-12-4.4c-0.7-5.6,7.8-22.9,8.1-23.6c0.1-0.2,0.3-0.4,0.6-0.4l9.7-0.5&#10;&#9;&#9;c0.2,0,0.4,0.1,0.5,0.2c0.1,0.1,0.2,0.3,0.2,0.5l0.9,27c0,0.4-0.3,0.7-0.6,0.7C74,302.7,71.5,302.8,69,302.8L69,302.8z M66.2,275.8&#10;&#9;&#9;c-1.2,2.6-8.4,17.7-7.8,22.4c0.4,3.4,10.6,3.5,17.3,2.8l-0.9-25.6L66.2,275.8L66.2,275.8z"/>
	<path class="st1_marketing-campaign-2-11" d="M100.5,387.5L101,399c0,0,21.6,0.2,20.4-1.4s-11-8.5-11-8.5l-1.6-8.5L100.5,387.5L100.5,387.5z"/>
	<path class="st2_marketing-campaign-2-11" d="M104,399.8h-3c-0.4,0-0.7-0.3-0.7-0.7l-0.5-11.5c0-0.2,0.1-0.4,0.2-0.6l8.2-7c0.2-0.2,0.5-0.2,0.7-0.1&#10;&#9;&#9;c0.2,0.1,0.4,0.3,0.4,0.5l1.5,8.2c1.7,1.2,9.7,7,11,8.5c0.2,0.3,0.3,0.6,0.1,0.9C121.9,398.6,121.3,399.8,104,399.8L104,399.8z&#10;&#9;&#9; M101.7,398.4c7.9,0,16.3-0.2,18.7-0.8c-1.9-1.8-8-6.2-10.4-7.9c-0.1-0.1-0.2-0.3-0.3-0.4l-1.4-7.3l-7,6L101.7,398.4L101.7,398.4z"/>
	<path class="st2_marketing-campaign-2-11" d="M104.5,306.5l8.4,84.2l-13.3-0.9l-12.8-58.3L78,391.5l-16.1-0.8c0,0,1.4-38.4,2.9-51.2&#10;&#9;&#9;c1.5-12.8,1.5-29.8,1.5-29.8L104.5,306.5L104.5,306.5z"/>
	<path class="st1_marketing-campaign-2-11" d="M94.1,240.9c0,0,3.7,4.2,3.2,5.2s-2.7,0.7-2.7,0.7"/>
	<path class="st2_marketing-campaign-2-11" d="M95.3,247.6c-0.3,0-0.6,0-0.9-0.1c-0.4-0.1-0.6-0.4-0.6-0.8c0.1-0.4,0.4-0.6,0.8-0.6c0.7,0.1,1.8,0,1.9-0.3&#10;&#9;&#9;c0-0.5-1.4-2.6-3.1-4.5c-0.3-0.3-0.2-0.7,0-1c0,0,0,0,0,0c0.3-0.3,0.7-0.2,1,0.1c1.8,2.1,3.9,4.8,3.3,6&#10;&#9;&#9;C97.3,247.3,96.4,247.7,95.3,247.6L95.3,247.6z"/>
	<path class="st1_marketing-campaign-2-11" d="M92.6,234.9c2.2,1.3,2.1,4.7,2.4,6.9c0.4,3.1,0.7,6.1,1,9.2c0.2,1.9-4.8,2.7-5.8,2.2l1.9,7.6l-11.1-2.6&#10;&#9;&#9;l-0.9-8.9c0,0,3.3-0.4,4.7-4.7s0.5-10.3,0.5-10.3S90.5,233.6,92.6,234.9L92.6,234.9z"/>
	<path class="st2_marketing-campaign-2-11" d="M92,261.5c-0.1,0-0.1,0-0.2,0L80.7,259c-0.3-0.1-0.5-0.3-0.5-0.6l-0.9-8.9c0-0.4,0.2-0.7,0.6-0.8&#10;&#9;&#9;c0.1,0,2.9-0.5,4.2-4.2c1.3-4,0.4-9.9,0.4-10c0-0.2,0-0.4,0.1-0.5c0.1-0.1,0.3-0.2,0.5-0.3c0.6-0.1,5.6-0.8,7.9,0.6&#10;&#9;&#9;c2.1,1.3,2.4,4,2.6,6.2c0,0.4,0.1,0.8,0.1,1.2c0.4,3.1,0.8,6.2,1,9.2c0.1,0.8-0.3,1.5-1,1.9c-1.4,0.8-3,1.2-4.6,1.2l0,0l1.6,6.6&#10;&#9;&#9;c0.1,0.2,0,0.5-0.2,0.7C92.3,261.5,92.1,261.5,92,261.5L92,261.5z M81.5,257.7l9.5,2.2l-1.6-6.4c-0.1-0.3,0-0.5,0.2-0.7&#10;&#9;&#9;c0.2-0.2,0.5-0.2,0.7-0.1c1.5,0.2,3.1-0.2,4.4-0.9c0.3-0.2,0.4-0.4,0.4-0.6c-0.3-3.1-0.6-6.1-1-9.2c0-0.4-0.1-0.8-0.1-1.2&#10;&#9;&#9;c-0.2-1.9-0.4-4.3-1.9-5.2s-4.5-0.7-6.3-0.5c0.2,1.8,0.6,6.4-0.6,9.9c-0.6,2.3-2.4,4.2-4.6,5L81.5,257.7L81.5,257.7z"/>
	<path class="st3_marketing-campaign-2-11 targetColor" d="M115,277.9c0,0-12.4-13.1-17.3-18c-4.6-4.6-17.8-8.7-23.9-2.2c0,0-10,13.9-11.8,21.9l5.8,3.5&#10;&#9;&#9;c-1.3,9.5-2,19.1-2.2,28.8c11,8.7,39-5.4,39-5.4l-2.5-19.8l4.5,4.5L115,277.9z" style="fill: rgb(255, 229, 168);"/>
	<path class="st1_marketing-campaign-2-11" d="M95.5,248.8c-1,0.9-2.6,0.8-3.6-0.2c-0.1-0.1-0.2-0.2-0.2-0.3"/>
	<path class="st2_marketing-campaign-2-11" d="M93.7,250.1c-0.1,0-0.2,0-0.4,0c-0.9-0.1-1.7-0.7-2.2-1.4c-0.2-0.3-0.1-0.8,0.2-1c0.3-0.2,0.8-0.1,1,0.2l0,0&#10;&#9;&#9;c0.3,0.4,0.7,0.7,1.2,0.8c0.6,0,1.1-0.1,1.6-0.5c0.3-0.2,0.7-0.2,1,0.1c0,0,0,0,0,0c0.3,0.3,0.2,0.7-0.1,1&#10;&#9;&#9;C95.4,249.8,94.6,250.1,93.7,250.1L93.7,250.1z"/>
	<path class="st1_marketing-campaign-2-11" d="M88.5,243.7c-0.2-0.8-0.6-1.5-1.2-2c-0.4-0.5-0.8-0.9-1.3-1.2c-0.5-0.3-1.1-0.4-1.7-0.3&#10;&#9;&#9;c-0.5,0.2-0.9,0.6-1.1,1.1c-0.2,0.5-0.3,1-0.2,1.6c0.2,2.4,1.7,4.4,3.8,5.4l-0.2-0.2"/>
	<path class="st2_marketing-campaign-2-11" d="M86.9,249c-0.1,0-0.2,0-0.3-0.1c-2.4-1.1-4-3.4-4.3-6c-0.1-0.6,0-1.3,0.2-1.9c0.2-0.7,0.8-1.2,1.4-1.5&#10;&#9;&#9;c0.8-0.3,1.6-0.1,2.3,0.3c0.6,0.4,1,0.8,1.5,1.4c0.6,0.6,1.1,1.4,1.3,2.3c0,0.4-0.2,0.7-0.6,0.8c-0.4,0-0.7-0.2-0.8-0.5&#10;&#9;&#9;c-0.2-0.6-0.5-1.2-1-1.6c-0.3-0.4-0.7-0.8-1.2-1.1c-0.3-0.2-0.7-0.3-1.1-0.2c-0.3,0.1-0.5,0.4-0.7,0.7c-0.1,0.4-0.2,0.8-0.1,1.3&#10;&#9;&#9;c0.2,1.9,1.3,3.6,3,4.6c0.1,0,0.3,0.1,0.4,0.1l0.2,0.2c0.3,0.2,0.3,0.7,0.1,1C87.3,248.9,87.1,249,86.9,249L86.9,249z"/>
	<path class="st2_marketing-campaign-2-11" d="M90.1,253.3c-1.6-0.3-3-1-4.2-2.1c0,0,0.8,4.6,5,5.4L90.1,253.3L90.1,253.3z"/>
	<path class="st2_marketing-campaign-2-11" d="M90.9,257.4h-0.1c-4.6-0.9-5.5-5.8-5.6-6c-0.1-0.4,0.2-0.7,0.6-0.8c0.2,0,0.5,0,0.6,0.2c1.1,1,2.4,1.6,3.8,1.8&#10;&#9;&#9;c0.3,0,0.5,0.2,0.6,0.5l0.8,3.4c0.1,0.2,0,0.5-0.2,0.6C91.3,257.3,91.1,257.4,90.9,257.4L90.9,257.4z M87.3,253.1&#10;&#9;&#9;c0.6,1.1,1.5,2,2.7,2.5l-0.4-1.7C88.8,253.7,88.1,253.5,87.3,253.1L87.3,253.1z"/>
	<path class="st2_marketing-campaign-2-11" d="M102.3,288.4c-0.2,0-0.4-0.1-0.5-0.2c-3.2-3.3-6.1-6.7-8.9-10.3c-0.2-0.3-0.2-0.7,0.1-1c0.3-0.2,0.7-0.2,1,0.1&#10;&#9;&#9;c2.7,3.5,5.7,6.9,8.8,10.1c0.3,0.3,0.3,0.7,0,1C102.6,288.4,102.5,288.4,102.3,288.4L102.3,288.4z"/>
	
		<ellipse transform="matrix(2.774711e-02 -0.9996 0.9996 2.774711e-02 -149.4778 324.371)" class="st2_marketing-campaign-2-11" cx="92" cy="239" rx="1.1" ry="0.4"/>
	<path class="st2_marketing-campaign-2-11" d="M67.6,281h-0.1c-0.4-0.1-0.6-0.4-0.6-0.8c0.1-0.6,2.4-14.9,5-19.6c0.2-0.3,0.6-0.5,1-0.3&#10;&#9;&#9;c0.3,0.2,0.5,0.6,0.3,1c-2.5,4.6-4.9,19-4.9,19.2C68.2,280.8,67.9,281,67.6,281L67.6,281z"/>
</g>
</svg>