<svg version="1.1" id="Layer_1" xmlns="http://www.w3.org/2000/svg" xmlns:xlink="http://www.w3.org/1999/xlink" x="0px" y="0px" viewBox="0 0 500 500" style="width: 144px;" xml:space="preserve" data-imageid="neutral-face-97" imageName="Neutral Face" class="illustrations_image">
<style type="text/css">
	.st0_neutral-face-97{fill:#D1D3D4;}
	.st1_neutral-face-97{fill:#231F20;}
	.st2_neutral-face-97{fill:#FFFFFF;}
	.st3_neutral-face-97{fill:#68E1FD;}
</style>
<g id="Shadow_neutral-face-97">
	<ellipse class="st0_neutral-face-97" cx="258.8" cy="389.9" rx="89.6" ry="10.6"/>
</g>
<g id="Character_neutral-face-97">
	<path class="st1_neutral-face-97" d="M334.7,328.2h-0.3c-3.1-0.2-5.5-2.8-5.3-5.9c0,0,0,0,0,0l7.9-147.2c0.1-3.1,2.6-5.5,5.7-5.5&#10;&#9;&#9;c3.1,0.1,5.5,2.6,5.5,5.7c0,0.1,0,0.2,0,0.3l-7.9,147.2C340.1,325.9,337.6,328.2,334.7,328.2z"/>
	<path class="st2_neutral-face-97" d="M316.5,291l1.6,30.2c0,0-4.2,25.8,0,23.1s6-15.8,6-15.8s-3.2,20.1,5.2,23.6s18.5,1.9,19.5-8.6&#10;&#9;&#9;s-0.4-43.9-0.4-43.9L316.5,291z"/>
	<path class="st1_neutral-face-97" d="M337.3,354.6c-2.8,0-5.6-0.6-8.2-1.7c-5-2-6.2-9.2-6.3-15.3c-1,3.2-2.5,6.2-4.4,7.4c-0.5,0.4-1.2,0.4-1.7,0.1&#10;&#9;&#9;c-2.8-1.8-0.3-18.6,0.6-23.8l-1.6-30.1c0-0.2,0.1-0.5,0.3-0.6c0.2-0.1,0.4-0.2,0.6-0.1l31.9,8.7c0.3,0.1,0.5,0.4,0.5,0.7&#10;&#9;&#9;c0,0.3,1.4,33.5,0.4,44c-0.4,4.1-2.2,7.3-5.2,9.1C342.2,354,339.8,354.7,337.3,354.6z M324.8,328.9c-0.3,2.1-2.5,19.6,4.9,22.6&#10;&#9;&#9;c5.1,2.1,10.5,2.1,13.9,0c2.7-1.6,4.2-4.3,4.5-8c0.9-9.6-0.2-39-0.4-43.3l-30.4-8.3l1.5,29.2c0,0,0,0.1,0,0.1&#10;&#9;&#9;c-1.9,11.4-2.4,21.6-1.2,22.5l0.1-0.1c3.1-1.9,5.1-11,5.6-14.9c0-0.2,0.1-0.4,0.1-0.4c0.1-0.4,0.4-0.7,0.8-0.6&#10;&#9;&#9;c0.4,0.1,0.7,0.4,0.6,0.8C324.9,328.8,324.8,328.8,324.8,328.9z"/>
	<path class="st2_neutral-face-97" d="M354.4,301.8l-40.5-2.7c-2.2-0.1-3.9-2.1-3.7-4.3l0.3-3.9c0.1-2.2,2.1-3.9,4.3-3.7l40.5,2.7&#10;&#9;&#9;c2.2,0.1,3.9,2.1,3.7,4.3l-0.3,3.9C358.5,300.3,356.6,301.9,354.4,301.8z"/>
	<path class="st1_neutral-face-97" d="M353.2,302.4h-0.4l-37.3-2.5c-1.7-0.1-3.2-0.9-4.3-2.1c-1.1-1.3-1.7-2.9-1.5-4.6l0-0.8&#10;&#9;&#9;c0.2-3.5,3.2-6.1,6.7-5.9l37.3,2.5c3.5,0.2,6.1,3.2,5.9,6.7l0,0.8C359.2,299.9,356.5,302.4,353.2,302.4L353.2,302.4z M315.9,288&#10;&#9;&#9;c-2.6,0-4.7,2-4.8,4.5l0,0.8c-0.2,2.7,1.8,5,4.5,5.2l37.3,2.5c1.3,0.1,2.5-0.3,3.5-1.2c1-0.8,1.6-2,1.6-3.3l0-0.8&#10;&#9;&#9;c0.2-2.7-1.8-5-4.5-5.2l-37.3-2.5H315.9z"/>
	<path class="st1_neutral-face-97" d="M182.9,328.2c-3,0-5.4-2.3-5.6-5.3l-7.9-147.2c-0.2-3.1,2-5.8,5.1-6c3.1-0.2,5.8,2,6,5.1c0,0.1,0,0.2,0,0.3&#10;&#9;&#9;l7.9,147.2c0.2,3.1-2.2,5.7-5.3,5.9c0,0,0,0,0,0L182.9,328.2z"/>
	<path class="st2_neutral-face-97" d="M201,291l-1.6,30.2c0,0,4.2,25.8,0,23.1s-6-15.8-6-15.8s3.2,20.1-5.2,23.6s-18.5,1.9-19.4-8.6&#10;&#9;&#9;s0.4-43.9,0.4-43.9L201,291z"/>
	<path class="st1_neutral-face-97" d="M180.2,354.6c-2.5,0.1-4.9-0.6-7.1-1.8c-3-1.8-4.8-5-5.2-9.1c-0.9-10.4,0.4-43.6,0.4-44c0-0.3,0.2-0.6,0.5-0.7&#10;&#9;&#9;l31.9-8.7c0.2-0.1,0.5,0,0.6,0.1c0.2,0.1,0.3,0.4,0.3,0.6l-1.6,30.1c0.9,5.2,3.3,22,0.6,23.8c-0.5,0.3-1.2,0.3-1.7-0.1&#10;&#9;&#9;c-1.9-1.2-3.3-4.3-4.4-7.4c-0.1,6-1.3,13.2-6.3,15.3C185.8,354,183.1,354.5,180.2,354.6z M169.8,300.3c-0.2,4.3-1.3,33.6-0.4,43.3&#10;&#9;&#9;c0.3,3.7,1.9,6.4,4.5,8c3.5,2.1,8.8,2.1,13.9,0c7.4-3,5.1-20.6,4.9-22.6c0-0.1,0-0.1,0-0.2c-0.1-0.4,0.2-0.8,0.6-0.8c0,0,0,0,0,0&#10;&#9;&#9;c0.4-0.1,0.8,0.2,0.8,0.6c0,0.1,0,0.2,0.1,0.4c0.6,3.8,2.6,12.9,5.6,14.9c0.1,0,0.1,0.1,0.2,0.1c1.2-0.8,0.6-11.1-1.3-22.5&#10;&#9;&#9;c0,0,0-0.1,0-0.1l1.5-29.2L169.8,300.3z"/>
	<path class="st2_neutral-face-97" d="M162.3,289.9l40.5-2.7c2.2-0.1,4.1,1.5,4.3,3.7l0.3,3.9c0.1,2.2-1.5,4.1-3.7,4.3l-40.5,2.7&#10;&#9;&#9;c-2.2,0.1-4.1-1.5-4.3-3.7l-0.3-3.9C158.5,292,160.2,290.1,162.3,289.9z"/>
	<path class="st1_neutral-face-97" d="M164.4,302.4c-3.3,0-6-2.6-6.3-5.9l-0.1-0.8c-0.2-3.5,2.4-6.5,5.9-6.7l37.3-2.5c3.5-0.2,6.5,2.4,6.7,5.9&#10;&#9;&#9;c0,0,0,0,0,0l0.1,0.8c0.2,3.5-2.4,6.5-5.9,6.7l-37.3,2.5L164.4,302.4z M201.3,288l-37.3,2.5c-1.3,0.1-2.5,0.7-3.3,1.7&#10;&#9;&#9;c-0.9,1-1.3,2.2-1.2,3.5l0.1,0.8c0.2,2.7,2.5,4.7,5.1,4.6c0,0,0,0,0,0l37.3-2.5c2.7-0.2,4.7-2.5,4.5-5.2l-0.1-0.8&#10;&#9;&#9;C206.3,289.9,204,287.8,201.3,288C201.3,288,201.3,288,201.3,288L201.3,288z M201.3,287.3L201.3,287.3z"/>
	<path class="st1_neutral-face-97" d="M238.3,365.7c-3.1,0-5.6-2.5-5.6-5.6l0,0V238.3c0-3.1,2.5-5.6,5.6-5.6s5.6,2.5,5.6,5.6c0,0,0,0,0,0v121.8&#10;&#9;&#9;C243.9,363.2,241.4,365.7,238.3,365.7z"/>
	<path class="st1_neutral-face-97" d="M279.2,365.7c-3.1,0-5.6-2.5-5.6-5.6l0,0V238.3c0-3.1,2.5-5.6,5.6-5.6s5.6,2.5,5.6,5.6l0,0v121.8&#10;&#9;&#9;C284.9,363.2,282.3,365.7,279.2,365.7L279.2,365.7z"/>
	<circle class="st3_neutral-face-97 targetColor" cx="258.8" cy="192.5" r="91.6" style="fill: rgb(100, 154, 255);"/>
	<path class="st1_neutral-face-97" d="M258.8,100.8c50.6,0.1,91.6,41.2,91.5,91.8c-0.1,49.4-39.3,89.8-88.6,91.4c-1,0-2,0-3,0&#10;&#9;&#9;c-50.6-0.1-91.6-41.2-91.5-91.8c0.1-49.4,39.3-89.8,88.6-91.4C256.8,100.9,257.8,100.8,258.8,100.8 M258.8,99.4L258.8,99.4&#10;&#9;&#9;c-1,0-2,0-3,0c-51.4,1.5-91.8,44.4-90.3,95.8c1.5,50.4,42.8,90.4,93.2,90.3c1,0,2,0,3,0c51.4-1.5,91.8-44.4,90.3-95.8&#10;&#9;&#9;C350.6,139.3,309.2,99.3,258.8,99.4L258.8,99.4z"/>
	
		<ellipse transform="matrix(0.9995 -3.175965e-02 3.175965e-02 0.9995 -5.2845 7.3471)" class="st1_neutral-face-97" cx="228.6" cy="170" rx="7.3" ry="17.3"/>
	
		<ellipse transform="matrix(0.9995 -3.175965e-02 3.175965e-02 0.9995 -5.1933 9.2609)" class="st1_neutral-face-97" cx="288.9" cy="168.1" rx="7.3" ry="17.3"/>
	
		<ellipse transform="matrix(0.9996 -2.998651e-02 2.998651e-02 0.9996 -5.6212 5.9329)" class="st2_neutral-face-97" cx="195" cy="190.4" rx="11.2" ry="7.1"/>
	
		<ellipse transform="matrix(0.9995 -3.175965e-02 3.175965e-02 0.9995 -5.8698 10.3326)" class="st2_neutral-face-97" cx="322.3" cy="189.9" rx="11.1" ry="7.1"/>
	<path class="st2_neutral-face-97" d="M256.6,335.2c0,0-39.5-7.7-39.8-3.9s1.3,35.4,1.3,35.4s-37.8,20.3-32,22.9s70.5-9.4,70.5-9.4L256.6,335.2z"/>
	<path class="st1_neutral-face-97" d="M189.4,390.6c-1.2,0.1-2.4-0.1-3.6-0.4c-0.6-0.2-1-0.8-1-1.4c0-0.9-0.1-3.2,16.6-13.4c7.1-4.3,14.2-8.2,16-9.2&#10;&#9;&#9;c-0.2-4-1.6-31.4-1.3-35c0-0.4,0.2-0.8,0.6-1c3.6-2.8,34.1,3,40.1,4.2c0.3,0.1,0.6,0.4,0.6,0.7v45c0,0.3-0.2,0.6-0.6,0.7&#10;&#9;&#9;C250.8,382,203.6,390.6,189.4,390.6z M220.7,330.9c-1.8,0-3,0.2-3.3,0.5c-0.3,3.7,1.3,34.9,1.3,35.2c0,0.3-0.1,0.5-0.4,0.7&#10;&#9;&#9;c-15.9,8.5-32.3,18.9-32.2,21.5c0,0,0.1,0.1,0.2,0.1c4.5,2,51.1-5.9,69.5-9.3v-43.8C241.9,333.1,227.2,330.9,220.7,330.9&#10;&#9;&#9;L220.7,330.9z"/>
	<path class="st2_neutral-face-97" d="M260.9,335.2c0,0,39.5-7.7,39.8-3.9s-1.3,35.4-1.3,35.4s37.8,20.3,32,22.9s-70.5-9.4-70.5-9.4L260.9,335.2z"/>
	<path class="st1_neutral-face-97" d="M328.2,390.6c-14.2,0-61.5-8.6-67.4-9.7c-0.3-0.1-0.6-0.4-0.6-0.7v-45c0-0.3,0.2-0.6,0.6-0.7&#10;&#9;&#9;c6.1-1.2,36.5-7,40.1-4.2c0.3,0.2,0.5,0.6,0.6,1c0.3,3.6-1,31-1.3,35c6.4,3.4,32.7,18,32.6,22.6c0,0.6-0.4,1.2-1,1.4&#10;&#9;&#9;C330.6,390.6,329.4,390.7,328.2,390.6z M261.6,379.6c18.4,3.4,65,11.3,69.5,9.3c0.1,0,0.2-0.1,0.2-0.1c0.1-2.5-16.3-12.9-32.2-21.5&#10;&#9;&#9;c-0.2-0.1-0.4-0.4-0.4-0.7c0-0.3,1.6-31.5,1.3-35.3c-1.4-1.6-20.5,0.9-38.4,4.4L261.6,379.6z"/>
	<path class="st1_neutral-face-97" d="M316,226.1H201.5c-1.2,0-2.1-0.9-2.1-2.1c0-1.2,0.9-2.1,2.1-2.1H316c1.2,0,2.1,0.9,2.1,2.1&#10;&#9;&#9;C318.1,225.2,317.2,226.1,316,226.1z"/>
	<circle class="st0_neutral-face-97" cx="76.5" cy="239.7" r="11.9"/>
	<circle class="st0_neutral-face-97" cx="128.5" cy="239.7" r="11.9"/>
	<circle class="st0_neutral-face-97" cx="371.5" cy="239.7" r="11.9"/>
	<circle class="st0_neutral-face-97" cx="423.5" cy="239.7" r="11.9"/>
</g>
</svg>