<svg version="1.1" id="Layer_1" xmlns="http://www.w3.org/2000/svg" xmlns:xlink="http://www.w3.org/1999/xlink" x="0px" y="0px" viewBox="0 0 500 500" style="width: 144px;" xml:space="preserve" data-imageid="note-taking-100" imageName="Note Taking" class="illustrations_image">
<style type="text/css">
	.st0_note-taking-100{fill:#FFFFFF;}
	.st1_note-taking-100{fill:#D1D3D4;}
	.st2_note-taking-100{fill:#231F20;}
	.st3_note-taking-100{fill:#68E1FD;}
	.st4_note-taking-100{fill:none;}
</style>
<g id="Floating_line_icons_note-taking-100">
	<rect x="96.3" y="105.4" class="st0_note-taking-100" width="81.1" height="77"/>
	<path class="st1_note-taking-100" d="M177.4,183.2H96.3c-0.4,0-0.7-0.3-0.7-0.7l0,0v-77c0-0.4,0.3-0.7,0.7-0.7l0,0h81.1c0.4,0,0.7,0.3,0.7,0.7l0,0&#10;&#9;&#9;v77C178.1,182.8,177.8,183.2,177.4,183.2L177.4,183.2z M97,181.7h79.7v-75.6H97V181.7z"/>
	<path class="st1_note-taking-100" d="M161.6,119.1h-42.5c-0.4,0-0.7-0.4-0.6-0.8c0-0.3,0.3-0.6,0.6-0.6h42.5c0.4,0,0.7,0.4,0.6,0.8&#10;&#9;&#9;C162.2,118.8,161.9,119.1,161.6,119.1z"/>
	<path class="st1_note-taking-100" d="M111.6,119.1H110c-0.4,0-0.7-0.4-0.6-0.8c0-0.3,0.3-0.6,0.6-0.6h1.5c0.4,0,0.7,0.4,0.6,0.8&#10;&#9;&#9;C112.1,118.8,111.9,119.1,111.6,119.1L111.6,119.1z"/>
	<path class="st1_note-taking-100" d="M145.5,128.8h-26.4c-0.4,0-0.7-0.3-0.7-0.7s0.3-0.7,0.7-0.7l0,0h26.4c0.4,0,0.7,0.3,0.7,0.7&#10;&#9;&#9;S145.9,128.8,145.5,128.8z"/>
	<path class="st1_note-taking-100" d="M111.6,128.8H110c-0.4,0-0.7-0.3-0.7-0.7s0.3-0.7,0.7-0.7h1.5c0.4,0,0.7,0.3,0.7,0.7S111.9,128.8,111.6,128.8&#10;&#9;&#9;L111.6,128.8z"/>
	<path class="st1_note-taking-100" d="M165.8,138.5h-46.7c-0.4,0-0.7-0.3-0.7-0.7s0.3-0.7,0.7-0.7l0,0h46.7c0.4,0,0.7,0.3,0.7,0.7&#10;&#9;&#9;S166.2,138.5,165.8,138.5z"/>
	<path class="st1_note-taking-100" d="M111.6,138.5H110c-0.4,0-0.7-0.3-0.7-0.7s0.3-0.7,0.7-0.7h1.5c0.4,0,0.7,0.3,0.7,0.7S111.9,138.5,111.6,138.5&#10;&#9;&#9;L111.6,138.5z"/>
	<path class="st1_note-taking-100" d="M151,148.1h-31.9c-0.4,0-0.7-0.4-0.6-0.8c0-0.3,0.3-0.6,0.6-0.6H151c0.4,0,0.7,0.4,0.6,0.8&#10;&#9;&#9;C151.6,147.8,151.3,148.1,151,148.1z"/>
	<path class="st1_note-taking-100" d="M111.6,148.1H110c-0.4,0-0.7-0.4-0.6-0.8c0-0.3,0.3-0.6,0.6-0.6h1.5c0.4,0,0.7,0.4,0.6,0.8&#10;&#9;&#9;C112.1,147.8,111.9,148.1,111.6,148.1L111.6,148.1z"/>
	<path class="st1_note-taking-100" d="M163,157.8h-43.9c-0.4,0-0.7-0.3-0.7-0.7s0.3-0.7,0.7-0.7l0,0H163c0.4,0,0.7,0.3,0.7,0.7&#10;&#9;&#9;S163.4,157.8,163,157.8z"/>
	<path class="st1_note-taking-100" d="M111.6,157.8H110c-0.4,0-0.7-0.3-0.7-0.7s0.3-0.7,0.7-0.7h1.5c0.4,0,0.7,0.3,0.7,0.7S111.9,157.8,111.6,157.8&#10;&#9;&#9;L111.6,157.8z"/>
	<path class="st1_note-taking-100" d="M157.7,167.5h-38.6c-0.4,0-0.7-0.3-0.7-0.7s0.3-0.7,0.7-0.7l0,0h38.6c0.4,0,0.7,0.3,0.7,0.7&#10;&#9;&#9;S158.1,167.5,157.7,167.5z"/>
	<path class="st1_note-taking-100" d="M111.6,167.5H110c-0.4,0-0.7-0.3-0.7-0.7s0.3-0.7,0.7-0.7h1.5c0.4,0,0.7,0.3,0.7,0.7S111.9,167.5,111.6,167.5&#10;&#9;&#9;L111.6,167.5z"/>
	<rect x="341.5" y="104" class="st0_note-taking-100" width="58.6" height="85.2"/>
	<path class="st1_note-taking-100" d="M400.1,189.9h-58.6c-0.4,0-0.7-0.3-0.7-0.7l0,0V104c0-0.4,0.3-0.7,0.7-0.7l0,0h58.6c0.4,0,0.7,0.3,0.7,0.7l0,0&#10;&#9;&#9;v85.2C400.8,189.6,400.5,189.9,400.1,189.9L400.1,189.9z M342.2,188.4h57.2v-83.7h-57.2V188.4z"/>
	<rect x="348.5" y="115.3" class="st0_note-taking-100" width="11.7" height="11.7"/>
	<path class="st1_note-taking-100" d="M360.1,127.7h-11.7c-0.4,0-0.7-0.3-0.7-0.7l0,0v-11.7c0-0.4,0.3-0.7,0.7-0.7l0,0h11.7c0.4,0,0.7,0.3,0.7,0.7&#10;&#9;&#9;l0,0v11.7C360.9,127.3,360.5,127.7,360.1,127.7L360.1,127.7z M349.1,126.2h10.2V116h-10.2L349.1,126.2z"/>
	<path class="st1_note-taking-100" d="M353.1,124.7c-0.1,0-0.1,0-0.2,0c-0.2-0.1-0.4-0.2-0.5-0.4l-1.5-3.7c-0.2-0.4,0-0.8,0.4-0.9&#10;&#9;&#9;c0.4-0.2,0.8,0,1,0.3c0,0,0,0,0,0.1l1.2,2.8l8.7-6.3c0.3-0.2,0.8-0.2,1,0.2c0.2,0.3,0.2,0.8-0.2,1l-9.4,6.8&#10;&#9;&#9;C353.4,124.7,353.3,124.7,353.1,124.7z"/>
	<path class="st1_note-taking-100" d="M393.1,121.3h-26.2c-0.4,0-0.7-0.3-0.7-0.7c0-0.4,0.3-0.7,0.7-0.7l0,0h26.2c0.4,0,0.7,0.3,0.7,0.7&#10;&#9;&#9;C393.8,121,393.5,121.3,393.1,121.3L393.1,121.3z"/>
	<rect x="348.5" y="132.2" class="st0_note-taking-100" width="11.7" height="11.7"/>
	<path class="st1_note-taking-100" d="M360.1,144.6h-11.7c-0.4,0-0.7-0.3-0.7-0.7l0,0v-11.7c0-0.4,0.3-0.7,0.7-0.7l0,0h11.7c0.4,0,0.7,0.3,0.7,0.7&#10;&#9;&#9;l0,0v11.7C360.9,144.3,360.5,144.6,360.1,144.6L360.1,144.6z M349.1,143.2h10.2V133h-10.2L349.1,143.2z"/>
	<path class="st1_note-taking-100" d="M353.1,141.7c-0.1,0-0.1,0-0.2,0c-0.2-0.1-0.4-0.2-0.5-0.4l-1.5-3.6c-0.2-0.4,0-0.8,0.4-0.9&#10;&#9;&#9;c0.4-0.2,0.8,0,1,0.4l1.2,2.8l8.7-6.3c0.3-0.2,0.8-0.2,1,0.2c0,0,0,0,0,0c0.2,0.3,0.2,0.8-0.2,1l-9.4,6.8&#10;&#9;&#9;C353.4,141.7,353.3,141.7,353.1,141.7z"/>
	<path class="st1_note-taking-100" d="M393.1,138.3h-26.2c-0.4,0-0.7-0.3-0.7-0.7l0,0c0-0.4,0.3-0.7,0.7-0.7h26.2c0.4,0,0.7,0.3,0.7,0.7l0,0&#10;&#9;&#9;C393.8,138,393.5,138.3,393.1,138.3z"/>
	<rect x="348.5" y="149.2" class="st0_note-taking-100" width="11.7" height="11.7"/>
	<path class="st1_note-taking-100" d="M360.1,161.6h-11.7c-0.4,0-0.7-0.3-0.7-0.7l0,0v-11.7c0-0.4,0.3-0.7,0.7-0.7l0,0h11.7c0.4,0,0.7,0.3,0.7,0.7&#10;&#9;&#9;l0,0v11.7C360.9,161.3,360.5,161.6,360.1,161.6z M349.1,160.2h10.2V150h-10.2L349.1,160.2z"/>
	<path class="st1_note-taking-100" d="M353.1,158.7h-0.2c-0.2-0.1-0.4-0.2-0.5-0.4l-1.5-3.6c-0.2-0.4,0-0.8,0.3-1c0,0,0,0,0,0c0.4-0.2,0.8,0,1,0.3&#10;&#9;&#9;c0,0,0,0,0,0.1l1.2,2.8l8.7-6.3c0.3-0.2,0.8-0.2,1,0.2c0.2,0.3,0.2,0.8-0.2,1l-9.4,6.9C353.5,158.6,353.3,158.7,353.1,158.7z"/>
	<path class="st1_note-taking-100" d="M393.1,155.3h-26.2c-0.4,0-0.7-0.3-0.7-0.7s0.3-0.7,0.7-0.7h26.2c0.4,0,0.7,0.3,0.7,0.7&#10;&#9;&#9;S393.5,155.3,393.1,155.3z"/>
	<rect x="348.5" y="166.2" class="st0_note-taking-100" width="11.7" height="11.7"/>
	<path class="st1_note-taking-100" d="M360.1,178.6h-11.7c-0.4,0-0.7-0.3-0.7-0.7l0,0v-11.7c0-0.4,0.3-0.7,0.7-0.7l0,0h11.7c0.4,0,0.7,0.3,0.7,0.7&#10;&#9;&#9;l0,0v11.7C360.9,178.3,360.5,178.6,360.1,178.6L360.1,178.6z M349.1,177.2h10.2V167h-10.2L349.1,177.2z"/>
	<path class="st1_note-taking-100" d="M353.1,175.7c-0.1,0-0.1,0-0.2,0c-0.2-0.1-0.4-0.2-0.5-0.4l-1.5-3.6c-0.2-0.4,0-0.8,0.4-0.9&#10;&#9;&#9;c0.4-0.2,0.8,0,1,0.3c0,0,0,0,0,0.1l1.2,2.8l8.7-6.3c0.3-0.2,0.8-0.2,1,0.2c0.2,0.3,0.2,0.8-0.2,1l-9.4,6.8&#10;&#9;&#9;C353.4,175.7,353.3,175.7,353.1,175.7z"/>
	<path class="st1_note-taking-100" d="M393.1,172.3h-26.2c-0.4,0-0.7-0.3-0.7-0.7c0-0.4,0.3-0.7,0.7-0.7l0,0h26.2c0.4,0,0.7,0.3,0.7,0.7&#10;&#9;&#9;C393.8,171.9,393.5,172.3,393.1,172.3L393.1,172.3z"/>
	<rect x="321.4" y="235.4" class="st0_note-taking-100" width="82.3" height="49.9"/>
	<path class="st1_note-taking-100" d="M403.7,285.9h-82.3c-0.4,0-0.7-0.3-0.7-0.7l0,0v-49.9c0-0.4,0.3-0.7,0.7-0.7l0,0h82.3c0.4,0,0.7,0.3,0.7,0.7&#10;&#9;&#9;l0,0v49.9C404.4,285.6,404.1,285.9,403.7,285.9L403.7,285.9z M322.1,284.5H403v-48.4h-80.9L322.1,284.5z"/>
	<path class="st1_note-taking-100" d="M403.7,246.8h-82.3c-0.4,0-0.7-0.3-0.7-0.7l0,0c0-0.4,0.3-0.7,0.7-0.7h82.3c0.4,0,0.7,0.3,0.7,0.7&#10;&#9;&#9;C404.4,246.4,404.1,246.8,403.7,246.8L403.7,246.8z"/>
	<path class="st1_note-taking-100" d="M334.5,285.6c-0.4,0-0.7-0.3-0.7-0.7l0,0v-49.5c0-0.4,0.3-0.7,0.7-0.7s0.7,0.3,0.7,0.7v49.5&#10;&#9;&#9;C335.2,285.2,334.9,285.6,334.5,285.6L334.5,285.6z"/>
	
		<ellipse transform="matrix(9.853754e-02 -0.9951 0.9951 9.853754e-02 -134.5818 332.6738)" class="st0_note-taking-100" cx="116.3" cy="240.6" rx="15.5" ry="15.5"/>
	<path class="st1_note-taking-100" d="M116.3,256.8c-9,0-16.2-7.3-16.2-16.2c0-9,7.3-16.2,16.2-16.2s16.2,7.3,16.2,16.2c0,0,0,0,0,0&#10;&#9;&#9;C132.5,249.6,125.3,256.8,116.3,256.8z M116.3,225.8c-8.2,0-14.8,6.6-14.8,14.8s6.6,14.8,14.8,14.8c8.2,0,14.8-6.6,14.8-14.8&#10;&#9;&#9;C131.1,232.5,124.5,225.9,116.3,225.8L116.3,225.8z"/>
	<polyline class="st0_note-taking-100" points="115.2,232.6 115.2,240.6 124.2,234.1 &#9;"/>
	<path class="st1_note-taking-100" d="M115.2,241.3c-0.1,0-0.2,0-0.3-0.1c-0.2-0.1-0.4-0.4-0.4-0.6v-8c0-0.4,0.3-0.7,0.7-0.7s0.7,0.3,0.7,0.7l0,0&#10;&#9;&#9;v6.6l7.8-5.7c0.3-0.2,0.8-0.2,1,0.2c0.2,0.3,0.2,0.8-0.2,1l-9,6.5C115.5,241.3,115.4,241.3,115.2,241.3z"/>
	<path class="st1_note-taking-100" d="M163.8,233.6h-22.9c-0.4,0-0.7-0.3-0.7-0.7s0.3-0.7,0.7-0.7h22.9c0.4,0,0.7,0.3,0.7,0.7&#10;&#9;&#9;S164.2,233.6,163.8,233.6z"/>
	<path class="st1_note-taking-100" d="M163.8,241h-22.9c-0.4,0-0.7-0.3-0.7-0.7s0.3-0.7,0.7-0.7h22.9c0.4,0,0.7,0.3,0.7,0.7S164.2,241,163.8,241z"/>
	<path class="st1_note-taking-100" d="M154.4,248.4h-13.6c-0.4,0-0.7-0.3-0.7-0.7s0.3-0.7,0.7-0.7h13.6c0.4,0,0.7,0.3,0.7,0.7&#10;&#9;&#9;S154.8,248.4,154.4,248.4z"/>
	
		<ellipse transform="matrix(7.088899e-02 -0.9975 0.9975 7.088899e-02 -170.8031 375.8075)" class="st0_note-taking-100" cx="116.3" cy="279.6" rx="15.5" ry="15.5"/>
	<path class="st1_note-taking-100" d="M116.3,295.8c-9,0-16.2-7.3-16.2-16.2s7.3-16.2,16.2-16.2s16.2,7.3,16.2,16.2c0,0,0,0,0,0&#10;&#9;&#9;C132.5,288.5,125.3,295.8,116.3,295.8z M116.3,264.8c-8.2,0-14.8,6.6-14.8,14.8c0,8.2,6.6,14.8,14.8,14.8s14.8-6.6,14.8-14.8l0,0&#10;&#9;&#9;C131.1,271.4,124.5,264.8,116.3,264.8L116.3,264.8z"/>
	<polyline class="st0_note-taking-100" points="115.2,271.6 115.2,279.6 124.2,273 &#9;"/>
	<path class="st1_note-taking-100" d="M115.2,280.3c-0.1,0-0.2,0-0.3-0.1c-0.2-0.1-0.4-0.4-0.4-0.6v-8c0-0.4,0.3-0.7,0.7-0.7s0.7,0.3,0.7,0.7l0,0&#10;&#9;&#9;v6.6l7.8-5.7c0.3-0.2,0.8-0.2,1,0.2c0.2,0.3,0.2,0.8-0.2,1l-9,6.5C115.5,280.3,115.4,280.3,115.2,280.3z"/>
	<path class="st1_note-taking-100" d="M163.8,272.6h-22.9c-0.4,0-0.7-0.3-0.7-0.7s0.3-0.7,0.7-0.7h22.9c0.4,0,0.7,0.3,0.7,0.7&#10;&#9;&#9;S164.2,272.6,163.8,272.6z"/>
	<path class="st1_note-taking-100" d="M163.8,279.9h-22.9c-0.4,0-0.7-0.3-0.7-0.7s0.3-0.7,0.7-0.7h22.9c0.4,0,0.7,0.3,0.7,0.7&#10;&#9;&#9;S164.2,279.9,163.8,279.9z"/>
	<path class="st1_note-taking-100" d="M154.4,287.3h-13.6c-0.4,0-0.7-0.3-0.7-0.7s0.3-0.7,0.7-0.7h13.6c0.4,0,0.7,0.3,0.7,0.7&#10;&#9;&#9;S154.8,287.3,154.4,287.3z"/>
	<rect x="296.1" y="323.1" class="st0_note-taking-100" width="35.1" height="37.5"/>
	<path class="st1_note-taking-100" d="M331.2,361.3h-35.1c-0.4,0-0.7-0.3-0.7-0.7l0,0v-37.5c0-0.4,0.3-0.7,0.7-0.7l0,0h35.1c0.4,0,0.7,0.3,0.7,0.7&#10;&#9;&#9;l0,0v37.5C331.9,361,331.6,361.3,331.2,361.3z M296.8,359.9h33.6v-36.1h-33.6V359.9z"/>
	<path class="st1_note-taking-100" d="M331.2,330.2h-35.1c-0.4,0-0.7-0.3-0.7-0.7s0.3-0.7,0.7-0.7l0,0h35.1c0.4,0,0.7,0.3,0.7,0.7&#10;&#9;&#9;S331.6,330.2,331.2,330.2z"/>
	<path class="st1_note-taking-100" d="M316.7,338.4L316.7,338.4l-10.9-0.1v-3.5h15.6v3.1l-8.2,15h-4.6L316.7,338.4z"/>
	<path class="st1_note-taking-100" d="M305.8,327.6c-0.3,0-0.5-0.1-0.6-0.4c-0.2-0.3-0.1-0.8,0.2-1c0,0,0,0,0,0c1.6-0.9,2.3-2.8,1.8-4.6&#10;&#9;&#9;c-0.3-1.1-1.3-1.8-2.4-1.7c-0.9,0-1.7,0.3-2.4,0.9c-0.4,0.6-0.7,1.3-0.6,2.1c0,0.4-0.2,0.7-0.6,0.8c-0.4,0.1-0.7-0.2-0.8-0.6&#10;&#9;&#9;c0,0,0,0,0,0c-0.1-1.1,0.2-2.3,0.9-3.2c0.9-0.9,2.1-1.5,3.4-1.5c1.8-0.2,3.4,1,3.9,2.8c0.7,2.4-0.4,4.9-2.5,6.2&#10;&#9;&#9;C306.1,327.6,306,327.6,305.8,327.6z"/>
	<path class="st1_note-taking-100" d="M324.1,327.6c-0.3,0-0.5-0.1-0.6-0.4c-0.2-0.3-0.1-0.8,0.2-1c0,0,0,0,0,0c1.6-0.9,2.3-2.8,1.8-4.6&#10;&#9;&#9;c-0.3-1.1-1.3-1.8-2.4-1.7c-0.9,0-1.7,0.3-2.4,1c-0.4,0.6-0.7,1.3-0.6,2.1c0,0.4-0.2,0.8-0.6,0.8c-0.4,0-0.8-0.2-0.8-0.6&#10;&#9;&#9;c-0.1-1.1,0.2-2.3,0.9-3.2c0.9-0.9,2.1-1.5,3.4-1.5c1.8-0.2,3.4,1,3.9,2.8c0.6,2.4-0.4,4.9-2.5,6.2&#10;&#9;&#9;C324.4,327.6,324.2,327.6,324.1,327.6z"/>
</g>
<g id="Character_note-taking-100">
	<path class="st0_note-taking-100" d="M271.6,292.7c0,0,11.4,34.6,5.2,34.6s-21.5-18.7-21.5-18.7l12.3-15.9"/>
	<path class="st2_note-taking-100" d="M276.9,327.9c-6.4,0-21.4-18.2-22-19c-0.2-0.2-0.2-0.6,0-0.8l12.4-15.9c0.2-0.3,0.6-0.3,0.9-0.1c0,0,0,0,0,0&#10;&#9;&#9;c0.3,0.2,0.3,0.6,0.1,0.9c0,0,0,0,0,0l-12,15.5c4.5,5.4,16,18.1,20.7,18.1c0.3,0,0.5-0.1,0.6-0.3c2.3-3.2-2.6-21.8-6.5-33.5&#10;&#9;&#9;c-0.1-0.3,0.1-0.7,0.4-0.8s0.7,0.1,0.8,0.4c1,3,9.7,29.9,6.3,34.6C278.2,327.6,277.6,327.9,276.9,327.9L276.9,327.9z"/>
	<path class="st2_note-taking-100" d="M231.2,212.2c0,0-47.2,59.9-50.2,81.2s68.3,18.3,68.3,18.3l8.4-31.2c0,0-37.4,2.7-33.1-4.1&#10;&#9;&#9;s30.5-32.2,30.5-32.2l4-35.6L231.2,212.2z"/>
	<path class="st2_note-taking-100" d="M240.1,312.5c-16,0-48.1-1.3-57.3-11.5c-2-2-2.9-4.9-2.5-7.7c3-21.2,48.5-79.1,50.4-81.5&#10;&#9;&#9;c0.1-0.1,0.2-0.2,0.4-0.2l27.9-3.5c0.2,0,0.4,0,0.5,0.2c0.1,0.1,0.2,0.3,0.2,0.5l-4,35.6c0,0.1-0.1,0.3-0.2,0.4&#10;&#9;&#9;c-0.3,0.3-26.2,25.5-30.4,32.1c-0.3,0.5-0.2,0.9-0.1,1c1.8,3.1,21,2.9,32.7,2.1c0.2,0,0.4,0.1,0.5,0.2c0.1,0.2,0.2,0.4,0.1,0.5&#10;&#9;&#9;l-8.4,31.2c-0.1,0.3-0.3,0.4-0.6,0.5C248.8,312.4,245.3,312.5,240.1,312.5z M231.6,212.8c-3,3.8-47.2,60.4-50,80.7&#10;&#9;&#9;c-0.4,2.4,0.4,4.9,2.2,6.7c11.2,12.4,59.8,11.1,65.1,11l8.1-29.9c-5.7,0.4-30.3,1.7-33-2.7c-0.4-0.7-0.4-1.7,0.1-2.3&#10;&#9;&#9;c4.1-6.5,28.1-29.8,30.5-32.1l3.9-34.6L231.6,212.8z"/>
	<path class="st2_note-taking-100" d="M248.4,208.8c0,2.5-20.7,117.2-31,163.8l7.4,42.3c0,0,29.4-55.1,44.7-106.9s18.9-89.5,18.9-89.5L248.4,208.8z"/>
	<path class="st2_note-taking-100" d="M224.8,415.5h-0.1c-0.3,0-0.5-0.2-0.5-0.5l-7.4-42.3c0-0.1,0-0.2,0-0.2c10.5-47.7,31-161.4,31-163.7&#10;&#9;&#9;c0-0.2,0.1-0.4,0.2-0.5c0.2-0.1,0.3-0.2,0.5-0.1l39.9,9.8c0.3,0.1,0.5,0.3,0.5,0.6c0,0.4-3.8,38.4-18.9,89.6s-44.4,106.4-44.7,107&#10;&#9;&#9;C225.2,415.4,225,415.5,224.8,415.5z M218,372.6l7,40.4c4.9-9.5,30.1-58.9,43.8-105.1c14.2-47.9,18.4-84.1,18.9-88.9l-38.7-9.5&#10;&#9;&#9;C247.5,220.1,227.8,328.5,218,372.6z"/>
	<path class="st3_note-taking-100 targetColor" d="M275.9,130.7c0,0-30.6-0.7-45,10.9s-38.1,45.6-34.6,53.5s16.7,13.7,34.8,0.7l-5.4,23.5l64.3,10&#10;&#9;&#9;c0,0,17.5-77,15.7-82.5C303.6,142,290.2,130,275.9,130.7z" style="fill: rgb(100, 154, 255);"/>
	<path class="st2_note-taking-100" d="M236.1,174.7c-0.3,0-0.6-0.3-0.6-0.6c0-0.1,0-0.2,0.1-0.3c0.3-1.2,1.8-17.5,2.7-28.2c0.1-0.3,0.4-0.6,0.7-0.5&#10;&#9;&#9;c0.3,0.1,0.5,0.3,0.5,0.6c-1.5,18.6-2.5,28.2-2.8,28.7C236.6,174.6,236.4,174.7,236.1,174.7z"/>
	<path class="st0_note-taking-100" d="M260.7,123.7c-1.1,0.2-5.3-8.1-5.7-9.5c-0.6-2-0.3-4.3-0.8-6.2c-0.6-2.4-2.6-4.6-4-6.6&#10;&#9;&#9;c-1.7-2.2-3.4-4.7-3.8-7.4s0.7-6,3.3-7.1c3.4-1.5,8.2,0.8,10.4-2.1c0.3-0.6,0.7-1.1,1.2-1.6c0.9-0.6,2.1-0.8,3.1-0.5&#10;&#9;&#9;c3.5,0.5,6.8,1.8,9.7,3.7c0.6,0.5,1.3,0.8,2.1,0.8c0.7-0.1,1.2-0.7,1.8-0.9c1.1-0.3,2.3,0,3.3,0.6c6.9,3.9,10,9.3,9.1,17.1l-1.6,14&#10;&#9;&#9;L260.7,123.7z"/>
	<path class="st2_note-taking-100" d="M260.6,124.3c-0.5,0-1.4-0.5-3.6-4.5c-1-1.8-1.9-3.6-2.6-5.5c-0.3-1.1-0.4-2.2-0.5-3.4c0-1-0.2-1.9-0.4-2.9&#10;&#9;&#9;c-0.7-2-1.8-3.8-3.1-5.3l-0.8-1c-1.7-2.3-3.4-4.8-3.9-7.7s0.6-6.5,3.6-7.8c1.6-0.6,3.3-0.7,5-0.6c2.2,0.1,4.1,0.1,5.2-1.3&#10;&#9;&#9;c0.1-0.2,0.3-0.4,0.4-0.6c0.2-0.4,0.5-0.8,0.9-1.1c1.1-0.7,2.4-1,3.7-0.6c3.6,0.5,7,1.8,10,3.8c0.5,0.4,1,0.6,1.7,0.7&#10;&#9;&#9;c0.3-0.1,0.6-0.2,0.8-0.4c0.3-0.2,0.5-0.3,0.8-0.5c1.4-0.6,2.9,0.1,3.8,0.7c7.2,4.1,10.3,9.9,9.4,17.8l-1.5,14&#10;&#9;&#9;c0,0.3-0.2,0.5-0.5,0.6l-28.1,5.8l0,0C260.8,124.3,260.7,124.3,260.6,124.3z M253,86.9c-1.1-0.1-2.1,0.1-3.1,0.5&#10;&#9;&#9;c-2.4,1-3.3,4.1-2.9,6.4c0.4,2.7,2.1,5,3.7,7.2c0.2,0.3,0.5,0.7,0.8,1c1.3,1.7,2.8,3.7,3.4,5.8c0.2,1,0.4,2,0.4,3.1&#10;&#9;&#9;c0,1.1,0.2,2.1,0.4,3.2c0.4,1.4,3.9,8.3,5.1,9l27.5-5.7l1.5-13.6c0.8-7.4-2-12.7-8.8-16.5c-0.8-0.6-1.8-0.8-2.7-0.6&#10;&#9;&#9;c-0.2,0.1-0.4,0.2-0.6,0.3c-0.4,0.3-0.8,0.5-1.3,0.6c-0.9,0.1-1.8-0.2-2.5-0.8c-2.9-1.8-6.1-3.1-9.5-3.6c-0.9-0.2-1.8-0.1-2.6,0.3&#10;&#9;&#9;c-0.2,0.2-0.5,0.5-0.6,0.8c-0.1,0.2-0.3,0.5-0.5,0.7c-1.5,1.9-3.9,1.9-6.3,1.8L253,86.9z"/>
	<path class="st0_note-taking-100" d="M265.7,129.4L265,141c0,0,0.8,6.6,8,5c4.3-1,7.9-3.9,9.9-7.9c0,0,1.6-27.9,2.1-35.3c-4.5-0.3-8.7,0.9-13.3,0&#10;&#9;&#9;c-3.9-0.8-7.8-2-11.6-3.5c-0.8,8.1-3.4,15.4-2.2,23.5C258.7,128.5,265.7,129.4,265.7,129.4z"/>
	<path class="st2_note-taking-100" d="M270.9,146.9c-1.3,0-2.7-0.4-3.8-1.1c-1.5-1.1-2.5-2.8-2.8-4.7l0.7-11.2c-1.8-0.4-7-1.9-7.8-6.9&#10;&#9;&#9;c-0.8-5.6,0.1-10.7,1-16c0.4-2.5,0.9-5,1.2-7.6c0-0.2,0.1-0.4,0.3-0.5c0.2-0.1,0.4-0.1,0.6-0.1c3.7,1.5,7.6,2.6,11.5,3.4&#10;&#9;&#9;c2.5,0.4,5,0.4,7.5,0.1c1.9-0.2,3.8-0.2,5.7-0.2c0.2,0,0.3,0.1,0.4,0.2c0.1,0.1,0.2,0.3,0.1,0.5c-0.5,7.3-2.1,35.1-2.1,35.4&#10;&#9;&#9;c0,0.1,0,0.1,0,0.2c-2,4.2-5.8,7.2-10.3,8.2C272.4,146.8,271.6,146.9,270.9,146.9z M265.6,141.1c0.4,3,3.1,5,6.1,4.6&#10;&#9;&#9;c0.4-0.1,0.8-0.2,1.2-0.3c4.1-0.9,7.5-3.7,9.4-7.4c0.1-2,1.5-26.7,2.1-34.6c-1.6,0-3.3,0-4.9,0.2c-2.6,0.3-5.3,0.3-7.9-0.1&#10;&#9;&#9;c-3.7-0.8-7.4-1.9-10.9-3.2c-0.3,2.4-0.7,4.7-1.1,6.9c-1,5.3-1.8,10.2-1,15.6c0.8,5,7.2,5.9,7.3,5.9c0.3,0.1,0.6,0.3,0.5,0.7&#10;&#9;&#9;L265.6,141.1L265.6,141.1z"/>
	<path class="st2_note-taking-100" d="M265.4,135.1c0,0,4.7,0.5,7.9-2.5c1.8-1.5,2.9-3.8,2.9-6.2c0,0-5.3,3.1-10.6,3L265.4,135.1z"/>
	<path class="st2_note-taking-100" d="M266.2,135.8c-0.3,0-0.5,0-0.8,0c-0.3,0-0.6-0.3-0.5-0.6l0.2-5.7c0-0.3,0.3-0.6,0.6-0.6c0,0,0,0,0,0&#10;&#9;&#9;c5.1,0.1,10.2-2.9,10.3-2.9c0.2-0.1,0.4-0.1,0.6,0c0.2,0.1,0.3,0.3,0.3,0.5c0,2.6-1.2,5-3.1,6.7&#10;&#9;&#9;C271.7,134.9,268.9,135.8,266.2,135.8z M266.1,134.5L266.1,134.5c2.5,0.1,5-0.8,6.9-2.4c1.4-1.2,2.3-2.9,2.7-4.7&#10;&#9;&#9;c-2.9,1.5-6.1,2.4-9.4,2.5L266.1,134.5z"/>
	<path class="st0_note-taking-100" d="M271.3,113.3c0,0-4.1,5.4-3.2,6.4s3.4,0.5,3.4,0.5"/>
	<path class="st2_note-taking-100" d="M270.1,121c-0.9,0.1-1.8-0.2-2.5-0.9c-0.9-1.2,1.2-4.6,3.2-7.2c0.2-0.3,0.6-0.3,0.9-0.1c0,0,0,0,0,0&#10;&#9;&#9;c0.3,0.2,0.3,0.6,0.1,0.9c0,0,0,0,0,0c-1.9,2.5-3.4,5.2-3.2,5.7c0.4,0.5,1.8,0.4,2.7,0.2c0.3-0.1,0.7,0.1,0.7,0.5&#10;&#9;&#9;c0.1,0.3-0.1,0.7-0.5,0.7l0,0C271.1,120.9,270.6,121,270.1,121z"/>
	<path class="st2_note-taking-100" d="M269.8,125.3c-2-0.1-3.8-1-5.1-2.5c-0.2-0.2-0.2-0.6,0-0.9c0.2-0.2,0.6-0.2,0.9,0c1.1,1.3,2.8,2.1,4.5,2.1&#10;&#9;&#9;c3.2-0.2,5.9-3.6,5.9-3.7c0.2-0.2,0.6-0.3,0.9,0c0.2,0.2,0.3,0.5,0.1,0.8c-0.1,0.2-3,3.9-6.8,4.1L269.8,125.3z"/>
	<path class="st2_note-taking-100" d="M260.4,113.1c-1.5,0-2.6-1.2-2.6-2.6v-2.4c0-1.5,1.2-2.7,2.6-2.7h6.6l0,0c0.7,0,1.4,0.3,1.9,0.8&#10;&#9;&#9;c0.5,0.5,0.8,1.2,0.8,1.9v2.4c0,1.4-1.2,2.6-2.6,2.6l0,0L260.4,113.1L260.4,113.1z M267,112.4L267,112.4z M267,106.6L267,106.6&#10;&#9;&#9;l-6.6,0.1c-0.4,0-0.7,0.2-1,0.4c-0.3,0.3-0.4,0.6-0.4,1v2.4c0,0.4,0.2,0.7,0.4,1c0.3,0.3,0.6,0.4,1,0.4h6.6c0.8,0,1.4-0.6,1.4-1.4&#10;&#9;&#9;v-2.4c0-0.4-0.2-0.7-0.4-1C267.7,106.8,267.4,106.6,267,106.6L267,106.6z"/>
	<path class="st2_note-taking-100" d="M273.6,113c-1.5,0-2.6-1.2-2.6-2.6V108c0-1.5,1.2-2.7,2.6-2.7h6.6l0,0c1.5,0,2.6,1.2,2.6,2.6v2.4&#10;&#9;&#9;c0,1.5-1.2,2.7-2.6,2.7c0,0,0,0,0,0l0,0H273.6z M280.2,112.3L280.2,112.3z M280.2,106.5L280.2,106.5l-6.6,0.1&#10;&#9;&#9;c-0.8,0-1.4,0.6-1.4,1.4v2.4c0,0.4,0.2,0.7,0.4,1c0.3,0.3,0.6,0.4,1,0.4h6.6c0.4,0,0.7-0.2,1-0.4c0.3-0.3,0.4-0.6,0.4-1V108&#10;&#9;&#9;c0-0.4-0.2-0.7-0.4-1C281,106.7,280.6,106.5,280.2,106.5L280.2,106.5z"/>
	<path class="st2_note-taking-100" d="M269,108.6c-0.3,0-0.7-0.2-0.7-0.5c0-0.3,0.2-0.7,0.5-0.7c0.1,0,0.1,0,0.2,0h2.5l0,0c0.3,0,0.6,0.3,0.6,0.6&#10;&#9;&#9;c0,0.3-0.3,0.6-0.6,0.6c0,0,0,0,0,0L269,108.6L269,108.6z"/>
	<path class="st2_note-taking-100" d="M288.8,112.9c-0.1,0-0.2,0-0.3-0.1l-6.6-4.4c-0.3-0.2-0.4-0.6-0.2-0.9c0,0,0,0,0,0c0.2-0.3,0.6-0.4,0.9-0.2&#10;&#9;&#9;l6.6,4.4c0.3,0.2,0.4,0.6,0.2,0.9C289.2,112.8,289,112.9,288.8,112.9z"/>
	<path class="st0_note-taking-100" d="M282.5,113.7c1.3-1.7,3.4-4.7,6-3.6c0.7,0.3,1.2,0.8,1.7,1.4c1.9,2.6,1.4,5.8-0.1,8.4&#10;&#9;&#9;c-1.3,2.3-5.2,5.6-7.6,2.5"/>
	<path class="st2_note-taking-100" d="M284.9,124.3c-1.1,0-2.2-0.6-2.9-1.5c-0.2-0.3-0.2-0.7,0.1-0.9c0.3-0.2,0.7-0.2,0.9,0.1c0.4,0.7,1.2,1,2,1&#10;&#9;&#9;c1.6-0.1,3.6-1.9,4.5-3.4c1.6-2.8,1.7-5.7,0.1-7.7c-0.4-0.5-0.8-0.9-1.4-1.2c-1.7-0.8-3.3,1-4.9,3l-0.3,0.4&#10;&#9;&#9;c-0.2,0.3-0.6,0.3-0.9,0.1c0,0,0,0,0,0c-0.3-0.2-0.3-0.6-0.1-0.9c0,0,0,0,0,0l0.3-0.4c1.4-1.7,3.6-4.6,6.4-3.4&#10;&#9;&#9;c0.8,0.4,1.4,0.9,1.9,1.6c1.9,2.5,1.9,5.9,0,9.1c-0.9,1.5-3.1,3.9-5.5,4.1L284.9,124.3z"/>
	
		<ellipse transform="matrix(1 -8.377482e-03 8.377482e-03 1 -0.9139 2.2294)" class="st2_note-taking-100" cx="265.7" cy="110.2" rx="0.7" ry="1.5"/>
	<ellipse transform="matrix(1 -8.377482e-03 8.377482e-03 1 -0.9199 2.3177)" class="st2_note-taking-100" cx="276.2" cy="111" rx="0.7" ry="1.5"/>
	
		<rect x="252.5" y="148.8" transform="matrix(0.9248 -0.3804 0.3804 0.9248 -42.3355 108.8316)" class="st0_note-taking-100" width="3.3" height="25.4"/>
	<path class="st2_note-taking-100" d="M257.5,174.5c-0.3,0-0.5-0.2-0.6-0.4l-9.7-23.5c-0.1-0.3,0-0.7,0.3-0.8c0,0,0,0,0,0l3.1-1.3&#10;&#9;&#9;c0.2-0.1,0.3-0.1,0.5,0c0.2,0.1,0.3,0.2,0.3,0.4l9.7,23.5c0.1,0.2,0.1,0.3,0,0.5c-0.1,0.2-0.2,0.3-0.4,0.4l-3.1,1.3&#10;&#9;&#9;C257.6,174.5,257.5,174.5,257.5,174.5z M248.6,150.8l9.2,22.3l1.9-0.8l-9.2-22.3L248.6,150.8z"/>
	
		<rect x="249.3" y="149.3" transform="matrix(0.9248 -0.3804 0.3804 0.9248 -40.1038 107.3543)" class="st0_note-taking-100" width="4.5" height="11.6"/>
	<path class="st2_note-taking-100" d="M251.6,162c-0.1,0-0.2,0-0.2-0.1c-0.2-0.1-0.3-0.2-0.4-0.4l-4.4-10.7c-0.2-0.3,0-0.7,0.3-0.9c0,0,0,0,0.1,0&#10;&#9;&#9;l4.2-1.7c0.2-0.1,0.3-0.1,0.5,0c0.2,0.1,0.3,0.2,0.4,0.3l4.4,10.7c0.1,0.3,0,0.7-0.3,0.8c0,0,0,0,0,0l-4.2,1.7&#10;&#9;&#9;C251.8,161.9,251.7,162,251.6,162z M248.1,151l3.9,9.5l3-1.2l-3.9-9.5L248.1,151z"/>
	<path class="st2_note-taking-100" d="M256.8,159.3c-0.1,0-0.1,0-0.2,0c-1.5-0.4-1.8-2.9-2-5.6c0-1-0.2-1.9-0.4-2.9c-0.1-0.2-0.2-0.3-0.4-0.4&#10;&#9;&#9;c-0.5,0-1,0.1-1.5,0.4c-0.3,0.2-0.7,0.2-0.9-0.1c-0.2-0.3-0.2-0.7,0.1-0.9c0,0,0.1-0.1,0.1-0.1c0.7-0.5,1.6-0.7,2.5-0.6&#10;&#9;&#9;c0.5,0.1,0.9,0.5,1.2,1c0.3,1.1,0.5,2.2,0.5,3.3c0.1,1.4,0.4,4.3,1,4.4c0.3,0.1,0.6,0.4,0.5,0.8C257.3,159,257,159.3,256.8,159.3z"/>
	<path class="st0_note-taking-100" d="M240.4,169.9c0,0,4.5-8.3,8.5-8.1s9.9,10.8,9.9,10.8L240.4,169.9z"/>
	<path class="st2_note-taking-100" d="M258.8,173.3h-0.1l-18.4-2.7c-0.2,0-0.4-0.2-0.5-0.4c-0.1-0.2-0.1-0.4,0-0.6c0.5-0.9,4.9-8.7,9.1-8.4&#10;&#9;&#9;s9.8,10,10.5,11.1c0.2,0.3,0.1,0.7-0.2,0.9C259.1,173.3,258.9,173.4,258.8,173.3L258.8,173.3z M241.4,169.4l16.2,2.4&#10;&#9;&#9;c-2-3.3-6.1-9.2-8.8-9.4S242.9,166.9,241.4,169.4z"/>
	<polygon class="st2_note-taking-100" points="283.1,222.8 274.4,172.4 230.9,166.2 239.1,215.9 &#9;"/>
	<path class="st2_note-taking-100" d="M283.1,223.4H283l-44-6.9c-0.3,0-0.5-0.2-0.5-0.5l-8.2-49.7c0-0.2,0-0.4,0.2-0.5c0.1-0.1,0.3-0.2,0.5-0.2&#10;&#9;&#9;l43.6,6.2c0.3,0,0.5,0.2,0.5,0.5l8.7,50.4c0.1,0.3-0.2,0.7-0.5,0.7C283.2,223.4,283.2,223.4,283.1,223.4L283.1,223.4z M239.6,215.3&#10;&#9;&#9;l42.8,6.7l-8.5-49.1l-42.3-6L239.6,215.3z"/>
	<path class="st3_note-taking-100 targetColor" d="M305.8,146.8c0,0,31,62.6,19.2,68.6S285.8,205,285.8,205l-0.1-13l20.9,2.1l-15.5-14.1L305.8,146.8z" style="fill: rgb(100, 154, 255);"/>
	<path class="st0_note-taking-100" d="M281.2,192.9l9.2,1.5c1.2,1.4,1.9,3.2,2,5.1c0,2.2-1,4.3-2.8,5.8l-7.2-2.4&#10;&#9;&#9;C282.3,202.8,283.8,195.9,281.2,192.9z"/>
	<path class="st2_note-taking-100" d="M289.6,205.9c-0.1,0-0.1,0-0.2,0l-7.2-2.4c-0.3-0.1-0.5-0.4-0.4-0.7c0-0.1,1.3-6.6-1-9.3&#10;&#9;&#9;c-0.2-0.2-0.2-0.5-0.1-0.7c0.1-0.2,0.4-0.4,0.7-0.3l9.2,1.5c0.1,0,0.3,0.1,0.4,0.2c1.3,1.6,2,3.5,2.1,5.5c0,2.4-1.1,4.7-3,6.2&#10;&#9;&#9;C289.8,205.9,289.7,205.9,289.6,205.9z M283,202.4l6.4,2.1c1.4-1.3,2.3-3.1,2.3-5c-0.1-1.6-0.7-3.2-1.6-4.5l-7.5-1.2&#10;&#9;&#9;C283.8,196.7,283.3,200.9,283,202.4z"/>
	<path class="st0_note-taking-100" d="M281.2,192.9c-0.7-0.4-1.5-0.6-2.3-0.7c-1.5-0.1-9.6-1.4-10.4,0.3c-0.6,1.3,0,1.6,0,1.6s-2.4,0-1.8,2.1&#10;&#9;&#9;c0,0-1,2.4,0.9,3c0,0-1.2,0.7,0.2,1.8c2.7,2,12.1,6.8,14.9,4.4c0.9-0.9,1.6-2,1.8-3.2C285.4,198.8,284.2,194.6,281.2,192.9z"/>
	<path class="st2_note-taking-100" d="M280.5,206.7c-4.3,0-11-3.6-13.1-5.2c-0.6-0.3-0.9-1-1-1.6c0-0.2,0.1-0.3,0.1-0.5c-0.2-0.2-0.4-0.5-0.6-0.8&#10;&#9;&#9;c-0.3-0.8-0.3-1.7,0-2.5c-0.2-0.6-0.1-1.3,0.3-1.8c0.3-0.4,0.7-0.7,1.2-0.8c0-0.5,0.1-1,0.4-1.4c0.8-1.6,4.7-1.5,10.2-0.8&#10;&#9;&#9;c0.4,0,0.6,0.1,0.8,0.1c0.9,0.1,1.8,0.4,2.6,0.8l0,0c3.1,1.7,4.7,6,3.6,10.1c-0.3,1.4-1,2.6-2,3.6&#10;&#9;&#9;C282.4,206.5,281.4,206.8,280.5,206.7z M268.8,193.6c0.3,0.2,0.4,0.6,0.2,0.9c-0.1,0.2-0.3,0.3-0.5,0.3c-0.4,0-0.8,0.2-1.1,0.4&#10;&#9;&#9;c-0.1,0.3-0.1,0.6,0,0.9c0.1,0.1,0.1,0.3,0,0.4c-0.2,0.5-0.3,1.1-0.1,1.6c0.1,0.2,0.4,0.4,0.6,0.5c0.2,0.1,0.4,0.3,0.4,0.6&#10;&#9;&#9;c0,0.3-0.1,0.5-0.3,0.6c-0.1,0-0.1,0.1-0.2,0.2c0,0.1,0.1,0.2,0.5,0.5c3,2.3,11.8,6.4,14.1,4.5c0.8-0.8,1.4-1.8,1.6-2.9&#10;&#9;&#9;c0.9-3.5-0.4-7.2-3-8.6c-0.6-0.4-1.4-0.6-2.1-0.6l-0.8-0.1c-7.6-0.9-8.8-0.3-8.9,0.1C269,193.1,268.9,193.3,268.8,193.6z"/>
	<line class="st4_note-taking-100" x1="268.5" y1="194.1" x2="277.2" y2="195"/>
	<path class="st2_note-taking-100" d="M277.2,195.6L277.2,195.6l-8.8-0.9c-0.3,0-0.6-0.3-0.6-0.7c0,0,0,0,0,0c0-0.3,0.4-0.6,0.7-0.6l8.7,0.9&#10;&#9;&#9;c0.3,0,0.6,0.3,0.6,0.7c0,0,0,0,0,0C277.8,195.4,277.5,195.6,277.2,195.6z"/>
	<path class="st0_note-taking-100" d="M266.7,196.2c0,0,6.6,1.9,9.1,1.6"/>
	<path class="st2_note-taking-100" d="M275.3,198.5c-2.8,0-8.4-1.6-8.7-1.6c-0.3-0.1-0.5-0.4-0.5-0.8c0.1-0.3,0.5-0.5,0.8-0.4&#10;&#9;&#9;c1.8,0.5,6.9,1.8,8.8,1.5c0.4,0,0.7,0.2,0.7,0.6c0,0.4-0.2,0.7-0.6,0.7C275.7,198.5,275.5,198.5,275.3,198.5z"/>
	<path class="st0_note-taking-100" d="M267,198.9c0,0,4.5,2.4,7.9,2.4"/>
	<path class="st2_note-taking-100" d="M274.8,202L274.8,202c-3.5,0-8-2.4-8.2-2.5c-0.3-0.2-0.4-0.5-0.3-0.9c0.2-0.3,0.6-0.4,0.9-0.3&#10;&#9;&#9;c0,0,4.4,2.3,7.6,2.3c0.4,0,0.6,0.3,0.6,0.6C275.5,201.7,275.2,202,274.8,202C274.8,202,274.8,202,274.8,202L274.8,202z"/>
	<path class="st2_note-taking-100" d="M253.4,170.7c-0.2,0-0.4-0.1-0.5-0.3c-0.8-1.3-1.6-2.5-2.6-3.7c-0.2-0.3-0.1-0.7,0.1-0.9&#10;&#9;&#9;c0.2-0.2,0.5-0.2,0.8,0c1.1,1.2,2,2.5,2.8,3.9c0.2,0.3,0.1,0.7-0.2,0.8C253.6,170.7,253.5,170.7,253.4,170.7z"/>
	<path class="st2_note-taking-100" d="M249.6,170.5c-0.2,0-0.4-0.1-0.5-0.2c-0.8-0.9-1.7-1.8-2.8-2.4c-0.3-0.2-0.4-0.6-0.2-0.9&#10;&#9;&#9;c0.2-0.3,0.6-0.4,0.9-0.2c1.2,0.7,2.3,1.6,3.1,2.7c0.2,0.3,0.2,0.7-0.1,0.9c0,0,0,0,0,0C249.9,170.4,249.7,170.5,249.6,170.5z"/>
	<path class="st2_note-taking-100" d="M298.3,190.7h-0.1c-0.3-0.1-0.6-0.4-0.5-0.7c0,0,0,0,0,0l6.4-35.4c0.1-0.3,0.4-0.6,0.7-0.5&#10;&#9;&#9;c0.3,0.1,0.6,0.4,0.5,0.7l-6.4,35.4C298.9,190.5,298.6,190.7,298.3,190.7z"/>
	<path class="st2_note-taking-100" d="M318.7,199.1c-0.2,0-0.4-0.1-0.5-0.3c-1.7-2.6-9-3.9-11.7-4.1l-16.2-1.6c-0.4,0-0.6-0.3-0.6-0.7&#10;&#9;&#9;c0-0.3,0.4-0.6,0.7-0.6l16.2,1.6c0.4,0.1,10.2,1,12.6,4.7c0.2,0.3,0.1,0.7-0.2,0.9c0,0,0,0,0,0C319,199.1,318.9,199.1,318.7,199.1z&#10;&#9;&#9;"/>
	<path class="st2_note-taking-100" d="M202.9,187c-0.2,0-0.3-0.1-0.5-0.2c-0.2-0.3-0.2-0.7,0-0.9c5.1-4.8,28.8-14.6,29.8-15.1c0.3-0.1,0.7,0,0.8,0.4&#10;&#9;&#9;c0.1,0.3,0,0.7-0.3,0.8c0,0,0,0,0,0c-0.2,0.1-24.5,10.2-29.4,14.8C203.2,186.9,203.1,187,202.9,187z"/>
	<path class="st0_note-taking-100" d="M208,363.2c0.5,0,4.3-0.7,8.4,3.6s11.7,30.6,12.4,37.2c0.3,4.1-1.2,8.1-4,11L208,363.2z"/>
	<path class="st2_note-taking-100" d="M224.8,415.6h-0.2c-0.2-0.1-0.4-0.2-0.4-0.4l-16.8-51.7c-0.1-0.2,0-0.4,0.1-0.6c0.1-0.2,0.3-0.3,0.5-0.2h0.2&#10;&#9;&#9;c3.1-0.2,6.1,1.1,8.7,3.8c4.4,4.5,11.9,31.2,12.5,37.6c0.3,4.3-1.2,8.4-4.2,11.5C225.1,415.5,224.9,415.6,224.8,415.6z&#10;&#9;&#9; M208.8,363.8l16.2,49.9c2.2-2.7,3.3-6.2,3.1-9.7c-0.7-6.9-8.3-32.8-12.2-36.8C214.1,365.2,211.6,363.9,208.8,363.8z"/>
	<path class="st0_note-taking-100" d="M226.8,409.3c0,0-6.3-31.5-11.8-40.3s-10.6-7.2-11.1,1.9s7.6,41.7,13.1,45.3S228,414.9,226.8,409.3z"/>
	<path class="st2_note-taking-100" d="M220.8,418.1c-1.5,0-2.9-0.5-4.2-1.4c-5.9-4-13.8-37.5-13.4-45.9c0.2-4.6,1.7-7.6,4-8.2c2.5-0.6,5.4,1.5,8.3,6&#10;&#9;&#9;c5.5,8.8,11.6,39.2,11.9,40.5c0.7,3-0.5,6-3,7.8C223.4,417.8,222.1,418.2,220.8,418.1z M208.2,363.8c-0.2,0-0.4,0-0.6,0.1&#10;&#9;&#9;c-1.7,0.5-2.9,3.1-3,7.1c-0.4,9,7.6,41.3,12.8,44.8c1.8,1.4,4.4,1.5,6.3,0.2c2.1-1.5,3.1-4,2.5-6.5l0,0&#10;&#9;&#9;c-0.1-0.3-6.3-31.5-11.8-40.1C212.2,365.8,209.9,363.8,208.2,363.8z"/>
	<path class="st0_note-taking-100" d="M232,300.5h-0.1c-0.3-0.1-0.6-0.4-0.5-0.8l11.6-63.2c0.1-0.3,0.4-0.6,0.7-0.5s0.6,0.4,0.5,0.7l0,0L232.6,300&#10;&#9;&#9;C232.5,300.3,232.3,300.5,232,300.5z"/>
</g>
</svg>