<svg version="1.1" id="Layer_1" xmlns="http://www.w3.org/2000/svg" xmlns:xlink="http://www.w3.org/1999/xlink" x="0px" y="0px" viewBox="0 0 500 500" style="width: 144px;" xml:space="preserve" data-imageid="online-search-22" imageName="Online Search" class="illustrations_image">
<style type="text/css">
	.st0_online-search-22{fill:#FFFFFF;}
	.st1_online-search-22{fill:#231F20;}
	.st2_online-search-22{fill:#D1D3D4;}
	.st3_online-search-22{fill:#68E1FD;}
</style>
<g id="Datascreen_online-search-22">
	<polygon class="st0_online-search-22" points="370.3,380.3 132.3,380.3 174.3,100.1 412.3,100.1 &#9;"/>
	<path class="st1_online-search-22" d="M370.3,380.9h-238c-0.2,0-0.4-0.1-0.5-0.2c-0.1-0.1-0.2-0.3-0.1-0.5L173.7,100c0-0.3,0.3-0.5,0.6-0.5h238&#10;&#9;&#9;c0.4,0,0.6,0.3,0.6,0.6c0,0,0,0.1,0,0.1l-42,280.2C370.9,380.8,370.6,381,370.3,380.9z M133,379.6h236.7l41.9-279H174.9L133,379.6z&#10;&#9;&#9;"/>
	<polygon class="st0_online-search-22" points="409.1,121.4 171.1,121.4 174.3,100.1 412.3,100.1 &#9;"/>
	<path class="st1_online-search-22" d="M409.1,122.1h-238c-0.2,0-0.4-0.1-0.5-0.2c-0.1-0.1-0.2-0.3-0.1-0.5l3.2-21.3c0-0.3,0.3-0.5,0.6-0.5h238&#10;&#9;&#9;c0.4,0,0.6,0.3,0.6,0.6c0,0,0,0.1,0,0.1l-3.2,21.4C409.7,121.9,409.4,122.1,409.1,122.1z M171.9,120.8h236.7l3-20.1H174.9&#10;&#9;&#9;L171.9,120.8z"/>
	<path class="st2_online-search-22" d="M356.5,320.9h-74.3c-0.6,0-1-0.4-1-1c0-0.1,0-0.1,0-0.1l0,0c0.1-0.7,0.7-1.1,1.3-1.1h74.3c0.6,0,1,0.4,1,1&#10;&#9;&#9;c0,0.1,0,0.1,0,0.2l0,0C357.7,320.4,357.1,320.8,356.5,320.9z"/>
	<path class="st2_online-search-22" d="M354.9,331.6h-68.1c-0.5,0-0.9-0.4-0.9-0.9c0-0.1,0-0.1,0-0.2v-0.1c0.1-0.6,0.6-1.1,1.3-1.1h68.1&#10;&#9;&#9;c0.5,0,0.9,0.4,1,0.9c0,0.1,0,0.1,0,0.2v0.1C356.1,331.1,355.5,331.6,354.9,331.6z"/>
	<path class="st2_online-search-22" d="M353.3,342.3h-71c-0.6,0-1-0.4-1-1c0,0,0-0.1,0-0.1v0c0.1-0.6,0.6-1.1,1.3-1.1h71c0.5,0,0.9,0.4,1,0.9&#10;&#9;&#9;c0,0.1,0,0.2,0,0.2v0C354.4,341.8,353.9,342.3,353.3,342.3z"/>
	<path class="st3_online-search-22 targetColor" d="M351.6,353h-74.3c-0.6,0-1-0.4-1-1c0-0.1,0-0.1,0-0.2l0,0c0.1-0.6,0.7-1.1,1.3-1.1H352c0.6,0,1,0.4,1,1&#10;&#9;&#9;c0,0.1,0,0.1,0,0.2l0,0C352.9,352.5,352.3,353,351.6,353z" style="fill: rgb(100, 154, 255);"/>
	<polygon class="st2_online-search-22" points="176.7,353.9 168.1,353.9 177.9,288.3 186.6,288.3 &#9;"/>
	<polygon class="st3_online-search-22 targetColor" points="176.7,353.9 168.1,353.9 172.3,325.8 180.9,325.8 &#9;" style="fill: rgb(100, 154, 255);"/>
	<polygon class="st2_online-search-22" points="194.1,353.9 185.4,353.9 195.2,288.3 203.9,288.3 &#9;"/>
	<polygon class="st3_online-search-22 targetColor" points="194.1,353.9 185.4,353.9 191.3,314.3 200,314.3 &#9;" style="fill: rgb(100, 154, 255);"/>
	<polygon class="st2_online-search-22" points="211.4,353.9 202.7,353.9 212.6,288.3 221.2,288.3 &#9;"/>
	<polygon class="st3_online-search-22 targetColor" points="211.4,353.9 202.7,353.9 206.4,329.1 215.1,329.1 &#9;" style="fill: rgb(100, 154, 255);"/>
	<polygon class="st2_online-search-22" points="228.7,353.9 220.1,353.9 229.9,288.3 238.6,288.3 &#9;"/>
	<polygon class="st3_online-search-22 targetColor" points="228.7,353.9 220.1,353.9 224.8,322.5 233.4,322.5 &#9;" style="fill: rgb(100, 154, 255);"/>
	<polygon class="st2_online-search-22" points="246.1,353.9 237.4,353.9 247.2,288.3 255.9,288.3 &#9;"/>
	<polygon class="st3_online-search-22 targetColor" points="246.1,353.9 237.4,353.9 243.3,314.5 252,314.5 &#9;" style="fill: rgb(100, 154, 255);"/>
	<polygon class="st2_online-search-22" points="263.4,353.9 254.7,353.9 264.6,288.3 273.2,288.3 &#9;"/>
	<polygon class="st3_online-search-22 targetColor" points="263.4,353.9 254.7,353.9 263,298.7 271.7,298.7 &#9;" style="fill: rgb(100, 154, 255);"/>
	<path class="st2_online-search-22" d="M238.6,156.3c26,0,44,21.2,40.1,47.2s-28.3,47.2-54.3,47.2s-44-21.2-40.1-47.2S212.6,156.3,238.6,156.3z&#10;&#9;&#9; M235.9,174.8c-15.9,0-30.7,12.9-33.1,28.8s8.6,28.8,24.4,28.8s30.7-12.9,33.1-28.8S251.7,174.8,235.9,174.8L235.9,174.8z"/>
	<path class="st3_online-search-22 targetColor" d="M278.8,203.6c-3.9,26-28.1,47.1-54.1,47.2l2.8-18.5c15.8-0.1,30.5-13,32.8-28.7H278.8z" style="fill: rgb(100, 154, 255);"/>
	
		<ellipse transform="matrix(0.7331 -0.6801 0.6801 0.7331 -29.5411 256.846)" class="st2_online-search-22" cx="312.5" cy="166.1" rx="11.8" ry="10.1"/>
	<path class="st2_online-search-22" d="M369.4,160.9h-34.7c-0.6,0-1-0.4-1-1c0-0.1,0-0.1,0-0.2l0,0c0.1-0.6,0.7-1.1,1.3-1.1h34.7c0.6,0,1,0.4,1,1&#10;&#9;&#9;c0,0.1,0,0.1,0,0.2l0,0C370.6,160.4,370.1,160.8,369.4,160.9z"/>
	<path class="st2_online-search-22" d="M368.5,167.2h-34.7c-0.6,0-1-0.4-1-1c0-0.1,0-0.1,0-0.2l0,0c0.1-0.6,0.7-1.1,1.3-1.1h34.7c0.6,0,1,0.4,1,1&#10;&#9;&#9;c0,0.1,0,0.1,0,0.2l0,0C369.7,166.7,369.1,167.2,368.5,167.2z"/>
	<path class="st2_online-search-22" d="M367.5,173.5h-34.7c-0.6,0-1-0.4-1-1c0-0.1,0-0.1,0-0.2l0,0c0.1-0.6,0.7-1.1,1.3-1.1h34.7c0.6,0,1,0.4,1,1&#10;&#9;&#9;c0,0.1,0,0.1,0,0.2l0,0C368.7,173,368.2,173.5,367.5,173.5z"/>
	
		<ellipse transform="matrix(0.7331 -0.6801 0.6801 0.7331 -61.8996 264.2498)" class="st3_online-search-22 targetColor" cx="305.8" cy="211" rx="11.8" ry="10.1" style="fill: rgb(100, 154, 255);"/>
	<path class="st3_online-search-22 targetColor" d="M362.7,205.8H328c-0.6,0-1-0.4-1-1c0-0.1,0-0.1,0-0.2l0,0c0.1-0.6,0.7-1.1,1.3-1.1H363c0.6,0,1,0.4,1,1&#10;&#9;&#9;c0,0.1,0,0.1,0,0.2l0,0C363.9,205.3,363.3,205.8,362.7,205.8z" style="fill: rgb(100, 154, 255);"/>
	<path class="st2_online-search-22" d="M361.8,212.1H327c-0.6,0-1-0.4-1-1c0-0.1,0-0.1,0-0.2l0,0c0.1-0.6,0.7-1.1,1.3-1.1H362c0.6,0,1,0.4,1,1&#10;&#9;&#9;c0,0.1,0,0.1,0,0.2l0,0C362.9,211.6,362.4,212.1,361.8,212.1z"/>
	<path class="st2_online-search-22" d="M360.8,218.4h-34.7c-0.6,0-1-0.4-1-1c0-0.1,0-0.1,0-0.2l0,0c0.1-0.6,0.7-1.1,1.3-1.1h34.7c0.6,0,1,0.4,1,1&#10;&#9;&#9;c0,0.1,0,0.1,0,0.2l0,0C362,217.9,361.5,218.4,360.8,218.4z"/>
	<path class="st1_online-search-22" d="M267.8,182.6c-0.3,0-0.5-0.1-0.6-0.4c-0.2-0.3,0-0.8,0.3-0.9l26.5-13.2c0.3-0.2,0.8,0,0.9,0.3&#10;&#9;&#9;c0.2,0.3,0,0.8-0.3,0.9c0,0,0,0,0,0l-26.5,13.3C268,182.6,267.9,182.6,267.8,182.6z"/>
	<path class="st1_online-search-22" d="M262.2,216.3c-0.4,0-0.7-0.3-0.7-0.7c0-0.4,0.3-0.7,0.7-0.7c0,0,0,0,0,0l27.1-0.5l0,0c0.4,0,0.7,0.3,0.7,0.7&#10;&#9;&#9;c0,0.4-0.3,0.7-0.7,0.7c0,0,0,0,0,0L262.2,216.3L262.2,216.3z"/>
	<path class="st2_online-search-22" d="M244.3,146.1h-41.9c-1.1,0.1-2-0.8-2-1.8c0-0.2,0-0.3,0-0.5l0,0c0.2-1.3,1.3-2.3,2.6-2.3h42&#10;&#9;&#9;c1.1-0.1,2,0.8,2,1.8c0,0.2,0,0.3,0,0.5l0,0C246.8,145.2,245.6,146.1,244.3,146.1z"/>
	
		<ellipse transform="matrix(0.7331 -0.6801 0.6801 0.7331 -25.589 156.3036)" class="st3_online-search-22 targetColor" cx="186.4" cy="110.8" rx="4.2" ry="3.7" style="fill: rgb(100, 154, 255);"/>
	<ellipse transform="matrix(0.7331 -0.6801 0.6801 0.7331 -21.9625 165.5407)" class="st2_online-search-22" cx="200" cy="110.8" rx="4.2" ry="3.7"/>
	
		<ellipse transform="matrix(0.7331 -0.6801 0.6801 0.7331 -18.3336 174.7905)" class="st2_online-search-22" cx="213.6" cy="110.8" rx="4.2" ry="3.7"/>
</g>
<g id="Character_online-search-22">
	<path class="st1_online-search-22" d="M154.1,387.6c0,0-1.9,9.2,1,11.2s27.9-6.4,27.2-9.3s-14.9-4.3-14.9-4.3S156.2,388.5,154.1,387.6z"/>
	<path class="st1_online-search-22" d="M156.7,399.8c-0.7,0.1-1.4-0.1-2-0.4c-3.2-2.2-1.5-10.9-1.3-11.9c0-0.2,0.2-0.4,0.4-0.5c0.2-0.1,0.4-0.1,0.6,0&#10;&#9;&#9;c1.3,0.6,8.3-1.1,12.8-2.4c0.1,0,0.2,0,0.3,0c3.4,0.4,14.7,1.7,15.5,4.8c0.2,1-0.8,1.9-1.6,2.4&#10;&#9;&#9;C176.9,394.8,162.5,399.8,156.7,399.8z M154.6,388.5c-0.6,3.4-0.9,8.6,0.9,9.8c1.2,0.8,9.2-0.8,17.8-4.2c6.6-2.5,8.2-4.1,8.3-4.5&#10;&#9;&#9;c-0.4-1.4-7.6-3-14.1-3.7C165.5,386.5,157.7,388.7,154.6,388.5z"/>
	<path class="st1_online-search-22" d="M117.8,387.6c0,0-0.3,10.6,0.8,11.9s26.9-1.4,25.6-4.9s-11.6-7-11.6-7L117.8,387.6z"/>
	<path class="st1_online-search-22" d="M121.7,400.6c-1.8,0-3.2-0.2-3.5-0.6c-1.2-1.4-1.1-9.9-1-12.4c0-0.4,0.3-0.7,0.7-0.7h14.9c0.1,0,0.2,0,0.2,0&#10;&#9;&#9;c1.1,0.4,10.6,3.8,12,7.4c0.2,0.6,0.2,1.4-1.2,2.3C140.5,398.6,127.9,400.6,121.7,400.6z M118.5,388.3c-0.1,4.8,0.1,10.1,0.7,10.8&#10;&#9;&#9;c1.4,0.7,18.9-0.9,23.6-3.5c0.7-0.4,0.8-0.6,0.8-0.7c-1-2.6-8.2-5.6-11-6.6L118.5,388.3z"/>
	<path class="st0_online-search-22" d="M116.7,352.6l1.2,35c0,0,11,4.3,14.9,0l3-38.5L116.7,352.6z"/>
	<path class="st1_online-search-22" d="M127.1,390.2c-3.3-0.1-6.5-0.8-9.5-2c-0.3-0.1-0.4-0.4-0.4-0.6l-1.2-35c0-0.3,0.2-0.7,0.6-0.7l19.1-3.5&#10;&#9;&#9;c0.2,0,0.4,0,0.6,0.2c0.2,0.1,0.2,0.4,0.2,0.6l-3,38.5c0,0.2-0.1,0.3-0.2,0.4C131.8,389.7,129.5,390.2,127.1,390.2z M118.5,387.1&#10;&#9;&#9;c2,0.7,10.3,3.4,13.5,0.2l3-37.3l-17.6,3.2L118.5,387.1z"/>
	<path class="st0_online-search-22" d="M167.4,347.7v37.6c-3.9,2.7-8.7,3.6-13.3,2.4l-8.2-45.1L167.4,347.7z"/>
	<path class="st1_online-search-22" d="M158.2,388.9c-1.5,0-2.9-0.2-4.4-0.6c-0.3-0.1-0.4-0.3-0.5-0.5l-8.2-45.1c0-0.2,0-0.5,0.2-0.6&#10;&#9;&#9;c0.2-0.2,0.4-0.2,0.6-0.2l21.6,5.2c0.3,0.1,0.5,0.4,0.5,0.7v37.6c0,0.2-0.1,0.4-0.3,0.5C165,387.8,161.7,388.9,158.2,388.9z&#10;&#9;&#9; M154.7,387.1c4.1,1,8.5,0.2,12-2.2v-36.7l-20-4.8L154.7,387.1z"/>
	<path class="st1_online-search-22" d="M111,254.9l-2.7,103.3c0,0,41.6,11.7,68.5-5.6L157.6,265L111,254.9z"/>
	<path class="st1_online-search-22" d="M138.8,362.7c-10.3,0-20.7-1.3-30.7-3.8c-0.3-0.1-0.5-0.4-0.5-0.7l2.7-103.3c0-0.2,0.1-0.4,0.3-0.5&#10;&#9;&#9;c0.2-0.1,0.4-0.2,0.6-0.1l46.7,10.1c0.3,0.1,0.5,0.3,0.5,0.5l19.1,87.6c0.1,0.3-0.1,0.6-0.3,0.7&#10;&#9;&#9;C165.6,360.6,151.4,362.7,138.8,362.7z M109,357.7c4.9,1.2,42.3,10.1,66.9-5.4l-18.9-86.7l-45.4-9.8L109,357.7z"/>
	<path class="st0_online-search-22" d="M161.3,235.6c0,0,7.1-25.9,10.6-28.4s10.2-5.5,10.2-2s-5,31.2-12.8,30.4S161.3,235.6,161.3,235.6z"/>
	<path class="st1_online-search-22" d="M169.7,236.3c-0.1,0-0.3,0-0.4,0c-5.8-0.7-7.2-0.3-7.4-0.2c-0.2,0.2-0.4,0.3-0.7,0.2c-0.4-0.1-0.6-0.5-0.5-0.8&#10;&#9;&#9;c0,0,0,0,0,0c0,0,0-0.1,0-0.1c0.9-3.1,7.3-26.1,10.9-28.6c1.8-1.3,7.7-4.8,10.2-3.4c0.7,0.4,1.2,1.2,1.1,2c0,3.1-3.7,24.1-9.9,29.7&#10;&#9;&#9;C172,235.7,170.9,236.2,169.7,236.3z M162,235.8L162,235.8L162,235.8z M163.8,234.5c1.9,0,3.7,0.2,5.6,0.4c1,0.1,1.9-0.3,2.6-1&#10;&#9;&#9;c5.8-5.2,9.4-25.9,9.4-28.6c0-0.6-0.2-0.7-0.3-0.7c-1.3-0.7-5.7,1.2-8.8,3.3c-2.3,1.6-7.1,16.4-10,26.8&#10;&#9;&#9;C162.8,234.5,163.3,234.5,163.8,234.5z"/>
	<path class="st0_online-search-22" d="M198.8,229.5c-0.6,0-28.6-4.3-28.6-4.3l15.8-40.5l30.8,3.1L198.8,229.5z"/>
	<path class="st1_online-search-22" d="M198.8,230.2c-0.7,0-22.1-3.3-28.7-4.3c-0.4-0.1-0.6-0.4-0.6-0.8c0,0,0-0.1,0-0.1l15.8-40.5&#10;&#9;&#9;c0.1-0.3,0.4-0.5,0.7-0.4l30.8,3.1c0.2,0,0.4,0.1,0.5,0.3c0.1,0.2,0.1,0.4,0,0.6l-18,41.7C199.3,230,199.1,230.1,198.8,230.2z&#10;&#9;&#9; M171.2,224.6c10.1,1.6,24.4,3.8,27.2,4.1l17.4-40.4l-29.3-3L171.2,224.6z"/>
	<path class="st2_online-search-22" d="M197.7,226.7h-0.1l-23.9-3.7c-0.2,0-0.4-0.2-0.5-0.4c-0.1-0.2-0.1-0.4,0-0.6l14.5-35c0.1-0.3,0.4-0.5,0.7-0.4&#10;&#9;&#9;l23.7,2.7c0.2,0,0.4,0.1,0.5,0.3c0.1,0.2,0.1,0.4,0,0.6l-14.3,36C198.2,226.5,198,226.7,197.7,226.7z M174.8,221.7l22.5,3.5&#10;&#9;&#9;l13.7-34.6l-22.2-2.6L174.8,221.7z"/>
	<path class="st0_online-search-22" d="M109,161.1c-2.7-0.4-5.5-0.3-8.2,0.4c-4.6,1.1-9.3,3.5-11.3,7.8c-1.6,3.5-1,7.6,0,11.3s2.5,7.3,2.7,11.2&#10;&#9;&#9;s-1.2,8.1-4.6,9.9c4.2-0.9,8.4-1.7,12-3.9c2.2-1.1,4-3.1,4.8-5.4c0.4-2,0.4-4-0.2-6c-0.6-3-1.2-6-0.7-9s2.3-6,5.2-6.9&#10;&#9;&#9;c2.5-0.8,9.8,0.9,9.6-3.4C118.3,163.6,111.7,161.5,109,161.1z"/>
	<path class="st1_online-search-22" d="M87.7,202.3c-0.4,0-0.7-0.3-0.7-0.7c0-0.2,0.1-0.5,0.4-0.6c3.4-1.8,4.4-6.1,4.2-9.2c-0.3-2.8-0.9-5.5-1.8-8.1&#10;&#9;&#9;c-0.3-0.9-0.6-1.9-0.9-2.9c-1.4-4.9-1.4-8.7,0-11.8c2.4-5.3,8.4-7.4,11.8-8.2c2.8-0.7,5.6-0.9,8.4-0.4c2.7,0.5,9.8,2.6,10,6.6&#10;&#9;&#9;c0.1,0.9-0.2,1.8-0.8,2.4c-1.3,1.4-4,1.4-6.3,1.5c-1,0-2,0-3,0.2c-2.9,0.9-4.3,4-4.7,6.4c-0.3,2.8,0,5.6,0.7,8.4l0.1,0.4&#10;&#9;&#9;c0.6,2.1,0.6,4.3,0.1,6.4c-0.7,2.2-2.4,4.2-5.2,5.8c-3.8,2.2-8.1,3.1-12.3,3.9L87.7,202.3z M106.2,161.5c-1.7,0-3.5,0.2-5.2,0.7&#10;&#9;&#9;c-3.1,0.7-8.7,2.7-10.8,7.4c-1.2,2.8-1.2,6.2,0.1,10.8c0.3,1,0.6,1.9,0.8,2.8c1,2.7,1.6,5.6,1.9,8.5c0.2,3.1-0.7,6.2-2.6,8.6&#10;&#9;&#9;c3.1-0.6,6.2-1.7,9-3.2c1.7-1,3.8-2.6,4.5-5c0.4-1.9,0.3-3.9-0.2-5.7l-0.1-0.4c-0.6-2.9-1.1-5.9-0.7-8.9c0.6-3.6,2.8-6.6,5.6-7.5&#10;&#9;&#9;c1.1-0.3,2.3-0.4,3.4-0.3c1.9,0,4.3-0.1,5.3-1.1c0.3-0.4,0.5-0.9,0.4-1.4c-0.2-2.8-6.1-4.8-8.8-5.3l0,0&#10;&#9;&#9;C108,161.6,107.1,161.5,106.2,161.5z"/>
	<path class="st1_online-search-22" d="M112.1,162.7c-1.2,1.3-2,3-2.1,4.9c-0.2,1.2,0,2.4,0.5,3.5c0.7,1.3,2,2.2,3.5,2.4c0.6,0.1,1.3,0,1.9-0.3&#10;&#9;&#9;c0.4-0.3,0.8-0.8,0.9-1.3C118.4,168.3,118.2,156.5,112.1,162.7z"/>
	<path class="st1_online-search-22" d="M114.6,174.1c-0.2,0-0.4,0-0.7,0c-1.7-0.2-3.2-1.2-4-2.7c-0.6-1.2-0.8-2.6-0.6-3.9c0.1-2,1-3.8,2.3-5.3l0,0&#10;&#9;&#9;c2.4-2.4,4-2.2,4.9-1.6c2.5,1.8,2.2,8.7,1,11.4c-0.2,0.6-0.7,1.2-1.2,1.6C115.8,174,115.2,174.2,114.6,174.1z M115.1,161.6&#10;&#9;&#9;c-1,0.2-1.9,0.8-2.5,1.6l0,0c-1.1,1.2-1.8,2.8-1.9,4.4c-0.2,1.1,0,2.1,0.4,3.1c0.6,1.1,1.7,1.8,3,2c0.5,0.1,1,0,1.4-0.2&#10;&#9;&#9;c0.3-0.3,0.6-0.6,0.7-1c1.1-2.3,1.2-8.5-0.5-9.7C115.5,161.7,115.3,161.6,115.1,161.6L115.1,161.6z M112.1,162.7L112.1,162.7z"/>
	<path class="st0_online-search-22" d="M130.7,192c-1.4,1-3.1,1.4-5.8,0.5c-2.2-0.8-4.1-2.1-5.7-3.9c-6.2-6.8-8-16.5-4.7-25&#10;&#9;&#9;c3.4-8.4,14.1-15.2,22.7-9.8c3,1.9,4.9,5,5.4,8.4c1.4-0.2,2.8,0.5,3.4,1.8c1.9,3,1.2,5.5-0.7,8.1c-3.2,4.3-6.8,8.3-9.8,12.7&#10;&#9;&#9;C133.8,187.6,132.7,190.5,130.7,192z"/>
	<path class="st1_online-search-22" d="M127.7,193.7c-1,0-2-0.2-3-0.5c-2.3-0.8-4.4-2.2-6-4.1c-6.4-6.9-8.2-16.9-4.8-25.7c2.2-5.4,6.7-9.5,12.1-11.4&#10;&#9;&#9;c3.9-1.4,8.2-0.9,11.6,1.3c2.9,1.9,5,4.9,5.6,8.3c1.4,0.1,2.7,0.9,3.4,2.1c2.4,3.8,0.8,6.9-0.8,9c-1.3,1.8-2.7,3.5-4.1,5.2&#10;&#9;&#9;c-1.9,2.4-4,4.9-5.7,7.5c-0.6,0.8-1.1,1.7-1.6,2.6c-0.8,1.8-2,3.3-3.5,4.6l0,0C130.1,193.4,128.9,193.8,127.7,193.7z M130.7,152.6&#10;&#9;&#9;c-1.4,0-2.8,0.2-4.2,0.7c-5.1,1.8-9.2,5.6-11.2,10.6c-3.2,8.3-1.4,17.7,4.5,24.2c1.5,1.7,3.3,2.9,5.4,3.7c2.9,0.9,4.3,0.2,5.2-0.4&#10;&#9;&#9;c1.3-1.2,2.3-2.6,3.1-4.2c0.5-0.9,1-1.8,1.6-2.7c1.8-2.6,3.8-5.2,5.8-7.6c1.4-1.7,2.8-3.4,4.1-5.2c2-2.7,2.2-4.9,0.7-7.4&#10;&#9;&#9;c-0.6-1-1.6-1.5-2.7-1.4c-0.2,0-0.4,0-0.5-0.1c-0.2-0.1-0.3-0.3-0.3-0.5c-0.4-3.3-2.3-6.2-5.1-7.9&#10;&#9;&#9;C135.1,153.3,132.9,152.6,130.7,152.6L130.7,152.6z M130.8,192L130.8,192z"/>
	<path class="st0_online-search-22" d="M142.2,173.4c0,0,4.6,6.1,3.8,7.5s-3.8,0.7-3.8,0.7"/>
	<path class="st1_online-search-22" d="M143.9,182.4c-0.6,0-1.2-0.1-1.7-0.2c-0.4-0.1-0.6-0.5-0.5-0.8s0.5-0.6,0.8-0.5l0,0c1,0.2,2.6,0.3,3-0.4&#10;&#9;&#9;c0.2-0.6-1.6-3.8-3.8-6.7c-0.2-0.3-0.2-0.8,0.1-1c0,0,0,0,0,0c0.3-0.2,0.7-0.2,1,0.1c0,0,0,0,0,0c1.8,2.4,4.8,6.7,3.9,8.3&#10;&#9;&#9;C146,182.1,144.9,182.5,143.9,182.4z"/>
	<path class="st0_online-search-22" d="M138.1,206.8c-6.5-0.9-16-9.8-16-10c-0.3-4.4-0.3-8.8-0.1-13.2c0,0,4.6-0.3,7-5.9c2.4-5.7,8-5.3,11.8-12.6&#10;&#9;&#9;c2.8,2,2.3,6.7,2.5,9.7c0.2,4.2,0.4,8.5,0.4,12.7c0,2.7-6.9,3.2-8.2,2.5C136.1,194,136.1,194,138.1,206.8z"/>
	<path class="st1_online-search-22" d="M138.1,207.5L138.1,207.5c-6.5-0.9-16.6-9.7-16.7-10.6c-0.3-4.4-0.3-8.9-0.1-13.4c0-0.4,0.3-0.6,0.7-0.7&#10;&#9;&#9;c0.2,0,4.2-0.3,6.4-5.5c1.2-2.9,3.2-4.3,5.4-5.8c2.7-1.7,5-4,6.5-6.8c0.2-0.3,0.6-0.5,1-0.3c0,0,0,0,0,0c2.6,1.9,2.7,5.6,2.8,8.6&#10;&#9;&#9;c0,0.6,0,1.1,0,1.6c0.2,4.2,0.4,8.5,0.4,12.8c0,1-0.6,1.9-1.5,2.3c-2,1-4.3,1.4-6.5,1.1c0.5,3.2,0.6,4.2,2.4,15.8&#10;&#9;&#9;C138.8,207,138.5,207.4,138.1,207.5C138.1,207.5,138.1,207.5,138.1,207.5L138.1,207.5z M122.7,196.5c1,1,8.7,8,14.5,9.4&#10;&#9;&#9;c-1.8-11.8-1.8-11.9-2.4-15.9c0-0.3,0.1-0.5,0.3-0.7c0.2-0.1,0.5-0.1,0.8,0c0.7,0.4,4.4,0.3,6.3-0.8c0.6-0.3,0.8-0.7,0.8-1.1&#10;&#9;&#9;c0-4.2-0.2-8.5-0.4-12.7c0-0.5,0-1.1,0-1.7c-0.1-2.4-0.1-5.3-1.6-7c-1.6,2.7-3.8,4.9-6.5,6.5c-2.1,1.4-3.8,2.7-4.9,5.2&#10;&#9;&#9;c-2,4.8-5.5,6-6.9,6.2C122.5,188.2,122.5,192.3,122.7,196.5L122.7,196.5z"/>
	<path class="st0_online-search-22" d="M143.4,184.3c0,0-3.1,2.2-5.1-1.1"/>
	<path class="st1_online-search-22" d="M141.1,185.7c-0.3,0-0.5,0-0.8-0.1c-1.1-0.3-2.1-1-2.6-2c-0.2-0.3-0.1-0.8,0.2-1c0.3-0.2,0.8-0.1,1,0.2&#10;&#9;&#9;c0,0,0,0,0,0c0.4,0.7,1,1.2,1.7,1.4c0.8,0.1,1.7-0.1,2.4-0.6c0.3-0.2,0.7-0.2,1,0.1c0,0,0,0,0,0c0.2,0.3,0.2,0.7-0.1,1c0,0,0,0,0,0&#10;&#9;&#9;C143,185.4,142,185.7,141.1,185.7z"/>
	<path class="st1_online-search-22" d="M135.5,189.9c0,0-3.6,0.1-5.4-2.3c0,0,0.6,6.5,6.3,8L135.5,189.9z"/>
	<path class="st1_online-search-22" d="M136.4,196.3h-0.2c-6-1.6-6.8-8.3-6.8-8.6c0-0.4,0.3-0.7,0.6-0.8c0.2,0,0.5,0.1,0.6,0.3c1.6,2.1,4.8,2,4.9,2&#10;&#9;&#9;c0.3,0,0.6,0.2,0.7,0.6l0.9,5.7c0,0.2,0,0.5-0.2,0.6C136.7,196.2,136.5,196.3,136.4,196.3z M131.2,189.5c0.6,2.2,2.2,4.1,4.3,5.1&#10;&#9;&#9;l-0.6-4C133.6,190.5,132.3,190.1,131.2,189.5z"/>
	
		<ellipse transform="matrix(6.457721e-03 -1 1 6.457721e-03 -31.6698 310.9046)" class="st1_online-search-22" cx="140.6" cy="171.4" rx="1.5" ry="0.6"/>
	<path class="st0_online-search-22" d="M133.7,176.1c-0.2-1.1-0.7-2-1.4-2.8c-0.5-0.7-1-1.3-1.7-1.8c-0.7-0.5-1.5-0.7-2.3-0.6&#10;&#9;&#9;c-0.7,0.2-1.3,0.7-1.6,1.4c-0.3,0.7-0.4,1.4-0.4,2.1c0.1,3.3,1.9,6.2,4.7,7.8l-0.2-0.2"/>
	<path class="st1_online-search-22" d="M131.1,182.9c-0.1,0-0.2,0-0.3-0.1c-3.1-1.7-5-4.9-5.1-8.4c0-0.8,0.1-1.7,0.5-2.4c0.4-0.9,1.1-1.5,2-1.8&#10;&#9;&#9;c1-0.2,2.1,0,2.9,0.7c0.7,0.6,1.3,1.2,1.8,2c0.8,0.9,1.3,2,1.5,3.2c0,0.4-0.3,0.7-0.6,0.8c-0.4,0-0.7-0.3-0.8-0.6&#10;&#9;&#9;c-0.2-0.9-0.6-1.8-1.2-2.5c-0.4-0.6-0.9-1.2-1.5-1.7c-0.5-0.4-1.1-0.6-1.7-0.4c-0.5,0.2-0.9,0.5-1.1,1c-0.2,0.6-0.4,1.2-0.3,1.8&#10;&#9;&#9;c0.1,2.8,1.5,5.3,3.8,6.9c0.2,0,0.3,0.1,0.4,0.2l0.2,0.2c0.3,0.2,0.3,0.6,0.1,0.9C131.5,182.8,131.3,182.9,131.1,182.9z"/>
	<path class="st3_online-search-22 targetColor" d="M145.8,197.4c0,0-22.5-9.1-29.5-1.2s-11.9,38.6-9,78.3c24.9,8,54.8-9.1,54.8-9.1S156.8,202.3,145.8,197.4z" style="fill: rgb(100, 154, 255);"/>
	<path class="st0_online-search-22" d="M192.9,223.4c0,0,7-15.4,8.3-13.8s-1.1,8.7-1.1,8.7s6.9-9.5,8.4-8.8s0.4,8.3-3,14s-7.8,12.2-7.8,12.2&#10;&#9;&#9;L192.9,223.4z"/>
	<path class="st1_online-search-22" d="M197.7,236.2L197.7,236.2c-0.3,0-0.6-0.2-0.7-0.4l-4.8-12.2c-0.1-0.2-0.1-0.4,0-0.6c2.4-5.2,6.6-14.1,8.5-14.4&#10;&#9;&#9;c0.3,0,0.7,0.1,0.9,0.3c0.9,1,0.6,3.5,0.1,5.7c3.6-4.6,6-6.6,7.1-6c0.4,0.3,0.8,0.7,0.9,1.2c0.7,2.5-0.7,8.9-3.6,13.8&#10;&#9;&#9;c-3.4,5.6-7.8,12.1-7.8,12.2C198.2,236.1,198,236.2,197.7,236.2z M193.7,223.4l4.2,10.6c1.4-2.1,4.5-6.8,7.1-11&#10;&#9;&#9;c3.5-5.8,4.1-12.4,3.3-13c-0.8,0.1-4.6,4.5-7.6,8.6c-0.2,0.3-0.6,0.4-0.9,0.2c-0.3-0.2-0.5-0.5-0.4-0.8c1-2.9,1.7-6.5,1.4-7.7&#10;&#9;&#9;C199.5,211.5,196.3,217.7,193.7,223.4L193.7,223.4z"/>
	<path class="st3_online-search-22 targetColor" d="M136.4,209.4c0,0,15,44.2,30.6,42.9s34.2-17.5,34.2-17.5l-9-13.6c0,0-22.8,14.3-27.3,8.8&#10;&#9;&#9;c-5.9-8.1-10.7-17-14.2-26.4C147.6,195.3,134.2,195.2,136.4,209.4z" style="fill: rgb(100, 154, 255);"/>
	<path class="st0_online-search-22" d="M169.1,216.8c0,0,1.9-4.1,4.1-6.1s8.7-5.7,7.8-2.3s-5.9,6.6-5.9,6.6s-1.1,2.2-3.1,5.2"/>
	<path class="st1_online-search-22" d="M172,221c-0.1,0-0.3,0-0.4-0.1c-0.3-0.2-0.4-0.7-0.2-1c0,0,0,0,0,0c2-3,3.1-5.1,3.1-5.1&#10;&#9;&#9;c0.1-0.1,0.1-0.2,0.2-0.3c0.1,0,4.8-3.1,5.6-6.2c0.1-0.2,0.1-0.3,0.1-0.5c-0.7-0.4-4.7,1.7-6.7,3.5s-3.9,5.8-4,5.9&#10;&#9;&#9;c-0.1,0.4-0.5,0.5-0.9,0.4c-0.4-0.1-0.5-0.5-0.4-0.9c0,0,0-0.1,0-0.1c0.1-0.2,2-4.3,4.3-6.3c1.2-1.1,6.5-4.8,8.4-3.6&#10;&#9;&#9;c0.4,0.2,0.9,0.8,0.6,2c-0.8,3.3-5.2,6.4-6.1,7c-0.3,0.6-1.4,2.5-3.1,5.1C172.4,220.9,172.2,221,172,221z"/>
	<path class="st1_online-search-22" d="M167.2,252c-3.3,0-6.5-0.9-9.3-2.5c-9.7-5.8-23.2-36-23.8-37.3c-0.2-0.3,0-0.8,0.3-0.9c0.3-0.2,0.8,0,0.9,0.3&#10;&#9;&#9;c0,0,0,0.1,0,0.1c0.1,0.3,13.8,31,23.2,36.7c9.6,5.7,21-0.2,31-6.7c0.3-0.2,0.7-0.2,1,0.1c0,0,0,0,0,0.1c0.2,0.3,0.1,0.8-0.2,1&#10;&#9;&#9;c0,0,0,0,0,0C183.1,247.5,175,252,167.2,252z"/>
	<polygon class="st1_online-search-22" points="195.1,183.6 192.9,188.9 206.6,190.4 209.2,184.7 &#9;"/>
	<path class="st1_online-search-22" d="M206.6,191.1L206.6,191.1l-13.7-1.5c-0.4,0-0.7-0.4-0.6-0.8c0-0.1,0-0.1,0.1-0.2l2.2-5.2&#10;&#9;&#9;c0.1-0.3,0.4-0.5,0.7-0.4l14.1,1c0.2,0,0.4,0.1,0.6,0.3c0.1,0.2,0.1,0.4,0,0.6l-2.6,5.7C207.1,190.9,206.9,191.1,206.6,191.1z&#10;&#9;&#9; M193.9,188.3l12.2,1.4l2-4.3l-12.6-0.9L193.9,188.3z"/>
</g>
</svg>