<svg version="1.1" id="Layer_1" xmlns="http://www.w3.org/2000/svg" xmlns:xlink="http://www.w3.org/1999/xlink" x="0px" y="0px" viewBox="0 0 500 500" style="width: 144px;" xml:space="preserve" data-imageid="party-94" imageName="Party" class="illustrations_image">
<style type="text/css">
	.st0_party-94{fill:#D1D3D4;}
	.st1_party-94{fill:#FFFFFF;}
	.st2_party-94{fill:#231F20;}
	.st3_party-94{fill:#68E1FD;}
</style>
<ellipse id="Shadow_party-94" class="st0_party-94" cx="117.2" cy="406.6" rx="39.6" ry="7.2"/>
<ellipse id="Shadow-2_party-94" class="st0_party-94" cx="385.2" cy="406.6" rx="39.6" ry="7.2"/>
<path id="Shadow-3_party-94" class="st0_party-94" d="M153.4,137.8c-0.4,0-0.7-0.3-0.7-0.7c0-0.3,0.3-0.6,0.6-0.7c5.4-0.6,10.9-1,16.3-1l0,0&#10;&#9;c0.4,0,0.7,0.3,0.7,0.7c0,0,0,0,0,0c0,0.4-0.3,0.7-0.7,0.7C164.2,136.8,158.8,137.1,153.4,137.8L153.4,137.8z"/>
<g id="Character_Male_party-94">
	<path class="st1_party-94" d="M70,144.5c0,0-3.4-8.8-3.3-10.9s2.1-10.4,0.2-11.3c-1.2-0.6-2.5-0.7-3.8-0.6c0,0-5.2-14.9-6.7-14.8&#10;&#9;&#9;s0.9,8.9,2.4,13.5c0,0-10,3.5-8.9,6.2c0.8,2.1,9.2,19,12.5,24.4"/>
	<path class="st2_party-94" d="M62.2,151.7c-0.2,0-0.5-0.1-0.6-0.3c-3.3-5.5-11.6-22.5-12.5-24.5c-0.2-0.5-0.2-1.1,0.1-1.6&#10;&#9;&#9;c1-2.3,6.6-4.6,8.6-5.3c-1.4-4.6-3.4-11.8-2.4-13.3c0.2-0.3,0.5-0.5,0.8-0.5c0.5,0,2-0.2,7.2,14.7c1.3-0.1,2.5,0.2,3.7,0.7&#10;&#9;&#9;c1.8,0.9,1.3,4.7,0.6,9.5c-0.2,1-0.3,1.9-0.3,2.4c-0.1,1.5,1.9,7.2,3.3,10.6c0.1,0.4-0.1,0.8-0.5,0.9c-0.3,0.1-0.7-0.1-0.8-0.4&#10;&#9;&#9;c-0.4-0.9-3.5-9-3.4-11.2c0-0.6,0.2-1.4,0.3-2.6c0.3-1.9,1.2-7.6,0.2-8.1c-1.1-0.5-2.2-0.7-3.4-0.5c-0.3,0.1-0.7-0.1-0.8-0.4&#10;&#9;&#9;c-2.1-5.9-4.6-12.2-5.8-14c0,1.6,0.9,6.1,2.8,12.2c0.1,0.4-0.1,0.7-0.4,0.9c-2.9,1-7.7,3.2-8.4,4.8c-0.1,0.1-0.1,0.3,0,0.5&#10;&#9;&#9;c0.8,2.1,9.1,18.9,12.4,24.3c0.2,0.3,0.1,0.7-0.2,1c0,0,0,0-0.1,0C62.5,151.7,62.4,151.7,62.2,151.7z"/>
	<path class="st2_party-94" d="M58.2,134.5c-0.3,0-0.6-0.2-0.7-0.5c-0.6-2.5,0.9-5,2.3-6.8c-1.9,0.5-3.8,0.6-5.8,0.2c-0.9-0.3-1-0.8-1-1.1&#10;&#9;&#9;c0-1.3,3.2-3,9.7-5.3c0.4-0.1,0.8,0.1,0.9,0.4c0,0,0,0,0,0c0.1,0.4-0.1,0.8-0.4,0.9c-3.5,1.2-7.5,2.9-8.6,3.8c2.9,0.7,7.2-1,7.2-1&#10;&#9;&#9;c0.3-0.1,0.7,0,0.9,0.3c0.2,0.3,0.1,0.7-0.1,0.9c0,0-4.6,4.1-3.8,7.4c0.1,0.4-0.1,0.7-0.5,0.8C58.3,134.5,58.3,134.5,58.2,134.5z"/>
	<path class="st1_party-94" d="M173,299.2c0.8,0.1,7.6,2.4,15.1,2.8c0,0-13.3,24.1-16,49.1l9.5,6.9c0,0,33.7-51.6,32.4-59.2&#10;&#9;&#9;s-27.5-19.3-27.5-19.3L173,299.2z"/>
	<path class="st2_party-94" d="M181.6,358.7c-0.1,0-0.3,0-0.4-0.1l-9.5-6.8c-0.2-0.1-0.3-0.4-0.3-0.6c2.4-22,13.1-43.6,15.6-48.4&#10;&#9;&#9;c-4.3-0.4-8.5-1.2-12.6-2.4c-0.5-0.1-0.9-0.3-1.4-0.4c-0.2,0-0.5-0.2-0.6-0.4c-0.1-0.2-0.1-0.5,0.1-0.7l13.5-19.8&#10;&#9;&#9;c0.2-0.3,0.6-0.4,0.9-0.2c1.1,0.5,26.5,11.9,27.9,19.8s-31.1,57.6-32.5,59.7c-0.1,0.2-0.3,0.3-0.5,0.3L181.6,358.7z M172.8,350.8&#10;&#9;&#9;l8.6,6.2c9.6-14.7,32.9-52.1,31.9-58.1s-19-15.1-26.5-18.5l-12.6,18.4l0.6,0.1c4.4,1.3,8.9,2.1,13.4,2.4c0.2,0,0.5,0.1,0.6,0.4&#10;&#9;&#9;c0.1,0.2,0.1,0.5,0,0.7C188.5,302.6,175.6,326.4,172.8,350.8L172.8,350.8z"/>
	<path class="st1_party-94" d="M124.3,321.8l-1.6,4.2c0,0-23.7,6.6-45.1,10.5c0,0-4.3,6.1-0.7,11.5c0,0,45.3,0.6,54-2.4s15.5-14.8,14.4-24.1&#10;&#9;&#9;L124.3,321.8z"/>
	<path class="st2_party-94" d="M85.8,348.7c-4.9,0-8.4,0-8.9,0c-0.2,0-0.4-0.1-0.6-0.3c-3.9-5.7,0.5-12,0.7-12.3c0.1-0.1,0.3-0.3,0.4-0.3&#10;&#9;&#9;c19.7-3.6,41.7-9.6,44.7-10.4l1.4-3.8c0.1-0.3,0.4-0.5,0.6-0.5l21.1-0.4c0.4,0,0.6,0.3,0.7,0.6c1.1,9.8-6.2,21.9-14.9,24.9&#10;&#9;&#9;C124.8,348.4,99.5,348.7,85.8,348.7z M77.3,347.3c4.4,0,45.4,0.4,53.4-2.4s14.7-13.7,14-22.8l-20,0.4l-1.4,3.7&#10;&#9;&#9;c-0.1,0.2-0.3,0.4-0.5,0.4c-0.2,0.1-23.8,6.6-44.8,10.5C77.4,338.2,74.7,343,77.3,347.3z M122.7,326L122.7,326z"/>
	<path class="st2_party-94" d="M172.1,351.1c0,0-5.4,8.1-5.7,10.6s22.4,22.9,23.5,19.7s-8.3-23.4-8.3-23.4L172.1,351.1z"/>
	<path class="st2_party-94" d="M189.3,382.4c-0.2,0-0.3,0-0.5-0.1c-4.6-1-23.3-17.8-23-20.6c0.3-2.6,5.2-10.1,5.8-10.9&#10;&#9;&#9;c0.1-0.1,0.2-0.2,0.4-0.3c0.2,0,0.3,0,0.5,0.1l9.5,6.9c0.1,0.1,0.2,0.1,0.2,0.2c1,2.1,9.4,20.5,8.3,23.9&#10;&#9;&#9;C190.3,382.1,189.8,382.4,189.3,382.4z M172.2,352c-1.7,2.5-5.1,8-5.3,9.8c0.1,1.7,11.5,12.6,18.6,17.5c3.1,2.1,3.7,1.9,3.8,1.9&#10;&#9;&#9;c0.7-2.1-4.7-15-8.2-22.8L172.2,352z"/>
	<path class="st2_party-94" d="M77.7,336.5c0,0-13.1,1.1-14.2,0.8s-0.3,29.9,1.7,30C67,367.4,77,348,77,348L77.7,336.5z"/>
	<path class="st2_party-94" d="M65.1,367.9L65.1,367.9c-0.6,0-0.9-0.7-1-0.9c-1.5-3.6-2.5-28.6-1.2-30.1c0.2-0.2,0.4-0.3,0.7-0.2&#10;&#9;&#9;c0.8,0.2,9.1-0.4,14.1-0.8c0.2,0,0.4,0,0.5,0.2c0.1,0.1,0.2,0.3,0.2,0.5L77.6,348c0,0.1,0,0.2-0.1,0.2&#10;&#9;&#9;C73.8,355.6,67.2,367.9,65.1,367.9z M63.7,337.9c-1.1,3.8,0.5,26.3,1.5,28.7c1.4-1,6.7-10.1,11.1-18.8l0.6-10.6&#10;&#9;&#9;C74,337.4,66,338,63.7,337.9L63.7,337.9z"/>
	<path class="st1_party-94" d="M209.7,246.2c0,0,14.4,6.4,19.1,12.3c4.6,5.9,7.2,12.1,4.4,11.9s-10.3-7.9-10.3-7.9s4.9,9.9,1.4,8.2&#10;&#9;&#9;s-4.4-8.1-5.4-9.2s-11.7-6.6-11.7-6.6"/>
	<path class="st2_party-94" d="M225,271.6c-0.4,0-0.7-0.1-1-0.3c-2.6-1.3-3.8-4.7-4.7-7.2c-0.2-0.7-0.5-1.5-0.9-2.1&#10;&#9;&#9;c-0.7-0.7-7.4-4.4-11.6-6.5c-0.3-0.2-0.5-0.6-0.3-0.9c0.2-0.3,0.6-0.5,0.9-0.3c1.8,0.9,10.9,5.6,11.9,6.8c0.5,0.8,1,1.7,1.2,2.6&#10;&#9;&#9;c0.8,2.3,1.9,5.4,4,6.4l0.2,0.1c0.1-0.9-1-4.1-2.6-7.4c-0.2-0.3-0.1-0.8,0.3-1c0.3-0.2,0.7-0.1,0.9,0.2c2.8,2.9,8,7.6,9.8,7.7&#10;&#9;&#9;c0.3,0,0.3-0.1,0.3-0.1c0.5-0.9-1.1-5.3-5.3-10.7c-4.5-5.7-18.7-12-18.8-12.1c-0.4-0.2-0.5-0.6-0.4-0.9c0.2-0.4,0.6-0.5,0.9-0.4&#10;&#9;&#9;c0.6,0.3,14.7,6.5,19.4,12.5c3.4,4.4,6.6,10.1,5.5,12.2c-0.3,0.6-1,0.9-1.6,0.9c-1.9-0.1-5.6-3.2-8.1-5.5c1,2.5,1.6,4.9,0.8,5.7&#10;&#9;&#9;C225.6,271.5,225.3,271.7,225,271.6z"/>
	<path class="st2_party-94" d="M114.1,265.7l3,60.2c0,0,25-0.5,33.3-5.6l0.8-31.9c0,0,23,15.9,30.2,18.2c0,0,15.9-17.5,18.3-25.4l-40.1-28.7&#10;&#9;&#9;L114.1,265.7z"/>
	<path class="st2_party-94" d="M117,326.5c-0.3,0-0.6-0.3-0.6-0.6l-3-60.2c0-0.3,0.2-0.5,0.4-0.6l45.6-13.2c0.2-0.1,0.4,0,0.5,0.1l40.1,28.7&#10;&#9;&#9;c0.2,0.2,0.3,0.4,0.2,0.7c-2.5,7.9-17.8,24.9-18.4,25.6c-0.2,0.2-0.4,0.2-0.6,0.2c-6.5-2.1-25-14.6-29.5-17.6l-0.7,30.8&#10;&#9;&#9;c0,0.2-0.1,0.4-0.3,0.5C142.3,325.9,118.1,326.5,117,326.5L117,326.5z M114.7,266.2l2.9,59.1c3.8-0.1,24.5-1,32.1-5.4l0.8-31.6&#10;&#9;&#9;c0-0.3,0.3-0.6,0.6-0.6c0.1,0,0.3,0,0.4,0.1c0.2,0.1,22.2,15.3,29.7,18c2.1-2.3,15.2-17.1,17.8-24.4l-39.4-28.3L114.7,266.2z"/>
	<path class="st3_party-94 targetColor" d="M139.6,195.3c0,0-16,0.5-24.1-4.2s-43.7-52.2-43.7-52.2l-15.6,8.6l47.7,79.2c0,0,9,24.8,8.4,42.6&#10;&#9;&#9;c0,0,38-1.2,56.2-11.9l-7.4-28.1c0,0,13.7,15.3,23.2,19s30.6,11.2,30.6,11.2l1.5-14.4c0,0-40.4-22.4-50.4-42.4&#10;&#9;&#9;C159,188.5,139.6,195.3,139.6,195.3z" style="fill: rgb(221, 28, 26);"/>
	<path class="st1_party-94" d="M145.3,178.4c1-3.2,0.7-7.1-1.5-9.6c-1.3-1.4-3.2-2.6-3.4-4.5c0-0.8,0.1-1.6,0.2-2.4c0.3-4-4.1-7.5-7.9-6.3&#10;&#9;&#9;c-1.2,0.4-2.3,1.1-3.5,1.3c-2.2,0.2-4.1-1.4-6.3-1.3c-1.8,0.1-3.3,1.5-4.4,3s-1.9,3.2-3.3,4.4c-3.3,2.9-7.8,4.5-5,10&#10;&#9;&#9;c1,1.7,2.3,3.2,3.8,4.5c0.2,0.2,0.4,0.4,0.5,0.7c0,0.4-0.2,0.8-0.5,1.1c-1.1,1.4-1.5,3.2-1.2,5c0.6,2.3,2.2,2.1,3.8,3.2&#10;&#9;&#9;s2.2,2.8,3.3,4.2c2.5,3.1,7.2,3.6,11,2.2C137.3,191.6,143.2,185,145.3,178.4z"/>
	<path class="st2_party-94" d="M126.7,195.4c-2.8,0.1-5.6-1.1-7.4-3.2c-0.4-0.5-0.8-1-1.1-1.6c-0.5-0.9-1.2-1.8-2.1-2.4&#10;&#9;&#9;c-0.4-0.3-0.8-0.5-1.3-0.7c-1.4-0.4-2.4-1.6-2.8-2.9c-0.4-2,0-4,1.3-5.6c0.1-0.2,0.3-0.4,0.3-0.6c0-0.1-0.2-0.2-0.3-0.3l-0.3-0.3&#10;&#9;&#9;c-1.5-1.3-2.7-2.8-3.7-4.4c-2.5-5,0.4-7.2,3.3-9.4c0.6-0.5,1.3-1,1.9-1.5c0.9-0.9,1.7-1.8,2.3-2.9c0.3-0.5,0.6-0.9,0.9-1.4&#10;&#9;&#9;c1.5-2.1,3.2-3.2,4.9-3.3c1.2,0,2.3,0.2,3.3,0.7c1.5,0.9,3.4,0.8,4.9-0.1c0.5-0.2,0.9-0.4,1.4-0.6c3.8-1,7.6,1.3,8.6,5.1&#10;&#9;&#9;c0.2,0.6,0.2,1.3,0.2,1.9c0,0.3-0.1,0.5-0.1,0.8c-0.1,0.5-0.1,0.9-0.1,1.4c0.1,1.1,1.1,2,2,2.9c0.4,0.4,0.8,0.8,1.2,1.2&#10;&#9;&#9;c2.2,2.5,2.8,6.5,1.6,10.3l0,0c-2.1,6.9-8.4,13.7-14.9,16C129.6,195.1,128.1,195.4,126.7,195.4z M123.1,156.3h-0.2&#10;&#9;&#9;c-1.7,0.1-3,1.6-3.9,2.7c-0.3,0.4-0.6,0.9-0.9,1.3c-0.7,1.2-1.6,2.3-2.6,3.2c-0.6,0.6-1.3,1-2,1.6c-2.8,2.1-4.9,3.7-2.9,7.6&#10;&#9;&#9;c0.9,1.5,2,2.9,3.4,4.1l0.3,0.3c0.3,0.3,0.6,0.7,0.7,1.1c0.1,0.6-0.2,1.2-0.6,1.6c-1,1.2-1.4,2.9-1.1,4.4c0.3,1.3,1,1.6,2,2&#10;&#9;&#9;c0.5,0.2,1,0.5,1.5,0.8c1,0.8,1.8,1.7,2.4,2.8c0.3,0.5,0.6,1,1,1.5c2.5,3,7,3.2,10.2,2c6.1-2.2,12-8.6,14.1-15.1&#10;&#9;&#9;c0.8-2.6,0.9-6.4-1.4-9c-0.3-0.4-0.7-0.8-1.1-1.1c-1.1-1.1-2.3-2.1-2.5-3.8c-0.1-0.6,0-1.2,0.1-1.8c0-0.2,0.1-0.5,0.1-0.7&#10;&#9;&#9;c0-3.1-2.5-5.7-5.6-5.7c-0.5,0-0.9,0.1-1.4,0.2c-0.4,0.1-0.8,0.3-1.2,0.5c-1.8,1.1-4.1,1.1-5.9,0.1&#10;&#9;&#9;C124.8,156.5,124,156.4,123.1,156.3z M145.3,178.4L145.3,178.4z"/>
	<path class="st1_party-94" d="M138.3,189.1l2.5,7.9c0,0,0.1,3.9-5.5,4.4s-7.6-2.9-7.6-2.9l-4.2-14.9c0,0,2.6-3.3-1.4-11.4&#10;&#9;&#9;c0,0,8.9-0.2,16.4-3.8c0,0,3.3,9.5,4,13.8S138.3,189.1,138.3,189.1z"/>
	<path class="st2_party-94" d="M134.2,202.1c-5.2,0-7.1-3.1-7.2-3.3c0-0.1-0.1-0.1-0.1-0.2l-4.2-14.9c-0.1-0.2,0-0.4,0.1-0.6&#10;&#9;&#9;c0,0,2.2-3.2-1.5-10.7c-0.1-0.2-0.1-0.5,0-0.7c0.1-0.2,0.3-0.3,0.6-0.3c0.1,0,8.9-0.2,16.1-3.7c0.2-0.1,0.4-0.1,0.6,0&#10;&#9;&#9;c0.2,0.1,0.3,0.2,0.4,0.4c0.1,0.4,3.3,9.6,4,13.9c0.7,3.9-2.7,6.4-4,7.3l2.4,7.3c0,0.1,0,0.1,0,0.2c0,0,0.1,4.6-6.2,5.1&#10;&#9;&#9;C134.9,202.1,134.5,202.2,134.2,202.1z M128.3,198.2c0.3,0.4,2.2,2.9,6.9,2.5c4.6-0.4,4.9-3.1,4.9-3.6l-2.5-7.8&#10;&#9;&#9;c-0.1-0.3,0-0.7,0.3-0.8c0,0,4.4-2.4,3.8-6.1c-1-4.4-2.2-8.7-3.7-12.9c-4.7,2-9.8,3.2-14.9,3.5c2.9,6.4,1.6,9.8,1.1,10.9&#10;&#9;&#9;L128.3,198.2z"/>
	<path class="st1_party-94" d="M125.8,182.4c-0.4-0.7-1-1.2-1.8-1.4c-0.7-0.2-1.4-0.3-2.1-0.3c-0.4,0-0.8,0-1.2,0.2c-0.3,0.1-0.5,0.3-0.7,0.5&#10;&#9;&#9;c-0.5,0.5-0.8,1.1-0.8,1.7c0,0.5,0.2,1.1,0.4,1.5c0.2,0.5,0.6,1,0.9,1.5c1.6,1.8,4.4,2,6.2,0.4c0,0,0,0,0,0"/>
	<path class="st2_party-94" d="M123.8,188.3h-0.3c-1.4-0.1-2.6-0.7-3.5-1.7c-0.4-0.5-0.7-1-1-1.6c-0.3-0.6-0.5-1.2-0.5-1.9&#10;&#9;&#9;c0.1-0.8,0.4-1.6,1-2.2c0.2-0.3,0.5-0.5,0.9-0.7c0.5-0.2,1-0.3,1.5-0.2c0.8,0,1.6,0.1,2.4,0.4c0.9,0.3,1.6,0.9,2.1,1.7&#10;&#9;&#9;c0.2,0.3,0.1,0.8-0.2,1s-0.8,0.1-1-0.2c-0.3-0.5-0.8-0.9-1.4-1.2c-0.6-0.2-1.3-0.3-1.9-0.3c-0.3,0-0.6,0-0.9,0.1&#10;&#9;&#9;c-0.2,0.1-0.3,0.2-0.4,0.4c-0.4,0.3-0.6,0.8-0.6,1.3c0,0.4,0.1,0.8,0.4,1.2c0.2,0.5,0.5,0.9,0.8,1.3c0.7,0.7,1.6,1.2,2.6,1.2&#10;&#9;&#9;c1,0,1.9-0.3,2.7-1c0.3-0.2,0.8-0.1,1,0.2c0.1,0.2,0.1,0.5,0,0.8C126.4,187.8,125.1,188.3,123.8,188.3z"/>
	<path class="st1_party-94" d="M136.5,176.1c0,0,4.2,3,3.8,4s-2.4,1.1-2.4,1.1"/>
	<path class="st2_party-94" d="M138,181.9c-0.4,0-0.7-0.3-0.7-0.7c0-0.4,0.3-0.7,0.7-0.7c0.6,0,1.2-0.3,1.7-0.6c-1-1.3-2.2-2.3-3.6-3.2&#10;&#9;&#9;c-0.3-0.2-0.4-0.6-0.2-0.9c0,0,0,0,0-0.1c0.2-0.3,0.6-0.4,1-0.2c0,0,0,0,0,0c4.7,3.4,4.2,4.4,4.1,4.8&#10;&#9;&#9;C140.5,181.5,138.5,181.8,138,181.9L138,181.9z M139.7,179.9L139.7,179.9z"/>
	<path class="st1_party-94" d="M130.1,175.3c0.3-1,1.3-1.6,2.3-1.3c0.3,0.1,0.5,0.2,0.7,0.3"/>
	<path class="st2_party-94" d="M130.1,176c-0.1,0-0.2,0-0.2,0c-0.4-0.1-0.6-0.5-0.4-0.9c0.3-0.8,0.9-1.5,1.7-1.8c0.8-0.2,1.7,0,2.4,0.5&#10;&#9;&#9;c0.3,0.2,0.4,0.6,0.2,1c0,0,0,0,0,0c-0.2,0.3-0.6,0.4-1,0.2c0,0,0,0,0,0c-0.3-0.3-0.7-0.4-1.1-0.3c-0.4,0.2-0.7,0.5-0.9,0.9&#10;&#9;&#9;C130.6,175.8,130.3,176,130.1,176z"/>
	<path class="st1_party-94" d="M135.7,173.6c0,0,0.3-1.5,2.6-0.5"/>
	<path class="st2_party-94" d="M135.7,174.3h-0.1c-0.4-0.1-0.6-0.4-0.5-0.8c0.1-0.5,0.4-1,0.9-1.2c0.9-0.4,1.9-0.3,2.7,0.2&#10;&#9;&#9;c0.4,0.1,0.5,0.5,0.4,0.9c-0.1,0.4-0.5,0.5-0.9,0.4c0,0-0.1,0-0.1,0c-0.9-0.4-1.3-0.3-1.5-0.3c-0.1,0-0.2,0.1-0.2,0.2&#10;&#9;&#9;C136.3,174,136.1,174.3,135.7,174.3z"/>
	<path class="st2_party-94" d="M138.3,189.1c0,0-4.1,1.2-6.4,0.7c0,0,3,4.2,7.8,4.1L138.3,189.1z"/>
	<path class="st2_party-94" d="M139.5,194.6c-5,0-8-4.2-8.1-4.4c-0.2-0.3-0.1-0.8,0.2-1c0.2-0.1,0.4-0.2,0.6-0.1c2,0.5,6-0.6,6-0.7&#10;&#9;&#9;c0.4-0.1,0.7,0.1,0.9,0.5c0,0,0,0,0,0l1.5,4.8c0.1,0.4-0.1,0.8-0.5,0.9c-0.1,0-0.1,0-0.2,0L139.5,194.6z M133.6,190.6&#10;&#9;&#9;c1.4,1.4,3.2,2.3,5.2,2.5l-1-3.2C136.4,190.3,135,190.5,133.6,190.6L133.6,190.6z"/>
	<path class="st2_party-94" d="M136.7,185.2c-1.9,0-4.5-0.9-7.1-4.3c-0.2-0.3-0.1-0.8,0.2-1c0.3-0.2,0.7-0.1,0.9,0.1c4.4,5.7,8.3,3.1,8.4,3.1&#10;&#9;&#9;c0.3-0.2,0.8-0.1,1,0.2c0.2,0.3,0.1,0.8-0.2,1C138.9,184.9,137.8,185.2,136.7,185.2z"/>
	<path class="st2_party-94" d="M167.1,254.3c-0.3,0-0.5-0.2-0.6-0.5c-1-4.2-5.7-21.9-9.1-34.8c-2.5-9.3-3.4-12.9-3.4-13.1&#10;&#9;&#9;c-0.1-0.3,0.2-0.7,0.5-0.7c0.3-0.1,0.6,0.2,0.7,0.5c0.1,0.4,1.6,6.2,3.4,13c3.4,12.9,8.1,30.6,9.1,34.8c0.1,0.3-0.1,0.7-0.4,0.8&#10;&#9;&#9;L167.1,254.3z"/>
	<path class="st1_party-94" d="M118.2,281c-0.2,0-0.4-0.1-0.6-0.3c-0.2-0.3-0.2-0.8,0.2-1c0,0,0,0,0,0c2.8-2,3.3-5.3,3.6-6.9&#10;&#9;&#9;c0-0.3,0.1-0.7,0.2-1c0.2-0.3,0.6-0.5,0.9-0.3c0,0,0,0,0.1,0c0.3,0.2,0.5,0.6,0.3,0.9c0,0.1,0,0.3-0.1,0.6&#10;&#9;&#9;c-0.2,1.6-0.8,5.4-4.1,7.8C118.6,280.9,118.4,281,118.2,281z"/>
	<path class="st1_party-94" d="M151.2,289.1L151.2,289.1c-0.4,0-0.7-0.4-0.6-0.7c0,0,0,0,0,0c0.4-5.8-3.7-16.5-3.7-16.6&#10;&#9;&#9;c-0.1-0.4,0-0.8,0.4-0.9c0,0,0,0,0,0c0.4-0.1,0.8,0,0.9,0.4c0,0,0,0,0,0c0.2,0.5,4.3,11.1,3.8,17.2&#10;&#9;&#9;C151.9,288.8,151.6,289.1,151.2,289.1C151.2,289.1,151.2,289.1,151.2,289.1z"/>
	<path class="st1_party-94" d="M170.6,266.5c-3.3,0-6.2-2.5-6.4-2.6c-0.3-0.2-0.4-0.7-0.1-1c0,0,0,0,0,0c0.2-0.3,0.7-0.3,1-0.1c0,0,0,0,0,0&#10;&#9;&#9;c0,0,3.9,3.2,7.1,2c0.3-0.2,0.8,0,0.9,0.3c0.2,0.3,0,0.8-0.3,0.9c0,0-0.1,0-0.1,0C172,266.4,171.3,266.5,170.6,266.5z"/>
</g>
<g id="Character_Female_party-94">
	<path class="st1_party-94" d="M315,120.1c0,0-10.9-19.3-12.7-21.3s-6.6-12.1-7.5-11.9s0.4,4.9,3,11c0,0-5.9,3.6-5.7,6.3s3.4,8.8,8.2,7&#10;&#9;&#9;l7.8,17.3"/>
	<path class="st2_party-94" d="M308.1,129.2c-0.3,0-0.5-0.2-0.6-0.4l-7.5-16.8c-1.5,0.4-3.1,0.1-4.3-0.8c-2.3-1.7-3.8-4.2-4.2-7&#10;&#9;&#9;c-0.2-2.6,4-5.6,5.5-6.6c-1-2.4-3.8-9.2-3-10.9c0.1-0.3,0.4-0.5,0.7-0.5c0.9-0.2,1.5,0.6,4.6,6.3c1.1,2,2.3,4,3.6,5.9&#10;&#9;&#9;c1.8,2,12.4,20.7,12.8,21.4c0.2,0.3,0.1,0.8-0.2,1c0,0,0,0-0.1,0c-0.3,0.2-0.8,0.1-1-0.2c0,0,0,0,0,0c-3-5.4-11.2-19.6-12.6-21.2&#10;&#9;&#9;c-1.4-2-2.7-4-3.7-6.2c-0.9-1.6-2-3.6-2.8-4.7c0.7,3.2,1.8,6.3,3.2,9.2c0.1,0.3,0,0.7-0.3,0.9c-2.1,1.3-5.5,4-5.4,5.7&#10;&#9;&#9;c0.3,2.4,1.6,4.6,3.5,6c1.1,0.7,2.5,0.9,3.7,0.4c0.3-0.1,0.7,0,0.9,0.4l7.8,17.3c0.2,0.4,0,0.8-0.4,0.9&#10;&#9;&#9;C308.2,129.2,308.1,129.2,308.1,129.2z"/>
	<path class="st1_party-94" d="M418.9,238.7c0,0,10,4.9,12.8,6.6s10.5,0.4,11.3-0.9s-6.4-2.2-6.4-2.2s14.8-6.2,13.7-7.7s-14,1.4-14,1.4&#10;&#9;&#9;l-12.1-6.6"/>
	<path class="st2_party-94" d="M435.8,246.8c-1.5,0.1-3.1-0.2-4.5-0.9c-2.7-1.7-12.6-6.5-12.7-6.6c-0.3-0.2-0.5-0.6-0.3-0.9c0,0,0,0,0,0&#10;&#9;&#9;c0.2-0.3,0.6-0.5,0.9-0.3c0,0,0,0,0,0c0.4,0.2,10.1,4.9,12.9,6.6c2.4,1.5,8.9,0.4,10.1-0.5c-1.8-0.7-3.7-1.2-5.7-1.3&#10;&#9;&#9;c-0.4-0.1-0.7-0.4-0.6-0.8c0-0.2,0.2-0.4,0.4-0.5c5.7-2.4,12-5.5,13.2-6.7c-1.5-0.4-7.7,0.5-13.1,1.8c-0.2,0-0.3,0-0.5-0.1&#10;&#9;&#9;l-12.1-6.6c-0.3-0.2-0.5-0.6-0.3-0.9c0,0,0,0,0-0.1c0.2-0.3,0.6-0.5,1-0.3l11.9,6.4c5-1.1,13.2-2.7,14.5-1.1&#10;&#9;&#9;c0.2,0.3,0.3,0.6,0.2,0.9c-0.5,1.7-7.3,4.9-11.9,6.9c2,0.4,4,0.9,4.5,1.8c0.2,0.3,0.2,0.7,0,1c-0.1,0.2-0.5,0.9-2.9,1.5&#10;&#9;&#9;C439.1,246.5,437.5,246.8,435.8,246.8z"/>
	<path class="st1_party-94" d="M337.1,258.9c0,0-7.2,37.3-6.8,41.9s38.3,66.3,38.3,66.3l12.2-11.1l-25.3-61.2l12.4-35.8L337.1,258.9z"/>
	<path class="st2_party-94" d="M368.6,367.8h-0.1c-0.2,0-0.4-0.2-0.5-0.3c-3.9-6.3-38.1-61.9-38.4-66.6s6.5-40.6,6.8-42.1&#10;&#9;&#9;c0.1-0.3,0.4-0.6,0.7-0.6h30.8c0.2,0,0.4,0.1,0.6,0.3c0.1,0.2,0.2,0.4,0.1,0.6l-12.3,35.6l25.2,61c0.1,0.3,0,0.6-0.2,0.8&#10;&#9;&#9;l-12.2,11.1C368.9,367.8,368.8,367.8,368.6,367.8z M337.6,259.6c-0.9,4.7-7,37-6.7,41.2c0.2,3.3,22.6,40.5,37.8,65.2l11.2-10.2&#10;&#9;&#9;L354.9,295c-0.1-0.2-0.1-0.3,0-0.5l12-34.9L337.6,259.6z"/>
	<path class="st2_party-94" d="M380.8,356c0,0,5.7,4.7,5,8.2s-12.2,34-14.3,30.1s-2.9-27.2-2.9-27.2L380.8,356z"/>
	<path class="st2_party-94" d="M371.9,395.3c-0.4,0-0.8-0.3-1-0.7c-2.2-4-2.9-26.5-2.9-27.5c0-0.2,0.1-0.4,0.2-0.5l12.2-11.1&#10;&#9;&#9;c0.2-0.2,0.6-0.2,0.8,0c0.2,0.2,6,4.9,5.2,8.8c-0.5,2.5-10.4,30.4-14.3,30.9H371.9z M369.2,367.4c0.3,8.1,1.2,23.7,2.8,26.7&#10;&#9;&#9;c2.3-0.4,12.3-25.3,13.2-29.9c0.5-2.4-2.7-5.8-4.4-7.3L369.2,367.4z"/>
	<path class="st1_party-94" d="M358.7,258.2c0,0-3.6,37.8-2.7,42.4s44.5,62.3,44.5,62.3l11.1-12.2l-31-58.6l8.9-36.9L358.7,258.2z"/>
	<path class="st2_party-94" d="M400.5,363.6L400.5,363.6c-0.2,0-0.4-0.1-0.5-0.3c-4.5-5.9-43.8-58-44.6-62.6s2.6-41,2.8-42.6&#10;&#9;&#9;c0-0.3,0.3-0.6,0.6-0.6l30.7-3c0.2,0,0.4,0.1,0.6,0.2c0.1,0.2,0.2,0.4,0.1,0.6l-8.8,36.6l30.9,58.3c0.1,0.3,0.1,0.6-0.1,0.8&#10;&#9;&#9;L401,363.4C400.9,363.6,400.7,363.6,400.5,363.6z M359.4,258.9c-0.4,4.8-3.4,37.5-2.7,41.6c0.6,3.2,26.3,38.2,43.9,61.3l10.2-11.2&#10;&#9;&#9;l-30.8-58.1c-0.1-0.1-0.1-0.3-0.1-0.5l8.7-35.9L359.4,258.9z"/>
	<path class="st2_party-94" d="M411.5,350.7c0,0,6.1,4.1,5.8,7.7s-8.9,35-11.4,31.3s-5.5-26.8-5.5-26.8L411.5,350.7z"/>
	<path class="st2_party-94" d="M406.4,390.7c-0.4,0-0.8-0.2-1-0.6c-2.6-3.8-5.4-26.1-5.6-27.1c0-0.2,0-0.4,0.2-0.5l11.1-12.2&#10;&#9;&#9;c0.2-0.2,0.5-0.3,0.8-0.1c0.3,0.2,6.5,4.3,6,8.3c-0.3,2.5-7.5,31.2-11.2,32.1C406.6,390.7,406.5,390.7,406.4,390.7z M401.1,363.2&#10;&#9;&#9;c1,8,3.4,23.5,5.3,26.3c2.2-0.6,9.8-26.4,10.3-31c0.3-2.5-3.2-5.5-5.1-6.8L401.1,363.2z"/>
	<path class="st2_party-94" d="M342.6,223.4l-15,86.3c0,0,33.5-5.6,94.2-5.6c0,0-22-50.2-36.7-76.3L342.6,223.4z"/>
	<path class="st2_party-94" d="M327.6,310.2c-0.2,0-0.3-0.1-0.4-0.2c-0.1-0.1-0.2-0.3-0.2-0.5l15-86.2c0.1-0.3,0.3-0.5,0.7-0.5l42.5,4.3&#10;&#9;&#9;c0.2,0,0.4,0.1,0.5,0.3c14.6,25.9,36.5,75.9,36.8,76.4c0.1,0.2,0.1,0.4,0,0.6c-0.1,0.2-0.3,0.3-0.5,0.3&#10;&#9;&#9;C361.8,304.7,328,310.2,327.6,310.2L327.6,310.2z M343.1,224l-14.8,84.9c5.6-0.8,38.3-5.4,92.5-5.5c-3-6.7-22.6-51.1-36.2-75.1&#10;&#9;&#9;L343.1,224z"/>
	<path class="st1_party-94" d="M356.9,157.2c-1.6-4.6-1.4-9.6,0.5-14.1c1.5-3.1,4-5.6,7.2-6.9c3.6-1.6,7,0.2,10.2,2c2.5,1.4,5.2,2.8,7.1,5&#10;&#9;&#9;c1.4,1.6,2.3,3.6,3.6,5.2c1.9,2.3,4.3,4.2,6.9,5.6c4.7,2.8,9.6,5.1,14.8,6.7c4.4,1.4,9.1,2.4,12.6,5.4c6,5,7,14.5,3.2,21.4&#10;&#9;&#9;s-11.3,11.1-19,12.3s-15.6,0-23.2-2.1c-6.2-1.7-12.6-4-17-8.6c-3.5-3.7-5.5-8.5-5.7-13.5c-0.2-4.2,3.2-10.5,1.8-14.5&#10;&#9;&#9;C359.5,160,357.6,158.7,356.9,157.2z"/>
	<path class="st2_party-94" d="M397.8,201.1c-5.8-0.1-11.5-1-17-2.6c-5.9-1.6-12.6-3.9-17.4-8.8c-3.6-3.8-5.7-8.8-5.9-14&#10;&#9;&#9;c0.1-2.2,0.4-4.3,1.1-6.4c0.7-2.9,1.5-5.9,0.8-7.9c-0.3-0.7-0.8-1.3-1.4-1.8c-0.7-0.6-1.2-1.4-1.7-2.1v-0.1&#10;&#9;&#9;c-1.7-4.8-1.5-10,0.6-14.6c1.5-3.3,4.2-5.9,7.6-7.2c3.9-1.7,7.6,0.2,10.8,2c2.5,1.3,5.2,2.8,7.2,5.1c0.8,0.9,1.5,1.9,2.1,3&#10;&#9;&#9;c0.5,0.8,1,1.6,1.6,2.3c1.9,2.2,4.1,4.1,6.7,5.4c4.6,2.8,9.5,5,14.6,6.6c0.7,0.2,1.5,0.5,2.2,0.7c3.7,1.1,7.6,2.3,10.6,4.8&#10;&#9;&#9;c6,5,7.5,14.7,3.4,22.3c-3.6,6.5-10.9,11.3-19.5,12.7C402.1,201,400,201.1,397.8,201.1z M357.6,157c0.4,0.7,0.9,1.2,1.4,1.8&#10;&#9;&#9;c0.7,0.6,1.2,1.4,1.6,2.2c0.9,2.5,0.1,5.7-0.7,8.8c-0.6,1.9-0.9,3.9-1,5.9c0.2,4.9,2.2,9.5,5.5,13.1c4.5,4.7,11,6.9,16.7,8.4&#10;&#9;&#9;s14.5,3.4,22.9,2c8.2-1.4,15.1-5.8,18.5-12c3.8-7,2.5-16-3-20.5c-2.9-2.4-6.6-3.5-10.2-4.6l-2.2-0.7c-5.2-1.7-10.2-4-15-6.8&#10;&#9;&#9;c-2.7-1.5-5.1-3.4-7-5.8c-0.6-0.8-1.1-1.6-1.7-2.4c-0.6-1-1.3-1.9-2-2.8c-1.8-2.1-4.4-3.5-6.9-4.8c-3.1-1.7-6.3-3.4-9.6-2&#10;&#9;&#9;c-3,1.2-5.5,3.6-6.9,6.5C356.2,147.7,356,152.6,357.6,157z"/>
	<path class="st3_party-94 targetColor" d="M376.4,168c0,0-15.8-5.1-24.1-0.3s-12.1,21.5-11.8,27.1s2.1,28.5,2.1,28.5s21.2,1.6,42.5,4.3l2.8-18.1&#10;&#9;&#9;c0,0-1.3,8.1,8.1,18.7s28.1,16.1,28.1,16.1l7.8-14.1c0,0-15.5-7.5-20.7-16.3S400.7,176.4,376.4,168z" style="fill: rgb(221, 28, 26);"/>
	<path class="st3_party-94 targetColor" d="M366.2,169.3l-50.9-55.2l-12.1,8.5c0,0,28,58.6,41.1,75.5L366.2,169.3z" style="fill: rgb(221, 28, 26);"/>
	<path class="st1_party-94" d="M363.8,169.2l-1.3,7.5c0,0-1.5,4.7,4,4.3c3.3-0.2,6.3-2,8.1-4.6l2.5-14.8c0-0.1-0.8-0.9-0.8-1&#10;&#9;&#9;c-0.6-1.1-0.9-2.3-1-3.5c0-1.9,0.1-3.9,0.4-5.8c-1.7-0.1-3.4-0.5-5-1.3c-1.6-0.9-3.8-4.9-3.8-4.9c-0.8,2.8-7.7,6-7.7,6&#10;&#9;&#9;s-1.5,10.1-1.5,13.2C357.6,168.4,363.8,169.2,363.8,169.2z"/>
	<path class="st2_party-94" d="M365.8,181.6c-1.3,0.1-2.6-0.4-3.5-1.4c-0.7-1.1-0.9-2.5-0.5-3.8l1.2-6.8c-1.7-0.4-6.1-1.7-6.1-5.5&#10;&#9;&#9;c0-3,1.5-12.8,1.5-13.2c0-0.2,0.2-0.4,0.4-0.5c1.8-0.9,6.7-3.5,7.3-5.6c0.1-0.2,0.3-0.4,0.5-0.5c0.3,0,0.5,0.1,0.6,0.3&#10;&#9;&#9;c0.6,1.1,2.3,4,3.5,4.6c1.5,0.7,3.1,1.1,4.8,1.2c0.2,0,0.3,0.1,0.5,0.2c0.1,0.1,0.2,0.3,0.1,0.5c-0.3,1.9-0.4,3.8-0.4,5.6&#10;&#9;&#9;c0.1,1.1,0.4,2.2,0.9,3.2c0,0,0.1,0.1,0.2,0.2c0.6,0.7,0.7,0.9,0.7,1.2c0,0.1-2.5,14.8-2.5,14.8c0,0.1,0,0.2-0.1,0.2&#10;&#9;&#9;c-2,2.9-5.1,4.7-8.6,5L365.8,181.6z M359.7,151.4c-0.3,1.8-1.5,10.1-1.5,12.7c0,3.6,5.6,4.3,5.6,4.3c0.2,0,0.3,0.1,0.4,0.3&#10;&#9;&#9;c0.1,0.1,0.1,0.3,0.1,0.5l-1.4,7.5c-0.3,0.9-0.2,1.9,0.3,2.7c0.5,0.7,1.5,1,3,0.9c3-0.2,5.8-1.8,7.6-4.2&#10;&#9;&#9;c1.8-10.4,2.3-13.5,2.4-14.4l-0.4-0.4l-0.3-0.4c-0.7-1.2-1-2.4-1.1-3.8c0-1.8,0.1-3.5,0.3-5.3c-1.6-0.2-3.2-0.6-4.6-1.3&#10;&#9;&#9;c-1.2-0.7-2.7-2.8-3.5-4.1C365.2,148.7,361,150.8,359.7,151.4z M376.4,161.4L376.4,161.4z"/>
	<path class="st1_party-94" d="M374.1,160.1c0.5-1,1.5-1.7,2.6-1.9c0.6-0.2,1.3-0.1,1.9,0.2c0.6,0.4,1,1,1,1.7c0,0.9-0.2,1.7-0.8,2.4&#10;&#9;&#9;c-1.1,1.7-3.4,2.2-5.1,1.1c0,0,0,0-0.1,0"/>
	<path class="st2_party-94" d="M375.8,164.7c-0.8,0-1.7-0.2-2.4-0.7c-0.3-0.2-0.3-0.5-0.2-0.8c0,0,0,0,0,0c0.2-0.3,0.5-0.3,0.8-0.1&#10;&#9;&#9;c0.7,0.5,1.5,0.6,2.4,0.5c0.8-0.2,1.5-0.7,2-1.4c0.4-0.6,0.6-1.3,0.7-2c0-0.5-0.3-1-0.7-1.3c-0.5-0.2-1-0.3-1.5-0.1&#10;&#9;&#9;c-0.9,0.2-1.8,0.7-2.2,1.6c-0.1,0.3-0.4,0.4-0.7,0.3c0,0,0,0,0,0c-0.3-0.1-0.4-0.4-0.3-0.7c0,0,0,0,0,0c0.6-1.2,1.7-2,3-2.2&#10;&#9;&#9;c0.8-0.2,1.6-0.1,2.4,0.3c0.7,0.5,1.2,1.3,1.3,2.1c0,1-0.3,1.9-0.8,2.7c-0.6,1-1.6,1.6-2.7,1.9&#10;&#9;&#9;C376.4,164.7,376.1,164.8,375.8,164.7z"/>
	<path class="st1_party-94" d="M367.9,154.5c0,0-3.6,3.5-3.1,4.4s2.4,0.8,2.4,0.8"/>
	<path class="st2_party-94" d="M367,160.3c-0.6,0-2.2-0.1-2.7-1.1c-0.2-0.3-0.8-1.3,3.2-5.1c0.3-0.2,0.7-0.2,0.9,0.1c0.2,0.2,0.2,0.6,0,0.8&#10;&#9;&#9;c-1.5,1.5-2.9,3.2-2.9,3.7c0.6,0.3,1.2,0.4,1.8,0.3c0.3,0,0.6,0.2,0.6,0.6c0,0,0,0,0,0c0,0.3-0.2,0.6-0.6,0.6c0,0,0,0,0,0&#10;&#9;&#9;L367,160.3z"/>
	<path class="st2_party-94" d="M364.4,167c-0.6,0-1.2-0.3-1.6-0.7c-1.7-1.4-2.3-3.8-1.5-5.9c0.1-0.2,0.4-0.4,0.6-0.3l6.8,0.8&#10;&#9;&#9;c0.2,0,0.4,0.1,0.5,0.3c0.1,0.2,0.1,0.4,0,0.6c-0.2,0.5-2,4.6-4.4,5.2C364.7,167,364.6,167,364.4,167z M362.3,161.4&#10;&#9;&#9;c-0.4,1.5,0.1,3,1.3,4c0.2,0.3,0.6,0.4,1,0.3c1.1-0.2,2.4-2.1,3.1-3.7L362.3,161.4z"/>
	<path class="st2_party-94" d="M364.9,154.9h-0.1c-0.3-0.1-0.6-0.4-0.5-0.7c0-0.3,0-0.5-0.1-0.7c-0.1-0.1-0.2-0.1-0.3-0.1&#10;&#9;&#9;c-0.8-0.1-1.5,0.9-1.5,0.9c-0.2,0.3-0.6,0.4-0.8,0.2c0,0,0,0,0,0c-0.3-0.2-0.4-0.6-0.2-0.9c0,0,0,0,0,0c0.6-0.9,1.6-1.5,2.6-1.5&#10;&#9;&#9;c0.4,0,0.9,0.3,1.1,0.6c0.3,0.5,0.4,1.1,0.4,1.7C365.4,154.7,365.2,154.9,364.9,154.9z"/>
	<path class="st2_party-94" d="M373,156L373,156c-0.3,0-0.6-0.3-0.6-0.6c0,0,0,0,0,0c0,0,0-1.2-0.8-1.4c-0.3-0.2-0.7,0-0.8,0.3&#10;&#9;&#9;c0,0,0,0.1-0.1,0.1c-0.1,0.3-0.5,0.5-0.8,0.4c-0.3-0.1-0.5-0.5-0.4-0.8c0,0,0,0,0,0c0.3-1,1.4-1.5,2.4-1.2c0,0,0,0,0.1,0&#10;&#9;&#9;c1.1,0.4,1.7,1.5,1.6,2.7C373.6,155.7,373.3,156,373,156z"/>
	<path class="st2_party-94" d="M363.8,169.2c0,0,2.5,0.9,5.8-1.4c-1.1,3-3.6,5.2-6.6,6L363.8,169.2z"/>
	<path class="st2_party-94" d="M362.9,174.4c-0.2,0-0.3-0.1-0.4-0.2c-0.2-0.1-0.2-0.4-0.2-0.6l0.8-4.6c0-0.2,0.1-0.3,0.3-0.4&#10;&#9;&#9;c0.2-0.1,0.3-0.1,0.5-0.1c0.1,0,2.3,0.7,5.3-1.3c0.2-0.2,0.5-0.2,0.7,0c0.2,0.2,0.3,0.5,0.2,0.7c-1.2,3.2-3.8,5.6-7.1,6.4&#10;&#9;&#9;L362.9,174.4z M364.3,169.9l-0.5,2.9c1.8-0.7,3.3-1.9,4.3-3.5C366.9,169.9,365.6,170.1,364.3,169.9z"/>
	<path class="st2_party-94" d="M342,215.5c-0.3,0-0.6-0.2-0.6-0.5c-0.2-1.2-4.4-30.7,6.2-45c0.2-0.3,0.6-0.4,0.9-0.2c0.3,0.2,0.4,0.6,0.2,0.9&#10;&#9;&#9;c0,0,0,0,0,0.1c-10.3,13.9-6,43.8-5.9,44.1c0,0.3-0.2,0.6-0.5,0.7L342,215.5z"/>
	<path class="st1_party-94" d="M388.3,246.8h-0.1c-13.5-2.6-14.7-10-15.2-13.5c0-0.5-0.2-1-0.3-1.4c-0.2-0.3-0.2-0.7,0.1-1&#10;&#9;&#9;c0.3-0.2,0.7-0.2,1,0.1c0,0,0,0,0,0.1c0.3,0.6,0.5,1.3,0.6,2.1c0.5,3.5,1.5,10,14.1,12.4c0.4,0.1,0.6,0.4,0.6,0.8&#10;&#9;&#9;C388.9,246.6,388.6,246.8,388.3,246.8L388.3,246.8z"/>
	<path class="st1_party-94" d="M342.4,246.8c-0.4,0-0.7-0.3-0.7-0.7c0-0.2,0.1-0.4,0.2-0.5c4.2-4.1,5.4-16.3,5.4-16.4c0-0.4,0.4-0.7,0.8-0.6&#10;&#9;&#9;c0.4,0,0.7,0.4,0.6,0.8c0,0.5-1.3,12.8-5.9,17.3C342.7,246.7,342.5,246.8,342.4,246.8z"/>
	<path class="st2_party-94" d="M393.6,225.9c-0.2,0-0.4-0.1-0.5-0.3c-8.6-13.3-8.8-30.3-8.8-30.4c0-0.3,0.3-0.6,0.6-0.6l0,0&#10;&#9;&#9;c0.3,0,0.6,0.3,0.6,0.6c0,0.2,0.1,16.8,8.5,29.8c0.2,0.3,0.2,0.7-0.1,0.9C393.9,225.9,393.8,226,393.6,225.9L393.6,225.9z"/>
</g>
<g id="Party_Ball_party-94">
	<path class="st0_party-94" d="M229.4,110.3c-0.4,0-0.7-0.3-0.7-0.7V93.4c0-0.4,0.3-0.7,0.7-0.7c0.4,0,0.7,0.3,0.7,0.7v16.2&#10;&#9;&#9;C230.1,110,229.7,110.3,229.4,110.3z"/>
	<path class="st0_party-94" d="M195.8,177.6c-0.4,0-0.7-0.3-0.7-0.7v-58.8c0-0.4,0.3-0.7,0.7-0.7c0.4,0,0.7,0.3,0.7,0.7v58.8&#10;&#9;&#9;C196.5,177.3,196.1,177.6,195.8,177.6z"/>
	<path class="st0_party-94" d="M209.2,188.1c-0.4,0-0.7-0.3-0.7-0.7v-79.7c0-0.4,0.3-0.7,0.7-0.7c0.4,0,0.7,0.3,0.7,0.7c0,0,0,0,0,0v79.7&#10;&#9;&#9;C209.9,187.7,209.6,188.1,209.2,188.1z"/>
	<path class="st0_party-94" d="M222.6,192.4c-0.4,0-0.7-0.3-0.7-0.7v-88.3c0-0.4,0.3-0.7,0.7-0.7c0.4,0,0.7,0.3,0.7,0.7v88.2&#10;&#9;&#9;C223.3,192,223,192.4,222.6,192.4C222.6,192.4,222.6,192.4,222.6,192.4z"/>
	<path class="st0_party-94" d="M236.1,192.4c-0.4,0-0.7-0.3-0.7-0.7v-88.3c0-0.4,0.3-0.7,0.7-0.7c0.4,0,0.7,0.3,0.7,0.7v88.2&#10;&#9;&#9;C236.8,192,236.5,192.4,236.1,192.4C236.1,192.4,236.1,192.4,236.1,192.4z"/>
	<path class="st0_party-94" d="M249.5,188.1c-0.4,0-0.7-0.3-0.7-0.7v-79.7c0-0.4,0.3-0.7,0.7-0.7c0.4,0,0.7,0.3,0.7,0.7v79.7&#10;&#9;&#9;C250.2,187.7,249.9,188.1,249.5,188.1z"/>
	<path class="st0_party-94" d="M263,177.6c-0.4,0-0.7-0.3-0.7-0.7v-58.8c0-0.4,0.3-0.7,0.7-0.7c0.4,0,0.7,0.3,0.7,0.7c0,0,0,0,0,0v58.8&#10;&#9;&#9;C263.7,177.3,263.4,177.6,263,177.6z"/>
	<path class="st0_party-94" d="M258.7,114.6H200c-0.4,0-0.7-0.3-0.7-0.7c0-0.4,0.3-0.7,0.7-0.7h58.8c0.4,0,0.7,0.3,0.7,0.7&#10;&#9;&#9;C259.5,114.3,259.2,114.6,258.7,114.6L258.7,114.6z"/>
	<path class="st0_party-94" d="M269.2,128.1h-79.7c-0.4,0-0.7-0.3-0.7-0.7c0-0.4,0.3-0.7,0.7-0.7h79.7c0.4,0,0.7,0.3,0.7,0.7&#10;&#9;&#9;C269.9,127.8,269.6,128.1,269.2,128.1z"/>
	<path class="st0_party-94" d="M273.5,141.5h-88.2c-0.4,0-0.7-0.3-0.7-0.7c0-0.4,0.3-0.7,0.7-0.7c0,0,0,0,0,0h88.2c0.4,0,0.7,0.3,0.7,0.7&#10;&#9;&#9;S273.9,141.5,273.5,141.5C273.5,141.5,273.5,141.5,273.5,141.5z"/>
	<path class="st0_party-94" d="M273.5,154.9h-88.2c-0.4,0-0.7-0.3-0.7-0.7c0-0.4,0.3-0.7,0.7-0.7c0,0,0,0,0,0h88.2c0.4,0,0.7,0.3,0.7,0.7&#10;&#9;&#9;S273.9,154.9,273.5,154.9C273.5,154.9,273.5,154.9,273.5,154.9z"/>
	<path class="st0_party-94" d="M269.2,168.4h-79.7c-0.4,0-0.7-0.3-0.7-0.7c0-0.4,0.3-0.7,0.7-0.7c0,0,0,0,0,0h79.7c0.4,0,0.7,0.3,0.7,0.7&#10;&#9;&#9;S269.6,168.4,269.2,168.4C269.2,168.4,269.2,168.4,269.2,168.4z"/>
	<path class="st0_party-94" d="M258.7,181.8H200c-0.4,0-0.7-0.3-0.7-0.7c0-0.4,0.3-0.7,0.7-0.7c0,0,0,0,0,0h58.8c0.4,0,0.7,0.3,0.7,0.7&#10;&#9;&#9;S259.2,181.8,258.7,181.8C258.8,181.8,258.8,181.8,258.7,181.8L258.7,181.8z"/>
	<path class="st1_party-94" d="M274,147.5c0,2.2-0.2,4.5-0.5,6.7c-0.7,4.7-2.1,9.2-4.3,13.4c-1.7,3.3-3.8,6.4-6.2,9.2&#10;&#9;&#9;c-1.3,1.5-2.7,2.9-4.2,4.2c-6.4,5.6-14.3,9.3-22.7,10.5c-9.2,1.4-18.6-0.1-26.9-4.3c-8.5-4.3-15.4-11.2-19.7-19.7&#10;&#9;&#9;c-8.2-16.2-5.8-35.8,6.2-49.5c3.8-4.3,8.3-7.9,13.4-10.4c16.2-8.2,35.8-5.8,49.5,6.2c1.5,1.3,2.9,2.7,4.2,4.2&#10;&#9;&#9;c2.5,2.8,4.6,5.9,6.2,9.2c2.1,4.2,3.6,8.8,4.3,13.4C273.8,143,274,145.3,274,147.5z"/>
	<path class="st0_party-94" d="M229.4,192.9c-2.3,0-4.6-0.2-6.8-0.5c-4.8-0.7-9.4-2.2-13.6-4.3c-8.6-4.4-15.6-11.4-20-20&#10;&#9;&#9;c-8.4-16.5-5.9-36.4,6.3-50.3c1.3-1.5,2.8-2.9,4.3-4.3c2.8-2.5,6-4.6,9.4-6.3c4.3-2.2,8.9-3.6,13.6-4.4c4.5-0.7,9.1-0.7,13.6,0&#10;&#9;&#9;c8.5,1.3,16.5,5,23,10.7c1.5,1.3,2.9,2.8,4.3,4.3c2.5,2.9,4.6,6,6.3,9.4c3.2,6.3,4.9,13.4,4.9,20.5c0,2.3-0.2,4.6-0.5,6.8&#10;&#9;&#9;c-0.7,4.8-2.1,9.4-4.3,13.6c-1.7,3.4-3.8,6.5-6.3,9.4c-1.3,1.5-2.8,2.9-4.3,4.3C250.9,188.9,240.3,192.9,229.4,192.9z M229.4,103.6&#10;&#9;&#9;c-6.9,0-13.7,1.6-19.8,4.7c-8.3,4.2-15.1,11-19.4,19.4c-2.1,4.2-3.5,8.6-4.2,13.2c-0.7,4.4-0.7,8.8,0,13.2&#10;&#9;&#9;c0.7,4.6,2.1,9.1,4.2,13.2c1.7,3.3,3.7,6.3,6.1,9.1c1.3,1.5,2.7,2.8,4.1,4.1c2.8,2.4,5.8,4.5,9.1,6.1c4.2,2.1,8.6,3.6,13.2,4.3&#10;&#9;&#9;c4.4,0.7,8.9,0.7,13.3,0c8.3-1.3,16-4.9,22.3-10.4c1.5-1.3,2.9-2.7,4.1-4.1c2.4-2.8,4.5-5.8,6.1-9.1c6.3-12.5,6.3-27.2,0-39.7&#10;&#9;&#9;c-1.7-3.3-3.7-6.3-6.1-9.1c-1.3-1.5-2.7-2.9-4.1-4.2C250.3,107.5,240,103.6,229.4,103.6L229.4,103.6z"/>
	<path class="st0_party-94" d="M195.8,177.6c-0.4,0-0.7-0.3-0.7-0.7v-58.8c0-0.4,0.3-0.7,0.7-0.7c0.4,0,0.7,0.3,0.7,0.7v58.8&#10;&#9;&#9;C196.5,177.3,196.1,177.6,195.8,177.6z"/>
	<path class="st0_party-94" d="M209.2,188.1c-0.4,0-0.7-0.3-0.7-0.7v-79.7c0-0.4,0.3-0.7,0.7-0.7c0.4,0,0.7,0.3,0.7,0.7c0,0,0,0,0,0v79.7&#10;&#9;&#9;C209.9,187.7,209.6,188.1,209.2,188.1z"/>
	<path class="st0_party-94" d="M222.6,192.4c-0.4,0-0.7-0.3-0.7-0.7v-88.3c0-0.4,0.3-0.7,0.7-0.7c0.4,0,0.7,0.3,0.7,0.7v88.2&#10;&#9;&#9;C223.3,192,223,192.4,222.6,192.4C222.6,192.4,222.6,192.4,222.6,192.4z"/>
	<path class="st0_party-94" d="M236.1,192.4c-0.4,0-0.7-0.3-0.7-0.7v-88.3c0-0.4,0.3-0.7,0.7-0.7c0.4,0,0.7,0.3,0.7,0.7v88.2&#10;&#9;&#9;C236.8,192,236.5,192.4,236.1,192.4C236.1,192.4,236.1,192.4,236.1,192.4z"/>
	<path class="st0_party-94" d="M249.5,188.1c-0.4,0-0.7-0.3-0.7-0.7v-79.7c0-0.4,0.3-0.7,0.7-0.7c0.4,0,0.7,0.3,0.7,0.7v79.7&#10;&#9;&#9;C250.2,187.7,249.9,188.1,249.5,188.1z"/>
	<path class="st0_party-94" d="M263,177.6c-0.4,0-0.7-0.3-0.7-0.7v-58.8c0-0.4,0.3-0.7,0.7-0.7c0.4,0,0.7,0.3,0.7,0.7c0,0,0,0,0,0v58.8&#10;&#9;&#9;C263.7,177.3,263.4,177.6,263,177.6z"/>
	<path class="st0_party-94" d="M258.7,114.6H200c-0.4,0-0.7-0.3-0.7-0.7c0-0.4,0.3-0.7,0.7-0.7h58.8c0.4,0,0.7,0.3,0.7,0.7&#10;&#9;&#9;C259.5,114.3,259.2,114.6,258.7,114.6L258.7,114.6z"/>
	<path class="st0_party-94" d="M269.2,128.1h-79.7c-0.4,0-0.7-0.3-0.7-0.7c0-0.4,0.3-0.7,0.7-0.7h79.7c0.4,0,0.7,0.3,0.7,0.7&#10;&#9;&#9;C269.9,127.8,269.6,128.1,269.2,128.1z"/>
	<path class="st0_party-94" d="M273.5,141.5h-88.2c-0.4,0-0.7-0.3-0.7-0.7c0-0.4,0.3-0.7,0.7-0.7c0,0,0,0,0,0h88.2c0.4,0,0.7,0.3,0.7,0.7&#10;&#9;&#9;S273.9,141.5,273.5,141.5C273.5,141.5,273.5,141.5,273.5,141.5z"/>
	<path class="st0_party-94" d="M273.5,154.9h-88.2c-0.4,0-0.7-0.3-0.7-0.7c0-0.4,0.3-0.7,0.7-0.7c0,0,0,0,0,0h88.2c0.4,0,0.7,0.3,0.7,0.7&#10;&#9;&#9;S273.9,154.9,273.5,154.9C273.5,154.9,273.5,154.9,273.5,154.9z"/>
	<path class="st0_party-94" d="M269.2,168.4h-79.7c-0.4,0-0.7-0.3-0.7-0.7c0-0.4,0.3-0.7,0.7-0.7c0,0,0,0,0,0h79.7c0.4,0,0.7,0.3,0.7,0.7&#10;&#9;&#9;S269.6,168.4,269.2,168.4C269.2,168.4,269.2,168.4,269.2,168.4z"/>
	<path class="st0_party-94" d="M258.7,181.8H200c-0.4,0-0.7-0.3-0.7-0.7c0-0.4,0.3-0.7,0.7-0.7c0,0,0,0,0,0h58.8c0.4,0,0.7,0.3,0.7,0.7&#10;&#9;&#9;S259.2,181.8,258.7,181.8C258.8,181.8,258.8,181.8,258.7,181.8L258.7,181.8z"/>
	<rect x="222.6" y="140.8" class="st0_party-94" width="13.4" height="13.4"/>
	<path class="st0_party-94" d="M236.1,154.9h-13.4c-0.4,0-0.7-0.3-0.7-0.7v-13.4c0-0.4,0.3-0.7,0.7-0.7h13.4c0.4,0,0.7,0.3,0.7,0.7v13.4&#10;&#9;&#9;C236.8,154.6,236.5,154.9,236.1,154.9C236.1,154.9,236.1,154.9,236.1,154.9z M223.3,153.5h12v-12h-12V153.5z"/>
	<rect x="236.1" y="154.2" class="st0_party-94" width="13.4" height="13.4"/>
	<path class="st0_party-94" d="M249.5,168.4h-13.4c-0.4,0-0.7-0.3-0.7-0.7v-13.4c0-0.4,0.3-0.7,0.7-0.7h13.4c0.4,0,0.7,0.3,0.7,0.7v13.4&#10;&#9;&#9;C250.2,168.1,249.9,168.4,249.5,168.4C249.5,168.4,249.5,168.4,249.5,168.4z M236.8,167h12v-12h-12V167z"/>
	<rect x="195.8" y="126.9" class="st0_party-94" width="13.4" height="13.4"/>
	<path class="st0_party-94" d="M209.2,141h-13.4c-0.4,0-0.7-0.3-0.7-0.7v-13.4c0-0.4,0.3-0.7,0.7-0.7h13.4c0.4,0,0.7,0.3,0.7,0.7v13.4&#10;&#9;&#9;C209.9,140.7,209.6,141,209.2,141z M196.5,139.6h12v-12h-12V139.6z"/>
	<rect x="236.1" y="113.9" class="st0_party-94" width="13.4" height="13.4"/>
	<path class="st0_party-94" d="M249.5,128.1h-13.4c-0.4,0-0.7-0.3-0.7-0.7v-13.4c0-0.4,0.3-0.7,0.7-0.7h13.4c0.4,0,0.7,0.3,0.7,0.7v13.4&#10;&#9;&#9;C250.2,127.8,249.9,128.1,249.5,128.1L249.5,128.1z M236.8,126.7h12v-12h-12V126.7z"/>
	<rect x="249.5" y="140.8" class="st0_party-94" width="13.4" height="13.4"/>
	<path class="st0_party-94" d="M263,154.9h-13.5c-0.4,0-0.7-0.3-0.7-0.7v-13.4c0-0.4,0.3-0.7,0.7-0.7H263c0.4,0,0.7,0.3,0.7,0.7c0,0,0,0,0,0&#10;&#9;&#9;v13.4C263.7,154.6,263.4,154.9,263,154.9L263,154.9z M250.3,153.5h12v-12h-12L250.3,153.5z"/>
	<rect x="209.2" y="167.7" class="st0_party-94" width="13.4" height="13.4"/>
	<path class="st0_party-94" d="M222.6,181.8h-13.4c-0.4,0-0.7-0.3-0.7-0.7v-13.4c0-0.4,0.3-0.7,0.7-0.7h13.4c0.4,0,0.7,0.3,0.7,0.7v13.4&#10;&#9;&#9;C223.3,181.5,223,181.8,222.6,181.8C222.6,181.8,222.6,181.8,222.6,181.8z M209.9,180.4h12v-12h-12V180.4z"/>
	<path class="st0_party-94" d="M236.1,94.1h-13.4c-0.4,0-0.7-0.3-0.7-0.7c0-0.4,0.3-0.7,0.7-0.7h13.4c0.4,0,0.7,0.3,0.7,0.7&#10;&#9;&#9;C236.8,93.7,236.5,94.1,236.1,94.1L236.1,94.1z"/>
	<path class="st0_party-94" d="M177,120.7c-0.1,0-0.3,0-0.4-0.1c-4.2-2.6-8.5-4.9-13-6.9c-0.3-0.2-0.5-0.6-0.4-0.9c0.2-0.4,0.6-0.5,0.9-0.4&#10;&#9;&#9;c0,0,0,0,0,0c4.5,2.1,8.9,4.4,13.2,7c0.3,0.2,0.5,0.6,0.3,0.9c0,0,0,0,0,0.1C177.5,120.6,177.2,120.8,177,120.7z"/>
	<path class="st0_party-94" d="M282.2,190.7c-0.2,0-0.4-0.1-0.5-0.3l-8.3-10.6c-0.2-0.3-0.2-0.7,0.1-1c0,0,0,0,0,0c0.3-0.2,0.7-0.2,1,0.1&#10;&#9;&#9;c0,0,0,0,0,0l8.3,10.6c0.2,0.3,0.2,0.7-0.1,1C282.6,190.6,282.4,190.7,282.2,190.7L282.2,190.7z"/>
	<path class="st0_party-94" d="M285.8,144.4c-0.4,0-0.7-0.3-0.7-0.7c0-0.3,0.2-0.6,0.5-0.7l9.5-2.9c0.4-0.1,0.8,0.1,0.9,0.5c0,0,0,0,0,0&#10;&#9;&#9;c0.1,0.4-0.1,0.8-0.5,0.9l-9.5,2.9C285.9,144.4,285.9,144.4,285.8,144.4z"/>
	<path class="st0_party-94" d="M192.4,201.6c-0.2,0-0.3-0.1-0.4-0.1c-0.3-0.2-0.3-0.7-0.1-1c0,0,0,0,0,0l7.6-9.3c0.2-0.3,0.6-0.4,1-0.2&#10;&#9;&#9;c0.3,0.2,0.4,0.6,0.2,1c0,0-0.1,0.1-0.1,0.1l-7.6,9.3C192.8,201.5,192.6,201.6,192.4,201.6z"/>
	<path class="st0_party-94" d="M173.4,168.6c-0.3,0-0.6-0.2-0.7-0.4c-0.1-0.4,0.1-0.8,0.4-0.9l8.4-3.2c0.4-0.1,0.8,0.1,0.9,0.4&#10;&#9;&#9;c0.1,0.4-0.1,0.8-0.4,0.9l-8.4,3.2C173.5,168.6,173.4,168.6,173.4,168.6z"/>
</g>
</svg>