<svg version="1.1" id="Layer_1" xmlns="http://www.w3.org/2000/svg" xmlns:xlink="http://www.w3.org/1999/xlink" x="0px" y="0px" viewBox="0 0 500 500" style="width: 144px;" xml:space="preserve" data-imageid="daenerys-targaryen-93" imageName="Daenerys Targaryen" class="illustrations_image">
<style type="text/css">
	.st0_daenerys-targaryen-93{fill:#FFFFFF;}
	.st1_daenerys-targaryen-93{fill:#231F20;}
	.st2_daenerys-targaryen-93{fill:#D1D3D4;}
	.st3_daenerys-targaryen-93{fill:#68E1FD;}
</style>
<g id="Frame_and_Background_daenerys-targaryen-93">
	<rect x="31.1" y="104.4" class="st0_daenerys-targaryen-93" width="437.8" height="291.2"/>
	<path class="st1_daenerys-targaryen-93" d="M468.9,104.4v291.2H31.1V104.4H468.9 M468.9,103H31.1c-0.8,0-1.4,0.6-1.4,1.4l0,0v291.2c0,0.8,0.6,1.4,1.4,1.4&#10;&#9;&#9;h437.8c0.8,0,1.4-0.6,1.4-1.4V104.4C470.3,103.6,469.7,103,468.9,103z"/>
	<path class="st2_daenerys-targaryen-93" d="M113.7,231.5c0,0-2.4,0.1-2.7,0.7c-0.8,1.5-1.8,2.8-3,4c-1.7,1.5-3.7,2.7-5.9,3.5c-1.8,0.4-3.8,1.6-7.3,0&#10;&#9;&#9;c1.1,1,2.5,1.6,4,1.5c1.6,0,3.1-0.3,4.6-1c-0.6,1.7-1.5,3.3-2.7,4.6c-1.7,1.5-3.1,3-3.1,3s5.7-2.2,7.9-4.6c1.2-1.2,2.1-2.6,2.6-4.1&#10;&#9;&#9;l2.3-0.5c0,2.7,0.2,5.5,0.6,8.2c0.2,1.5,0.8,2.9,1.7,4.1c0,0,2.4,6.6,2.3,6.3s-1.2-7.1-1.5-8.9s-1.5-10.4-1.4-11.9&#10;&#9;&#9;s-0.1-2.8,0.8-3.9L113.7,231.5z"/>
	<path class="st2_daenerys-targaryen-93" d="M69.6,282.8c-1,0.8-2,1.6-2.9,2.6c-1,1.2-1.5,2.9-2.4,2.2s-1.5-4.5-7-4.8c-3.4-0.1-6.8,0.7-9.7,2.5&#10;&#9;&#9;c0,0,6.8-1,9.7,0s4.8,1.4,4.8,2.5c-0.2,1.1-0.8,2-1.7,2.6c-0.7,0.5-1,2.7-0.5,1.4s3.6-1.9,5.3-2.6s4.3-1.1,3.4-1.7&#10;&#9;&#9;c-0.6-0.3-1.3-0.3-1.8,0C67.2,285.6,68.2,284,69.6,282.8z"/>
	<path class="st2_daenerys-targaryen-93" d="M380.9,393.9c-0.3,0-0.6-0.2-0.7-0.6c-0.1-0.6-12.9-62.7-24.9-124.1c-24.3-125-21.6-125.7-20.2-126&#10;&#9;&#9;c4.8-1.2,24.3-3.9,28.8,1.8c4,5,16.3,6.3,26,4.7c10.2-1.8,76.1,1.8,78.9,2c0.4,0,0.7,0.3,0.7,0.7c0,0,0,0,0,0&#10;&#9;&#9;c0,0.4-0.3,0.7-0.6,0.7c0,0-0.1,0-0.1,0c-0.7,0-68.5-3.7-78.6-2s-22.9,0.5-27.3-5.2c-3.6-4.5-20.5-3-27.2-1.4&#10;&#9;&#9;c-2.5,7.1,26,152.2,45.9,248.6c0.1,0.4-0.2,0.7-0.5,0.8L380.9,393.9z"/>
	<path class="st2_daenerys-targaryen-93" d="M79.2,395.8h-0.2c-0.4-0.1-0.6-0.4-0.5-0.8c0,0,0,0,0,0l10.3-45.2c0.5-2,1.1-4.8,3.1-6.5&#10;&#9;&#9;c1.6-1.1,3.4-1.8,5.3-1.9c1-0.2,2-0.4,2.9-0.7c6.6-2.4,7.9-11.2,8.3-17.7l1.1-17.8c0.1-1.6,0.2-3.9,1.6-5.5&#10;&#9;&#9;c1.2-1.1,2.7-1.9,4.3-2.2l18.8-5.5c2.6-0.7,4.8-1.5,6.2-3.2s1.7-4.1,1.8-6.8c0-25.1,2.7-51,5.6-75.1c0.1-0.7,0.1-1.3,20.3-6.2&#10;&#9;&#9;c10.2-2.5,20.7-4.8,22.6-5.1c11.5-1.8,23.3-3.9,34.6-5.9c5.5-1,10.9-1.9,16.4-2.9c21.3-3.7,42.1-7.2,62.8-10.2&#10;&#9;&#9;c0.6-0.1,1.8-0.3,3.4-0.6c15.5-3.1,26.2-4.5,28-1.6c0.2,0.3,0.1,0.7-0.2,1c0,0,0,0-0.1,0c-0.3,0.2-0.8,0.1-0.9-0.2c0,0,0,0,0,0&#10;&#9;&#9;c-1-1.7-10-1-26.5,2.3c-1.6,0.3-2.9,0.6-3.5,0.6c-20.7,3-41.5,6.5-62.8,10.2c-5.5,0.9-10.9,1.9-16.4,2.9c-11.4,2-23.1,4.1-34.7,5.9&#10;&#9;&#9;c-4.6,0.7-38.7,8.8-41.8,10.4c-2.9,24-5.5,49.7-5.5,74.7c-0.2,3-0.5,5.6-2.1,7.7s-4.6,3-6.9,3.7l-18.8,5.5&#10;&#9;&#9;c-1.4,0.3-2.6,0.9-3.7,1.8c-1,1.1-1.2,2.8-1.3,4.6l-1.2,17.7c-0.4,6.9-1.8,16.3-9.2,18.9c-1,0.3-2.1,0.6-3.1,0.8&#10;&#9;&#9;c-1.7,0.1-3.2,0.7-4.6,1.6c-1.5,1.3-2.1,3.4-2.7,5.7l-10.3,45.2C79.8,395.6,79.5,395.8,79.2,395.8z"/>
	<path class="st2_daenerys-targaryen-93" d="M154.6,211.4c-0.4,0-0.7-0.3-0.7-0.7c0-0.3,0.3-0.6,0.6-0.7l180.7-25.8c0.4-0.1,0.7,0.2,0.8,0.6&#10;&#9;&#9;c0.1,0.4-0.2,0.7-0.6,0.8L154.6,211.4L154.6,211.4z"/>
	<path class="st2_daenerys-targaryen-93" d="M106,157.6c0,0,3.1-3.8,3.8-6c0.6-1.5,0.6-3.2,0-4.8c-0.5-1.1-0.6-3.4,0.5-3.4c1.8,0.3,3.3,1.6,4,3.2&#10;&#9;&#9;c0.5,1.7,1.1,3.8,0,5.5s-4,6.3-3.2,7.8s12.8,7.5,22,8.1c6.8,0.3,13.4,2.8,18.8,7.1c4.1,3.1,9.4,13.7,8.9,17.1&#10;&#9;&#9;c0,0-12.3-12.9-19.4-12.9c-4.5,0-8.9,0.6-13.2,1.7c0,0-1.4-3.7-6-2.8s-10.3,2.8-10.3,2.8s1.2-4.3-1.8-7.1c-1.9-1.7-4.3-2.9-6.8-3.4&#10;&#9;&#9;c0,1.5-0.4,3-0.9,4.4c-0.9,2.2-3.2,3.5-3.3,4.3c-0.1,0.6-0.1,1.1,0,1.7c0.5,0.7,0.6,1.6,0.4,2.4c-0.3,1.5-1.2,3.1-1.5,2.4&#10;&#9;&#9;c-0.5-2-0.6-4-0.5-6c0.2-0.8,2.5-3.4,2.5-4.4c0-0.6-0.4-1.1-0.9-1.4c0,0-5.5,8.5-8,13s-3.6,7.8-9.4,9.2s-10.9-0.8-15.1-2.1&#10;&#9;&#9;c0,0,12.8,2.6,17.1-1.1s11.9-20.4,12.1-21.1c0.2-1.5,0.2-2.9,0.2-4.4c-0.2-0.5-4.6-6.1-9.2-5.5s-6.4,1.7-6.4,1.7s0.5-9.2-1.9-12.1&#10;&#9;&#9;c-1.7-1.9-4-3.2-6.5-3.7c0,0-1.2-10.2-5.4-13.8s-10.7-9.3-17.6-9.8c0,0,5.7-1.5,17.5,2.8c11.8,4.4,21.7,17.2,25.9,20.8&#10;&#9;&#9;s7.9,8.3,9.7,9.2C103.3,157.6,104.7,157.8,106,157.6z"/>
	<path class="st2_daenerys-targaryen-93" d="M465.9,186.4c-0.1,0-0.1,0-0.2,0l-22.8-6.1c-4.1-1.2-8.2-2.1-12.4-2.8c-4.2-0.5-8.4-0.8-12.6-0.8l-31.6-0.8&#10;&#9;&#9;c-5.6-0.1-11.9-0.3-17.3-2.9c-3.9-1.9-7-4.9-10.1-7.9l-1.1-1.1c-5.3-5-10.9-9.7-16.8-13.9c-0.3-0.2-0.4-0.6-0.2-1&#10;&#9;&#9;c0.2-0.3,0.6-0.4,1-0.2c0,0,0.1,0,0.1,0.1c6,4.3,11.7,9,17,14.1l1.1,1.1c3,2.9,6.1,5.8,9.7,7.6c5.2,2.5,11.3,2.7,16.8,2.8l31.6,0.7&#10;&#9;&#9;c4.2,0,8.5,0.3,12.7,0.8c4.2,0.7,8.4,1.7,12.5,2.9l22.8,6c0.4,0.1,0.6,0.5,0.5,0.8c0,0,0,0,0,0&#10;&#9;&#9;C466.5,186.2,466.2,186.4,465.9,186.4z"/>
	<path class="st2_daenerys-targaryen-93" d="M402.4,343.4c-0.3,0-0.6-0.2-0.7-0.5c-12.9-48.5-21.8-98-26.6-148c0-0.4,0.2-0.7,0.6-0.8c0,0,0,0,0,0&#10;&#9;&#9;c0.4,0,0.7,0.2,0.8,0.6c4.8,49.9,13.7,99.3,26.6,147.8c0.1,0.4-0.1,0.8-0.5,0.9L402.4,343.4z"/>
	<path class="st2_daenerys-targaryen-93" d="M355.3,364.6c-0.4,0-0.7-0.3-0.7-0.6c-4.7-37.7-9.1-76-13.1-113.7c-0.1-0.4,0.2-0.7,0.6-0.8s0.7,0.2,0.8,0.6&#10;&#9;&#9;c0,0,0,0,0,0.1c4,37.8,8.4,76,13.1,113.7C356.1,364.2,355.8,364.5,355.3,364.6C355.4,364.6,355.4,364.6,355.3,364.6L355.3,364.6z"/>
	<path class="st0_daenerys-targaryen-93" d="M396.5,165.4c-4.9-11.4-9.2-23-13.1-34.8c1.4-0.5,2.8,0.6,3.9,1.6l34.6,31.9"/>
	<path class="st2_daenerys-targaryen-93" d="M396.5,166.1c-0.3,0-0.5-0.2-0.6-0.4c-4.9-11.4-9.3-23.1-13.1-34.9c-0.1-0.4,0.1-0.8,0.4-0.9&#10;&#9;&#9;c1.7-0.6,3.4,0.6,4.6,1.7l34.5,31.8c0.3,0.3,0.3,0.7,0,1c-0.3,0.3-0.7,0.3-1,0c0,0,0,0,0,0l-34.5-31.8c-0.7-0.7-1.5-1.2-2.5-1.5&#10;&#9;&#9;c3.7,11.4,8,22.9,12.8,33.9c0.2,0.3,0,0.8-0.3,0.9c0,0,0,0,0,0C396.7,166,396.6,166.1,396.5,166.1z"/>
	<path class="st0_daenerys-targaryen-93" d="M443.1,158.1l5.6-27.5c3.2,2.4,3.9,6.9,4.3,10.9l1.4,13.8c0.2,2.4,1.5,5.6,3.9,5.1"/>
	<path class="st2_daenerys-targaryen-93" d="M457.9,161c-0.6,0-1.2-0.2-1.7-0.6c-1.5-1.1-2.2-3.4-2.4-5.2l-1.4-13.8c-0.4-3.6-0.9-7.3-3.2-9.6l-5.3,26.4&#10;&#9;&#9;c-0.1,0.4-0.4,0.6-0.8,0.6c-0.4-0.1-0.6-0.5-0.5-0.8c0,0,0,0,0,0l5.5-27.5c0-0.2,0.2-0.4,0.4-0.5c0.2-0.1,0.5,0,0.7,0.1&#10;&#9;&#9;c3.4,2.5,4.2,7.2,4.6,11.4l1.4,13.8c0.2,1.6,0.8,3.5,1.8,4.3c0.3,0.3,0.8,0.4,1.2,0.3c0.4-0.1,0.7,0.2,0.8,0.6&#10;&#9;&#9;c0.1,0.4-0.2,0.7-0.5,0.8C458.3,161,458.1,161,457.9,161z"/>
	<path class="st2_daenerys-targaryen-93" d="M326.6,268c-0.3,0-0.6-0.2-0.7-0.5c-5-19-9.1-38.2-12-57.6c0-0.4,0.3-0.7,0.6-0.8c0.3,0,0.7,0.2,0.7,0.5&#10;&#9;&#9;c3,19.3,7,38.5,12,57.4c0.1,0.4-0.1,0.8-0.5,0.9C326.7,268,326.6,268,326.6,268z"/>
	<path class="st2_daenerys-targaryen-93" d="M442.5,391.5c-0.3,0-0.6-0.3-0.7-0.6c-5.1-34.1-4.9-68.7,0.4-102.8c0.1-0.4,0.4-0.6,0.8-0.6&#10;&#9;&#9;c0.4,0.1,0.6,0.4,0.6,0.8c0,0,0,0,0,0c-5.3,33.9-5.5,68.4-0.4,102.4c0.1,0.4-0.2,0.7-0.6,0.8C442.6,391.5,442.6,391.5,442.5,391.5&#10;&#9;&#9;L442.5,391.5z"/>
	<path class="st2_daenerys-targaryen-93" d="M416.1,261.9c-0.3,0-0.6-0.2-0.7-0.5c-2.8-11.1-2.6-22.8-2.4-34c0.2-7.2,0.1-14.4-0.4-21.6&#10;&#9;&#9;c0-0.4,0.2-0.7,0.6-0.8c0,0,0,0,0,0c0.4,0,0.7,0.2,0.8,0.6c0.5,7.3,0.6,14.5,0.4,21.8c-0.2,11.2-0.4,22.7,2.4,33.7&#10;&#9;&#9;c0.1,0.4-0.1,0.8-0.5,0.9L416.1,261.9z"/>
	<path class="st2_daenerys-targaryen-93" d="M35.6,378.1c-0.4,0-0.7-0.3-0.7-0.6c0-0.4,0.3-0.7,0.6-0.7c0,0,0,0,0,0l45.9-3.3c0.4-0.1,0.7,0.2,0.8,0.6&#10;&#9;&#9;s-0.2,0.7-0.6,0.8c0,0-0.1,0-0.1,0L35.6,378.1L35.6,378.1z"/>
	<path class="st2_daenerys-targaryen-93" d="M126.6,371.8h-0.2c-0.4-0.1-0.6-0.5-0.5-0.8c5.8-24.2,9.7-48.9,11.8-73.7c0-0.4,0.4-0.7,0.8-0.6&#10;&#9;&#9;c0.4,0,0.7,0.4,0.6,0.8c-2,24.9-6,49.6-11.8,73.9C127.2,371.6,126.9,371.8,126.6,371.8z"/>
	<path class="st2_daenerys-targaryen-93" d="M110.1,386.8c-0.4,0-0.7-0.3-0.7-0.6c-1.5-13-1.5-26.1,0-39.1c0-0.4,0.4-0.7,0.8-0.6c0,0,0,0,0,0&#10;&#9;&#9;c0.4,0,0.7,0.4,0.6,0.8c-1.5,12.9-1.5,25.9,0,38.8C110.8,386.4,110.5,386.8,110.1,386.8C110.2,386.8,110.2,386.8,110.1,386.8&#10;&#9;&#9;L110.1,386.8z"/>
	<path class="st2_daenerys-targaryen-93" d="M418.4,384.8c-0.3,0-0.6-0.2-0.7-0.6c-2-12.2-1.7-24.6,0.9-36.6c0.1-0.4,0.5-0.6,0.8-0.5&#10;&#9;&#9;c0.4,0.1,0.6,0.5,0.5,0.8l0,0c-2.5,11.9-2.8,24.1-0.9,36.1c0.1,0.4-0.2,0.7-0.6,0.8c0,0,0,0,0,0L418.4,384.8z"/>
	<path class="st2_daenerys-targaryen-93" d="M342.2,383.8c-0.4,0-0.7-0.3-0.7-0.6c0-0.4-4.1-35.5-7.3-48.8c-0.1-0.4,0.1-0.8,0.5-0.9&#10;&#9;&#9;c0.4-0.1,0.8,0.1,0.8,0.5c0,0,0,0,0,0c3.2,13.4,7.3,48.6,7.3,49C343,383.4,342.7,383.7,342.2,383.8L342.2,383.8z"/>
</g>
<g id="Character_daenerys-targaryen-93">
	<rect x="185.7" y="252.9" class="st1_daenerys-targaryen-93" width="40.9" height="142.7"/>
	<path class="st1_daenerys-targaryen-93" d="M226.6,396.3h-40.9c-0.4,0-0.7-0.3-0.7-0.7c0,0,0,0,0,0V252.9c0-0.4,0.3-0.7,0.7-0.7l0,0h40.9&#10;&#9;&#9;c0.4,0,0.7,0.3,0.7,0.7l0,0v142.7C227.3,396,227,396.3,226.6,396.3C226.6,396.3,226.6,396.3,226.6,396.3z M186.4,394.9h39.5V253.6&#10;&#9;&#9;h-39.5V394.9z"/>
	<path class="st1_daenerys-targaryen-93" d="M335.4,395.6l-19.3-62.1c-0.3-2.6-0.3-5.3,0-7.9c0.5-2.9-3.9-13.4-3.9-13.4s-18.1,8-19.1,14.2&#10;&#9;&#9;c-0.7,3.9,6.4,42.1,11.5,69.2L335.4,395.6z"/>
	<path class="st1_daenerys-targaryen-93" d="M335.4,396.3h-30.9c-0.3,0-0.6-0.2-0.7-0.6c-5.6-29.5-12.2-65.5-11.5-69.4c1.1-6.5,18.8-14.4,19.5-14.7&#10;&#9;&#9;c0.4-0.2,0.8,0,0.9,0.4c0,0,0,0,0,0c0.5,1.1,4.5,10.8,4,13.8c-0.3,2.6-0.3,5.1,0,7.7l19.2,62c0.1,0.2,0,0.4-0.1,0.6&#10;&#9;&#9;C335.8,396.2,335.6,396.3,335.4,396.3z M305.1,394.9h29.3l-19-61.2c-0.3-2.7-0.4-5.5-0.1-8.2c0.4-2-2.3-9-3.6-12.3&#10;&#9;&#9;c-5.4,2.5-17.3,8.8-18.1,13.4C293.2,329.4,297.2,353.7,305.1,394.9z"/>
	<path class="st3_daenerys-targaryen-93 targetColor" d="M199,395.6c-0.1-15.9-0.2-35,0.4-46.1c1-21.5-2.4-77.6-1-89.5s1.4-21.5,6.5-26.7s15.7,3.1,19-7.9&#10;&#9;&#9;c0,0,5.2-2.6,3.1-5.5s-11.1-7.2-15.3-9s-16.8,7.5-20.9,11.4s-14.4,16.9-18.3,27.2c-3.9,10.2-18.3,77.4-20.7,101.3&#10;&#9;&#9;c-1.2,11.9-3.1,29.8-4.8,44.8H199z" style="fill: rgb(221, 28, 26);"/>
	<path class="st1_daenerys-targaryen-93" d="M199,396.3h-52c-0.2,0-0.4-0.1-0.5-0.2c-0.1-0.2-0.2-0.4-0.2-0.6c1.5-13.6,3.6-32.4,4.8-44.8&#10;&#9;&#9;c2.4-24.4,16.9-91.5,20.7-101.5s14.1-23.2,18.5-27.4c3.1-2.9,16.7-13.6,21.6-11.5c1.3,0.6,13,5.6,15.6,9.2c0.6,0.7,0.8,1.7,0.5,2.6&#10;&#9;&#9;c-0.5,1.9-2.8,3.4-3.6,3.8c-2.1,6.7-7.1,6.5-11.4,6.3c-3-0.1-5.8-0.3-7.6,1.6c-4.1,4.1-4.8,11.3-5.7,20.4c-0.2,1.9-0.4,3.8-0.6,5.9&#10;&#9;&#9;c-0.7,6-0.2,23.2,0.4,41.5s1.1,37.3,0.6,48c-0.5,11.4-0.5,31.4-0.4,46.1c0,0.2-0.1,0.4-0.2,0.5C199.3,396.2,199.2,396.3,199,396.3z&#10;&#9;&#9; M147.9,394.9h50.4c-0.1-14.7-0.2-34.2,0.4-45.5c0.5-10.7-0.1-29.6-0.6-47.9s-1.1-35.6-0.4-41.7c0.2-2,0.4-4,0.6-5.8&#10;&#9;&#9;c0.9-9.4,1.6-16.8,6.1-21.2c2.3-2.3,5.6-2.2,8.7-2c4.5,0.2,8.3,0.4,10.1-5.5c0.1-0.2,0.2-0.4,0.4-0.4c0.8-0.4,2.8-1.7,3.2-3&#10;&#9;&#9;c0.1-0.5,0-1-0.3-1.4c-1.9-2.7-10.6-6.9-15-8.8c-3.3-1.4-15.2,6.6-20.1,11.2c-4.3,4.1-14.3,17-18.1,26.9&#10;&#9;&#9;c-3.8,9.9-18.2,76.7-20.6,101.1C151.3,363,149.3,381.3,147.9,394.9L147.9,394.9z"/>
	<path class="st0_daenerys-targaryen-93" d="M270,193.6c0,0.2-0.1,1.4-0.1,3.4c-0.2,4.3-0.6,12.1-0.9,19.6c-0.5,10.1-1,19.8-1,19.8s-25.1-18.8-31.2-28.7&#10;&#9;&#9;l-0.1-1.6l-0.8-9.3l-0.9-11.9L270,193.6z"/>
	<path class="st1_daenerys-targaryen-93" d="M267.9,237.2c-0.2,0-0.3,0-0.4-0.1c-1-0.8-25.3-19-31.4-28.9c-0.1-0.1-0.1-0.2-0.1-0.3l-1.8-22.8&#10;&#9;&#9;c0-0.2,0.1-0.5,0.2-0.6c0.2-0.2,0.4-0.2,0.6-0.2l35.1,8.6c0.3,0.1,0.5,0.4,0.5,0.7c0,0.1,0,0.6-0.1,1.4l-0.2,5.4&#10;&#9;&#9;c-0.2,4.4-0.5,10.4-0.8,16.3l-1,19.8c0,0.3-0.2,0.5-0.4,0.6C268.1,237.1,268,237.2,267.9,237.2z M237.4,207.5&#10;&#9;&#9;c5.4,8.6,25,23.8,29.9,27.5l0.9-18.4c0.3-5.9,0.6-11.9,0.8-16.3l0.2-5.4c0-0.3,0-0.6,0-0.8l-33.5-8.3L237.4,207.5z"/>
	<path class="st0_daenerys-targaryen-93" d="M203.1,301.2c12.6,19.1,17.9,61.5,17.9,61.5c-5.3,7-10.1,14.3-14.2,22.1c-1.8,3.5-3.3,7.1-4.5,10.8h114.4&#10;&#9;&#9;c-2.6-28-6.2-67.5-6.2-67.5c7.5-23,5-43.8,3.9-53.1s-5-12.3-5-12.3c1.4-21-10.9-36.9-10.9-36.9c-6.8,3.4-24.1-0.7-24.1-0.7&#10;&#9;&#9;s3-10.5,1.1-13.9s-6.4,1-6.4,1l-0.8,17.9c0,0-25.4-19.7-29-21.9s-14.1-4.8-14.1-4.8l-8.3,19.6c0,0-17.8,3.4-21.7,6.5&#10;&#9;&#9;s-15.6,26.1-11.4,39.8C187.7,283.1,190.4,282.1,203.1,301.2z"/>
	<path class="st1_daenerys-targaryen-93" d="M316.7,396.3H202.3c-0.2,0-0.4-0.1-0.6-0.3c-0.1-0.2-0.2-0.4-0.1-0.7c1.2-3.7,2.7-7.4,4.6-10.9&#10;&#9;&#9;c4.1-7.7,8.8-15.1,14.1-22c-0.5-3.8-5.9-43-17.8-60.9c-4.5-6.8-7.7-11-10.2-14.3c-4.6-6-6.6-8.7-9.3-17.6&#10;&#9;&#9;c-4.3-14.3,7.8-37.5,11.7-40.6c3.7-2.9,19-6,21.6-6.6l8.2-19.3c0.1-0.3,0.5-0.5,0.8-0.4c0.4,0.1,10.7,2.6,14.4,4.9&#10;&#9;&#9;c3.2,2,23,17.2,28,21.1l0.7-16.5c0-0.2,0.1-0.4,0.2-0.5c0.3-0.3,3-2.8,5.4-2.4c0.9,0.2,1.7,0.8,2.2,1.6c1.7,3.1-0.2,11.1-0.9,13.7&#10;&#9;&#9;c3.3,0.7,17.2,3.4,22.9,0.6c0.3-0.2,0.7-0.1,0.9,0.2c0.1,0.2,12.3,16.2,11.1,37c1,0.9,4,4.4,5,12.5c1.1,9,3.7,30.1-3.9,53.3&#10;&#9;&#9;c0.2,2.6,3.7,40.4,6.2,67.4c0,0.4-0.3,0.7-0.6,0.8C316.8,396.2,316.7,396.3,316.7,396.3L316.7,396.3z M203.3,394.9h112.6&#10;&#9;&#9;c-2.6-27.9-6.1-66.7-6.1-66.7c0-0.1,0-0.2,0-0.3c7.5-22.9,4.9-43.8,3.9-52.8s-4.7-11.8-4.7-11.8c-0.2-0.1-0.3-0.4-0.3-0.6&#10;&#9;&#9;c1.2-18.5-8.5-33.2-10.5-36c-7.3,3-23.4-0.7-24.1-0.9c-0.2,0-0.4-0.2-0.5-0.3c-0.1-0.2-0.1-0.4-0.1-0.6c0.8-2.8,2.6-10.8,1.2-13.4&#10;&#9;&#9;c-0.2-0.5-0.6-0.8-1.1-0.9c-1.3-0.2-3.1,1.1-4,1.9l-0.7,17.6c0,0.3-0.2,0.5-0.4,0.6c-0.2,0.1-0.5,0.1-0.8-0.1&#10;&#9;&#9;c-0.2-0.2-25.4-19.7-29-21.8c-3-1.8-11.1-4-13.3-4.5l-8.1,19.1c-0.1,0.2-0.3,0.4-0.5,0.4c-0.2,0-17.6,3.4-21.4,6.4&#10;&#9;&#9;s-15.2,25.5-11.2,39c2.6,8.7,4.6,11.3,9.1,17.2c2.6,3.4,5.8,7.6,10.3,14.4l0,0c12.6,19.1,18,61.4,18.1,61.8c0,0.2,0,0.4-0.2,0.5&#10;&#9;&#9;c-5.3,6.9-10,14.3-14.1,22C205.8,388.3,204.5,391.5,203.3,394.9z"/>
	<path class="st2_daenerys-targaryen-93" d="M272,263.9"/>
	<path class="st2_daenerys-targaryen-93" d="M311.1,326.4c-0.4-1.4-1.4-2.5-2.8-3c0.1-0.7,0-1.3-0.2-2c-0.4-1.4-0.9-2.8-1.5-4.2c0-0.1-0.1-0.1-0.1-0.1&#10;&#9;&#9;c0.1-0.7,0-1.4-0.2-2c-0.6-1.8-1.4-3.5-2.2-5.1c-0.3-0.6-1.1-0.8-1.7-0.4l0,0c0.2-0.3,0.3-0.6,0.4-0.9c0.3-1.6,0-3.3-0.9-4.6&#10;&#9;&#9;c-0.8-1.4-1.8-2.7-3-3.8c0.4-3.1-1.2-6.1-4-7.5c0.1-1.5-0.2-2.9-1.1-4.1c-0.9-1.5-2.3-2.6-4-3.3c0.3-1.6-0.6-3.4-1.4-4.7&#10;&#9;&#9;c-1.1-1.6-2.4-3.1-4-4.2l0,0c-0.2-1.2-0.7-2.4-1.3-3.5c-0.8-1.5-2-2.8-3.4-3.7c0,0,0,0-0.1,0c0-0.4,0-0.8-0.1-1.2&#10;&#9;&#9;c-0.3-1.4-1.1-2.8-2.1-3.8c-0.8-1-1.9-1.8-3.2-2.2c-0.5-1.1-1.2-2-2.1-2.8c-1.5-1.5-3.3-2.8-5.1-3.9c0-1.7-1.3-3.3-2.4-4.4&#10;&#9;&#9;c-1.4-1.5-3.2-2.5-5.3-2.7l0,0c-0.6-2.2-2.1-4-4.1-5c-1-0.6-2.2-1-3.3-1.1l-0.8-0.1c0.1-0.6,0-1.2-0.2-1.7c-0.7-2.4-3-4-4.9-5.3&#10;&#9;&#9;c-1.2-0.9-2.5-1.5-4-1.7c-2.9-0.3-5.3,1-5.1,4.1c0.1,2.4,2.3,4.4,3.9,5.9c1.7,1.7,4,2.5,6.3,2.4c0.4,1.1,1,2.1,1.8,2.9&#10;&#9;&#9;c0.8,0.9,1.6,1.6,2.6,2.3c0.9,0.7,2,1.2,3.2,1.6c0.5,0.1,1,0.1,1.6,0.1c0.2,0.3,0.4,0.7,0.7,1c1.1,1.6,2.5,2.9,4.1,3.9&#10;&#9;&#9;c0.8,0.4,1.6,0.7,2.5,0.8c0,0.3,0.1,0.6,0.2,0.9c0.3,1,0.7,1.9,1.3,2.7c1,1.7,2.4,3,4.1,3.9c0.6,0.3,1.2,0.5,1.8,0.6&#10;&#9;&#9;c0,0.3,0,0.5,0.1,0.8c0.6,1.2,1.5,2.3,2.5,3.3c0.5,0.5,1.1,0.9,1.7,1.3c0.3,0.2,0.5,0.3,0.8,0.4c0.1,1.5,0.6,3,1.3,4.4&#10;&#9;&#9;c0.7,1.3,1.8,2.4,3.1,3.1c0,1.1,0.3,2.1,0.8,3c0.9,1.5,2,2.9,3.3,4.2c0.4,0.4,0.9,0.7,1.5,1c-0.1,0.9,0,1.7,0.2,2.6&#10;&#9;&#9;c0.5,1.7,1.6,3.2,3.1,4.1c0.5,0.3,1,0.6,1.6,0.7c-0.2,1.3-0.2,2.6,0.2,3.8c0.4,1.7,1.3,3.3,2.6,4.4c0.5,0.3,1,0.5,1.5,0.6&#10;&#9;&#9;c-0.2,1.8,0.4,3.6,1.5,5c-0.3,0.5-0.2,1.1,0.2,1.5c-0.1-0.1,0,0,0,0.1l0.1,0.2c-0.1-0.1,0.1,0.2,0.1,0.2c0.1,0.3,0.1,0.7,0.2,1&#10;&#9;&#9;c0,0.2,0,0.1,0,0.1l0.1,0.5c0,0.1,0,0.3,0.1,0.5c0.1,0.3,0.2,0.7,0.3,1c0.6,1.5,1.4,2.8,2.6,3.9c0.2,0.2,0.4,0.4,0.5,0.5&#10;&#9;&#9;c-0.1,0.2-0.2,0.4-0.2,0.6c-0.2,2.4,0.8,4.8,2.5,6.4c-0.5,0.1-0.9,0.6-0.9,1.1c0,1.5,0.4,3,1.2,4.4c1,1.2,2.4,2.1,3.9,2.5&#10;&#9;&#9;c0.9,0.4,2,0.2,2.7-0.5c0.6-0.5,0.9-1.2,1.1-2C311.8,329.4,311.6,327.8,311.1,326.4z M247.7,242.1c-0.3,0.3-0.5,0.7-0.6,1.1H247&#10;&#9;&#9;c-1.7,0-3.4-0.6-4.6-1.9c-1.4-1.5-2.6-3.1-3.4-5c0.1,0,0.2-0.1,0.3-0.1c1.6-0.8,3.5-0.7,4.9,0.4c0.8,0.6,1.6,1.1,2.4,1.8&#10;&#9;&#9;c0.7,0.5,1.3,1.2,1.8,1.9c0.3,0.5,0.4,1,0.4,1.5C248.3,241.7,247.9,241.8,247.7,242.1L247.7,242.1z M255.7,250.1h-0.1&#10;&#9;&#9;c-0.8-0.2-1.6-0.5-2.3-1c-0.7-0.4-1.3-1-1.9-1.5c-0.6-0.6-1.2-1.3-1.6-2.1c-0.1-0.1-0.2-0.3-0.2-0.4c0.3-0.1,0.6-0.3,0.7-0.5l0,0&#10;&#9;&#9;l0,0c0,0,0.3-0.1,0.2-0.1c0.3,0,0.7,0,1,0c0.7,0.1,1.4,0.3,2.1,0.7c1.3,0.6,2.4,1.7,3.1,3c0,0,0,0,0,0.1&#10;&#9;&#9;C256.1,248.6,255.7,249.3,255.7,250.1L255.7,250.1z M264.5,255.3c0,0.1,0,0.1,0,0.2c0,0,0.1-0.1,0,0l-0.1,0.1c0-0.1,0,0,0,0h-0.1&#10;&#9;&#9;c-0.6,0-1.1-0.1-1.6-0.4c-1.2-0.6-2.2-1.5-3-2.5c-0.4-0.5-0.8-1-1.1-1.5c0.2-0.2,0.4-0.5,0.5-0.8c1.1,0.1,2.2,0.6,3.1,1.4&#10;&#9;&#9;c0.6,0.5,1.1,1.1,1.6,1.7c0.2,0.2,0.3,0.5,0.5,0.7c0.1,0.1,0.1,0.2,0.1,0.2l0.1,0.1l0.1,0.3c0,0,0,0.1,0,0.1c0,0.1,0,0.1,0,0.2&#10;&#9;&#9;C264.5,255.2,264.5,255.3,264.5,255.3L264.5,255.3z M272,263.8L272,263.8l-0.4,0.1c-0.3,0-0.6-0.1-0.9-0.2c-1.2-0.5-2.2-1.3-3-2.4&#10;&#9;&#9;c-0.5-0.7-0.9-1.4-1.2-2.1c-0.1-0.3-0.3-0.7-0.4-1c-0.1-0.2-0.1-0.3-0.1-0.5l0,0c1.1,0.6,2.1,1.4,3.1,2.2c0.6,0.5,1.2,1.1,1.8,1.6&#10;&#9;&#9;c0.4,0.4,0.7,0.9,1,1.4c0,0.2,0,0.4,0,0.6C271.9,263.6,272,263.7,272,263.8L272,263.8z M277,269.3c0,0.1-0.1,0.2-0.1,0.4&#10;&#9;&#9;c-0.2-0.1-0.5-0.3-0.7-0.5c0,0-0.4-0.3-0.3-0.2l-0.4-0.3c-0.5-0.4-0.9-0.9-1.3-1.4c-0.1-0.1-0.1-0.1,0,0l-0.1-0.2l-0.3-0.4&#10;&#9;&#9;c-0.2-0.3-0.3-0.5-0.5-0.8c0.5-0.3,0.8-0.7,1-1.2c0.1,0.1,0.2,0.1,0.3,0.2c0.5,0.4,1,0.9,1.4,1.4c0.4,0.5,0.7,1,0.9,1.5l0.1,0.4&#10;&#9;&#9;c0,0,0.1,0.5,0.1,0.3c0,0.2,0,0.4,0,0.5C277.1,269.1,277,269.5,277,269.3L277,269.3z M281.8,277.3h-0.2l-0.2-0.1h-0.1l-0.3-0.2&#10;&#9;&#9;c-0.1-0.1,0,0-0.2-0.1l-0.3-0.3c-0.4-0.4-0.7-0.8-1-1.3c-0.6-1.1-1-2.3-1.1-3.6c0.1-0.1,0.1-0.1,0.2-0.2l0.1,0.1&#10;&#9;&#9;c0.2,0.2,0.5,0.4,0.7,0.6c0.4,0.4,0.7,0.7,1,1.2c0.6,0.9,1.1,1.9,1.3,2.9c0.1,0.2,0.1,0.5,0.2,0.8c0,0,0,0.4,0,0.2c0,0,0,0.1,0,0.1&#10;&#9;&#9;L281.8,277.3z M287,284.5c-0.1,0.2-0.2,0.4-0.3,0.6c-0.1-0.1-0.2-0.1-0.2-0.2c-0.9-0.9-1.8-1.9-2.5-3c-0.2-0.3-0.4-0.6-0.6-1&#10;&#9;&#9;c-0.1-0.2-0.2-0.5-0.3-0.7c0-0.1-0.1-0.3-0.1-0.5c0,0,0,0,0,0c0-0.1,0-0.2,0-0.3l0,0c0.2,0,0.3-0.1,0.4-0.2&#10;&#9;&#9;c0.2-0.1,0.3-0.2,0.4-0.4c0.6,0.5,1.2,1.1,1.7,1.8c0.8,1,1.4,2.1,1.8,3.3c0,0,0,0.1,0,0.1C287.1,284.4,287.1,284.5,287,284.5&#10;&#9;&#9;L287,284.5z M292.3,292.3c-0.2,0.1-0.3,0.2-0.4,0.4h-0.1l-0.2,0l-0.2-0.1h0c-0.2-0.1-0.3-0.2-0.5-0.3c-0.5-0.3-0.9-0.7-1.2-1.1l0,0&#10;&#9;&#9;l0,0l-0.1-0.2l-0.2-0.4c-0.1-0.2-0.3-0.5-0.4-0.8c-0.3-0.7-0.3-1.5-0.2-2.3c0.5,0.2,1,0.4,1.4,0.7l0.1,0.1l0,0l0,0l0.3,0.3&#10;&#9;&#9;c0.2,0.2,0.4,0.4,0.6,0.7l0,0l0,0c0,0,0.1,0.1,0.1,0.1c0.1,0.1,0.2,0.3,0.3,0.4c0.1,0.1,0.1,0.2,0.2,0.4l0.2,0.4&#10;&#9;&#9;c0.1,0.2,0.2,0.5,0.2,0.7c0,0.1,0.1,0.3,0.1,0.4c0-0.2,0,0.2,0,0.3S292.3,292.3,292.3,292.3L292.3,292.3z M296.3,299.9&#10;&#9;&#9;c0,0.3-0.1,0.5-0.2,0.8c0,0.1-0.2,0.5-0.3,0.7c-0.1,0-0.1,0-0.1,0l-0.3-0.1h-0.1l-0.2-0.1h0L295,301l-0.3-0.3l-0.1-0.1l-0.1-0.1&#10;&#9;&#9;c-0.1-0.1-0.2-0.3-0.3-0.4c-0.3-0.5-0.5-1-0.6-1.5c-0.2-0.7-0.4-1.4-0.4-2.1c0-0.5,0.1-1,0.3-1.5&#10;&#9;&#9;C295.5,295.9,296.6,297.9,296.3,299.9L296.3,299.9z M299.3,307.8L299.3,307.8l-0.4-0.3c-0.1-0.1-0.2-0.2-0.3-0.4&#10;&#9;&#9;c0.1,0.2-0.1-0.2-0.2-0.2c-0.3-0.4-0.5-0.9-0.6-1.4c0,0-0.1-0.3-0.1-0.3v-0.4c0-0.1,0-0.3,0-0.5s0-0.1,0-0.2c0,0,0-0.1,0-0.1&#10;&#9;&#9;c0.1-0.3,0-0.7-0.2-1c0.1-0.1,0.1-0.1,0.2-0.2c0.7,0.7,1.2,1.5,1.7,2.3c0.4,0.6,0.6,1.3,0.8,1.9c0,0.2,0,0,0,0.2c0,0.2,0,0.4,0,0.5&#10;&#9;&#9;v0.1c0,0.1,0,0.2-0.1,0.3v0.1h-0.1H300l-0.1-0.1l-0.4-0.2L299.3,307.8z M302.9,316.6c-0.2-0.1-0.4-0.3-0.5-0.5&#10;&#9;&#9;c-0.2-0.2-0.4-0.4-0.6-0.7c-0.8-0.8-1.4-1.9-1.7-3c-0.2-0.7-0.2-1.2-0.3-1.9l0,0c0.4,0.1,0.8,0.1,1.2,0c0.3-0.1,0.6-0.3,0.8-0.5&#10;&#9;&#9;c-0.2,0.3-0.2,0.7,0,1.1c0.6,1.2,1.2,2.4,1.7,3.6c0.1,0.3,0.2,0.6,0.3,0.9c0.1,0.2,0.2,0.5,0.2,0.8c0,0.1,0,0.3,0,0.2v0.1&#10;&#9;&#9;c-0.1,0.1-0.1,0.1,0,0l-0.1,0h-0.1h-0.1h-0.1c-0.1,0-0.3,0-0.1,0C303.3,316.8,303.1,316.8,302.9,316.6L302.9,316.6z M303.3,320.1&#10;&#9;&#9;c0-0.1,0-0.2,0-0.3c0-0.2,0-0.3,0-0.5c0.4,0.1,0.9,0,1.3-0.1l0.2-0.1c0,0,0,0.1,0,0.1l0.4,1c0.2,0.6,0.4,1.2,0.6,1.9&#10;&#9;&#9;c0,0.1,0.1,0.3,0.1,0.5v0.2c0-0.1,0-0.1,0,0.1s0,0.4,0,0.4c0,0.1,0,0.1-0.1,0.2l-0.1,0.2l-0.1,0.1l0,0h-0.1l-0.2,0l0,0l-0.1-0.1&#10;&#9;&#9;l-0.3-0.2c0.2,0.1-0.1-0.1-0.2-0.1l-0.3-0.3l0,0l-0.1-0.2c-0.1-0.2-0.3-0.5-0.4-0.7c0,0-0.1-0.3-0.1-0.3l-0.1-0.4&#10;&#9;&#9;c-0.1-0.3-0.1-0.5-0.2-0.8S303.4,320.2,303.3,320.1L303.3,320.1z M309.2,330c0,0.1,0,0.2-0.1,0.3s-0.1,0.2-0.1,0.2&#10;&#9;&#9;c0,0.1-0.1,0.2-0.2,0.3l-0.1,0.1l0,0l0,0l0,0h-0.1l-0.3-0.1l-0.8-0.3l-0.2-0.1h-0.1l-0.4-0.2c-0.2-0.1-0.4-0.2-0.6-0.4l-0.2-0.2&#10;&#9;&#9;c-0.1-0.1-0.2-0.2-0.3-0.3l-0.1-0.1l-0.1-0.2c-0.1-0.1-0.1-0.3-0.2-0.4c0,0-0.1-0.2-0.1-0.3s-0.1-0.3-0.1-0.5&#10;&#9;&#9;c-0.1-0.3-0.1-0.6-0.2-0.9v-0.1c0,0,0-0.1,0-0.1l-0.1-0.5c0-0.1-0.1-0.3-0.1-0.4c0.8,0.2,1.5,0,2.2-0.4c0.2,0.1,0.3,0.1,0.5,0.1&#10;&#9;&#9;c-0.2,0,0,0,0.1,0h0.1l0,0c0,0,0.3,0.2,0.1,0l0.2,0.2c0,0,0.2,0.3,0.1,0.1c0.1,0.1,0.1,0.2,0.2,0.3c0.1,0.1,0.1,0.2,0.2,0.3&#10;&#9;&#9;l0.1,0.2c0.2,0.4,0.3,0.9,0.4,1.4c0,0.1,0,0.3,0.1,0.4c0,0,0,0.1,0,0.1v0.1c0,0.3,0,0.6,0,0.8C309.3,329.8,309.2,329.9,309.2,330z"/>
	<path class="st1_daenerys-targaryen-93" d="M269.8,197c-0.2,4.3-0.6,12.1-0.9,19.6c-10.3,3.4-26.3-6.2-32.3-10.5l-0.8-9.3h33.8&#10;&#9;&#9;C269.7,196.9,269.7,196.9,269.8,197z"/>
	<path class="st1_daenerys-targaryen-93" d="M264,218.1c-11.7,0-26.1-10-27.9-11.3c-0.2-0.1-0.3-0.3-0.3-0.5l-0.8-9.3c0-0.2,0-0.4,0.2-0.5&#10;&#9;&#9;c0.1-0.1,0.3-0.2,0.5-0.2h33.8c0.1,0,0.2,0,0.4,0.1l0.3,0.2c0.2,0.1,0.3,0.4,0.3,0.6l-0.2,3.3c-0.2,4.4-0.5,10.4-0.8,16.3&#10;&#9;&#9;c0,0.3-0.2,0.5-0.5,0.6C267.5,217.8,265.8,218.1,264,218.1z M237.2,205.8c7.3,5.2,21.7,13,31,10.4c0.3-5.7,0.5-11.5,0.8-15.8&#10;&#9;&#9;l0.1-2.8h-32.6L237.2,205.8z"/>
	<path class="st0_daenerys-targaryen-93" d="M271.5,182.1c-1.6,2.7-0.5,6.3,1.6,8.6s4.8,3.9,7.3,5.9s4.7,4.5,4.9,7.7c0.3,5.6-6,9.8-5.9,15.4&#10;&#9;&#9;c0,4.2,3.6,7.5,4.5,11.6c0.7-2.4,0.7-4.9-0.2-7.2c-0.9-2.5-2.8-4.9-2.2-7.5c0.4-1.6,1.6-2.9,2.7-4.2c2.3-2.3,3.9-5.2,4.7-8.4&#10;&#9;&#9;c0.7-3.2-0.1-6.8-2.6-8.9c-1.4-1.2-3.3-1.8-4.9-2.8c-3.1-1.8-5.3-4.6-6.4-8c-0.3-1.4-0.7-2.7-1.2-4.1c-0.5-1.3-1.7-2.3-3.1-2.7&#10;&#9;&#9;c-1.7-0.1-3.1,1.1-3.2,2.8c0,0.4,0,0.8,0.2,1.2"/>
	<path class="st1_daenerys-targaryen-93" d="M283.8,232L283.8,232c-0.3,0-0.6-0.2-0.7-0.6c-0.5-1.7-1.2-3.4-2.1-4.9c-1.2-2.1-2.4-4.4-2.4-6.9&#10;&#9;&#9;c0-2.9,1.6-5.5,3.1-7.9s3-4.8,2.8-7.4c-0.1-2.4-1.7-4.8-4.6-7.1c-0.8-0.6-1.5-1.1-2.3-1.7c-1.9-1.2-3.6-2.6-5.1-4.2&#10;&#9;&#9;c-2.1-2.5-3.5-6.4-1.6-9.5c0.2-0.3,0.6-0.5,1-0.3c0.3,0.2,0.5,0.6,0.3,1l0,0c-1.5,2.5-0.3,5.8,1.5,7.8c1.4,1.5,3,2.9,4.8,4&#10;&#9;&#9;c0.8,0.6,1.6,1.1,2.4,1.8c3.3,2.6,5,5.3,5.2,8.2c0.2,3.1-1.5,5.7-3,8.2l-0.4,0.6c0.2-0.3,0.5-0.6,0.8-0.9l0.3-0.3&#10;&#9;&#9;c2.2-2.2,3.8-5,4.5-8.1c0.7-3-0.2-6.1-2.4-8.2c-0.9-0.7-1.9-1.3-3-1.8c-0.6-0.3-1.2-0.6-1.8-0.9c-3.2-1.9-5.6-4.9-6.7-8.4&#10;&#9;&#9;c-0.1-0.5-0.3-1-0.4-1.5c-0.2-0.9-0.4-1.7-0.8-2.5c-0.4-1.1-1.3-1.9-2.5-2.2c-1.3,0-2.4,1-2.4,2.3c0,0.3,0,0.5,0.1,0.7&#10;&#9;&#9;c0.2,0.4,0,0.8-0.4,0.9c-0.4,0.2-0.8,0-0.9-0.4c-0.7-2,0.4-4.1,2.3-4.8c0.5-0.2,1-0.2,1.5-0.2c1.7,0.3,3,1.5,3.6,3.1&#10;&#9;&#9;c0.4,0.9,0.7,1.8,0.9,2.8c0.1,0.5,0.2,0.9,0.4,1.4c1,3.2,3.1,5.9,6,7.6c0.5,0.3,1.1,0.6,1.7,0.9c1.2,0.5,2.3,1.2,3.3,2&#10;&#9;&#9;c2.6,2.5,3.7,6.1,2.9,9.6c-0.8,3.3-2.5,6.3-4.9,8.7l-0.3,0.3c-1,1-1.8,2.2-2.3,3.5c-0.4,1.6,0.4,3.3,1.2,5c0.3,0.7,0.7,1.4,0.9,2.1&#10;&#9;&#9;c0.9,2.5,1,5.2,0.2,7.7C284.5,231.8,284.2,232,283.8,232z M280.7,216.6c-0.4,1-0.6,2-0.6,3c0,2.2,1.1,4.1,2.2,6.2&#10;&#9;&#9;c0.5,0.8,0.9,1.7,1.3,2.6c0.1-1.4-0.2-2.8-0.6-4.1c-0.2-0.7-0.5-1.3-0.9-2C281.2,220.5,280.4,218.6,280.7,216.6L280.7,216.6z"/>
	<path class="st0_daenerys-targaryen-93" d="M288,163.1c-0.3-0.9-0.6-1.8-1-2.7c-1-3.1,0.6-6.9-1.5-9.4c-0.6-0.7-1.4-1.2-2-2c-1.5-1.9-1-4.6-0.9-7.1&#10;&#9;&#9;c0.2-7.1-4.6-13.6-10.8-17.2s-13.4-4.8-20.4-5.4c-5-0.5-11.1-1.2-15.4,1.2c-0.6,0.3-0.8,1.2-1.4,1.4c-0.5,0.1-1,0.1-1.4-0.1&#10;&#9;&#9;c-1.3-0.3-2.7,0-3.8,0.8c-1.1,0.8-1.9,1.9-2.3,3.2c-0.7,1.8-0.7,3.6-1.9,5c-1.1,1.3-2.8,2.1-4,3.4c-1.4,1.6-2.6,3.4-3.5,5.3&#10;&#9;&#9;c-0.6,1.1-0.7,2.6-1.3,3.7c-0.9,1.6-1.9,1.6-2.9,3c-2,2.6-2,6.5-1.4,9.6c0.9,4.9,3.5,7.2,5.7,11.1c2.4,4.1,2.9,7.3,7,10.5&#10;&#9;&#9;c7.8,6,17.5,9,27.3,8.4c8.4-0.5,15.4-3.9,22.3-8.5C278.5,174.3,289.2,169.6,288,163.1z"/>
	<path class="st1_daenerys-targaryen-93" d="M249.5,186.5c-9.1,0-18-3.1-25.2-8.6c-3.1-2.4-4.2-4.7-5.5-7.4c-0.5-1-1-2.1-1.7-3.2s-1.3-2-1.9-2.9&#10;&#9;&#9;c-1.9-2.5-3.2-5.3-3.9-8.3c-0.5-2.4-0.9-7,1.5-10.2c0.4-0.5,0.9-1,1.5-1.4c0.6-0.4,1-0.9,1.4-1.5c0.3-0.6,0.5-1.2,0.6-1.8&#10;&#9;&#9;c0.1-0.6,0.4-1.2,0.6-1.8c1-2,2.2-3.8,3.6-5.4c0.7-0.7,1.4-1.3,2.2-1.9c0.7-0.5,1.3-1,1.8-1.6c0.6-0.9,1.1-1.9,1.2-2.9&#10;&#9;&#9;c0.2-0.6,0.3-1.3,0.6-1.9c0.5-1.4,1.4-2.6,2.6-3.5c1.2-0.9,2.8-1.3,4.4-0.9l0.3,0.1c0.2,0.1,0.5,0.1,0.7,0.1&#10;&#9;&#9;c0.1-0.1,0.3-0.3,0.4-0.5c0.2-0.4,0.5-0.7,0.9-0.9c4.4-2.4,10.5-1.8,15.4-1.3h0.4c7,0.7,14.4,1.8,20.7,5.5&#10;&#9;&#9;c7,4.1,11.3,11.1,11.1,17.9c0,0.5,0,0.9-0.1,1.4c-0.1,2-0.3,3.9,0.8,5.2c0.3,0.3,0.6,0.6,0.9,0.9c0.4,0.3,0.8,0.7,1.1,1.1&#10;&#9;&#9;c1.4,1.7,1.3,3.8,1.3,5.8c-0.1,1.3,0,2.6,0.3,3.9c0.1,0.3,0.3,0.7,0.4,1c0.3,0.6,0.5,1.2,0.6,1.8c1.1,5.8-6,10-11.2,13.1&#10;&#9;&#9;c-1,0.6-2,1.2-2.8,1.7c-8.1,5.5-15.1,8.1-22.7,8.6C251.1,186.5,250.3,186.5,249.5,186.5z M232.2,122.4c-0.9,0-1.7,0.3-2.4,0.8&#10;&#9;&#9;c-0.9,0.7-1.7,1.7-2.1,2.8c-0.2,0.6-0.4,1.1-0.5,1.7c-0.2,1.3-0.8,2.5-1.6,3.5c-0.6,0.7-1.3,1.2-2,1.8c-0.7,0.5-1.4,1.1-2,1.7&#10;&#9;&#9;c-1.3,1.6-2.5,3.3-3.4,5.1c-0.2,0.5-0.4,1-0.5,1.6c-0.2,0.7-0.4,1.5-0.8,2.1c-0.4,0.7-1,1.4-1.8,1.9c-0.4,0.3-0.8,0.7-1.2,1.1&#10;&#9;&#9;c-2.1,2.8-1.7,6.8-1.3,9c0.6,2.8,1.9,5.5,3.7,7.8c0.6,0.9,1.3,1.9,1.9,3s1.2,2.3,1.7,3.3c1.2,2.6,2.3,4.8,5.1,6.9&#10;&#9;&#9;c7.6,5.9,17.2,8.9,26.8,8.3c7.3-0.5,14-3,22-8.4c0.8-0.5,1.8-1.1,2.9-1.8c4.9-2.9,11.5-6.8,10.6-11.6l0,0c-0.1-0.5-0.3-1-0.5-1.4&#10;&#9;&#9;c-0.2-0.4-0.3-0.7-0.5-1.1c-0.4-1.4-0.5-2.9-0.4-4.4c0-1.9,0.1-3.6-1-4.9c-0.3-0.3-0.6-0.6-0.9-0.9c-0.4-0.3-0.8-0.7-1.1-1.1&#10;&#9;&#9;c-1.4-1.8-1.2-4.1-1.1-6.2c0-0.5,0.1-0.9,0.1-1.4c0.2-6.2-3.9-12.7-10.4-16.6c-6.1-3.6-13.3-4.7-20.1-5.3h-0.4&#10;&#9;&#9;c-4.7-0.4-10.6-1-14.6,1.2c-0.2,0.1-0.3,0.3-0.4,0.5c-0.2,0.4-0.6,0.8-1,1c-0.5,0.2-1.1,0.2-1.6,0l-0.2-0.1&#10;&#9;&#9;C232.7,122.5,232.5,122.4,232.2,122.4L232.2,122.4z"/>
	<path class="st0_daenerys-targaryen-93" d="M277.6,155.8c2.6,4.6,2.6,8.1,2.2,14.1c-0.5,7.7-0.8,16.1-3.4,23.5c-3.6,10.3-13,17.6-21.9,17.6&#10;&#9;&#9;s-20.3-3.9-25.3-19.8c-4.1-12.9-3.9-30.9,10.4-37.8c4.2-2,8.9-2.5,13.3-3.9c4.4-1.5,8.8-4.5,9.7-9c5.3,3.3,9.9,7.7,13.5,12.8&#10;&#9;&#9;C276.6,154.1,277.2,154.9,277.6,155.8z"/>
	<path class="st1_daenerys-targaryen-93" d="M254.5,211.6c-7.3,0-20.4-2.6-26-20.3c-6.8-21.5,1.6-34.2,10.7-38.6c2.6-1.2,5.3-2,8.1-2.6&#10;&#9;&#9;c1.7-0.4,3.5-0.8,5.2-1.4c5.1-1.7,8.5-4.9,9.2-8.5c0-0.2,0.2-0.4,0.4-0.5c0.2-0.1,0.5-0.1,0.7,0.1c5.4,3.4,10.1,7.8,13.7,13.1&#10;&#9;&#9;c0.6,0.8,1.1,1.7,1.6,2.6l0,0c2.7,4.9,2.6,8.7,2.2,14.5l-0.1,2.3c-0.5,7.2-0.9,14.6-3.3,21.4C273.3,204.1,263.8,211.6,254.5,211.6z&#10;&#9;&#9; M263,141.5c-1.2,3.7-4.8,6.9-9.9,8.6c-1.8,0.6-3.6,1-5.4,1.4c-2.7,0.5-5.3,1.4-7.9,2.5c-8.6,4.2-16.4,16.3-10,36.9&#10;&#9;&#9;c5.3,16.8,17.7,19.3,24.6,19.3c8.8,0,17.7-7.2,21.2-17.1c2.3-6.5,2.8-13.9,3.2-21l0.1-2.3c0.4-5.7,0.5-9.2-2.1-13.7&#10;&#9;&#9;c-0.4-0.8-1-1.6-1.6-2.5C272.1,148.8,267.9,144.7,263,141.5L263,141.5z"/>
	<path class="st0_daenerys-targaryen-93" d="M215.3,145.4c2.1,2.8,2.6,6.5,1.4,9.8"/>
	<path class="st1_daenerys-targaryen-93" d="M216.7,156c-0.1,0-0.2,0-0.3,0c-0.4-0.1-0.6-0.5-0.5-0.9c0,0,0-0.1,0.1-0.1c1.2-3.1,0.7-6.5-1.3-9.1&#10;&#9;&#9;c-0.2-0.3-0.2-0.8,0.1-1c0.3-0.2,0.8-0.2,1,0.1c2.3,3,2.8,7,1.5,10.5C217.2,155.8,217,156,216.7,156z"/>
	<path class="st0_daenerys-targaryen-93" d="M264.4,238.5c-2.1-2.9-6.4-2.8-9.9-2.5s-7.9-0.1-9.6-3.2c-1.3-2.3-0.4-5.2-0.9-7.9c-0.7-3.3-3.3-5.8-6.6-6.4&#10;&#9;&#9;c-0.9-0.1-1.9-0.1-2.8-0.2c-4.8-0.6-8-5.4-9-10.1s-0.4-9.6-0.8-14.4c-0.4-5.1-1.6-10.1-3.6-14.8c-2.2,1.7-1.1,4.1-0.9,6.5&#10;&#9;&#9;c0.3,3.4,0.1,6.9-0.7,10.3c-0.6,2.7-1.6,5.3-1.5,8c0.2,5,3.9,9,7.4,12.5c3.1,3.2,7.1,3,10.8,4.7c1.6,0.7,2.8,2.1,3.4,3.7&#10;&#9;&#9;c1.2,3.4-0.3,7.5,1.7,10.5c1.8,2.6,5.4,3.1,8.6,3s6.7-0.4,9.2,1.5c1.8,1.5,3,3.7,3.1,6.1c0.1,2.4-0.1,4.7-0.6,7&#10;&#9;&#9;C263.7,248.7,267.9,243,264.4,238.5z"/>
	<path class="st1_daenerys-targaryen-93" d="M261.8,253.6c-0.1,0-0.1,0-0.2,0c-0.3-0.1-0.6-0.5-0.5-0.8c0.5-2.2,0.7-4.5,0.6-6.8c-0.1-2.2-1.1-4.2-2.8-5.6&#10;&#9;&#9;c-2.2-1.6-5.1-1.5-8-1.4h-0.8c-4.7,0.1-7.7-0.9-9.2-3.3c-1.2-1.9-1.2-4.1-1.2-6.2c0.1-1.5-0.1-3-0.5-4.5c-0.5-1.5-1.6-2.6-3-3.3&#10;&#9;&#9;c-1.3-0.6-2.6-1-4-1.3c-2.4-0.7-4.9-1.4-7.1-3.6c-3.9-3.9-7.4-7.9-7.6-13c0-2.1,0.3-4.3,1-6.3c0.2-0.6,0.4-1.3,0.5-1.9&#10;&#9;&#9;c0.8-3.3,1-6.7,0.7-10c0-0.5-0.1-1-0.2-1.5c-0.3-1.9-0.7-4.1,1.4-5.7c0.2-0.1,0.4-0.2,0.6-0.1c0.2,0.1,0.4,0.2,0.5,0.4&#10;&#9;&#9;c2,4.8,3.3,9.8,3.7,15c0.2,1.9,0.2,3.7,0.2,5.6c-0.1,2.9,0.1,5.9,0.6,8.8c0.9,4.3,3.9,8.9,8.4,9.5c0.4,0.1,0.9,0.1,1.3,0.1&#10;&#9;&#9;s1,0,1.5,0.1c3.6,0.6,6.5,3.4,7.2,7c0.2,1.1,0.2,2.1,0.2,3.2c-0.2,1.5,0.1,3,0.6,4.4c1.2,2.2,4.1,3.1,8.9,2.8&#10;&#9;&#9;c3.9-0.3,8.2-0.3,10.5,2.8l0,0c3.1,4.1,0.6,8.9-1.4,12.8c-0.4,0.8-0.8,1.6-1.2,2.4C262.3,253.5,262.1,253.6,261.8,253.6z&#10;&#9;&#9; M252.9,237.5c2.4,0,4.9,0.3,6.8,1.7c2,1.6,3.2,4,3.4,6.6c0.1,0.9,0.1,1.8,0,2.8c1.6-3.3,2.9-6.8,0.7-9.7l0,0&#10;&#9;&#9;c-1.9-2.5-5.8-2.5-9.3-2.2c-5.4,0.4-8.8-0.8-10.2-3.6c-0.7-1.6-1-3.4-0.8-5.1c0-1,0-2-0.1-3c-0.6-3-3-5.3-6-5.8&#10;&#9;&#9;c-0.4-0.1-0.9-0.1-1.3-0.1s-1-0.1-1.4-0.1c-5.2-0.7-8.6-5.9-9.6-10.7c-0.5-3-0.8-6-0.7-9c0-1.8,0-3.6-0.1-5.4&#10;&#9;&#9;c-0.4-4.7-1.4-9.2-3.1-13.6c-0.6,0.9-0.4,2-0.1,3.6c0.1,0.5,0.2,1.1,0.2,1.6c0.3,3.5,0.1,7.1-0.7,10.5c-0.2,0.7-0.3,1.3-0.5,2&#10;&#9;&#9;c-0.6,1.9-1,3.9-1,5.9c0.2,4.6,3.5,8.3,7.2,12.1c1.9,1.9,4.1,2.5,6.4,3.2c1.4,0.4,2.8,0.8,4.2,1.4c1.7,0.8,3.1,2.3,3.8,4.1&#10;&#9;&#9;c0.5,1.6,0.7,3.3,0.6,5c0,2,0,3.9,1,5.4c1.3,1.9,3.9,2.8,8,2.7h0.7C251.5,237.5,252.2,237.5,252.9,237.5L252.9,237.5z"/>
	<path class="st0_daenerys-targaryen-93" d="M242,136.8c-1.8,6.2-5.1,11.8-9.6,16.4c-1.4,1.2-2.6,2.7-3.6,4.3c-1.8,3.5-0.7,7.9-2.5,11.4&#10;&#9;&#9;c-0.7,1.1-1.3,2.2-1.9,3.4c-1.1,3.4,1.8,7,1.7,10.6c0,2.4-1.4,4.9-0.4,7.1c0.4,0.8,0.9,1.5,1.6,2.1c1.9,2.3,3.4,5.1,3.2,8.1&#10;&#9;&#9;c-0.1,1.3-0.5,2.5-0.5,3.8c0,4.3,4.1,7.2,7.9,9.2s8.1,4.3,9.1,8.4c0.6,2.5-0.1,5.7,2,7.2s5.7-0.1,7.8,1.6c2.4,1.8,1,5.5,0.9,8.5&#10;&#9;&#9;c-0.1,0.6,0.1,1.3,0.5,1.8c0.5,0.4,1.2,0.6,1.8,0.6c1.7,0.1,3.5-0.2,5.2-0.1c1.8,0,3.4,0.9,4.4,2.4c1.2,2.2-0.1,5,0.8,7.3&#10;&#9;&#9;c0.8,2,3.1,2.9,5.3,2.8c2.1-0.2,4.2-0.9,6-2c-2.1,1.4-4.3,2.8-6.8,3.3s-5.4-0.4-6.6-2.6c-0.7-1.2-0.8-2.7-1.6-3.9&#10;&#9;&#9;c-2-2.9-6.5-1.8-9.7-3.1c-2.6-1.1-4.3-3.6-4.2-6.4c0.1-0.9,0.1-1.8,0.1-2.8c-0.4-2.5-3.3-3.6-5.8-4.1s-5.3-0.9-6.7-3&#10;&#9;&#9;c-2-3,0.3-7.7-2.2-10.4c-1.4-1.5-3.8-1.6-5.7-2.5c-3.7-1.8-4.8-6.5-4.8-10.5c0.1-1.7,0-3.3-0.2-5c-1.3-6.1-8.6-9.7-9.4-15.9&#10;&#9;&#9;c-0.5-3.8,1.8-7.5,1.8-11.4c0-3-1.4-6-1.1-9c0.2-2.9,2-5.4,3.4-7.9c2.7-4.9,4.3-10.4,4.7-16"/>
	<path class="st1_daenerys-targaryen-93" d="M273.7,255.9c-2.4,0.1-4.7-1.1-6-3.1c-0.3-0.6-0.6-1.2-0.7-1.9c-0.2-0.7-0.4-1.3-0.8-1.9&#10;&#9;&#9;c-1.1-1.6-3.1-1.8-5.3-2c-1.4-0.1-2.8-0.4-4.1-0.8c-2.8-1.2-4.7-4-4.7-7.1c0-0.3,0-0.7,0.1-1c0.1-0.5,0.1-1.1,0-1.6&#10;&#9;&#9;c-0.4-2.4-3.8-3.3-5.2-3.5l-0.5-0.1c-2.5-0.4-5.2-0.9-6.7-3.2c-1.1-1.6-1-3.6-1-5.4s0-3.7-1.1-4.9c-0.9-0.8-2-1.3-3.2-1.5&#10;&#9;&#9;c-0.8-0.2-1.6-0.5-2.3-0.8c-4.7-2.3-5.2-8.6-5.2-11.2c0-0.4,0-0.7,0-1.1c0.1-1.3,0-2.6-0.2-3.8c-0.6-2.8-2.5-5-4.5-7.4&#10;&#9;&#9;c-2.2-2.6-4.5-5.2-4.9-8.6c-0.1-2.2,0.2-4.4,0.9-6.5c1.1-2.9,1.2-6,0.3-9c-0.5-1.7-0.6-3.4-0.6-5.1c0.2-2.5,1.5-4.8,2.7-6.9&#10;&#9;&#9;c0.2-0.4,0.5-0.9,0.7-1.3c2.7-4.8,4.2-10.2,4.6-15.7c0-0.4,0.4-0.7,0.7-0.7c0,0,0,0,0,0c0.4,0,0.7,0.4,0.7,0.8&#10;&#9;&#9;c-0.4,5.7-2,11.3-4.8,16.3c-0.2,0.4-0.5,0.9-0.7,1.3c-1.1,2-2.3,4.1-2.5,6.3c-0.1,1.6,0.1,3.2,0.5,4.7c0.9,3.2,0.8,6.6-0.3,9.7&#10;&#9;&#9;c-0.7,1.9-0.9,3.9-0.8,5.9c0.4,3,2.4,5.4,4.6,7.9s4.2,4.9,4.8,8c0.2,1.4,0.3,2.8,0.2,4.2c0,0.3,0,0.7,0,1c0,2.3,0.4,7.9,4.4,9.9&#10;&#9;&#9;c0.7,0.3,1.4,0.5,2.1,0.7c1.4,0.3,2.8,0.9,3.8,1.9c1.5,1.6,1.5,3.8,1.5,5.9c0,1.7,0,3.4,0.8,4.6c1.1,1.7,3.5,2.1,5.8,2.6l0.5,0.1&#10;&#9;&#9;c2.1,0.4,5.8,1.5,6.4,4.7c0.1,0.7,0.1,1.3,0,2c0,0.3-0.1,0.6-0.1,0.9c0,2.5,1.5,4.7,3.8,5.7c1.2,0.4,2.5,0.6,3.7,0.7&#10;&#9;&#9;c2.4,0.3,4.9,0.5,6.3,2.6c0.5,0.7,0.8,1.5,1,2.3c0.2,0.6,0.4,1.1,0.6,1.6c1,1.9,3.4,2.5,5.3,2.3c-2-0.2-3.7-1.4-4.5-3.2&#10;&#9;&#9;c-0.4-1.2-0.5-2.5-0.4-3.8c0.2-1.1,0-2.3-0.4-3.4c-0.9-1.3-2.3-2-3.8-2c-0.9,0-1.8,0-2.7,0.1c-0.8,0-1.6,0.1-2.4,0.1&#10;&#9;&#9;c-0.8,0-1.7-0.2-2.3-0.8c-0.6-0.6-0.8-1.4-0.8-2.3c0-0.8,0.1-1.6,0.3-2.4c0.3-2.2,0.6-4.4-0.8-5.5c-0.9-0.7-2.1-0.7-3.5-0.6&#10;&#9;&#9;c-1.5,0.2-3-0.1-4.3-0.9c-1.7-1.3-1.9-3.3-2-5.3c0-0.8-0.1-1.6-0.3-2.3c-0.9-3.9-5-6-8.7-8c-5.6-2.9-8.3-6.2-8.3-9.9&#10;&#9;&#9;c0-0.8,0.1-1.5,0.3-2.3c0.1-0.5,0.2-1.1,0.2-1.6c0-2.8-1-5.5-3-7.6l-0.3-0.3c-0.6-0.6-1-1.3-1.4-2c-0.7-1.6-0.4-3.3-0.1-4.9&#10;&#9;&#9;c0.2-0.8,0.3-1.6,0.4-2.5c-0.1-1.5-0.4-3-1-4.4c-0.7-2.1-1.4-4.3-0.7-6.5c0.3-0.8,0.7-1.6,1.2-2.3c0.3-0.4,0.5-0.8,0.7-1.2&#10;&#9;&#9;c0.7-1.7,1.1-3.6,1.1-5.4c-0.1-3.8,1.5-7.4,4.4-9.8l0.6-0.6c4.4-4.5,7.6-10.1,9.4-16.1c0.1-0.4,0.5-0.6,0.9-0.5&#10;&#9;&#9;c0.4,0.1,0.6,0.5,0.5,0.9c-1.8,6.3-5.1,12-9.7,16.8l-0.6,0.6c-2.7,2.2-4.2,5.5-4,8.9c-0.1,2-0.5,4.1-1.3,5.9&#10;&#9;&#9;c-0.2,0.5-0.5,0.9-0.8,1.4c-0.4,0.6-0.7,1.3-1,1.9c-0.6,1.8,0,3.6,0.7,5.6c0.6,1.5,0.9,3.2,1,4.8c0,0.9-0.2,1.8-0.4,2.8&#10;&#9;&#9;c-0.3,1.5-0.6,2.9-0.1,4.1c0.3,0.6,0.7,1.1,1.2,1.6l0.3,0.3c2.4,2.8,3.6,5.8,3.3,8.6c-0.1,0.6-0.1,1.2-0.2,1.7&#10;&#9;&#9;c-0.1,0.7-0.2,1.3-0.3,2c0,3.1,2.4,5.9,7.5,8.6c3.7,2,8.4,4.4,9.4,8.9c0.2,0.8,0.3,1.7,0.3,2.6c0.1,1.8,0.3,3.4,1.4,4.3&#10;&#9;&#9;c1.1,0.6,2.3,0.8,3.5,0.6c1.5,0,3.1,0,4.4,0.9c2.1,1.6,1.7,4.4,1.4,6.8c-0.1,0.8-0.2,1.5-0.2,2.3c-0.1,0.4,0,0.9,0.3,1.3&#10;&#9;&#9;c0.4,0.3,0.8,0.4,1.3,0.4c0.8,0,1.5,0,2.3-0.1c1-0.1,2-0.1,2.9-0.1c2,0,3.9,1.1,5,2.8c0.6,1.3,0.8,2.7,0.6,4.1&#10;&#9;&#9;c-0.1,1.1,0,2.2,0.3,3.2c0.7,1.8,2.9,2.5,4.6,2.4c2-0.3,4-0.9,5.7-1.9c0.3-0.2,0.8,0,1,0.3c0.2,0.3,0.1,0.8-0.2,1c0,0,0,0,0,0&#10;&#9;&#9;c-2,1.4-4.4,2.9-7,3.4C274.7,255.9,274.2,255.9,273.7,255.9z"/>
	<path class="st0_daenerys-targaryen-93" d="M244.6,194.1c0,0,11.9-1.2,20.3,0"/>
	<path class="st1_daenerys-targaryen-93" d="M264.8,194.8h-0.1c-8.2-1.1-20,0-20.1,0c-0.4,0-0.7-0.3-0.8-0.7c0-0.4,0.2-0.7,0.6-0.7c0.1,0,12.1-1.2,20.5,0&#10;&#9;&#9;c0.4,0,0.7,0.4,0.7,0.8C265.6,194.6,265.2,194.9,264.8,194.8L264.8,194.8z"/>
	<path class="st0_daenerys-targaryen-93" d="M257,165.1c0.2,0.9,5.7,18.4,3.9,18.9s-6.2,0-6.2,0"/>
	<path class="st1_daenerys-targaryen-93" d="M258.5,184.9c-1.3,0-2.6-0.1-3.9-0.2c-0.4,0-0.7-0.4-0.6-0.8c0-0.4,0.4-0.7,0.8-0.6c1.9,0.3,3.8,0.3,5.7,0.1&#10;&#9;&#9;c0.2-0.7,0-3.8-3.9-16.9c-0.2-0.6-0.3-1-0.3-1.2c-0.1-0.4,0.2-0.8,0.6-0.8c0.3,0,0.7,0.1,0.8,0.5c0,0.1,0.1,0.5,0.3,1.1&#10;&#9;&#9;c4.2,14.2,4.3,17.1,3.7,18.1c-0.1,0.3-0.4,0.5-0.6,0.5C260.2,184.9,259.4,185,258.5,184.9z"/>
	<path class="st1_daenerys-targaryen-93" d="M166.9,389.1L166.9,389.1c-0.4,0-0.7-0.4-0.7-0.7c0,0,0,0,0,0c1.9-49.8,5.2-89,15.9-131&#10;&#9;&#9;c0.1-0.4,0.5-0.6,0.9-0.5c0.4,0.1,0.6,0.5,0.5,0.9l0,0c-10.7,41.9-14,81-15.9,130.7C167.6,388.8,167.3,389.2,166.9,389.1&#10;&#9;&#9;C166.9,389.1,166.9,389.1,166.9,389.1z"/>
	<path class="st1_daenerys-targaryen-93" d="M188,372.7L188,372.7c-0.4,0-0.7-0.3-0.7-0.7c0,0,0,0,0,0c0.2-15.6,1.5-28.6,2.6-41.3&#10;&#9;&#9;c1.2-13.3,2.5-27,2.6-43.3c0-0.4,0.3-0.7,0.7-0.7l0,0l0,0c0.4,0,0.7,0.3,0.7,0.7l0,0c-0.1,16.4-1.4,30.2-2.6,43.5&#10;&#9;&#9;c-1.2,12.6-2.4,25.6-2.6,41.1C188.7,372.4,188.4,372.7,188,372.7C188,372.7,188,372.7,188,372.7z"/>
	<path class="st0_daenerys-targaryen-93" d="M219.9,225.2c0,0,5.9,4,9.2,4.9s6.6-1,5.8-3s-9.2-6.3-9.2-6.3c-0.6-0.1-1.2,0.2-1.3,0.8c0,0.2,0,0.4,0,0.6&#10;&#9;&#9;c0,0,3.6,1.7,4.5,3.1s0.5,1.9-0.6,1.6s-6.1-3.7-6.1-3.7S220.4,222.2,219.9,225.2z"/>
	<path class="st1_daenerys-targaryen-93" d="M230.8,231c-0.6,0-1.2-0.1-1.9-0.2c-3.4-0.9-9.2-4.8-9.4-5c-0.2-0.2-0.3-0.4-0.3-0.7c0-1.1,0.6-2,1.4-2.6&#10;&#9;&#9;c0.6-0.3,1.3-0.3,1.8,0c1.9,1.4,3.9,2.6,6,3.6h0.1c-0.1-0.2-0.2-0.4-0.3-0.5c-0.7-1-3.3-2.4-4.2-2.8c-0.2-0.1-0.4-0.3-0.4-0.5&#10;&#9;&#9;c-0.1-0.6,0-1.3,0.4-1.7c0.5-0.4,1.1-0.6,1.7-0.5c0.1,0,0.2,0,0.2,0.1c1.4,0.8,8.6,4.6,9.6,6.7c0.4,0.9,0.2,1.9-0.4,2.5&#10;&#9;&#9;C234,230.4,232.4,231.1,230.8,231z M220.7,224.9c1.4,0.9,5.9,3.8,8.6,4.5c1.6,0.5,3.4,0.1,4.7-1c0.3-0.3,0.4-0.7,0.2-1&#10;&#9;&#9;c-0.5-1.2-5.4-4.1-8.8-5.9c-0.1,0-0.3,0-0.3,0.1s0,0.1-0.1,0.1c1,0.5,3.5,1.9,4.4,3.1c0.3,0.4,1,1.5,0.5,2.3&#10;&#9;&#9;c-0.2,0.3-0.7,0.7-1.8,0.4s-5.5-3.2-6.4-3.8c0,0-0.1,0-0.2,0c-0.1,0-0.2,0-0.2,0.1C221.2,223.9,220.9,224.1,220.7,224.9&#10;&#9;&#9;L220.7,224.9z"/>
	<path class="st3_daenerys-targaryen-93 targetColor" d="M205.8,221.6l10.2,2.6c3.4,0.8,6.9,1.7,10.2,0.6c1.5-0.5,3.1-1.9,2.6-3.4c-0.1-0.3-0.3-0.6-0.5-0.9&#10;&#9;&#9;c-4.2-5.6-10.7-9-17.6-9.4" style="fill: rgb(221, 28, 26);"/>
	<path class="st1_daenerys-targaryen-93" d="M222.8,225.9c-2.4-0.1-4.7-0.5-6.9-1.1l-10.2-2.5c-0.4-0.1-0.6-0.6-0.4-0.9c0.1-0.3,0.4-0.5,0.8-0.5l10.2,2.6&#10;&#9;&#9;c2.9,0.7,6.6,1.6,9.8,0.6c0.8-0.3,1.5-0.8,2-1.6c0.1-0.3,0.2-0.6,0.1-0.9c-0.1-0.2-0.2-0.5-0.4-0.7c-4.1-5.4-10.3-8.7-17.1-9.1&#10;&#9;&#9;c-0.4,0-0.7-0.4-0.7-0.7c0,0,0,0,0,0c0-0.4,0.4-0.7,0.8-0.7c7.2,0.3,13.9,3.8,18.2,9.6c0.2,0.3,0.4,0.6,0.6,1&#10;&#9;&#9;c0.2,0.7,0.2,1.4-0.1,2c-0.6,1.1-1.7,1.9-2.9,2.3C225.3,225.7,224,225.9,222.8,225.9z"/>
	<path class="st1_daenerys-targaryen-93" d="M245.4,284.8c-1.5-12.8-5.2-25.7-12.6-36.4c-5.4-7.8-19.5-23.8-30.5-15.8c-1.2,1-2.2,2.2-2.9,3.6&#10;&#9;&#9;c-5.3,8.7-9.1,16.9-10.8,26.8c-0.7,4.1-0.6,7.2,2.1,10.3c2.6,3,5.4,5.6,9.3,6.9c0.4,0.1,0.8,0.2,1.1,0.3l6.4,14.5&#10;&#9;&#9;c2.4,5.4,4.8,10.9,8.2,15.8c3.2,4.3,6.8,8.3,10.8,12c3.3,3.2,7.5,6.6,11.9,5.4s6.3-6.4,7.1-10.9&#10;&#9;&#9;C247.5,306.7,246.7,295.6,245.4,284.8z"/>
	<path class="st1_daenerys-targaryen-93" d="M236.7,329.3c-4,0-7.7-3-10.6-5.9c-4-3.7-7.6-7.7-10.9-12.1c-3.4-4.9-5.9-10.5-8.3-15.9l-6.3-14.2&#10;&#9;&#9;c-0.3-0.1-0.6-0.2-0.9-0.2c-4.3-1.4-7.4-4.5-9.6-7.1c-2.8-3.3-3-6.5-2.2-10.9c1.8-11,6.3-19.5,10.9-27.1c0.8-1.4,1.8-2.7,3.1-3.8&#10;&#9;&#9;c2.6-2,6-2.7,9.2-2.1c10.6,1.8,20.4,15.4,22.3,18.1c6.6,9.6,10.9,22,12.7,36.7l0,0c1.2,10.5,2.1,21.6,0.2,32.8&#10;&#9;&#9;c-0.8,4.5-2.7,10.1-7.6,11.5C238,329.2,237.4,329.3,236.7,329.3z M208.9,231.2c-2.2,0-4.4,0.7-6.2,2.1c-1.1,0.9-2,2.1-2.7,3.4&#10;&#9;&#9;c-4.5,7.4-8.9,15.8-10.7,26.6c-0.7,4.1-0.6,6.9,1.9,9.8c2.2,2.6,5,5.4,9,6.7c0.3,0.1,0.7,0.2,1,0.3c0.2,0.1,0.4,0.2,0.6,0.4&#10;&#9;&#9;l6.4,14.5c2.4,5.3,4.8,10.8,8.1,15.6c3.2,4.3,6.8,8.3,10.7,11.9c3.1,3,7.2,6.4,11.3,5.2s5.9-6.3,6.6-10.4c1.9-11,1-22.1-0.2-32.4&#10;&#9;&#9;l0,0c-1.7-14.5-5.9-26.6-12.4-36c-5-7.2-13.6-16.2-21.4-17.5C210.2,231.3,209.6,231.2,208.9,231.2L208.9,231.2z"/>
	<path class="st0_daenerys-targaryen-93" d="M235.2,395.6h62.5l-56-55.7c0,0,1.2-64.6,0-74.2s-3.6-14.7-3.6-14.7c-3.6-14.8-25.1-15.4-32.2-13&#10;&#9;&#9;s-16.8,18.8-17.8,30.2s18.1,86.3,22.2,94.2C211.9,365.6,222.8,379.8,235.2,395.6z"/>
	<path class="st1_daenerys-targaryen-93" d="M297.7,396.3h-62.5c-0.2,0-0.4-0.1-0.6-0.3c-15.1-19.3-23.5-30.5-25-33.3c-4.2-8.1-23.3-82.9-22.3-94.6&#10;&#9;&#9;c1.1-11.9,10.8-28.4,18.3-30.9c5.2-1.7,16.6-1.8,24.5,2.6c4.3,2.2,7.5,6.1,8.6,10.8c0.3,0.7,2.5,5.8,3.6,14.9&#10;&#9;&#9;c1.2,9.3,0.1,68.5,0,74l55.7,55.5c0.3,0.3,0.3,0.8,0,1C298,396.3,297.8,396.4,297.7,396.3L297.7,396.3z M235.5,394.9h60.4&#10;&#9;&#9;l-54.7-54.5c-0.1-0.1-0.2-0.3-0.2-0.5c0-0.6,1.2-64.6,0-74.1s-3.5-14.5-3.6-14.6c-1.1-4.4-4-8-8-10.1c-7.6-4.2-18.4-4.1-23.4-2.5&#10;&#9;&#9;c-6.9,2.3-16.3,18.4-17.3,29.6s18.4,86.6,22.1,93.8C212.3,364.8,220.6,375.8,235.5,394.9L235.5,394.9z"/>
	
		<rect x="286.9" y="221.1" transform="matrix(0.6222 -0.7828 0.7828 0.6222 -84.9116 318.5179)" class="st1_daenerys-targaryen-93" width="1.4" height="52.3"/>
	
		<rect x="269.3" y="227.4" transform="matrix(0.4767 -0.8791 0.8791 0.4767 -57.782 359.0719)" class="st1_daenerys-targaryen-93" width="6.7" height="1.4"/>
	<path class="st0_daenerys-targaryen-93" d="M278.3,143.9c5.1,8.1,7.2,17.8,5.9,27.4c-0.3,1.4-0.4,2.9-0.2,4.3c0.4,1.8,1.6,3.4,2.5,5&#10;&#9;&#9;c2.7,4.8,2.7,10.7,0.1,15.6c-1.2,2.2-3,4.5-2.7,7c0.5,3.2,4.2,4.7,6.3,7.3c2,2.5,2.4,5.9,1,8.7c-1,1.9-2.7,3.4-3.8,5.3&#10;&#9;&#9;s-1.3,4.6,0.5,5.9c1,0.7,2.3,0.7,3.4,1.1c2.9,1,4.7,4,4.1,7.1c-0.5,2.1-2,3.9-2.5,6c-0.6,2.9,0.8,5.9,3.6,7.2&#10;&#9;&#9;c1.4,0.6,3,0.7,4.4,1.5c1.9,1.1,3,3.1,2.8,5.3c-2.4-1.8-5.1-3.1-8-3.9c-1.1-0.2-2.1-0.5-3-1.1c-1.9-1.4-2-4.1-1.8-6.4&#10;&#9;&#9;c0.2-2,0.6-4,1.1-6c0.4-1.1,0.5-2.3,0.4-3.4c-0.8-4.1-7.5-3.9-9.6-7.6c-1.4-2.5,0-5.6,1.4-8s2.9-5.4,1.7-8c-0.6-1.1-1.4-2-2.2-2.9&#10;&#9;&#9;c-3.7-4-5.7-9.8-4.1-15c0.8-2.6,2.5-4.8,3.1-7.5c1.6-6.5-3.3-13-2.6-19.6c0.3-2.7,1.6-5.4,1.2-8.1c-0.4-1.8-1.2-3.6-2.3-5.1&#10;&#9;&#9;c-2.2-3.5-4.5-6.9-7-10.3"/>
	<path class="st1_daenerys-targaryen-93" d="M303.8,259.2c-0.2,0-0.3-0.1-0.4-0.1c-2.3-1.8-5-3-7.8-3.7l-0.4-0.1c-1-0.2-2-0.6-2.8-1.1&#10;&#9;&#9;c-1.8-1.2-2.5-3.6-2.1-7.1c0.2-2.1,0.6-4.1,1.1-6.1l0.1-0.2c0.3-0.9,0.4-1.9,0.4-2.9c-0.4-1.9-2.2-2.7-4.4-3.7&#10;&#9;&#9;c-2-0.9-4-1.8-5.1-3.7c-1.6-2.8-0.1-6.1,1.4-8.7s2.7-5.1,1.7-7.4c-0.4-0.8-1-1.6-1.7-2.2l-0.4-0.5c-4.2-4.5-5.8-10.7-4.2-15.7&#10;&#9;&#9;c0.4-1.2,0.9-2.4,1.5-3.5c0.7-1.3,1.2-2.6,1.6-3.9c0.8-3.3-0.2-6.5-1.2-10c-0.9-3.1-1.8-6.2-1.5-9.5c0.1-1,0.3-2.1,0.6-3.1&#10;&#9;&#9;c0.5-1.6,0.7-3.2,0.6-4.8c-0.4-1.7-1.1-3.4-2.2-4.8c-2.2-3.5-4.5-6.9-6.9-10.2c-0.2-0.3-0.2-0.8,0.2-1s0.8-0.2,1,0.2l0,0&#10;&#9;&#9;c2.4,3.4,4.8,6.8,7,10.3c1.2,1.6,2,3.4,2.4,5.4c0.1,1.8-0.1,3.6-0.6,5.3c-0.3,1-0.4,1.9-0.6,2.9c-0.3,2.9,0.5,6,1.4,8.9&#10;&#9;&#9;c1,3.5,2.1,7.1,1.2,10.8c-0.4,1.5-1,2.9-1.7,4.2c-0.6,1.1-1,2.2-1.4,3.3c-1.4,4.5,0.1,10.1,3.9,14.3l0.4,0.4c0.8,0.8,1.5,1.6,2,2.6&#10;&#9;&#9;c1.3,2.9-0.2,6-1.8,8.7c-1.3,2.3-2.6,5.1-1.4,7.3c0.8,1.5,2.7,2.3,4.5,3.1c2.3,1,4.7,2.1,5.2,4.7c0.1,1.2,0,2.4-0.4,3.5l-0.1,0.2&#10;&#9;&#9;c-0.5,1.9-0.9,3.9-1.1,5.9c-0.3,2.9,0.2,4.8,1.5,5.8c0.7,0.4,1.5,0.7,2.3,0.9l0.4,0.1c2.5,0.6,4.9,1.7,7.1,3.1&#10;&#9;&#9;c-0.3-1.4-1.1-2.5-2.3-3.2c-0.7-0.3-1.5-0.6-2.2-0.8c-0.7-0.2-1.4-0.4-2.1-0.7c-3.1-1.4-4.7-4.8-4-8.1c0.3-1.1,0.8-2.1,1.3-3.1&#10;&#9;&#9;c0.5-0.9,0.9-1.9,1.2-2.9c0.5-2.7-1.1-5.3-3.6-6.3c-0.4-0.1-0.7-0.2-1.1-0.3c-0.9-0.1-1.8-0.4-2.5-0.9c-2.1-1.5-1.9-4.6-0.7-6.8&#10;&#9;&#9;c0.5-0.9,1.2-1.8,1.8-2.6c0.7-0.8,1.4-1.7,1.9-2.7c1.3-2.6,0.9-5.7-0.9-8c-0.8-0.8-1.6-1.6-2.5-2.3c-1.8-1.4-3.6-2.9-4-5.3&#10;&#9;&#9;s0.8-4.2,2-6.1c0.3-0.4,0.5-0.9,0.8-1.3c2.5-4.7,2.4-10.3-0.1-14.9c-0.2-0.4-0.5-0.8-0.8-1.2c-1.8-2.3-2.5-5.2-1.8-8.1l0.1-0.5&#10;&#9;&#9;c1.2-9.4-0.8-18.9-5.8-26.9c-0.2-0.3-0.1-0.8,0.2-1c0.3-0.2,0.8-0.1,1,0.2c0,0,0,0,0,0c5.2,8.3,7.3,18.1,6,27.8l-0.1,0.5&#10;&#9;&#9;c-0.2,1.2-0.3,2.4-0.1,3.6c0.3,1.3,0.9,2.4,1.7,3.5c0.3,0.4,0.5,0.9,0.8,1.3c2.8,5.1,2.9,11.2,0.2,16.3c-0.3,0.5-0.5,0.9-0.8,1.4&#10;&#9;&#9;c-1,1.8-2,3.4-1.8,5.1s1.8,3.1,3.5,4.4c1,0.8,1.9,1.6,2.7,2.5c2.1,2.7,2.6,6.4,1,9.5c-0.6,1.1-1.3,2.1-2,3&#10;&#9;&#9;c-0.6,0.7-1.2,1.5-1.7,2.4c-0.9,1.6-1.1,4,0.3,4.9c0.6,0.4,1.3,0.6,2,0.7c0.4,0.1,0.8,0.2,1.2,0.3c3.3,1.1,5.3,4.6,4.6,8&#10;&#9;&#9;c-0.3,1.1-0.8,2.2-1.4,3.2c-0.5,0.9-0.9,1.8-1.2,2.8c-0.5,2.6,0.8,5.3,3.2,6.4c0.6,0.3,1.3,0.5,1.9,0.6c0.9,0.2,1.7,0.5,2.5,0.9&#10;&#9;&#9;c2.2,1.2,3.4,3.6,3.1,6c0,0.3-0.2,0.5-0.4,0.6C304,259.2,303.9,259.2,303.8,259.2z"/>
	<path class="st0_daenerys-targaryen-93" d="M229,226.7c1.6-0.4,3.1-1,4.5-1.7c1.1-0.8-1.1-1.8-1.1-1.8s6.1-1.1,9.5-1.5c0,0-7.8-4.6-9.7-3.4&#10;&#9;&#9;c1.3-1.1,3-1.7,4.7-1.5c3.6,0.2,7.1,1.7,9.7,4.2c0,0,4.5,0.6,5.5,0.8s0.9,2.6,0.5,3s-5.9-0.2-6.5,1s0.4,2.1,2,2.5s5.3,0.1,4.8,1.3&#10;&#9;&#9;s-0.5,2.1-2.7,1.7s-4.1-2-5.5-1c-1.8,1-3.7,1.9-5.7,2.6l-2.6,1.6c-2.4-1.3-4.9-2.5-7.4-3.4C226.3,230.2,229,226.7,229,226.7z"/>
	<path class="st1_daenerys-targaryen-93" d="M236.4,235.1c-0.1,0-0.2,0-0.3-0.1c-2.4-1.3-4.8-2.4-7.3-3.3c-0.8-0.2-1.4-0.7-1.6-1.5c-0.5-1.7,1.1-3.8,1.3-4&#10;&#9;&#9;c0.1-0.1,0.2-0.2,0.4-0.2c1.5-0.4,2.9-0.9,4.2-1.6c-0.3-0.2-0.6-0.4-0.9-0.6c-0.3-0.1-0.5-0.4-0.4-0.8c0-0.3,0.3-0.6,0.6-0.6&#10;&#9;&#9;c0,0,4.1-0.7,7.4-1.2c-3.1-1.7-6.4-2.9-7.2-2.4c-0.3,0.2-0.8,0.1-1-0.2c-0.2-0.3-0.1-0.7,0.1-0.9c1.4-1.3,3.3-1.9,5.3-1.7&#10;&#9;&#9;c3.7,0.2,7.2,1.7,10,4.2c0.9,0.1,4.4,0.6,5.3,0.8c0.7,0.2,1.2,0.8,1.3,1.5c0.2,0.8,0.2,2.2-0.5,2.7c-0.3,0.3-0.8,0.3-2.3,0.3&#10;&#9;&#9;c-1.1,0-3.6,0.1-4,0.5c-0.1,0.2-0.1,0.4,0,0.6c0.4,0.5,0.9,0.8,1.5,0.8c0.6,0.1,1.2,0.2,1.7,0.2c1.6,0.1,3,0.2,3.5,1&#10;&#9;&#9;c0.2,0.3,0.2,0.7,0.1,1.1l-0.1,0.4c-0.4,1.2-1,2.2-3.4,1.8c-0.8-0.2-1.6-0.4-2.4-0.8c-1.2-0.5-2-0.8-2.6-0.4&#10;&#9;&#9;c-1.9,1-3.8,1.9-5.8,2.7l-2.5,1.6C236.8,235.1,236.6,235.1,236.4,235.1z M229.4,227.3c-0.4,0.6-1.1,1.9-0.9,2.5&#10;&#9;&#9;c0,0.2,0.2,0.4,0.7,0.5c2.5,0.9,4.9,2,7.2,3.2l2.3-1.4c1.9-0.8,3.8-1.6,5.6-2.6c1.2-0.8,2.6-0.3,3.9,0.2c0.7,0.3,1.4,0.5,2.1,0.7&#10;&#9;&#9;c1.3,0.3,1.4,0.1,1.7-0.8l0.1-0.2c-0.8-0.2-1.5-0.3-2.3-0.3c-0.7,0-1.3-0.1-1.9-0.2c-1-0.1-2-0.7-2.5-1.6c-0.3-0.6-0.3-1.3,0-1.9&#10;&#9;&#9;c0.5-1.1,2.5-1.2,5.3-1.3c0.5,0,1.1,0,1.4-0.1c0.1-0.4,0-1.4-0.2-1.6c-0.9-0.2-5.4-0.8-5.4-0.8c-0.1,0-0.3-0.1-0.4-0.2&#10;&#9;&#9;c-2.5-2.4-5.8-3.8-9.3-4c-0.7-0.1-1.3,0-2,0.2c2.6,0.8,5.1,2,7.4,3.4c0.3,0.2,0.4,0.5,0.3,0.8c-0.1,0.3-0.3,0.5-0.6,0.6&#10;&#9;&#9;c-2.2,0.3-5.7,0.9-7.8,1.2c0.2,0.2,0.3,0.5,0.3,0.8c0,0.5-0.2,0.9-0.6,1.2C232.5,226.3,231,226.9,229.4,227.3L229.4,227.3z"/>
	<path class="st1_daenerys-targaryen-93" d="M182.7,334.2c-0.3,0-0.6-0.2-0.7-0.6c-2.2-11.8,0.7-62.1,0.9-64.2c0-0.4,0.3-0.7,0.7-0.8&#10;&#9;&#9;c0.4,0,0.7,0.3,0.8,0.7c0,0,0,0.1,0,0.1c0,0.5-3.1,52.2-0.9,63.9c0.1,0.4-0.2,0.8-0.6,0.8c0,0,0,0,0,0L182.7,334.2z"/>
	<path class="st1_daenerys-targaryen-93" d="M179.5,396.3c-0.4,0-0.7-0.3-0.7-0.7c0.1-8.9,0.9-17.7,2.4-26.4c0.1-0.4,0.4-0.7,0.8-0.6&#10;&#9;&#9;c0.4,0.1,0.7,0.4,0.6,0.8c-1.5,8.7-2.3,17.4-2.4,26.2C180.2,396,179.9,396.3,179.5,396.3L179.5,396.3z"/>
</g>
</svg>